<?xml version="1.0" encoding="utf-8"?>
<!-- Generator: Adobe Illustrator 15.0.2, SVG Export Plug-In  -->
<!DOCTYPE svg PUBLIC "-//W3C//DTD SVG 1.1//EN" "http://www.w3.org/Graphics/SVG/1.1/DTD/svg11.dtd" [
	<!ENTITY ns_flows "http://ns.adobe.com/Flows/1.0/">
]>
<svg version="1.1"
	 xmlns="http://www.w3.org/2000/svg" xmlns:xlink="http://www.w3.org/1999/xlink" xmlns:a="http://ns.adobe.com/AdobeSVGViewerExtensions/3.0/"
	 x="0px" y="0px" width="52px" height="41px" viewBox="0 0 52 41" enable-background="new 0 0 52 41" xml:space="preserve">
<defs>
</defs>
<path fill="#123D5A" d="M50.862,23.371v-0.016c0-0.021-0.006-0.045-0.009-0.068c0.003,0.002,0.007,0.003,0.009,0.004v-4.434
	c0.059-0.055,0.105-0.121,0.134-0.193c0.034,0.005,0.071,0.009,0.107,0.015c0.294-0.641,0.597-1.267,0.487-2.308
	c-0.258-0.094-0.581-0.161-0.931-0.205v-0.003c-0.002-0.053-0.007-0.104-0.015-0.156h0.095v-5.949h-0.062
	c0.008-0.039,0.012-0.08,0.012-0.12h0.05c-0.288-2.942-0.628-6.229-0.971-8.741c-0.028-0.095-0.103-0.143-0.242-0.121
	c0.062,2.341-0.542,5.816-0.827,8.631c-0.064,0.096-0.092,0.219-0.05,0.363c0.007,0.029,0.016,0.053,0.026,0.077v5.701
	c-0.035,0.043-0.064,0.096-0.081,0.159c-0.016,0.058-0.019,0.122-0.011,0.182c-0.281,0.045-0.543,0.104-0.758,0.183
	c-0.039,1.012,0.213,1.729,0.606,2.308c0.02-0.006,0.038-0.008,0.056-0.011c0.021,0.047,0.053,0.09,0.089,0.128l0,0
	c-0.007,0.002-0.015,0.002-0.022,0.003v4.298c-0.018,0.051-0.028,0.104-0.028,0.154v0.052c0,0.028,0.004,0.054,0.008,0.08
	c-0.253,0.039-0.495,0.089-0.708,0.15c-0.08,0.932,0.215,1.486,0.486,2.065c0.021,0.002,0.046,0.002,0.069,0.005
	c-0.008,0.109,0.022,0.223,0.095,0.323c-0.014,0.012-0.03,0.022-0.044,0.036c-0.042,3.157,0.022,6.085,0.072,9.104
	c-0.185-0.035-0.386-0.042-0.601-0.008c-0.084,0.011-0.164,0.03-0.242,0.052c-0.092,0.019-0.18,0.036-0.271,0.058
	c-0.054-0.021-0.106-0.044-0.17-0.059c-0.049-0.013-0.096-0.021-0.143-0.029c-0.23-1.266-2.006-0.984-2.285-2.2
	c0.018,0.222-0.047,0.393-0.161,0.536c-0.204-0.104-0.423-0.169-0.651-0.178c0.031-0.134,0.08-0.278-0.159-0.358
	c0.026,0.142,0.021,0.257,0.001,0.36c-0.223,0.017-0.444,0.082-0.654,0.207c-0.016,0.009-0.029,0.018-0.045,0.024
	c0.016-0.213-0.054-0.469-0.15-0.469c-0.122,0.123-0.135,0.353-0.127,0.604c-0.178,0.079-0.349,0.148-0.515,0.271
	c-0.235,0.043-0.403,0.148-0.44,0.389c-0.021,0.024-0.046,0.042-0.066,0.067c-0.107-0.215-0.178-0.384-0.188-0.362
	c-0.006,0.002-0.018,0.002-0.023,0.006c-0.031-0.089-0.07-0.172-0.117-0.251c-0.219-1.351-0.046-3.096-0.104-4.61h-0.111
	c0.042-0.033,0.078-0.074,0.106-0.12h0.249c0.066-0.462,0.293-0.761,0.242-1.336c-0.168-0.022-0.324-0.039-0.479-0.054
	c0.009-0.062,0.006-0.129-0.018-0.189h0.011v-2.672l0,0c0.054-0.068,0.085-0.154,0.096-0.242h0.148
	c0.055-0.431,0.27-0.701,0.242-1.214c-0.135-0.061-0.297-0.093-0.473-0.113c0.002-0.043,0-0.087-0.014-0.13l0,0v-2.666
	c0.057-0.072,0.086-0.157,0.096-0.246h0.027c0.148-0.458,0.406-0.808,0.363-1.457c-0.176-0.052-0.355-0.094-0.537-0.126
	c0.004-0.051,0.004-0.103-0.006-0.155c-0.013-0.055-0.036-0.109-0.064-0.159v-3.351c0.05-0.067,0.08-0.155,0.08-0.263v-0.105
	c0-0.135-0.05-0.239-0.122-0.314c-0.237-1.978-0.317-4.55-0.687-5.968c-0.002,2.179-0.339,4.021-0.567,5.975
	c-0.083,0.161-0.122,0.354-0.126,0.516c-0.004,0.101,0.029,0.192,0.088,0.271v3.315h0.027c0.002,0.024-0.002,0.046,0.004,0.071
	c0.013,0.052,0.032,0.102,0.059,0.145c-0.195,0.032-0.39,0.079-0.576,0.148c-0.059,0.665,0.085,1.129,0.363,1.457h0.098
	c0.007,0.041,0.016,0.082,0.029,0.12h-0.004v2.561c0,0-0.004,0.001-0.004,0.003c-0.004,0.004-0.01,0.01-0.014,0.015
	c-0.074,0.073-0.123,0.177-0.123,0.313v0.036c-0.118,0-0.234-0.004-0.346-0.015c-0.05,0.577,0.059,0.993,0.242,1.336h0.227
	c0.004,0.042,0.013,0.084,0.027,0.121c-0.004,0-0.006,0-0.01,0c-0.061,0.772,0.086,1.751-0.035,2.458
	c-0.09,0.058-0.16,0.137-0.194,0.253c-0.026,0.098-0.016,0.199,0.021,0.292c-0.091,0.009-0.183,0.021-0.277,0.033
	c-0.088,0.613,0.166,0.886,0.242,1.336h0.092c0.02,0.044,0.047,0.084,0.08,0.12h-0.051c-0.023,0.683-0.014,1.545,0.02,2.273
	c-0.049-0.033-0.1-0.056-0.149-0.086c0.022-0.345,0.088-0.729-0.112-0.852c-0.238,0.271-0.327,0.472-0.395,0.674
	c-0.105-0.016-0.212-0.019-0.318-0.011c-0.102-0.074-0.217-0.125-0.334-0.136c-0.051-0.138-0.115-0.271-0.193-0.394
	c0.217-1.061-0.273-2.062-0.096-3.533h-0.084c0.01-0.04,0.014-0.08,0.014-0.121h0.191c0.135-0.229,0.155-0.574,0.244-0.85
	c-0.151-0.004-0.271-0.009-0.383-0.013c0.016-0.031,0.025-0.063,0.035-0.096c0,0,0-0.002,0-0.003
	c0.008-0.033,0.014-0.066,0.014-0.101v-0.001c0.004-0.07-0.006-0.139-0.031-0.204v-1.891c-0.045-0.014-0.083-0.019-0.123-0.029
	c-0.004-0.03-0.006-0.062-0.012-0.092h0.256c0.021-0.345,0.224-0.506,0.244-0.85c-0.074-0.11-0.235-0.181-0.435-0.223
	c0.009-0.049,0.007-0.094-0.003-0.143h0.072c-0.27-0.693-0.057-1.684,0-2.428h-0.063c0.004-0.027,0.008-0.056,0.008-0.088v-0.052
	c0-0.11-0.031-0.202-0.084-0.271c-0.09-1.383-0.26-3.147-0.469-3.959c0.037,1.524-0.256,2.717-0.36,4.099
	c-0.01,0.041-0.019,0.083-0.019,0.131v0.052c0,0.045,0.008,0.084,0.016,0.122v2.303c-0.041,0.073-0.065,0.153-0.063,0.237
	c-0.12,0.025-0.222,0.056-0.3,0.098c-0.094,0.458,0.146,0.579,0.121,0.971h0.205c-0.024,0.104-0.017,0.214,0.024,0.313
	c-0.193,0.337-0.126,0.937-0.11,1.484c-0.158,0.158-0.177,0.433-0.057,0.621c-0.057,0.002-0.116,0.006-0.184,0.011
	c-0.07,0.394,0.084,0.565,0.121,0.85h0.242c-0.001,0.041,0.004,0.081,0.014,0.121h-0.137c-0.017,0.939,0.107,2.019-0.199,2.667
	c-0.054-0.008-0.105-0.015-0.162-0.021c-0.165-0.018-0.447,0.046-0.68,0.13c-0.017-0.002-0.033-0.002-0.049-0.005v-0.708
	c-0.385-0.064-0.706-0.192-1.117-0.231c-0.005-0.036-0.009-0.078-0.02-0.114c0.087-0.005,0.154-0.041,0.166-0.14
	c-0.141-0.039-0.317-0.267-0.472-0.377c-0.108-0.106-0.237-0.197-0.378-0.271v-0.079c-0.361-0.106-0.666-0.268-1.011-0.387
	c-0.112-0.15-0.249-0.265-0.399-0.346c0.033-0.346-0.061-0.712-0.241-1.025c0.068-0.019,0.136-0.038,0.193-0.063
	c-0.294-0.609-1.269-1.092-1.335-1.685c0,0.198,0,0.395,0,0.59c-0.227,0.058-0.404,0.162-0.556,0.295
	c-0.017-0.025-0.042-0.057-0.071-0.094c0.098-0.147,0.132-0.266,0.02-0.32c-0.099-0.019-0.203-0.036-0.305-0.054
	c-0.025-0.031-0.051-0.064-0.073-0.093c-0.067-0.154-0.16-0.299-0.269-0.424c-0.559-1.268-2.08-1.99-3.71-2.143
	c-0.042-0.061-0.067-0.123-0.08-0.201h0.068c-0.033-0.029-0.059-0.063-0.087-0.098c-0.017-0.095-0.066-0.163-0.135-0.204
	c-0.394-0.772-0.067-2.067-0.507-2.613c0.03,1.433,0.023,2.083-0.486,2.915h0.046c-0.04,0.028-0.076,0.06-0.114,0.089
	c-0.048,0.036-0.076,0.077-0.093,0.119c-1.526,0.163-2.926,0.839-3.487,2.051c-0.176,0.171-0.301,0.388-0.375,0.625
	c-0.092,0.02-0.18,0.044-0.269,0.067c-0.177-0.025-0.35-0.021-0.512,0.011c-0.177-0.223-0.3-0.443-0.294-0.656
	c0,0.25,0,0.499,0,0.749c-0.076,0.031-0.147,0.069-0.216,0.112c-0.387,0.048-0.58,0.286-0.73,0.568
	c-0.195,0.147-0.351,0.349-0.434,0.614c-0.234,0.271-0.377,0.621-0.377,1v0.082c-0.304,0.084-0.584,0.252-0.816,0.548
	c-0.239,0.146-0.452,0.319-0.648,0.509c-0.307,0.108-0.588,0.304-0.801,0.552c-0.225,0.053-0.427,0.128-0.589,0.244
	c0.238,0.091,0.181,0.896-0.122,0.851c-1.219-0.115-0.942-1.729-0.969-3.036h-0.026c0.008-0.036,0.015-0.072,0.015-0.114v-0.007
	h0.253c-0.061-0.385,0.216-0.429,0.12-0.85h-0.422c0.028-0.079,0.037-0.165,0.027-0.25c0.068-0.021,0.125-0.054,0.152-0.114
	c-0.28-0.407-0.041-1.333-0.12-1.943h-0.032c0.003-0.039,0.003-0.08,0-0.119v-0.002h0.151c0.14-0.267,0.313-0.496,0.243-0.971
	c-0.121-0.06-0.255-0.1-0.392-0.127c0.007-0.038,0.012-0.077,0.011-0.117h0.019v-2.428c-0.005,0.002-0.01,0.002-0.017,0.004
	c0.001-0.015,0.006-0.027,0.006-0.04v-0.052c0-0.055-0.012-0.104-0.026-0.149c0.011-0.001,0.027-0.001,0.037-0.006
	c-0.233-1.224-0.282-3.275-0.487-4.126c0.071,1.139-0.457,2.616-0.294,3.934c-0.097,0.074-0.163,0.188-0.163,0.348v0.052
	c0,0.036,0.003,0.07,0.008,0.103c-0.014,0.018-0.03,0.033-0.037,0.057c0.031,0.496,0.032,1.651,0.001,2.262
	c-0.02,0.076-0.02,0.154-0.003,0.232c-0.378,0.164-0.545,0.513-0.119,1.025h0.169v0.002c-0.005,0.039-0.005,0.08,0,0.119h-0.049
	v2.064c0.015-0.002,0.034-0.002,0.049-0.005c-0.01,0.084,0,0.17,0.028,0.248h-0.441c-0.011,0.375,0.149,0.58,0.244,0.85h0.149v0.007
	c0,0.042,0.005,0.078,0.012,0.114h-0.041c-0.038,0.975,0.187,2.209-0.365,2.671c0.101,0.147,0.161,0.333,0.223,0.518
	c-0.415,0.252-0.702,0.688-0.747,1.191c-0.024-0.001-0.052-0.003-0.081-0.01c0.244-0.333-0.275-0.715-0.487-0.971v0.996
	c-0.053,0.01-0.103,0.024-0.154,0.04c0.032-0.715-0.115-1.656,0.034-2.372h-0.118c0.015-0.038,0.028-0.08,0.036-0.12h0.203
	c0.148-0.378,0.283-0.77,0.242-1.336c-0.191-0.029-0.367-0.048-0.534-0.059c0.003-0.063,0.005-0.124,0.005-0.185h0.045v-2.606
	c0.05-0.099,0.088-0.201,0.125-0.308h0.117c0.184-0.343,0.293-0.759,0.242-1.336c-0.159-0.014-0.326-0.026-0.495-0.036
	c0.001-0.028,0-0.056-0.001-0.085h0.012v-2.792h-0.037c0.009-0.035,0.017-0.071,0.027-0.105c0-0.003,0.004-0.009,0.005-0.015h0.126
	c0.2-0.406,0.429-0.787,0.363-1.457c-0.155-0.047-0.314-0.081-0.474-0.106c0.005-0.187,0.036-0.368-0.01-0.551v-3.035
	c0.097-0.175,0.103-0.394-0.077-0.537c-0.016-0.012-0.033-0.023-0.048-0.035c0.007-1.76-0.573-3.868-0.484-6.055
	c0-0.124-0.212-0.154-0.242,0c0.121,1.75-0.298,3.871-0.454,5.793c-0.03,0.039-0.055,0.084-0.069,0.141
	c-0.04,0.138-0.004,0.269,0.069,0.379h-0.032v3.643h0.049v0.236c-0.221,0.027-0.439,0.069-0.656,0.128
	c-0.019,0.625,0.156,1.059,0.365,1.457h0.083c0.008,0.015,0.016,0.032,0.024,0.048c0.009,0.025,0.02,0.05,0.032,0.072h-0.019v2.792
	h0.057c-0.003,0.057-0.002,0.114,0,0.17c-0.554,0.151-0.814,0.511-0.3,1.287h0.099c-0.013,0.122,0.01,0.249,0.058,0.364
	c0.007,0.029,0.008,0.072,0.007,0.123c-0.096,0.176-0.062,0.353,0.033,0.487c0.006,0.024,0.014,0.05,0.02,0.074
	c-0.032,0.495,0.033,1.086,0.03,1.609c-0.005,0.01-0.013,0.019-0.017,0.03c-0.01,0.03-0.021,0.061-0.028,0.09
	c-0.013,0.049-0.032,0.085-0.03,0.085c-0.002,0.005-0.005,0.01-0.007,0.013c-0.042,0.082-0.057,0.168-0.056,0.252
	c-0.112,0.009-0.229,0.02-0.352,0.029c-0.087,0.613,0.165,0.886,0.244,1.336h0.225c0.011,0.042,0.03,0.082,0.045,0.12h-0.027
	c0.029,1.344-0.029,3.094-0.014,4.273c-0.043,0.088-0.082,0.178-0.111,0.271c-0.01,0.031-0.015,0.062-0.021,0.095
	c-0.22,0.025-0.434,0.093-0.625,0.195c-0.155-0.096-0.312-0.18-0.409-0.038c-0.309-0.176-0.671-0.282-1.038-0.315
	c-0.208-0.141-0.376-0.322-0.452-0.595c0.078,0.342,0.083,0.256,0.018,0.527c-0.195-0.05-0.383-0.072-0.566-0.067
	C6.958,33.312,6.847,33.127,6.8,32.88c-0.04,0.387-0.231,0.622-0.48,0.799c-0.039,0.023-0.074,0.049-0.113,0.074
	c-0.595,0.356-1.433,0.47-1.57,1.283c-0.069,0.068-0.132,0.141-0.187,0.217c-0.119,0.004-0.237,0.007-0.355,0.01
	c-0.218,0.003-0.413,0.046-0.583,0.115c-0.118,0.001-0.236,0.017-0.355,0.045V25.84c-0.037-0.01-0.077-0.02-0.122-0.032
	c0.008-0.069,0.018-0.138,0.026-0.205C3.2,25.6,3.317,25.6,3.399,25.598C3.653,25,3.93,24.426,3.887,23.533
	c-0.212-0.067-0.448-0.114-0.69-0.153c-0.005-0.135-0.017-0.265-0.04-0.392v-4.189c-0.035-0.004-0.068-0.007-0.102-0.012
	c0.039-0.041,0.069-0.086,0.091-0.134c0.045,0.009,0.088,0.015,0.133,0.025c0.334-0.596,0.646-1.216,0.608-2.185
	c-0.212-0.142-0.507-0.243-0.846-0.307c-0.023-0.065-0.06-0.127-0.108-0.181h0.103v-5.949H3.001
	c-0.003-0.039-0.012-0.081-0.022-0.12h0.056C2.634,6.56,2.074,2.854,2.065,0.104c0.185-0.049,0.018-0.146-0.122,0
	c-0.002-0.122-0.213-0.154-0.244,0c0.383,2.498-0.557,6.355-0.725,9.751C0.918,9.879,0.874,9.931,0.874,9.999v0.052
	c0,0.057,0.033,0.105,0.08,0.133c-0.231,1.596-0.049,4.037-0.091,5.535c-0.099,0.134-0.098,0.329-0.025,0.494
	c-0.333,0.064-0.624,0.16-0.836,0.281c-0.022,0.95,0.341,1.519,0.606,2.185c0.042-0.007,0.083-0.011,0.125-0.017
	c0.024,0.063,0.063,0.124,0.119,0.182v4.253c-0.05,0.091-0.066,0.183-0.075,0.29c-0.273,0.039-0.538,0.087-0.775,0.146
	c-0.02,0.869,0.285,1.416,0.486,2.065c0.047,0,0.113,0.002,0.18,0.002v0.145c0,0.094,0.026,0.171,0.063,0.236v14.547
	c0.784,0.068,1.84-0.14,2.427,0.123v-0.107c0.118,0.028,0.237,0.053,0.361,0.075c0.001,0.01,0.002,0.021,0.005,0.032
	c0.005-0.012,0.02-0.019,0.028-0.027c1.476,0.243,3.313,0.031,4.443,0.031c2.296,0,4.669-0.107,6.964,0.155
	c2.545,0.292,5.286-0.056,7.84-0.18c0.219-0.01,0.439-0.025,0.659-0.043c0.033,0.019,0.066,0.036,0.093,0.063V40.58
	c0.164-0.013,0.329-0.027,0.494-0.041c0.758,0.008,2.187,0.009,3.147,0.002c0.787,0.146,1.637,0.061,2.482,0.068
	c0.223,0.002,0.443,0,0.664-0.004c0.005,0.016,0.006,0.031,0.01,0.046c0.611,0.006,1.108-0.004,1.383-0.095
	c0.308-0.015,0.612-0.031,0.922-0.045c0,0.005,0,0.012,0.001,0.017c0.169,0.164,0.794,0.082,1.198,0.095
	c1.593,0.373,3.736-0.061,5.11,0.032c1.187,0.08,2.348,0.052,3.535,0.052c0.737,0,1.505-0.086,2.267-0.126
	c0.326,0.153,0.926,0.03,1.363,0.07c0.002-0.016,0.004-0.03,0.006-0.048c0.299,0.028,0.596,0.072,0.887,0.152
	c0.436,0.119,0.813,0.061,1.117-0.108c0.067-0.012,0.135-0.022,0.205-0.036c0.008-0.001,0.019-0.002,0.028-0.002
	c0.015-0.003,0.03-0.007,0.048-0.01c0.049-0.01,0.091-0.026,0.137-0.04c0,0.033,0,0.063,0,0.092c1.033-0.071,1.668,0.07,2.428-0.123
	V26.022c0.105-0.111,0.143-0.277,0.114-0.429c0.042,0.002,0.087,0.002,0.13,0.005c0.246-0.563,0.424-1.193,0.363-2.065
	C51.372,23.462,51.124,23.412,50.862,23.371z"/>
</svg>
