<?xml version="1.0" encoding="utf-8"?>
<!-- Generator: Adobe Illustrator 15.0.2, SVG Export Plug-In  -->
<!DOCTYPE svg PUBLIC "-//W3C//DTD SVG 1.1//EN" "http://www.w3.org/Graphics/SVG/1.1/DTD/svg11.dtd" [
	<!ENTITY ns_flows "http://ns.adobe.com/Flows/1.0/">
]>
<svg version="1.1"
	 xmlns="http://www.w3.org/2000/svg" xmlns:xlink="http://www.w3.org/1999/xlink" xmlns:a="http://ns.adobe.com/AdobeSVGViewerExtensions/3.0/"
	 x="0px" y="0px" width="40px" height="24px" viewBox="0 0 40 24" enable-background="new 0 0 40 24" xml:space="preserve">
<defs>
</defs>
<path fill="#ED1C24" d="M39.792,24.102c-0.001-0.191-0.022-0.438-0.055-0.779c-0.127-1.401-3.948-11.08-4.457-12.042
	c-0.511-0.965-0.645-1.385-1.019-1.713c-1.342-1.176-2.294-1.347-5.984-3.85c-0.5-0.354-1.11-0.566-1.771-0.566
	c-1.032,0-1.944,0.512-2.499,1.293C22.898,7.414,22.162,8.6,22.162,8.6l0.51-3.107L11.462,0c0.638,14.32-9.17,13.768-9.17,13.768
	C3.694,21.195,0,22.558,0,22.558v1.544H39.792z"/>
</svg>
