<?xml version="1.0" encoding="utf-8"?>
<!-- Generator: Adobe Illustrator 15.0.2, SVG Export Plug-In  -->
<!DOCTYPE svg PUBLIC "-//W3C//DTD SVG 1.1//EN" "http://www.w3.org/Graphics/SVG/1.1/DTD/svg11.dtd" [
	<!ENTITY ns_flows "http://ns.adobe.com/Flows/1.0/">
]>
<svg version="1.1"
	 xmlns="http://www.w3.org/2000/svg" xmlns:xlink="http://www.w3.org/1999/xlink" xmlns:a="http://ns.adobe.com/AdobeSVGViewerExtensions/3.0/"
	 x="0px" y="0px" width="40px" height="26px" viewBox="0 0 40 26" enable-background="new 0 0 40 26" xml:space="preserve">
<defs>
</defs>
<path fill="#123D5A" d="M40.465,21.134c0.027-0.265-0.203-0.273-0.313-0.402c0.157-0.237,0.056-0.646-0.317-0.646
	c-0.057,0-0.107,0.007-0.154,0.017c-1.033-0.47-2.502-0.507-3.895-0.618c-0.088-0.1-0.225-0.154-0.393-0.119
	c-0.017,0.003-0.035,0.01-0.053,0.014c0.018-0.174,0.002-0.358-0.036-0.552c0.011-0.036,0.024-0.07,0.024-0.113v-0.038
	c0-0.116-0.053-0.219-0.133-0.295c-0.03-0.241-0.322-0.631-0.449-0.853c-1.151,0.042-1.922-0.009-3.166,0v0.018
	c-0.021-0.003-0.04-0.014-0.064-0.014h-0.021c0.042-0.367,0.158-0.664,0.351-0.884c-0.24,0.026-0.163-0.313-0.088-0.176
	c-0.15-0.277-0.438-0.485-0.354-0.792c-0.417-0.071-0.869-0.206-1.19-0.086c-0.031-0.001-0.061-0.002-0.092-0.002
	c0.363-0.357,0.537-0.907,0.844-1.318c-0.098-0.02-0.137-0.099-0.176-0.178c-0.018,0.012-0.039,0.019-0.058,0.028
	c-0.116-0.173-0.356-0.215-0.536-0.124c-0.266-0.064-0.563-0.212-0.726-0.168c0.419-0.929,0.08-2.615,0.438-3.605
	c-0.276-0.713-0.275-1.544-0.352-2.377c-0.142-1.568-0.627-2.931-1.494-3.781c0,0.003-0.002,0.003-0.004,0.006
	c-0.006-0.011-0.01-0.02-0.016-0.032c0.078-0.035,0.117-0.11,0.106-0.238c-0.229,0.025-0.378-0.031-0.353-0.262
	c0.043-0.589,0.351-1.334,0.09-2.025c-0.178-0.469-0.715-0.618-1.056-0.878c-0.362-0.277-0.409-0.573-0.616-0.617
	c-0.514-0.111-0.922,0.229-1.408,0.44c-0.061,0.643-0.747,0.66-0.703,1.407c0.011,0.001,0.026,0.001,0.038,0.002
	c0.007,0.06,0.032,0.115,0.072,0.165c-0.008,0.003-0.015,0.005-0.023,0.009c0,0.732,0.366,0.831,0.177,1.584
	c0.635,0.245,0.698,1.061,1.584,1.056c-0.248,0.398-0.375,0.916-0.529,1.407c-0.102-0.233,0.171-0.519,0-0.529
	c-0.248,0.332-0.353,0.703-0.381,1.099c-0.084,0.127-0.1,0.266-0.006,0.407c0.026,0.709,0.215,1.471,0.211,2.19
	c-0.305-0.188-0.422-0.165-0.508,0.117c-0.004-0.002-0.008-0.005-0.009-0.008c0.059-0.357-0.271-0.617-0.487-0.494
	c-0.042-0.027-0.088-0.046-0.139-0.057c0.001-0.028,0.002-0.056,0-0.086c-0.688-0.548-0.332-2.398-1.408-2.288
	c-0.094,0.563,0.217,0.723,0.352,1.055c-0.127,0.432-0.19,0.924-0.175,1.495c0.544,0.25,0.589,1.145,0.531,1.98
	c-0.028-0.033-0.058-0.061-0.091-0.084v-0.487c-0.281,0.07-0.648,0.058-0.881,0.176c-1.218-0.361-1.989,0.467-2.463,1.144
	c0.104,0.014,0.25-0.015,0.264,0.087c-0.218,0.163-0.663,0.1-0.704,0.44c0.009,0.139,0.225,0.068,0.176,0.265
	c0.129,0.009,0.207-0.036,0.275-0.091c-0.118,0.127-0.216,0.261-0.154,0.479c0.026,0.099,0.075,0.181,0.137,0.251
	c0.015,0.095,0.023,0.201,0.006,0.327c0.309,0.118,0.554,0.148,0.756,0.116c-0.004,0.005-0.007,0.014-0.011,0.021
	c-0.436,0.014-0.891,0.055-1.097,0.306c-0.285-0.08-0.769-0.29-1.056-0.09c0.017,0.045,0.042,0.078,0.07,0.111
	c-0.044,0.009-0.083,0.024-0.12,0.049c-0.137-0.063-0.268-0.1-0.39-0.07c-0.1,0.294,0.073,0.313,0.197,0.386
	c-0.008,0.078,0.001,0.16,0.039,0.239c0.071,0.149,0.168,0.276,0.275,0.397c0.092,0.172,0.204,0.335,0.333,0.475
	c-0.013,0.001-0.025-0.001-0.039-0.001c-0.042-0.047-0.08-0.083-0.101-0.091c-0.285-0.089-0.59,0.042-0.86,0.124
	c-0.097-0.021-0.197,0.002-0.282,0.054c-0.031,0.001-0.062,0.003-0.091-0.001c0.015,0.015,0.032,0.022,0.047,0.035
	c-0.01,0.008-0.022,0.014-0.031,0.023c-0.05,0.044-0.097,0.088-0.145,0.132c-0.091,0.083-0.131,0.219-0.113,0.342
	c-0.008-0.002-0.013-0.002-0.022-0.004c0.007,0.01,0.017,0.018,0.025,0.027c0.001,0.01,0.001,0.021,0.003,0.033
	c0.025,0.08,0.06,0.173,0.097,0.27c-0.071-0.023-0.145-0.041-0.212-0.066c0.074,0.309,0.15,0.618,0.179,0.975
	c-0.085,0.008-0.169,0.028-0.248,0.062c-1.634-0.202-2.763,0.679-3.806,1.351c-0.33,0.023-0.643,0.086-0.901,0.221
	c-0.024,0.013-0.049,0.028-0.073,0.043c-0.833,0.202-1.381,0.692-2.029,1.08c-0.135,0.051-0.267,0.111-0.396,0.177
	c-0.223-0.034-0.417-0.052-0.557-0.036c-0.889,0.102-2.049,1.297-2.902,1.582H5.63C3.754,22.689,1.876,23.626,0,24.566v0.968
	c0.082-0.026,0.169-0.06,0.254-0.089c0.057,0.033,0.121,0.06,0.194,0.06h0.424c0.081,0,0.144-0.021,0.199-0.054
	c12.788,0.193,25.942,0.023,38.865,0.083v-3.695c-0.06-0.059-0.134-0.077-0.216-0.075c-0.001-0.026-0.008-0.049-0.013-0.072
	c0.183-0.012,0.361-0.021,0.493-0.029C40.28,21.477,40.338,21.271,40.465,21.134z"/>
</svg>
