<?xml version="1.0" encoding="utf-8"?>
<!-- Generator: Adobe Illustrator 15.0.2, SVG Export Plug-In  -->
<!DOCTYPE svg PUBLIC "-//W3C//DTD SVG 1.1//EN" "http://www.w3.org/Graphics/SVG/1.1/DTD/svg11.dtd" [
	<!ENTITY ns_flows "http://ns.adobe.com/Flows/1.0/">
]>
<svg version="1.1"
	 xmlns="http://www.w3.org/2000/svg" xmlns:xlink="http://www.w3.org/1999/xlink" xmlns:a="http://ns.adobe.com/AdobeSVGViewerExtensions/3.0/"
	 x="0px" y="0px" width="50px" height="27px" viewBox="0 0 50 27" enable-background="new 0 0 50 27" xml:space="preserve">
<defs>
</defs>
<path fill="#6590A4" d="M40.688,5.41c0.148-0.692-0.432-0.654-0.539-1.091V4.29h-0.007c-0.017-0.085-0.021-0.184,0.007-0.314
	c3.854-0.449,7.855-0.747,10.218-2.688c-1.575-0.378-3.837,0.104-5.557,0.18c-1.019-1.029-4.153-0.328-6.095-0.18
	c-0.002-0.477,0.068-1.023-0.178-1.256c-1.217-0.14-1.907,0.246-3.049,0.181c-0.669-0.071-0.074,1.119-0.537,1.255
	c-0.549-0.131-0.652,0.182-1.074,0.179c-0.027-0.671,1.217-0.664,0.536-1.434c-0.771-0.718-1.198,0.663-1.075,1.434
	c-0.508-0.148-0.465,0.252-0.896,0.18c-0.793,0.051,0.58-0.845-0.537-0.896c-1.063-0.108,0.058,0.928-0.359,1.075
	c-0.727,0.349-1.673,0.476-2.688,0.537c-0.24-1.075,0.955-0.716,0.717-1.793c-0.219-0.253-0.685-0.406-0.896-0.178
	c-0.812,0.527,0.297,0.93,0,1.971c-0.415,0.143-0.594,0.151-1.434,0.18c-1.017-0.169,0.965-1.053-0.181-1.434
	c-1.073,0.037,0.05,1.154-0.536,1.611c-0.85,0.089,0.416-1.227-0.717-1.073C25.277,1.84,25.331,2.893,25.99,2.72
	c-0.619,0.428-0.785,0.256-1.793,0.359c-0.227-0.944,0.373-1.064,0.358-1.793c-0.515-0.327-0.56-0.291-1.253-0.179
	c-0.529,0.939,0.98,0.768,0.716,1.972C18.926,3.483,13.325,3.378,8.065,3.617c0-0.598,0-1.194,0-1.792c-0.896,0-1.793,0-2.689,0
	c-0.273,0.26,0.302,1.507-0.179,1.971c-1.752-0.14-2.974,0.254-4.66,0.18C0.11,4.33,0.114,5.223,0.358,5.769
	C0.397,5.967,0.616,5.986,0.87,5.967v8.843c-0.025,3.792-0.04,7.657-0.333,11.214c-0.179,0-0.357,0-0.537,0c0,0.297,0,0.596,0,0.895
	c0.281,0.042,0.575,0.07,0.87,0.099v0.081h1.22c1.23,0.049,2.533,0.024,3.836,0h3.573c-0.001-1.854,0.409-3.296,0.359-5.198
	c0.327,0.787,0.323,3.922,0.538,5.198c0.18,0,0.359,0,0.538,0c-0.385-4.65-0.646-9.614-0.358-14.52
	c0.102-1.748,0.507-3.521,0.358-5.018c-0.103-1.037-0.536-1.096-0.538-1.792c2.16,0.127,3.871-0.194,5.915-0.18
	c-0.651,1.438-0.358,3.195-0.358,4.839c0,5.445,0,11.594,0,16.67c0.242,0,0.481,0,0.723,0c0.178,0,0.355,0,0.531,0h0.539
	c0.179,0,0.358,0,0.538,0H19c0.119,0,0.239,0,0.358,0h0.717c0.12,0,0.238,0,0.359,0h0.716c0.12,0,0.241,0,0.358,0h0.717
	c0.121,0,0.239,0,0.358,0h0.718c0.119,0,0.238,0,0.359,0h0.716c0.837,0,1.673,0,2.509,0c-0.808-6.841-2.372-13.772-0.896-20.972
	c0.054-0.473-0.375-0.462-0.717-0.537c1.314-0.599,3.567-0.258,5.199-0.539c0.004,3.55,0.078,7.028,0.158,10.5v11.548h0.201
	c3.105,0,6.213,0,9.318,0c1.018,0,2.033,0,3.047,0C42.229,19.874,39.897,13.371,40.688,5.41z M24.377,19.334
	c0.015,0.066,0.018,0.145,0,0.235V19.334z M24.377,17.28v-0.219C24.405,17.149,24.399,17.221,24.377,17.28z M24.377,16.206v-0.222
	C24.405,16.075,24.399,16.147,24.377,16.206z M24.377,15.129v-0.22C24.405,14.999,24.399,15.071,24.377,15.129z M24.377,14.053
	v-0.22C24.405,13.922,24.399,13.995,24.377,14.053z M24.377,12.978v-0.219C24.405,12.848,24.399,12.92,24.377,12.978z M24.377,7.421
	V7.201C24.405,7.291,24.399,7.362,24.377,7.421z M24.377,6.346v-0.22C24.405,6.216,24.399,6.287,24.377,6.346z M24.129,5.947h-0.469
	C23.81,5.956,23.985,5.934,24.129,5.947z M23.053,5.947h-0.469C22.732,5.956,22.911,5.934,23.053,5.947z M21.977,5.947h-0.469
	C21.657,5.956,21.834,5.934,21.977,5.947z M20.76,5.947h-0.326C20.556,5.934,20.665,5.934,20.76,5.947z M18.751,5.947h-0.469
	C18.432,5.956,18.608,5.934,18.751,5.947z M24.377,26.063v-0.22C24.405,25.934,24.399,26.004,24.377,26.063z M24.377,24.988v-0.22
	C24.405,24.857,24.399,24.929,24.377,24.988z M24.377,23.912v-0.22C24.405,23.781,24.399,23.853,24.377,23.912z M24.377,22.976
	v-0.401C24.425,22.66,24.435,22.785,24.377,22.976z M25.452,19.927c0.227,1.935,0.552,4.978,0.897,6.991c-0.479,0-0.957,0-1.434,0
	c-0.018-2.766,0.266-5.23,0.358-7.888C25.602,18.669,25.441,19.832,25.452,19.927z M41.943,26.918c-0.599,0-1.195,0-1.794,0v-4.601
	c0.038-2.249,0.119-4.37,0.18-6.513c0.096-0.275,0.187-0.013,0.18,0.179C40.89,19.725,41.622,23.116,41.943,26.918z"/>
</svg>
