<?xml version="1.0" encoding="utf-8"?>
<!-- Generator: Adobe Illustrator 15.0.2, SVG Export Plug-In  -->
<!DOCTYPE svg PUBLIC "-//W3C//DTD SVG 1.1//EN" "http://www.w3.org/Graphics/SVG/1.1/DTD/svg11.dtd" [
	<!ENTITY ns_flows "http://ns.adobe.com/Flows/1.0/">
]>
<svg version="1.1"
	 xmlns="http://www.w3.org/2000/svg" xmlns:xlink="http://www.w3.org/1999/xlink" xmlns:a="http://ns.adobe.com/AdobeSVGViewerExtensions/3.0/"
	 x="0px" y="0px" width="41px" height="28px" viewBox="0 0 41 28" enable-background="new 0 0 41 28" xml:space="preserve">
<defs>
</defs>
<path fill="#325E82" d="M40.225,14.573l-0.163-0.452V9.729h-1.807v0.698h-0.782V9.729h-1.076v0.698h-0.782V9.729h-1.075v0.698
	h-0.781V9.729h-1.075v0.698h-0.78V9.729h-1.078v0.698h-0.78V9.729h-0.9V2.095l-1.027-1.355V0h-0.368h-0.331l0.044,0.7l-0.869,1.188
	v2.955h-1.168v0.98h-0.779v-0.98h-0.746v0.98h-0.782v-0.98h-0.748v0.98H21.59v-0.98h-0.75v0.98h-0.778v-0.98h-0.748v0.98h-0.779
	v-0.98h-0.749v0.98h-0.779v-0.98h-0.748v0.98h-0.78v-0.98h-0.948V1.478l-1.106-1.108V0h-0.37v0.369l-1.108,1.767v7.512h-1.191v0.779
	H9.975V9.647H8.896v0.779H8.118V9.647H7.039v0.779H6.26V9.647H5.183v0.779h-0.78V9.647H3.326v0.779H2.544V9.647H1.229v4.761
	L0,14.531v0.779l0.822,0.741l0.081,12.436h5.582v-3.365h0.37c0,0-0.273-2.018,0.817-2.021c1.08-0.002,0.865,2.021,0.865,2.021h0.451
	v3.365h7.381V21.51h0.513l-0.014-2.692c0,0,1.346-3.038,3.573-3.03c2.229,0.007,3.406,3.03,3.406,3.03v2.692h0.613v6.978h7.598
	v-3.488h0.287c0,0-0.088-2.031,0.912-2.021c1.047,0.01,0.77,2.021,0.77,2.021h0.37v3.488h5.499V16.052l0.986-0.699v-0.779H40.225z"
	/>
</svg>
