<?xml version="1.0" encoding="utf-8"?>
<!-- Generator: Adobe Illustrator 15.0.2, SVG Export Plug-In  -->
<!DOCTYPE svg PUBLIC "-//W3C//DTD SVG 1.1//EN" "http://www.w3.org/Graphics/SVG/1.1/DTD/svg11.dtd" [
	<!ENTITY ns_flows "http://ns.adobe.com/Flows/1.0/">
]>
<svg version="1.1"
	 xmlns="http://www.w3.org/2000/svg" xmlns:xlink="http://www.w3.org/1999/xlink" xmlns:a="http://ns.adobe.com/AdobeSVGViewerExtensions/3.0/"
	 x="0px" y="0px" width="24px" height="35px" viewBox="0 0 24 35" enable-background="new 0 0 24 35" xml:space="preserve">
<defs>
</defs>
<path fill="#325E82" d="M23.873,4.307c0.056-0.096-0.049-0.11-0.097-0.167c-0.273,0.019-0.553,0.035-0.839,0.048
	c0.021-0.086,0.134-0.075,0.099-0.217c-0.576-0.073-1.154,0.012-1.631,0.239c-0.085,0.077-0.145,0.179-0.287,0.19
	c-0.156,0.015-0.206-0.06-0.337-0.094c-0.861,0.318-1.93,0.079-2.973,0.144c-0.102-0.015-0.046,0.13-0.166,0.095
	c-0.406-0.014-0.78-0.212-1.104-0.286c-0.136-0.031-0.297-0.003-0.431-0.049c-0.092-0.03-0.171-0.129-0.264-0.168
	c-0.178-0.074-0.414-0.14-0.623-0.216c-0.584-0.209-1.253-0.202-1.871-0.312c-0.093-0.171,0.008-0.342,0-0.551
	c-0.004-0.093-0.05-0.194-0.048-0.312c0.007-0.639,0.163-1.618-0.023-2.085c-0.17-0.431-0.989-0.765-1.534-0.434
	c-0.269,0.167-0.53,0.695-0.574,1.2C11.1,2.098,10.981,2.79,10.906,3.396c-0.428,0.079-0.917,0.122-1.293,0.095
	C9.048,3.453,8.468,3.785,7.861,3.827c-0.22,0.016-0.48-0.045-0.692,0S6.775,4.08,6.545,4.116C6.223,4.164,5.817,4.172,5.441,4.188
	C5.076,4.201,4.679,4.273,4.34,4.259C4.233,4.254,4.131,4.197,4.027,4.188C3.734,4.159,3.436,4.18,3.162,4.066
	C3.067,4.064,3.123,4.217,2.996,4.188C2.701,4.129,2.377,3.804,2.111,3.755C1.979,3.73,1.851,3.785,1.726,3.78
	C1.494,3.77,1.272,3.687,1.031,3.755c-0.09,0.114,0.087,0.21,0.072,0.239C0.793,3.987,0.508,4.006,0.241,4.042
	C0.188,4.164,0.138,4.145,0.002,4.188c-0.026,0.187,0.215,0.146,0.12,0.334C0.28,4.545,0.449,4.563,0.479,4.714
	c0.509,0.082,1.023,0.263,1.586,0.263c0.372,0,0.722-0.124,1.053,0c0.364,0.578,0.692,1.338,1.15,1.846
	C4.347,6.91,4.473,7.034,4.58,7.087c0.673,0.33,1.5-0.124,2.346,0c0.615,0.089,1.247,0.601,1.872,0.719
	c0.104,1.32-0.229,2.74-0.191,4.074c0.047,0.063,0.239-0.017,0.286,0.049c-0.018,0.166-0.023,0.341-0.073,0.479
	c0.056,0.141,0.256,0.189,0.289,0.385c0.032,0.181-0.067,0.47-0.099,0.741c-0.025,0.271-0.044,0.566-0.02,0.815
	c0.025,0.282,0.154,0.439,0.214,0.623c0.029,0.097-0.036,0.195,0.071,0.264c0,0.368-0.107,0.754-0.119,1.15
	c-0.004,0.172,0.067,0.354,0.073,0.528c0.029,0.812-0.156,1.736-0.192,2.636c-0.053,1.224,0.275,3.139,0.194,4.171
	c-0.422,0.058-0.401,0.097-0.503,0.164l-0.362,0.002c-0.401,0.071-0.712,0.237-1.142,0.285c-0.131,0.154-0.046,0.523-0.071,0.784
	c-0.185,0.102-0.472,0.1-0.642,0.215c-0.164,2.765-0.519,5.336-0.715,8.067c-0.189,0-0.38,0-0.569,0
	c-0.04,0.698-0.141,1.334-0.143,2.07c2.425,0.046,5.043-0.097,7.352,0.07c2.188,0,4.378,0,6.567,0
	c-0.018-0.719-0.097-1.379-0.145-2.07c-0.216-0.021-0.555,0.078-0.57-0.143c-0.186-2.692-0.477-5.28-0.641-7.995
	c-0.19-0.095-0.549-0.022-0.644-0.215c0-0.237,0-0.474,0-0.712c-0.485-0.11-0.968-0.221-1.354-0.43l-1.101,0.011
	c-0.033-0.013-0.069-0.021-0.101-0.04c-0.041-1.289,0.196-3.822,0.148-5.193c0.127,0,0.271,0.015,0.335-0.049
	c0.075-0.415,0.004-0.801,0.025-1.27c0.02-0.418-0.069-0.883,0-1.199c0.025-0.119,0.166-0.258,0.19-0.385
	c0.031-0.163-0.017-0.35-0.024-0.525c-0.031-0.799-0.002-1.775,0-2.613c0.004-1.561-0.037-2.998-0.095-4.553
	c0.524-0.035,0.9-0.355,1.461-0.504c0.775-0.204,1.737-0.156,2.587-0.192c0.178-0.007,0.36,0.026,0.53,0
	c0.252-0.036,0.563-0.478,0.719-0.72c0.281-0.435,0.467-0.842,0.574-1.343c0.226-0.126,0.434-0.018,0.649,0
	c0.714,0.067,1.401-0.198,2.013-0.31c0.067-0.108,0.154-0.199,0.337-0.193c-0.04-0.215,0.195-0.153,0.189-0.336
	C24.071,4.317,23.998,4.286,23.873,4.307z"/>
</svg>
