<?xml version="1.0" encoding="utf-8"?>
<!-- Generator: Adobe Illustrator 15.0.2, SVG Export Plug-In  -->
<!DOCTYPE svg PUBLIC "-//W3C//DTD SVG 1.1//EN" "http://www.w3.org/Graphics/SVG/1.1/DTD/svg11.dtd" [
	<!ENTITY ns_flows "http://ns.adobe.com/Flows/1.0/">
]>
<svg version="1.1"
	 xmlns="http://www.w3.org/2000/svg" xmlns:xlink="http://www.w3.org/1999/xlink" xmlns:a="http://ns.adobe.com/AdobeSVGViewerExtensions/3.0/"
	 x="0px" y="0px" width="14px" height="52px" viewBox="0 0 14 52" enable-background="new 0 0 14 52" xml:space="preserve">
<defs>
</defs>
<path fill="#6590A4" d="M14.285,49.69c-0.223-0.021-0.572,0.084-0.589-0.146c-0.192-2.779-0.495-5.449-0.663-8.251
	c-0.197-0.1-0.566-0.024-0.663-0.222c0-0.247,0-0.491,0-0.736h-0.081c0-0.199,0-0.394,0-0.571c-1.15-0.794-0.824-3.063-1.132-4.695
	c0.146-0.044,0.29-0.089,0.399-0.166c0.168-0.688-0.137-1.391-0.1-2.101c0.051-0.998-0.053-1.985-0.1-3.029
	c0.082-0.05,0.149-0.117,0.199-0.201c-0.053-1.313-0.332-2.577-0.399-3.763c0.133,0.032,0.2,0.032,0.333,0
	c0.623-0.44,0.682-1.554,0.732-2.465c0.752,0.065,1.804-1.036,1.365-1.729c0.111-0.089,0.205-0.196,0.266-0.334
	c-0.111-0.118-0.051-0.241,0.068-0.434c-0.27-0.159-0.547-0.416-0.9-0.7c-0.121-0.096-0.771-0.705-0.899-0.698
	c-0.116,0.006-0.214,0.443-0.399,0.133c-0.12,0.158-0.233,0.322-0.365,0.467c-0.17-0.154-0.398-0.246-0.533-0.432
	c0.014-1.002-0.012-1.744-0.501-2.299c-0.143-0.164-0.372-0.234-0.433-0.401c-0.039-0.107,0.012-0.269,0-0.366
	c-0.063-0.553-0.354-1.002-0.499-1.564c0.374-0.221,0.076-0.725-0.034-1.031c0.104-0.031,0.232-0.036,0.234-0.168
	c-0.13-0.359-0.271-0.494-0.166-0.965c0.552-0.235,1.146-0.43,1.697-0.666c-0.613,0.017-1.307,0.135-1.865,0.099
	c-0.017-0.049-0.049-0.083-0.066-0.133c0.461-0.46,1.217-0.803,1.599-1.231c-0.298,0.161-0.688,0.288-1.065,0.434
	c-0.338,0.129-0.767,0.452-1.066,0.199c0.253-0.647,0.699-1.278,0.9-1.865c-0.405,0.402-0.811,0.877-1.199,1.264
	c-0.125,0.126-0.271,0.341-0.466,0.302c-0.201-0.665-0.292-1.439-0.5-2.097c-0.074,0.341-0.111,0.75-0.166,1.13
	c-0.054,0.382-0.054,0.794-0.267,1.033c-0.605-0.404-1.106-0.914-1.666-1.365c0.304,0.605,0.688,1.132,1,1.731
	c-0.219,0.213-0.607-0.012-0.932-0.098c-0.368-0.101-0.744-0.212-1.033-0.234c0.503,0.317,1.059,0.583,1.498,0.965
	c-0.343,0.324-1.083,0.249-1.598,0.398c-0.1-0.093-0.291-0.1-0.399-0.099c-0.37-0.833-0.452-1.848-0.766-2.864
	c-0.141-0.454-0.26-0.96-0.365-1.466c-0.114-0.534-0.298-1.1-0.268-1.564C2.467,6.145,2.663,5.79,2.631,5.33
	c-0.015-0.22-0.081-0.517-0.201-0.7c-0.1-0.156-0.413-0.277-0.366-0.566c0.175-0.129,0.194-0.466,0.267-0.599
	C2.576,3.452,2.712,3.549,2.964,3.53c0.082-0.207,0.084-0.493,0.1-0.767c-0.226-0.217-0.683-0.205-1-0.331c0-0.112,0-0.223,0-0.335
	C2.655,1.7,2.829,0.888,2.931,0C2.583,0.41,1.484,0.622,1.032,1.099C0.656,1.499,0.905,1.845,0.9,2.497
	C0.572,2.559,0.26,2.636,0,2.764c0.042,0.303,0.071,0.619,0.201,0.834C0.366,3.583,0.631,3.495,0.733,3.53
	c0.064,0.276-0.114,0.309-0.101,0.533C0.705,4.28,0.948,4.325,1.066,4.497c-0.217,0.516,0.031,0.85-0.034,1.431
	c0.321,0.265,0.112,0.904,0.167,1.466c0.325,0.434,0.288,1.21,0.367,1.898c0.177,1.545,0.479,3.032,0.798,4.329
	c-0.437,0.821-1.3,2.866-0.099,3.464c-0.075,0.107-0.019,0.313,0,0.434c0.284,0.115,0.292,0.508,0.599,0.599
	c-0.184,0.394-0.575,0.876-0.533,1.398c0.022,0.289,0.286,0.426,0.266,0.732c0.061,0.107,0.257,0.076,0.366,0.132
	c0,0.113,0,0.224,0,0.335c0.263,0.175,0.17,0.5,0.334,0.767c-0.421,0.464-1.489,2.584-0.067,2.495
	c-0.067,0.723-0.607,1.48-0.467,2.232c0.028,0.15,0.177,0.255,0.2,0.4c0.053,0.34-0.104,0.64,0.167,0.799
	c-0.129,0.348-0.209,0.666-0.233,0.999c-0.041,0.576,0.177,1.061,0.233,1.633c0.06,0.61,0.052,1.386-0.066,1.998
	c-0.027,0.145-0.122,0.283-0.133,0.435c-0.01,0.126,0.031,0.273,0.033,0.396c0.007,0.729-0.196,1.451-0.133,2.164
	c0.044,0.504,0.231,0.977,0.266,1.467c0.055,0.763-0.195,1.461-0.1,2.231c-0.011,0.089,0.187-0.031,0.133,0.1
	c0.027,0.626-0.36,0.84-0.899,0.898c0,0.213,0,0.425,0,0.638c-0.059,0.187-0.009,0.481-0.03,0.705
	c-0.191,0.104-0.486,0.103-0.662,0.222c-0.169,2.851-0.537,5.506-0.737,8.324c-0.196,0-0.394,0-0.59,0
	c-0.039,0.723-0.145,1.377-0.147,2.137c2.505,0.049,5.207-0.099,7.589,0.073c2.259,0,4.518,0,6.777,0
	C14.412,51.088,14.332,50.404,14.285,49.69z M5.662,12.923c0.052,0.279,0.006,0.657,0.166,0.832c-0.141,0.28-0.284,0.56-0.365,0.898
	c-0.097-0.042-0.237-0.042-0.333,0c-0.07-0.263-0.143-0.522-0.367-0.633c0.056-0.556-0.43-0.567-0.433-1.065
	C4.802,12.973,5.181,12.896,5.662,12.923z"/>
</svg>
