<?xml version="1.0" encoding="utf-8"?>
<!-- Generator: Adobe Illustrator 15.0.2, SVG Export Plug-In  -->
<!DOCTYPE svg PUBLIC "-//W3C//DTD SVG 1.1//EN" "http://www.w3.org/Graphics/SVG/1.1/DTD/svg11.dtd" [
	<!ENTITY ns_flows "http://ns.adobe.com/Flows/1.0/">
]>
<svg version="1.1"
	 xmlns="http://www.w3.org/2000/svg" xmlns:xlink="http://www.w3.org/1999/xlink" xmlns:a="http://ns.adobe.com/AdobeSVGViewerExtensions/3.0/"
	 x="0px" y="0px" width="79px" height="28px" viewBox="0 0 79 28" enable-background="new 0 0 79 28" xml:space="preserve">
<defs>
</defs>
<path fill="#ED1C24" d="M78.999,23.595v-1.967c-9.659-0.938-15.283-5.911-20.812-10.977V8.923c0.006-0.014,0.012-0.024,0.016-0.037
	c0.036-0.283,0.036-0.54-0.004-0.79c0.004-0.043,0.004-0.085,0.004-0.129c0.036-0.119,0.071-0.233,0.077-0.298
	c0.024-0.158-0.01-0.29-0.073-0.401c-0.062-1.665-0.584-3.043-0.837-3.99c-0.183,0.524-0.156,1.383-0.493,2.129
	c0.228-0.807-0.491-0.769-0.653-0.327c-0.39-1.75-0.944-3.611-1.147-5.079c0.126,1.682-0.594,3.571-1.148,5.079
	c-0.046-0.8-0.598-0.034-0.653,0.164c-0.014-0.698-0.275-1.146-0.164-1.966c-0.578,1.247-0.998,2.648-0.996,4.476
	c-0.11,0.229-0.182,0.468-0.228,0.743c-0.039,0.263,0.077,0.481,0.252,0.61c-0.017,0.065-0.065,0.099-0.177,0.07
	C50.61,9.1,49.036,9.134,47.451,9.172l0,0h-0.002c-1.754,0.043-3.514,0.09-5,0h-4.238c-0.004,0.002-0.008,0.002-0.012,0.005
	c-2.995,0.391-7.797-0.279-11.168-0.011c0-0.034,0-0.068-0.01-0.102c-0.042-0.19-0.093-0.38-0.152-0.567
	c-0.004-0.042-0.01-0.088-0.018-0.14h0.041c0.2-2.159-0.43-4.011-0.817-5.08c-0.166,0.325,0.129,1.228-0.326,1.638
	c0.025-0.355-0.584-0.072-0.82-0.164C24.437,3.279,24.288,1.461,23.781,0c0.129,2.04-0.459,3.362-0.981,4.751
	c-0.381-0.051-0.63,0.027-0.82,0.164c-0.177-0.534,0.087-1.508-0.492-1.638c0.094,1.858-0.839,2.692-0.675,4.621
	c-0.05,0.151-0.042,0.322,0.035,0.475c0.021,0.051,0.045,0.099,0.064,0.147h-0.08v2.295C15.229,15.697,9.785,20.738,0.19,21.628
	c-0.253,0.375-0.253,1.591,0,1.967c6.499,0.108,13.433-0.219,19.66,0.163v2.382c-0.076,0.235-0.016,0.526,0.115,0.718
	c0.004,0.003,0.007,0.006,0.011,0.01c-0.094,0.17-0.142,0.381-0.126,0.658h8.193c-0.016-0.159-0.048-0.298-0.093-0.428
	c0.083-0.095,0.138-0.213,0.148-0.34c0.02-0.272,0.008-0.389-0.062-0.598c-0.004-0.316,0.008-0.614,0.17-0.765
	c6.9-2.328,16.197-2.331,22.936,0.164v0.972c-0.002,0.006-0.008,0.011-0.008,0.015c-0.129,0.232-0.091,0.457,0.033,0.619
	c-0.01,0.065-0.025,0.123-0.025,0.197c2.074,0.331,4.674,0.133,7.068,0.141c0.179,0.196,0.46,0.194,0.682,0.066
	c0.089,0.005,0.174-0.015,0.259-0.047c0.06,0.001,0.125,0.001,0.185,0.003c-0.004-0.034-0.021-0.061-0.024-0.093
	c0.173-0.132,0.277-0.344,0.188-0.586c-0.056-0.148-0.111-0.291-0.164-0.436v-2.816H78.999z M1.173,22.283
	c0.036-0.51,0.815-0.275,1.311-0.329C2.584,22.602,1.584,22.148,1.173,22.283z M20.178,12.126c-0.228,0.483-0.757,0.664-0.983,1.146
	C18.874,12.888,19.694,12.249,20.178,12.126z M14.442,17.368c-0.074,0.472-0.706,0.387-0.819,0.818
	C13.372,18.03,13.837,17.207,14.442,17.368z M12.969,17.368c0.145,0.099,0.292,0.197,0.329,0c0.443,0.148-0.168,0.573-0.166,0.818
	C12.776,18.213,13.057,17.604,12.969,17.368z M12.477,17.859c0.222,0.05,0.136,0.41,0.161,0.657h-0.654
	C12.032,18.181,12.43,18.193,12.477,17.859z M12.312,18.842c-0.13,0.415-0.673,0.419-0.981,0.657
	c-0.402,0.345,0.243-0.173,0.162-0.492C11.683,18.869,11.933,18.789,12.312,18.842z M8.381,19.988
	c0.356-0.026,0.074,0.583,0.164,0.821c-0.133-0.088-0.265-0.171-0.492-0.165C7.935,20.197,8.378,20.315,8.381,19.988z M2.812,22.774
	c-0.241-0.041,1.771-0.753,1.803,0H2.812z M6.577,22.774c-0.549-0.104-1.521,0.21-1.799-0.164c0.223-0.597,1.19-0.445,1.799-0.656
	V22.774z M8.708,22.61c-0.333,0.375-1.362,0.059-1.965,0.164v-0.983c0.857,0.038,1.066-0.571,1.965-0.49
	C8.536,21.471,8.371,22.47,8.708,22.61z M8.873,22.774v-1.802c0.673-0.037,1.074-0.348,1.475-0.656
	c0.615-0.062-0.245,1.875,0.327,2.294C10.396,22.984,9.424,22.671,8.873,22.774z M10.839,18.679h0.492
	c0.121,0.504-0.45,0.314-0.329,0.82C10.648,19.524,10.927,18.917,10.839,18.679z M12.638,22.774h-1.799v-2.621
	c0.395-0.424,1.178-0.459,1.473-0.983C13.054,19.74,12.439,21.664,12.638,22.774z M14.77,22.774h-1.801
	c-0.157-2.394-0.158-4.636,1.637-5.08C14.987,19.062,14.661,21.137,14.77,22.774z M16.738,22.774h-1.804
	c-0.01-2.796-0.455-6.027,1.638-6.717C16.954,17.969,16.626,20.589,16.738,22.774z M18.866,22.774h-1.802
	c0.147-3.292-0.745-7.626,1.639-8.685C19.083,16.657,18.758,19.934,18.866,22.774z M20.997,22.774
	c-0.605-0.105-1.632,0.211-1.968-0.164c0.21-3.691-0.853-9.486,1.642-10.417c-0.059,0.654,0.014,1.275,0.258,1.703
	c0.021,0.031,0.041,0.057,0.063,0.082c0.002,0.082,0.003,0.164,0.009,0.246c-0.031,0.3-0.032,0.598,0.011,0.892
	c0,0.009,0.002,0.022,0,0.029c0,0.024,0.012,0.043,0.013,0.066v0.002c-0.042,0.383-0.001,0.892,0.047,1.379
	c-0.032,0.376-0.06,0.753-0.083,1.127c-0.052,0.122-0.054,0.229-0.019,0.319c-0.016,0.227-0.025,0.452-0.041,0.678
	c-0.005,0.106,0.021,0.192,0.054,0.268C20.949,20.626,21.194,22.188,20.997,22.774z M28.043,24.905c0.368-0.354-0.137-0.56,0-1.147
	c0.43,0.169,0.55,0.65,0.981,0.818C28.824,24.812,28.463,24.887,28.043,24.905z M29.188,24.249c-0.38-0.11-0.438-0.544-0.819-0.654
	c-0.027-0.356,0.58-0.074,0.819-0.165V24.249z M29.518,24.576v-0.655C30.163,23.892,30.422,24.724,29.518,24.576z M30.665,24.085
	c-0.342-0.096-0.53-0.345-0.821-0.49c0.139-0.245,0.412-0.354,0.821-0.33V24.085z M30.992,24.249v-0.654
	c0.19,0.244,0.679,0.194,0.655,0.654H30.992z M48.687,24.085c-0.356,0.028-0.073-0.581-0.165-0.82c0.396-0.065,0.354,0.3,0.82,0.165
	C49.193,23.719,48.737,23.701,48.687,24.085z M48.851,24.413c-0.052-0.378,0.473-0.182,0.491-0.492
	c0.222,0.052,0.136,0.41,0.162,0.655C49.213,24.598,49.157,24.376,48.851,24.413z M49.995,24.249
	c-0.244-0.142,0.047-0.244-0.165-0.654c0.192-0.14,0.439-0.217,0.821-0.165C50.541,23.811,50.107,23.869,49.995,24.249z
	 M50.98,24.905c-0.463,0.134-0.426-0.231-0.821-0.164c0.11-0.381,0.546-0.439,0.657-0.82C51.179,23.94,50.886,24.617,50.98,24.905z
	 M52.291,18.517v4.258c-8.45-0.473-17.372-0.108-25.559-0.164v-3.81c0.083-0.893,0.166-1.794-0.031-2.637
	c0-2.024,0.174-4.125,0.357-5.349h25.067c0.151,2.769,0.298,4.036,0.165,6.715h0.037c-0.006,0.158-0.004,0.318,0.006,0.478
	c-0.016,0.006-0.029,0.01-0.043,0.015v0.33c0.02-0.003,0.037-0.003,0.06-0.005c0.002,0.043,0.004,0.088,0.004,0.127
	c0,0.016,0.008,0.024,0.01,0.042H52.291z M77.849,22.283c-0.469-0.02-1.072,0.088-1.308-0.163
	C76.62,21.894,78.018,21.722,77.849,22.283z M74.901,22.446c0.345-0.081,0.432,0.128,0.655,0.164
	c1.964,0.31-0.334,0.359-0.981-0.164H74.901z M72.607,21.954c0.515,0.195,1.235,0.186,1.639,0.492
	c0.024,0.678-1.138,0.171-1.639,0.328V21.954z M72.279,22.774h-1.802v-1.638c0.572,0.249,1.018,0.622,1.802,0.654V22.774z
	 M70.478,19.988c0.333,0.047,0.321,0.445,0.657,0.492c-0.039,0.236-0.491,0.058-0.493,0.329
	C70.284,20.835,70.566,20.227,70.478,19.988z M68.512,20.316c0.564,0.31,1.264,0.484,1.802,0.82c-0.038,0.417-0.16,1.314,0,1.474
	c-0.279,0.374-1.249,0.061-1.802,0.164V20.316z M66.382,17.694c0.422,0.017,0.234,0.642,0.655,0.658
	c-0.051,0.221-0.409,0.135-0.655,0.164V17.694z M67.854,19.334c-0.328,0.473-0.605-0.474-1.146-0.327
	C67.104,18.466,67.58,19.215,67.854,19.334z M66.382,19.007c0.608,0.43,1.245,0.828,1.964,1.146v2.621h-1.964V19.007z
	 M65.728,18.022c-0.244,0.339-0.738-0.456-1.148-0.492C65.034,16.982,65.345,17.956,65.728,18.022z M64.415,17.694
	c0.623,0.418,1.227,0.852,1.805,1.313v3.768h-1.805V17.694z M62.287,16.058c0.641,0.451,1.314,0.869,1.801,1.473v5.244h-1.801
	V16.058z M60.319,14.255c0.58,0.565,1.311,0.982,1.803,1.64v6.88h-1.803V14.255z M59.993,13.272
	c-0.523-0.246-0.653-0.88-1.148-1.146C59.055,12.033,59.949,12.655,59.993,13.272z M58.025,22.61v-3.436
	c0.012-0.043,0.027-0.083,0.033-0.131c0.089-0.814,0.089-1.719,0.079-2.538c-0.004-0.309-0.049-0.595-0.143-0.859
	c-0.025-1.234-0.025-2.388,0.192-3.686c2.92,1.29,1.463,6.95,1.806,10.813C59.385,22.669,58.357,22.985,58.025,22.61z"/>
</svg>
