<?xml version="1.0" encoding="utf-8"?>
<!-- Generator: Adobe Illustrator 15.0.2, SVG Export Plug-In  -->
<!DOCTYPE svg PUBLIC "-//W3C//DTD SVG 1.1//EN" "http://www.w3.org/Graphics/SVG/1.1/DTD/svg11.dtd" [
	<!ENTITY ns_flows "http://ns.adobe.com/Flows/1.0/">
]>
<svg version="1.1"
	 xmlns="http://www.w3.org/2000/svg" xmlns:xlink="http://www.w3.org/1999/xlink" xmlns:a="http://ns.adobe.com/AdobeSVGViewerExtensions/3.0/"
	 x="0px" y="0px" width="28px" height="30px" viewBox="0 0 28 30" enable-background="new 0 0 28 30" xml:space="preserve">
<defs>
</defs>
<path fill="#325E82" d="M0.229,30.394h2.414c0.082-0.369-0.152-1.056,0.114-1.24h0.662c-0.083,0.205-0.227,0.899-0.076,1.24h3.531
	c0.01-0.02,0.022-0.037,0.03-0.059c0.008-0.012,0.013-0.024,0.018-0.039c0.136-0.395,0.029-0.992,0.029-1.473v-2.099h1.875
	c0.019,0.193-0.069,0.844-0.025,1.36c-0.095,0.28-0.128,0.562-0.062,0.829c-0.008,0.008-0.017,0.012-0.024,0.017
	c0.129,0.464,0.046,1.018,0.09,1.463h3.854c0.006-0.013,0.014-0.024,0.02-0.039v-4.291h0.162h2.092h0.463v4.33h3.69v-1.57
	c-0.046-0.003-0.095-0.003-0.145-0.002c0.001-0.04-0.006-0.079-0.018-0.118c0.018,0.003,0.032,0.008,0.052,0.008
	c0.217-0.375,0.096-1.092,0.097-1.684c0.582,0.022,1.265,0.001,1.89-0.073v0.949c-0.002,0.05-0.006,0.102-0.008,0.151
	c-0.033,0.536-0.037,1.058-0.03,1.585c-0.004,0.1-0.003,0.196,0.003,0.293c0.002,0.075,0,0.147,0.004,0.222
	c0.002,0.088,0.031,0.17,0.076,0.239h3.505c0.012-0.581-0.287-1.468,0.532-1.24c0.271,0.186,0.018,0.893,0.125,1.24h2.408
	c-0.043-2.499-0.267-5.317,0.005-7.75h-0.151c0.016-0.065,0.021-0.138,0.008-0.218c0.001,0.004-0.006-0.06-0.016-0.134
	c0.116-0.409,0.313-0.735,0.49-1.082c-0.164-0.083-0.348-0.138-0.54-0.175c-0.002-0.041,0-0.078-0.015-0.123
	c-0.029-0.087-0.061-0.173-0.092-0.259c0.177-2.103-0.326-5.16,0.205-7.17c-0.148-0.018-0.237,0.021-0.308,0.081
	c-0.054-0.066-0.122-0.123-0.217-0.15c-0.021-0.005-0.036-0.021-0.054-0.034c0.01-0.006,0.016-0.002,0.027-0.007
	c0.232-1.436-0.776-3.884,0.109-5.295h-0.596c-0.019-0.038-0.039-0.079-0.061-0.112c0.034,0.002,0.074,0.002,0.104,0.003
	c0.187-0.269,0.18-1.079-0.221-1.104c-0.181,0.002-0.062,0.305-0.22,0.331c-0.09-0.384,0.164-0.423,0.111-0.771
	c-0.026-0.003-0.055-0.008-0.08-0.012c0.021-0.109,0.01-0.221-0.037-0.323c0.013-0.135,0.053-0.241,0.117-0.328
	c-0.394-0.017-0.582-0.686-0.885-1.103c0.063-1.376-0.62-3.094,0-4.305c-0.262-0.31-0.418-0.396-0.773-0.108
	c0.285,0.657,0.434,2.672-0.109,3.42c0.252,0.152,0.042,0.769,0.109,1.104c-0.375,0.211-0.357,0.815-0.881,0.882
	c0.089,0.173,0.059,0.462,0.177,0.607c-0.009,0.051-0.011,0.099-0.005,0.153c-0.104,0.031-0.199,0.071-0.281,0.123
	c0.027,0.199,0.469,0.544,0.109,0.771c-0.025-0.197,0.111-0.555-0.221-0.442c-0.248,0.107-0.21,0.359-0.207,0.741
	c-0.117,0.099-0.182,0.258-0.174,0.418c-0.08,0.003-0.173,0.02-0.281,0.055c0.016,0.426,0.372,0.51,0.33,0.994
	c0.238,1.337-0.275,2.374-0.33,3.199c-0.016,0.236-0.146,0.689,0.032,0.937c-0.038,0.107-0.081,0.208-0.132,0.305
	c-0.014,0.024-0.015,0.048-0.022,0.072c-0.054-0.087-0.134-0.145-0.319-0.102c-0.355,0.328,0.334,0.545,0.33,0.884
	c-0.093,1.352-0.025,3.433-0.003,4.857c-0.074-0.01-0.148-0.024-0.225-0.033c-0.082-1.119,0.179-2.582-0.544-3.059
	c-0.441,1.272-0.018,3.17-1.876,2.427c-1.36-0.543-1.071-2.916-1.1-4.551c0.048-0.106,0.059-0.227,0.03-0.341
	c0.112-0.01,0.215-0.057,0.297-0.185c-0.327-0.147-0.68-0.274-1.031-0.398c0.066-0.138,0.064-0.302-0.008-0.432
	c-0.066-0.672,0.084-1.56-0.396-1.817c-0.138,0.598,0.073,1.05-0.22,1.325h-0.188c-0.082-0.016-0.17-0.025-0.258-0.028
	c-0.057-0.384,0.007-0.76-0.107-1.297c-0.71,0.232,0.078,1.335-0.552,1.546c-0.704-0.073-1.233-0.524-1.845-0.751
	c-0.02-0.053-0.052-0.102-0.082-0.146c0.018,0.005,0.033,0.008,0.051,0.015c-0.141-0.423,0.164-1.751-0.22-2.427
	c-0.218-0.035-0.22,0.147-0.332,0.22c-0.021-0.241,0.089-0.351,0.332-0.331c-0.129-0.237-0.313-0.423-0.551-0.552
	c0.16,0.418-0.304,0.212-0.222,0.552c0.086,0.025,0.218,0.004,0.222,0.111c-0.789,0.385-0.272,1.448-0.523,2.327
	c-0.011,0.016-0.024,0.029-0.036,0.044c-0.049,0.07-0.068,0.143-0.072,0.215c-0.577,0.2-1.219,0.55-1.79,0.785
	c-0.037-0.042-0.075-0.075-0.12-0.106c-0.03-0.593-0.042-0.797-0.108-1.501c-0.47,0.083-0.292,0.813-0.333,1.325
	c-0.193-0.063-0.648,0.134-0.661-0.111c-0.069-0.409,0.179-1.135-0.222-1.214c-0.192,0.805-0.206,1.112-0.22,2.097
	c0.005-0.001,0.011-0.004,0.016-0.005c-0.004,0.035-0.008,0.068-0.005,0.104c-0.412,0.167-0.77,0.368-1.004,0.673
	c0.072-0.019,0.141-0.031,0.211-0.046c-0.066,0.147-0.063,0.32,0.026,0.452c0.125,2.398,0.138,5.148-2.443,4.449
	c-0.397-0.595,0.088-2.073-0.552-2.427C5.609,16.63,5.535,17.4,5.485,18.197c-0.105-0.464-0.155-0.947-0.19-1.425v-2.405
	c-0.005-0.401,0.621-0.537,0.332-0.884c-0.174-0.021-0.269,0.032-0.342,0.11c-0.034-0.107-0.104-0.196-0.205-0.253
	c0.281-1.532-0.798-3.624,0.106-5.263C5.01,7.893,4.831,8.146,4.465,8.085c-0.033-0.041-0.069-0.08-0.112-0.113
	c0.136-0.001,0.268-0.002,0.39-0.003c-0.025-0.454,0.09-1.047-0.331-1.104C4.23,6.866,4.352,7.169,4.192,7.195
	c-0.157-0.479,0.377-0.507,0.11-0.771C4.236,6.411,4.161,6.397,4.087,6.386c0.021-0.055,0.029-0.114,0.029-0.174
	C4.14,6.209,4.171,6.207,4.192,6.203C4.184,6.01,4.216,5.859,4.302,5.761C3.851,5.549,3.694,5.046,3.419,4.658
	c0.038-1.414-0.597-3.155,0-4.413C3.063,0.381,3.334-0.112,2.978,0.024C2.804,0.033,2.892,0.306,2.647,0.245
	c0.249,0.604,0.478,2.635-0.11,3.31C2.79,3.743,2.578,4.396,2.647,4.77c-0.312,0.35-0.597,0.726-0.883,1.102
	C1.82,5.879,1.844,5.915,1.859,5.963C1.741,6.053,1.665,6.21,1.665,6.35v0.039c0,0.048,0.01,0.091,0.022,0.131
	c-0.01,0.005-0.023,0.008-0.032,0.016c0.029,0.199,0.47,0.544,0.11,0.771C1.74,7.109,1.875,6.752,1.544,6.864
	c-0.191,0.146-0.368,0.875-0.11,1.104c0.035-0.001,0.081-0.002,0.121-0.003C1.53,8.007,1.511,8.051,1.501,8.098
	c-0.3,0.007-0.459-0.188-0.62-0.02c0.011,0.274,0.162,0.411,0.256,0.603C1.086,8.952,1.14,9.273,1.2,9.591
	c0.015,0.547,0.077,1.063,0.014,1.576c-0.063,0.509-0.742,1.819-0.111,2.206c0.018,0.001,0.028-0.004,0.042-0.004
	c0.027,0.044,0.061,0.081,0.098,0.114H1.064c-0.014,0-0.025-0.006-0.038-0.006h-0.04c-0.016,0-0.026,0.006-0.04,0.006H0.882
	c0.001,0.005,0.005,0.01,0.008,0.014c-0.062,0.012-0.116,0.031-0.16,0.062c-0.061-0.061-0.144-0.097-0.289-0.075
	c-0.023,1.232,0.311,4.127,0.221,5.85c0,0-0.202,0.159-0.221,0.221c-0.077,0.256-0.115,0.684-0.033,0.983
	c-0.052,0.143-0.042,0.312,0.046,0.459C0.303,20.993,0.149,20.993,0,20.987C0.814,23.298,0.383,27.383,0.229,30.394z M24.936,26.725
	c-0.688-0.009-0.17-1.227-0.33-1.765h0.221C25.244,25.098,25.061,26.411,24.936,26.725z M24.827,3.886
	c0.15-0.35,0.107,0.39,0.109,0.551C24.784,4.789,24.827,4.046,24.827,3.886z M24.715,9.514c0.197-0.015,0.232,0.135,0.439,0.109
	c-0.082,0.66,0.027,0.957,0,1.766h-0.662C24.567,10.536,24.383,9.953,24.715,9.514z M24.163,15.911c0.353-0.361,1.003-0.406,1.324,0
	c0.114,0.565,0.117,1.467,0.109,2.429h-1.434V15.911z M2.978,3.886c0.152-0.35,0.11,0.39,0.111,0.551
	C2.938,4.789,2.98,4.046,2.978,3.886z M2.757,9.623c0.156,0.01,0.312,0.019,0.332-0.109c0.453,0.244,0.117,1.279,0.22,1.875H2.647
	C2.717,10.454,2.665,10.29,2.757,9.623z M3.641,15.801c0.122,0.631,0.107,1.482,0.11,2.47c-0.006,0.022-0.011,0.047-0.016,0.069
	H2.317C2.381,16.944,1.898,15.164,3.641,15.801z"/>
</svg>
