<?xml version="1.0" encoding="utf-8"?>
<!-- Generator: Adobe Illustrator 15.0.2, SVG Export Plug-In  -->
<!DOCTYPE svg PUBLIC "-//W3C//DTD SVG 1.1//EN" "http://www.w3.org/Graphics/SVG/1.1/DTD/svg11.dtd" [
	<!ENTITY ns_flows "http://ns.adobe.com/Flows/1.0/">
]>
<svg version="1.1"
	 xmlns="http://www.w3.org/2000/svg" xmlns:xlink="http://www.w3.org/1999/xlink" xmlns:a="http://ns.adobe.com/AdobeSVGViewerExtensions/3.0/"
	 x="0px" y="0px" width="45px" height="18px" viewBox="0 0 45 18" enable-background="new 0 0 45 18" xml:space="preserve">
<defs>
</defs>
<path fill="#ED1C24" d="M45.107,16.636c-0.436-0.088-0.209,0.481-0.473,0.563v-0.386c0.148-0.545,0.146-1.216,0.06-1.689
	c-0.705-0.295-0.125,0.7-0.688,0.55c-3.208,0-6.415,0-9.624,0c0-0.72,0-1.44,0-2.158c0-0.243,0-0.485,0-0.729
	c1.384-1.413,3.251-2.342,4.674-3.713c-0.279-0.222-0.636-0.371-0.687-0.825c-1.364,0.334-3.706,0.421-5.226,0.137
	c2.03-0.947,3.258-2.698,4.399-4.535c-0.043-0.323-0.65-0.081-0.55-0.552c-1.492,0.1-3.795,0.392-5.772,0.139
	c-0.415-0.731-0.623-1.67-0.964-2.475c-1.504,1.293-4.752,0.84-7.425,0.961C22.817,1.253,22.908,0.475,22.696,0
	c-0.318,0.37-0.049,1.325-0.138,1.923c-2.576-0.173-5.915,0.416-7.287-0.961c-0.588,0.605-0.627,1.755-1.101,2.475
	c-1.989,0.115-4.054,0.197-5.775-0.275c0.097,0.463-0.229,0.503-0.551,0.551c0.975,2.007,2.201,3.76,4.402,4.536
	C11.085,8.755,8.162,8.68,7.158,8.112C6.933,8.435,6.842,8.894,6.335,8.937c0.896,1.392,3.391,2.383,4.673,3.85
	c0,0.963,0,1.926,0,2.888c-3.163,0-6.324,0-9.485,0c-0.592,0.179-0.436-0.391-0.687-0.55c-0.251,0.1-0.439,1.19-0.36,1.697
	c0.025,0.021,0.056,0.038,0.083,0.056v0.171c-0.039-0.04-0.067-0.121-0.083-0.227c-0.069-0.055-0.139-0.116-0.192-0.186
	c-0.449,0.236-0.215,1.157-0.272,1.787c15.079,0,30.154,0,45.233,0C45.191,17.838,45.377,17.007,45.107,16.636z M33.008,15.399
	c-0.824,0-1.651,0-2.475,0c0-0.551,0-1.101,0-1.65c0.823,0,1.65,0,2.475,0C32.996,14.262,32.825,14.808,33.008,15.399z
	 M21.254,15.801c0.197-0.511-0.014-1.426,0.067-2.052c0.627-0.116,1.51,0.066,2.474,0c0,0.684,0,1.367,0,2.052H21.254z
	 M12.247,13.749c0.825,0,1.649,0,2.475,0c0,0.55,0,1.1,0,1.65c-0.825,0-1.649,0-2.475,0C12.247,14.849,12.247,14.299,12.247,13.749z
	"/>
</svg>
