<?xml version="1.0" encoding="utf-8"?>
<!-- Generator: Adobe Illustrator 15.0.2, SVG Export Plug-In  -->
<!DOCTYPE svg PUBLIC "-//W3C//DTD SVG 1.1//EN" "http://www.w3.org/Graphics/SVG/1.1/DTD/svg11.dtd" [
	<!ENTITY ns_flows "http://ns.adobe.com/Flows/1.0/">
]>
<svg version="1.1"
	 xmlns="http://www.w3.org/2000/svg" xmlns:xlink="http://www.w3.org/1999/xlink" xmlns:a="http://ns.adobe.com/AdobeSVGViewerExtensions/3.0/"
	 x="0px" y="0px" width="39px" height="39px" viewBox="0 0 39 39" enable-background="new 0 0 39 39" xml:space="preserve">
<defs>
</defs>
<circle fill="#FFFFFF" cx="19.633" cy="19.634" r="19.633"/>
<path fill="#6590A4" d="M14.146,24.16l5.755,5.623c0.162,0.164,0.39,0.264,0.638,0.264c0.498,0,0.906-0.402,0.906-0.896V10.116
	c0-0.494-0.408-0.896-0.906-0.896c-0.254,0-0.486,0.103-0.647,0.271l-5.742,5.615h-3.57c-1.001,0-1.811,0.81-1.811,1.811v5.434
	c0,1.001,0.81,1.811,1.811,1.811H14.146z M26.537,14.074c-0.434,0.429-0.434,1.13,0,1.565c1.079,1.083,1.747,2.573,1.747,4.221
	c0,1.648-0.674,3.138-1.752,4.22c-0.433,0.436-0.433,1.138,0,1.566c0.431,0.435,1.132,0.435,1.568,0
	c1.48-1.479,2.398-3.526,2.398-5.786c0-2.254-0.91-4.296-2.387-5.777l-0.008-0.008C27.669,13.638,26.972,13.638,26.537,14.074z
	 M25.6,23.143c0.839-0.842,1.354-2.002,1.354-3.283c0-1.282-0.515-2.441-1.354-3.283c-0.435-0.434-1.137-0.434-1.566,0
	c-0.436,0.431-0.436,1.132,0,1.568c0.435,0.438,0.706,1.044,0.706,1.714s-0.271,1.275-0.706,1.716c-0.436,0.435-0.436,1.133,0,1.567
	C24.463,23.572,25.165,23.577,25.6,23.143z"/>
</svg>
