<?xml version="1.0" encoding="utf-8"?>
<!-- Generator: Adobe Illustrator 15.0.2, SVG Export Plug-In  -->
<!DOCTYPE svg PUBLIC "-//W3C//DTD SVG 1.1//EN" "http://www.w3.org/Graphics/SVG/1.1/DTD/svg11.dtd" [
	<!ENTITY ns_flows "http://ns.adobe.com/Flows/1.0/">
]>
<svg version="1.1"
	 xmlns="http://www.w3.org/2000/svg" xmlns:xlink="http://www.w3.org/1999/xlink" xmlns:a="http://ns.adobe.com/AdobeSVGViewerExtensions/3.0/"
	 x="0px" y="0px" width="27px" height="27px" viewBox="0 0 27 27" enable-background="new 0 0 27 27" xml:space="preserve">
<defs>
</defs>
<path fill="#6590A4" d="M0,13.352c0,7.377,5.975,13.354,13.353,13.354c7.376,0,13.353-5.977,13.353-13.354
	C26.705,5.975,20.729,0,13.353,0C5.975,0,0,5.975,0,13.352z M2.781,13.352c0-0.856,0.101-1.691,0.294-2.486l2.488,2.486L5.007,16.69
	l2.226,2.225v3.055C4.54,20.055,2.781,16.907,2.781,13.352z M10.922,3.063C11.7,2.875,12.513,2.78,13.353,2.78
	c0.929,0,1.829,0.124,2.688,0.345l-0.462,0.77l0.557,0.555h1.668l0.462-0.461c0.389,0.205,0.757,0.428,1.112,0.679l-1.018,0.339
	l-1.112,1.113l1.112,0.556v0.558h-1.112v1.112c0,0,0.768,0.556,1.669,0.556c0.885,0,0.489-1.219,1.112-1.668
	c0.628-0.453,1.391-0.352,1.391-0.352l0.362,0.094c0.679,0.896,1.217,1.897,1.586,2.983v0.056c0,0-0.786-0.558-2.227-0.558
	s-2.781,0.558-2.781,0.558s-1.568,0.456-1.669,1.668c-0.174,2.088,0.557,2.782,0.557,2.782l2.781,1.67v5.412
	c-1.819,1.486-4.145,2.377-6.676,2.377c-1.196,0-2.343-0.195-3.417-0.563l2.859-6.67l-0.555-2.783c0,0-2.21-2.781-3.34-2.781
	c-1.129,0-1.668,1.669-1.668,1.669L6.12,10.568l3.337-2.224l1.67-4.45L10.922,3.063z"/>
</svg>
