<?xml version="1.0" encoding="UTF-8" standalone="no"?>
<!-- Generator: Adobe Illustrator 15.0.2, SVG Export Plug-In  -->

<svg
   xmlns:dc="http://purl.org/dc/elements/1.1/"
   xmlns:cc="http://creativecommons.org/ns#"
   xmlns:rdf="http://www.w3.org/1999/02/22-rdf-syntax-ns#"
   xmlns:svg="http://www.w3.org/2000/svg"
   xmlns="http://www.w3.org/2000/svg"
   xmlns:sodipodi="http://sodipodi.sourceforge.net/DTD/sodipodi-0.dtd"
   xmlns:inkscape="http://www.inkscape.org/namespaces/inkscape"
   version="1.1"
   x="0px"
   y="0px"
   width="36px"
   height="36px"
   viewBox="0 0 36 36"
   enable-background="new 0 0 36 36"
   xml:space="preserve"
   id="svg3376"
   inkscape:version="0.91 r13725"
   sodipodi:docname="cinema.svg"><metadata
   id="metadata3422"><rdf:RDF><cc:Work
       rdf:about=""><dc:format>image/svg+xml</dc:format><dc:type
         rdf:resource="http://purl.org/dc/dcmitype/StillImage" /></cc:Work></rdf:RDF></metadata><sodipodi:namedview
   pagecolor="#ffffff"
   bordercolor="#666666"
   borderopacity="1"
   objecttolerance="10"
   gridtolerance="10"
   guidetolerance="10"
   inkscape:pageopacity="0"
   inkscape:pageshadow="2"
   inkscape:window-width="1920"
   inkscape:window-height="1058"
   id="namedview3420"
   showgrid="false"
   inkscape:zoom="18.541911"
   inkscape:cx="9.3748306"
   inkscape:cy="17.463537"
   inkscape:window-x="-8"
   inkscape:window-y="-8"
   inkscape:window-maximized="1"
   inkscape:current-layer="svg3376" />
<defs
   id="defs3378">
</defs>
<g
   id="g3380">
	
		
	<g
   id="g3384">
		<path
   fill="#D0DBE7"
   d="M32.582,17.891c0,8.117-6.576,14.695-14.688,14.695c-8.115,0-14.693-6.578-14.693-14.695    c0-8.111,6.578-14.689,14.693-14.689C26.006,3.201,32.582,9.779,32.582,17.891z"
   id="path3386" />
	</g>
</g>
<rect
   x="8.537"
   y="15.234"
   fill="#123D5A"
   width="17.43"
   height="11.59"
   id="rect3388" />
<rect
   x="7.949"
   y="13.525"
   fill="#FFFFFF"
   width="18.637"
   height="2.387"
   id="rect3390" />
<polygon
   fill="#123D5A"
   points="10.936,13.525 9.023,13.525 7.92,14.441 7.92,15.953 8.016,15.953 "
   id="polygon3392" />
<polygon
   fill="#123D5A"
   points="10.125,15.953 12.035,15.953 14.955,13.525 13.041,13.525 "
   id="polygon3394" />
<polygon
   fill="#123D5A"
   points="14.145,15.953 16.053,15.953 18.973,13.525 17.059,13.525 "
   id="polygon3396" />
<polygon
   fill="#123D5A"
   points="18.16,15.953 20.072,15.953 22.99,13.525 21.078,13.525 "
   id="polygon3398" />
<polygon
   fill="#123D5A"
   points="25.098,13.525 22.182,15.953 24.09,15.953 25.904,14.441 26.586,13.867 26.586,13.525 "
   id="polygon3400" />
<rect
   x="7.914"
   y="9.664"
   transform="matrix(-0.9824 0.1865 -0.1865 -0.9824 36.1928 18.3641)"
   fill="#FFFFFF"
   width="18.638"
   height="2.441"
   id="rect3402" />
<polygon
   fill="#123D5A"
   points="23.227,8.504 25.107,8.146 26.365,8.865 26.652,10.383 26.559,10.402 "
   id="polygon3404" />
<polygon
   fill="#123D5A"
   points="24.484,10.795 22.609,11.148 19.277,9.256 21.158,8.898 "
   id="polygon3406" />
<polygon
   fill="#123D5A"
   points="20.537,11.541 18.662,11.9 15.33,10.006 17.213,9.646 "
   id="polygon3408" />
<polygon
   fill="#123D5A"
   points="16.59,12.295 14.715,12.648 11.383,10.752 13.262,10.395 "
   id="polygon3410" />
<polygon
   fill="#123D5A"
   points="9.316,11.146 12.639,13.041 10.766,13.398 8.695,12.223 7.918,11.771 7.854,11.428 "
   id="polygon3412" />
<polygon
   fill="#123D5A"
   points="7.832,11.455 7.832,15.953 11.957,15.953 "
   id="polygon3414" />
<g
   id="g3416">
	<path
   fill="#E82630"
   d="M15.285,18.649c0-0.52,0.368-0.731,0.817-0.472l4.119,2.379c0.449,0.26,0.449,0.686,0,0.945l-4.119,2.377   c-0.449,0.26-0.817,0.048-0.817-0.472V18.649z"
   id="path3418" />
</g>
</svg>