<?xml version="1.0" encoding="utf-8"?>
<!-- Generator: Adobe Illustrator 15.0.2, SVG Export Plug-In  -->
<!DOCTYPE svg PUBLIC "-//W3C//DTD SVG 1.1//EN" "http://www.w3.org/Graphics/SVG/1.1/DTD/svg11.dtd" [
	<!ENTITY ns_flows "http://ns.adobe.com/Flows/1.0/">
]>
<svg version="1.1"
	 xmlns="http://www.w3.org/2000/svg" xmlns:xlink="http://www.w3.org/1999/xlink" xmlns:a="http://ns.adobe.com/AdobeSVGViewerExtensions/3.0/"
	 x="0px" y="0px" width="36px" height="36px" viewBox="-3.222 -3.222 36 36" enable-background="new -3.222 -3.222 36 36"
	 xml:space="preserve">
<defs>
</defs>
<path fill="#1B3B59" d="M29.574,14.786c0,8.167-6.622,14.787-14.787,14.787C6.623,29.573,0,22.953,0,14.786
	C0,6.623,6.623,0,14.787,0C22.952,0,29.574,6.623,29.574,14.786z"/>
<path fill="#FFFFFF" d="M15.102,22.213c0.016-1.211,0.188-3.002,0.188-3.002c0.034-0.343,0.271-0.81,0.528-1.041l6.633-5.889
	c0.257-0.229,0.187-0.414-0.157-0.414L7.28,11.947c-0.343,0.002-0.414,0.186-0.152,0.414l6.587,5.726
	c0.26,0.229,0.501,0.692,0.534,1.034c0,0,0.187,1.854,0.208,3.093c0.01,0.646-0.008,1.295-0.043,1.942
	c-0.028,0.39-0.046,0.548-0.046,0.548c-0.041,0.342-0.342,0.71-0.67,0.816l-3.523,1.148c-0.327,0.106-0.313,0.192,0.033,0.19
	l9.261-0.047c0.344-0.002,0.354-0.093,0.029-0.191l-3.642-1.147c-0.329-0.102-0.63-0.467-0.67-0.81c0,0-0.017-0.134-0.043-0.51
	C15.11,23.508,15.09,22.858,15.102,22.213z"/>
<rect x="5.694" y="10.449" transform="matrix(0.3894 0.9211 -0.9211 0.3894 16.2052 -2.9536)" fill="#FFFFFF" width="9.273" height="0.594"/>
<path fill="#E11722" d="M11.207,8.597c0.353,0.834-0.04,1.796-0.875,2.148c-0.832,0.354-1.796-0.036-2.15-0.871
	C7.829,9.038,8.22,8.078,9.054,7.725C9.89,7.373,10.851,7.761,11.207,8.597z"/>
<polygon fill="#6892A8" points="9.689,13.775 14.784,18.043 19.833,13.723 "/>
<polygon fill="#DAE3EE" points="2.752,10.087 3.049,11.257 4.223,11.56 3.049,11.858 2.752,13.033 2.45,11.858 1.277,11.56 
	2.45,11.257 "/>
<polygon fill="#DAE3EE" points="15.897,7.672 16.197,8.842 17.371,9.143 16.197,9.443 15.897,10.616 15.596,9.443 14.424,9.143 
	15.596,8.842 "/>
<polygon fill="#DAE3EE" points="21.032,3.873 21.461,5.549 23.137,5.978 21.461,6.409 21.032,8.082 20.602,6.409 18.926,5.978 
	20.602,5.549 "/>
<polygon fill="#DAE3EE" points="11.816,1.412 12.244,3.089 13.919,3.517 12.244,3.947 11.816,5.623 11.387,3.947 9.709,3.517 
	11.387,3.089 "/>
<polygon fill="#DAE3EE" points="6.332,18.658 6.759,20.336 8.433,20.764 6.759,21.196 6.332,22.869 5.9,21.196 4.223,20.764 
	5.9,20.336 "/>
<polygon fill="#DAE3EE" points="22.603,16.284 22.924,17.537 24.178,17.857 22.924,18.18 22.603,19.43 22.284,18.18 21.032,17.857 
	22.284,17.537 "/>
</svg>
