<?xml version="1.0" encoding="UTF-8" standalone="no"?>
<!-- Generator: Adobe Illustrator 15.0.2, SVG Export Plug-In  -->

<svg
   xmlns:dc="http://purl.org/dc/elements/1.1/"
   xmlns:cc="http://creativecommons.org/ns#"
   xmlns:rdf="http://www.w3.org/1999/02/22-rdf-syntax-ns#"
   xmlns:svg="http://www.w3.org/2000/svg"
   xmlns="http://www.w3.org/2000/svg"
   xmlns:sodipodi="http://sodipodi.sourceforge.net/DTD/sodipodi-0.dtd"
   xmlns:inkscape="http://www.inkscape.org/namespaces/inkscape"
   version="1.1"
   x="0px"
   y="0px"
   width="36px"
   height="36px"
   viewBox="0 0 36 36"
   enable-background="new 0 0 36 36"
   xml:space="preserve"
   id="svg3424"
   inkscape:version="0.91 r13725"
   sodipodi:docname="enceinte.svg"><metadata
   id="metadata3464"><rdf:RDF><cc:Work
       rdf:about=""><dc:format>image/svg+xml</dc:format><dc:type
         rdf:resource="http://purl.org/dc/dcmitype/StillImage" /></cc:Work></rdf:RDF></metadata><sodipodi:namedview
   pagecolor="#ffffff"
   bordercolor="#666666"
   borderopacity="1"
   objecttolerance="10"
   gridtolerance="10"
   guidetolerance="10"
   inkscape:pageopacity="0"
   inkscape:pageshadow="2"
   inkscape:window-width="1920"
   inkscape:window-height="1058"
   id="namedview3462"
   showgrid="false"
   inkscape:zoom="6.5555556"
   inkscape:cx="-8.5423729"
   inkscape:cy="18"
   inkscape:window-x="-8"
   inkscape:window-y="-8"
   inkscape:window-maximized="1"
   inkscape:current-layer="svg3424" />
<defs
   id="defs3426">
</defs>
<g
   id="g3428">
	
		
	<g
   id="g3432">
		<circle
   fill="#D0DBE7"
   cx="17.893"
   cy="17.895"
   r="14.691"
   id="circle3434" />
	</g>
</g>
<path
   fill="#E82630"
   d="M25.262,17.203c0,0.691-0.43,1.283-1.037,1.525l0.873,1.064c0.9-0.52,1.52-1.48,1.52-2.59  c0-1.113-0.619-2.074-1.52-2.592l-0.873,1.064C24.832,15.918,25.262,16.508,25.262,17.203z"
   id="path3436" />
<path
   fill="#E82630"
   d="M28.334,17.203c0,1.645-0.848,3.094-2.127,3.936l0.861,1.051c1.576-1.098,2.617-2.922,2.617-4.986  c0-2.068-1.041-3.891-2.617-4.986l-0.861,1.045C27.486,14.107,28.334,15.557,28.334,17.203z"
   id="path3438" />
<rect
   x="9.779"
   y="8.023"
   fill="#123D5A"
   width="12.803"
   height="19.125"
   id="rect3440" />
<path
   fill="#FFFFFF"
   d="M16.182,14.787c-1.559,0-2.834-1.27-2.834-2.83c0-1.564,1.275-2.834,2.834-2.834  c1.561,0,2.83,1.27,2.83,2.834C19.012,13.518,17.742,14.787,16.182,14.787z M16.182,9.688c-1.25,0-2.27,1.02-2.27,2.27  c0,1.252,1.02,2.266,2.27,2.266c1.248,0,2.268-1.014,2.268-2.266C18.449,10.707,17.43,9.688,16.182,9.688z"
   id="path3442" />
<path
   fill="#FFFFFF"
   d="M16.182,25.471c-2.725,0-4.939-2.215-4.939-4.938s2.215-4.936,4.939-4.936c2.721,0,4.936,2.213,4.936,4.936  S18.902,25.471,16.182,25.471z M16.182,16.441c-2.256,0-4.094,1.834-4.094,4.092c0,2.256,1.838,4.092,4.094,4.092  s4.092-1.836,4.092-4.092C20.273,18.275,18.438,16.441,16.182,16.441z"
   id="path3444" />
<path
   fill="#FFFFFF"
   d="M20.055,17.639c-0.518,0-0.941-0.422-0.941-0.938c0-0.52,0.424-0.941,0.941-0.941s0.941,0.422,0.941,0.941  C20.996,17.217,20.572,17.639,20.055,17.639z M20.055,16.322c-0.207,0-0.377,0.17-0.377,0.379c0,0.207,0.17,0.375,0.377,0.375  s0.375-0.168,0.375-0.375C20.43,16.492,20.262,16.322,20.055,16.322z"
   id="path3446" />
<path
   fill="#FFFFFF"
   d="M12.514,17.707c-0.518,0-0.938-0.424-0.938-0.938c0-0.518,0.42-0.939,0.938-0.939  c0.521,0,0.943,0.422,0.943,0.939C13.457,17.283,13.035,17.707,12.514,17.707z M12.514,16.395c-0.205,0-0.373,0.168-0.373,0.375  c0,0.205,0.168,0.373,0.373,0.373c0.209,0,0.377-0.168,0.377-0.373C12.891,16.563,12.723,16.395,12.514,16.395z"
   id="path3448" />
<path
   fill="#FFFFFF"
   d="M12.514,25.33c-0.518,0-0.938-0.424-0.938-0.941c0-0.514,0.42-0.938,0.938-0.938  c0.521,0,0.943,0.424,0.943,0.938C13.457,24.906,13.035,25.33,12.514,25.33z M12.514,24.016c-0.205,0-0.373,0.168-0.373,0.373  c0,0.209,0.168,0.379,0.373,0.379c0.209,0,0.377-0.17,0.377-0.379C12.891,24.184,12.723,24.016,12.514,24.016z"
   id="path3450" />
<path
   fill="#FFFFFF"
   d="M19.676,25.33c-0.516,0-0.939-0.424-0.939-0.941c0-0.514,0.424-0.938,0.939-0.938s0.938,0.424,0.938,0.938  C20.613,24.906,20.191,25.33,19.676,25.33z M19.676,24.016c-0.209,0-0.375,0.168-0.375,0.373c0,0.209,0.166,0.379,0.375,0.379  c0.207,0,0.375-0.17,0.375-0.379C20.051,24.184,19.883,24.016,19.676,24.016z"
   id="path3452" />
<path
   fill="#6590A4"
   d="M18.488,11.953c0,1.275-1.033,2.313-2.307,2.313c-1.275,0-2.309-1.037-2.309-2.313  c0-1.273,1.033-2.305,2.309-2.305C17.455,9.648,18.488,10.68,18.488,11.953z"
   id="path3454" />
<path
   fill="#FFFFFF"
   d="M16.182,12.922c-0.535,0-0.967-0.434-0.967-0.965c0-0.533,0.432-0.967,0.967-0.967  c0.533,0,0.969,0.434,0.969,0.967C17.15,12.488,16.715,12.922,16.182,12.922z M16.182,11.27c-0.379,0-0.686,0.307-0.686,0.688  c0,0.377,0.307,0.684,0.686,0.684s0.682-0.307,0.682-0.684C16.863,11.576,16.561,11.27,16.182,11.27z"
   id="path3456" />
<path
   fill="#6590A4"
   d="M20.432,20.533c0,2.344-1.902,4.25-4.25,4.25c-2.346,0-4.25-1.906-4.25-4.25c0-2.348,1.904-4.25,4.25-4.25  C18.529,16.283,20.432,18.186,20.432,20.533z"
   id="path3458" />
<path
   fill="#FFFFFF"
   d="M16.182,22.701c-1.107,0-2.01-0.9-2.01-2.008c0-1.105,0.902-2.01,2.01-2.01s2.008,0.904,2.008,2.01  C18.189,21.801,17.289,22.701,16.182,22.701z M16.182,19.248c-0.795,0-1.445,0.648-1.445,1.445c0,0.795,0.65,1.443,1.445,1.443  s1.445-0.648,1.445-1.443C17.627,19.896,16.977,19.248,16.182,19.248z"
   id="path3460" />
</svg>