<?xml version="1.0" encoding="UTF-8" standalone="no"?>
<!-- Generator: Adobe Illustrator 15.0.2, SVG Export Plug-In  -->

<svg
   xmlns:dc="http://purl.org/dc/elements/1.1/"
   xmlns:cc="http://creativecommons.org/ns#"
   xmlns:rdf="http://www.w3.org/1999/02/22-rdf-syntax-ns#"
   xmlns:svg="http://www.w3.org/2000/svg"
   xmlns="http://www.w3.org/2000/svg"
   xmlns:sodipodi="http://sodipodi.sourceforge.net/DTD/sodipodi-0.dtd"
   xmlns:inkscape="http://www.inkscape.org/namespaces/inkscape"
   version="1.1"
   x="0px"
   y="0px"
   width="36px"
   height="36px"
   viewBox="0 0 36 36"
   enable-background="new 0 0 36 36"
   xml:space="preserve"
   id="svg3466"
   inkscape:version="0.91 r13725"
   sodipodi:docname="food.svg"><metadata
   id="metadata3494"><rdf:RDF><cc:Work
       rdf:about=""><dc:format>image/svg+xml</dc:format><dc:type
         rdf:resource="http://purl.org/dc/dcmitype/StillImage" /></cc:Work></rdf:RDF></metadata><sodipodi:namedview
   pagecolor="#ffffff"
   bordercolor="#666666"
   borderopacity="1"
   objecttolerance="10"
   gridtolerance="10"
   guidetolerance="10"
   inkscape:pageopacity="0"
   inkscape:pageshadow="2"
   inkscape:window-width="1920"
   inkscape:window-height="1058"
   id="namedview3492"
   showgrid="false"
   inkscape:zoom="6.5555556"
   inkscape:cx="-19.144068"
   inkscape:cy="18"
   inkscape:window-x="-8"
   inkscape:window-y="-8"
   inkscape:window-maximized="1"
   inkscape:current-layer="svg3466" />
<defs
   id="defs3468">
</defs>
<g
   id="g3470">
	
		
	<g
   id="g3474">
		<path
   fill="#D0DBE7"
   d="M32.586,17.893c0,8.113-6.578,14.693-14.693,14.693c-8.111,0-14.691-6.58-14.691-14.693    S9.781,3.201,17.893,3.201C26.008,3.201,32.586,9.779,32.586,17.893z"
   id="path3476" />
	</g>
</g>
<path
   fill="none"
   d="M12.654,24.188h2.809h0.98h7.545c-0.842-2.623-3.285-4.525-6.182-4.557h-0.123  c-2.896,0.031-5.34,1.934-6.182,4.557h0.391H12.654z M17.746,20.289c0.279,0,0.553,0.031,0.824,0.074  c-1.34,0.283-2.432,1.514-2.939,3.172h-2.742C13.689,21.633,15.553,20.289,17.746,20.289z"
   id="path3478" />
<path
   fill="#6590A4"
   d="M27.518,24.842h-1.637h-0.443c-0.545-3.279-3.119-5.859-6.389-6.41h-0.676  c0.295-0.203,0.498-0.525,0.498-0.91c0-0.619-0.504-1.125-1.125-1.125s-1.125,0.506-1.125,1.125c0,0.385,0.205,0.707,0.498,0.91  h-0.676c-3.27,0.551-5.85,3.131-6.389,6.41H9.609h-1.91c-0.451,0,0.01,0.141,0.01,0.32l0.273,0.652c0,0.18,0.361,0.324,0.813,0.324  h0.814h16.271h0.814c0.451,0,1.09-0.145,1.09-0.324l0.547-0.652C28.332,24.982,27.967,24.842,27.518,24.842z"
   id="path3480" />
<path
   fill="#FFFFFF"
   d="M15.125,20.178C14.854,20.129,15.4,20.137,15.125,20.178c-2.467,0.359-3.219,1.646-4.059,3.531l2.191,0.047  C13.309,22.602,13.48,21.381,15.125,20.178z"
   id="path3482" />
<rect
   x="9.898"
   y="24.326"
   fill="#D0DBE7"
   width="15.596"
   height="0.516"
   id="rect3484" />
<path
   fill="#E82630"
   d="M14.793,15.123l-0.877-0.877c0.219-0.244,1.068-1.42,0.961-2.467c-0.053-0.5-0.314-0.918-0.799-1.275  c-0.768-0.559-1.205-1.266-1.301-2.105c-0.189-1.686,1.137-3.238,1.193-3.305l0.938,0.813c-0.01,0.01-1.031,1.215-0.898,2.357  c0.055,0.484,0.316,0.889,0.795,1.24c0.803,0.588,1.244,1.334,1.313,2.227C16.254,13.506,14.805,15.107,14.793,15.123z"
   id="path3486" />
<path
   fill="#E82630"
   d="M18.598,15.123l-0.877-0.877c0.223-0.244,1.07-1.42,0.961-2.467c-0.051-0.5-0.311-0.918-0.801-1.275  c-0.762-0.559-1.201-1.266-1.297-2.105c-0.189-1.686,1.133-3.238,1.193-3.305l0.936,0.813c-0.01,0.01-1.029,1.215-0.896,2.357  c0.057,0.484,0.316,0.889,0.797,1.24c0.801,0.588,1.24,1.334,1.309,2.227C20.059,13.506,18.611,15.107,18.598,15.123z"
   id="path3488" />
<path
   fill="#E82630"
   d="M22.402,15.123l-0.877-0.877c0.221-0.244,1.07-1.42,0.963-2.467c-0.049-0.5-0.313-0.918-0.801-1.275  c-0.766-0.559-1.203-1.266-1.295-2.105c-0.193-1.686,1.133-3.238,1.189-3.305l0.939,0.813c-0.012,0.01-1.033,1.215-0.9,2.357  c0.059,0.484,0.314,0.889,0.799,1.24c0.797,0.588,1.24,1.334,1.309,2.227C23.865,13.506,22.418,15.107,22.402,15.123z"
   id="path3490" />
</svg>