<?xml version="1.0" encoding="UTF-8" standalone="no"?>
<!-- Generator: Adobe Illustrator 15.0.2, SVG Export Plug-In  -->

<svg
   xmlns:dc="http://purl.org/dc/elements/1.1/"
   xmlns:cc="http://creativecommons.org/ns#"
   xmlns:rdf="http://www.w3.org/1999/02/22-rdf-syntax-ns#"
   xmlns:svg="http://www.w3.org/2000/svg"
   xmlns="http://www.w3.org/2000/svg"
   xmlns:sodipodi="http://sodipodi.sourceforge.net/DTD/sodipodi-0.dtd"
   xmlns:inkscape="http://www.inkscape.org/namespaces/inkscape"
   version="1.1"
   x="0px"
   y="0px"
   width="36px"
   height="36px"
   viewBox="0 0 36 36"
   enable-background="new 0 0 36 36"
   xml:space="preserve"
   id="svg3530"
   inkscape:version="0.91 r13725"
   sodipodi:docname="music.svg"><metadata
   id="metadata3552"><rdf:RDF><cc:Work
       rdf:about=""><dc:format>image/svg+xml</dc:format><dc:type
         rdf:resource="http://purl.org/dc/dcmitype/StillImage" /></cc:Work></rdf:RDF></metadata><sodipodi:namedview
   pagecolor="#ffffff"
   bordercolor="#666666"
   borderopacity="1"
   objecttolerance="10"
   gridtolerance="10"
   guidetolerance="10"
   inkscape:pageopacity="0"
   inkscape:pageshadow="2"
   inkscape:window-width="1920"
   inkscape:window-height="1058"
   id="namedview3550"
   showgrid="false"
   inkscape:zoom="6.5555556"
   inkscape:cx="18"
   inkscape:cy="18"
   inkscape:window-x="-8"
   inkscape:window-y="-8"
   inkscape:window-maximized="1"
   inkscape:current-layer="svg3530" />
<defs
   id="defs3532">
</defs>
<g
   id="g3534">
	
		
	<g
   id="g3538">
		<circle
   fill="#D0DBE7"
   cx="17.892"
   cy="17.895"
   r="14.69"
   id="circle3540" />
	</g>
</g>
<path
   fill="#6590A4"
   d="M23.805,26.176c0.699-2.893,1.246-5.939,2.244-8.533c0.512,0.162,1.146,0.199,1.572,0.449  c0-0.076,0-0.15,0-0.225C29.887,20.236,28.457,27.914,23.805,26.176z"
   id="path3542" />
<path
   fill="#6590A4"
   d="M8.988,17.867c0.209,0.412,1.131-0.348,1.793-0.225c0.697,2.746,1.381,5.504,2.021,8.305  c-0.559,0.191-1.68,0.48-2.469,0.453C8.299,25.166,6.828,19.867,8.988,17.867z"
   id="path3544" />
<path
   fill="#123D5A"
   d="M25.598,10.908C20.773,4.334,7.576,7.855,8.988,17.867c0.195,0.383,1.008-0.244,1.654-0.229  c-0.014,0.082-0.02,0.166,0,0.256l1.924,7.93c0.035,0.143,0.125,0.256,0.236,0.338c0,0.004,0,0.006,0,0.014c0.006,0,0.01,0,0.016,0  c0.133,0.086,0.297,0.123,0.463,0.082l1.246-0.301c0.314-0.074,0.508-0.395,0.432-0.711l-1.924-7.936  c-0.078-0.314-0.396-0.508-0.711-0.432l-1.246,0.305c-0.076,0.02-0.146,0.053-0.205,0.096c-0.035-0.021-0.072-0.043-0.092-0.086  C10.027,7.066,26.793,7.041,25.828,17.377c-0.078-0.09-0.178-0.164-0.299-0.193l-1.246-0.305c-0.313-0.076-0.637,0.117-0.711,0.432  l-1.922,7.936c-0.082,0.316,0.115,0.637,0.43,0.711l1.246,0.301c0.166,0.041,0.332,0.004,0.463-0.082c0.004,0,0.008,0,0.016,0  c0-0.01,0.004-0.014,0.004-0.02c0.109-0.08,0.193-0.191,0.229-0.332l1.92-7.904c0.033-0.09,0.059-0.188,0.092-0.277  c0.512,0.162,1.146,0.199,1.572,0.449c0-0.076,0-0.15,0-0.225C27.85,14.645,26.973,12.529,25.598,10.908z"
   id="path3546" />
<path
   fill="#E82630"
   d="M19.422,14.676l-1.037,6.027c-0.172,1.006-1.039,1.688-1.943,1.539c-0.895-0.162-1.484-1.094-1.314-2.096  c0.176-1.006,1.043-1.697,1.943-1.541c0.18,0.029,0.342,0.092,0.488,0.174l1.143-6.625l2.916,3.709c0,0,0.928,1.447-0.418,2.402  C21.199,18.266,21.75,16.809,19.422,14.676z"
   id="path3548" />
</svg>