<?xml version="1.0" encoding="utf-8"?>
<!-- Generator: Adobe Illustrator 15.0.2, SVG Export Plug-In  -->
<!DOCTYPE svg PUBLIC "-//W3C//DTD SVG 1.1//EN" "http://www.w3.org/Graphics/SVG/1.1/DTD/svg11.dtd" [
	<!ENTITY ns_flows "http://ns.adobe.com/Flows/1.0/">
]>
<svg version="1.1"
	 xmlns="http://www.w3.org/2000/svg" xmlns:xlink="http://www.w3.org/1999/xlink" xmlns:a="http://ns.adobe.com/AdobeSVGViewerExtensions/3.0/"
	 x="0px" y="0px" width="20px" height="72px" viewBox="0 0 20 72" enable-background="new 0 0 20 72" xml:space="preserve">
<defs>
</defs>
<path fill="#D0DBE7" d="M19.734,68.645c-0.309-0.029-0.791,0.113-0.814-0.201c-0.266-3.838-0.682-7.529-0.916-11.4
	c-0.27-0.137-0.781-0.031-0.916-0.305c0-0.34,0-0.68,0-1.018l-0.111-0.002c0.002-0.273,0.002-0.539,0-0.787
	c-1.588-1.096-1.139-4.23-1.564-6.486c0.203-0.061,0.4-0.121,0.551-0.232c0.234-0.945-0.186-1.92-0.137-2.898
	c0.072-1.379-0.07-2.742-0.137-4.186c0.115-0.07,0.207-0.162,0.273-0.275c-0.07-1.816-0.455-3.563-0.551-5.201
	c0.184,0.049,0.277,0.049,0.461,0c0.859-0.607,0.941-2.143,1.012-3.402c1.037,0.086,2.492-1.434,1.885-2.393
	c0.156-0.121,0.285-0.271,0.367-0.459c-0.152-0.164-0.07-0.336,0.094-0.598c-0.369-0.221-0.754-0.576-1.242-0.969
	c-0.168-0.133-1.066-0.975-1.242-0.965c-0.158,0.008-0.295,0.609-0.553,0.184c-0.164,0.219-0.322,0.445-0.504,0.645
	c-0.234-0.211-0.549-0.342-0.736-0.598c0.02-1.385-0.014-2.408-0.691-3.176c-0.197-0.227-0.514-0.324-0.598-0.553
	c-0.055-0.148,0.016-0.369,0-0.506c-0.088-0.764-0.488-1.383-0.689-2.162c0.518-0.305,0.104-1-0.047-1.426
	c0.145-0.041,0.32-0.047,0.322-0.23c-0.178-0.5-0.373-0.684-0.23-1.334c0.764-0.326,1.586-0.594,2.348-0.92
	c-0.85,0.023-1.807,0.189-2.576,0.137c-0.025-0.066-0.068-0.115-0.096-0.182c0.639-0.637,1.684-1.111,2.211-1.703
	c-0.412,0.223-0.951,0.396-1.473,0.6c-0.465,0.178-1.059,0.623-1.473,0.273c0.35-0.891,0.967-1.764,1.244-2.574
	c-0.559,0.553-1.121,1.209-1.658,1.748c-0.172,0.17-0.371,0.465-0.643,0.414c-0.277-0.92-0.404-1.99-0.691-2.898
	c-0.104,0.471-0.154,1.037-0.229,1.563c-0.076,0.525-0.074,1.098-0.369,1.428c-0.836-0.559-1.527-1.264-2.301-1.887
	c0.422,0.836,0.951,1.564,1.381,2.393c-0.303,0.295-0.838-0.016-1.287-0.139c-0.508-0.137-1.027-0.289-1.428-0.32
	c0.695,0.438,1.463,0.805,2.07,1.332c-0.473,0.447-1.496,0.348-2.209,0.553c-0.139-0.129-0.4-0.141-0.551-0.139
	c-0.512-1.148-0.625-2.553-1.059-3.957c-0.195-0.629-0.359-1.326-0.504-2.025C3.57,10.668,3.316,9.889,3.359,9.248
	c0.049-0.764,0.318-1.25,0.275-1.887C3.613,7.057,3.521,6.646,3.359,6.393c-0.141-0.217-0.57-0.385-0.508-0.783
	c0.24-0.176,0.268-0.643,0.369-0.826C3.559,4.768,3.748,4.9,4.096,4.875C4.207,4.59,4.209,4.193,4.232,3.818
	C3.922,3.514,3.289,3.535,2.852,3.357c0-0.154,0-0.309,0-0.461C3.668,2.35,3.908,1.225,4.049,0c-0.48,0.564-2,0.855-2.623,1.516
	C0.906,2.07,1.25,2.547,1.242,3.447C0.789,3.535,0.357,3.641,0,3.818C0.059,4.234,0.098,4.67,0.277,4.967
	c0.227-0.018,0.594-0.139,0.736-0.092c0.088,0.381-0.16,0.426-0.141,0.734c0.1,0.303,0.436,0.365,0.6,0.602
	C1.172,6.922,1.516,7.383,1.426,8.189c0.445,0.363,0.154,1.246,0.23,2.023c0.449,0.6,0.398,1.672,0.506,2.621
	c0.246,2.137,0.662,4.191,1.105,5.982c-0.605,1.133-1.799,3.959-0.139,4.783c-0.104,0.148-0.025,0.436,0,0.598
	c0.393,0.16,0.402,0.701,0.828,0.828c-0.254,0.543-0.795,1.213-0.736,1.934c0.031,0.398,0.395,0.588,0.367,1.012
	c0.084,0.146,0.355,0.105,0.508,0.184c0,0.154,0,0.307,0,0.461c0.363,0.242,0.232,0.691,0.459,1.057
	c-0.58,0.645-2.055,3.572-0.092,3.453c-0.092,0.994-0.838,2.043-0.643,3.08c0.037,0.207,0.244,0.352,0.275,0.555
	c0.07,0.469-0.145,0.881,0.229,1.104c-0.178,0.48-0.287,0.918-0.32,1.379c-0.059,0.797,0.242,1.463,0.32,2.254
	c0.084,0.846,0.07,1.916-0.092,2.762c-0.037,0.199-0.168,0.391-0.184,0.598c-0.014,0.176,0.045,0.381,0.047,0.549
	c0.01,1.01-0.271,2.006-0.184,2.992c0.061,0.695,0.318,1.348,0.367,2.025c0.074,1.055-0.27,2.018-0.139,3.082
	c-0.014,0.123,0.258-0.043,0.184,0.139c0.037,0.867-0.498,1.158-1.24,1.242c0,0.295,0,0.586,0,0.881
	c-0.082,0.256-0.014,0.662-0.041,0.973c-0.266,0.143-0.674,0.141-0.916,0.305c-0.232,3.939-0.74,7.605-1.018,11.5
	c-0.271,0-0.543,0-0.814,0c-0.055,0.998-0.199,1.902-0.203,2.953c3.459,0.068,7.191-0.137,10.482,0.102c3.123,0,6.242,0,9.363,0
	C19.91,70.574,19.801,69.633,19.734,68.645z M7.822,17.85c0.07,0.389,0.01,0.91,0.229,1.148c-0.193,0.389-0.393,0.773-0.506,1.244
	c-0.133-0.061-0.326-0.061-0.459,0c-0.1-0.363-0.199-0.723-0.508-0.875c0.078-0.768-0.594-0.785-0.598-1.473
	C6.633,17.92,7.156,17.814,7.822,17.85z"/>
</svg>
