<?xml version="1.0" encoding="utf-8"?>
<!-- Generator: Adobe Illustrator 15.0.2, SVG Export Plug-In  -->
<!DOCTYPE svg PUBLIC "-//W3C//DTD SVG 1.1//EN" "http://www.w3.org/Graphics/SVG/1.1/DTD/svg11.dtd" [
	<!ENTITY ns_flows "http://ns.adobe.com/Flows/1.0/">
]>
<svg version="1.1"
	 xmlns="http://www.w3.org/2000/svg" xmlns:xlink="http://www.w3.org/1999/xlink" xmlns:a="http://ns.adobe.com/AdobeSVGViewerExtensions/3.0/"
	 x="0px" y="0px" width="15px" height="56px" viewBox="0 0 15 56" enable-background="new 0 0 15 56" xml:space="preserve">
<defs>
</defs>
<path fill="#123D5A" d="M14.505,54.438c0,0.521,0,1.042,0,1.563c-1.951,0.389-1.637-1.486-2.678-2.009
	c-1.496,0.063-2.161,0.96-2.676,2.009c-1.042,0-2.083,0-3.126,0c-0.819-0.744-1.049-2.075-2.676-2.009
	c-1.253,0.53-0.965,2.604-3.35,2.009c0-0.225,0-0.447,0-0.671c1.091-0.982,1.548-2.109,1.342-3.346
	c1.715-0.369,2.106-2.057,3.124-3.124c-1.954-1.668-1.085-5.79,1.114-6.472c0-6.619,0-13.238,0-19.857
	c-0.097-0.964-1.126-0.963-1.34-2.008c-0.362-1.785,0.712-3.271,2.232-3.793c-0.168-1.706,0.835-4.525-0.447-6.47
	c0.087-0.88,0.721-1.213,1.116-1.785c-0.374-2.212-0.073-3.879,0-6.469C7.157,1.498,6.734,0.339,7.589,0
	C7.413,3.482,7.997,5.007,7.811,8.254c0.192,0.773,0.695,1.24,1.117,1.785c-1.067,1.383-0.62,4.821-0.448,6.247
	c0.626,1.17,2.346,1.44,2.455,3.124c0.075,1.143-0.671,2.018-1.562,2.9c0.085,5.735-0.05,12.954,0,19.856
	c2.393,0.844,3.653,4.821,1.338,6.694c0.821,1.188,1.415,2.6,2.899,3.124C13.905,52.847,13.425,53.984,14.505,54.438z M6.918,25.211
	c0.372,0,0.742,0,1.116,0c0-0.744,0-1.488,0-2.23c-0.374,0-0.744,0-1.116,0C6.854,24.154,7.153,24.302,6.918,25.211z M6.918,28.558
	c0.372,0,0.742,0,1.116,0c-0.073-0.82,0.188-1.976-0.224-2.454c-0.222,0-0.445,0-0.669,0C6.729,26.582,6.991,27.737,6.918,28.558z
	 M6.918,31.905c0.372,0,0.742,0,1.116,0c0-0.818,0-1.637,0-2.456c-0.297,0-0.596,0-0.893,0C6.729,29.93,6.991,31.085,6.918,31.905z
	 M6.918,35.029c0.372,0,0.742,0,1.116,0c0-0.745,0-1.489,0-2.231c-0.374,0-0.744,0-1.116,0C6.918,33.54,6.918,34.284,6.918,35.029z
	 M6.918,38.376c0.372,0,0.742,0,1.116,0c0-0.745,0-1.489,0-2.232c-0.374,0-0.744,0-1.116,0C6.918,36.887,6.918,37.631,6.918,38.376z
	 M6.918,41.722c0.372,0,0.742,0,1.116,0c0-0.818,0-1.637,0-2.455c-0.297,0-0.596,0-0.893,0C6.729,39.745,6.991,40.902,6.918,41.722z
	 M5.58,53.993C5.434,52.8,5.873,51.022,5.356,50.2C4.541,51.33,3.506,53.455,5.58,53.993z M9.373,53.993
	c2.389-0.425,1.201-2.942,0-3.793C9.373,51.464,9.373,52.728,9.373,53.993z"/>
</svg>
