<?xml version="1.0" encoding="utf-8"?>
<!-- Generator: Adobe Illustrator 15.0.2, SVG Export Plug-In  -->
<!DOCTYPE svg PUBLIC "-//W3C//DTD SVG 1.1//EN" "http://www.w3.org/Graphics/SVG/1.1/DTD/svg11.dtd" [
	<!ENTITY ns_flows "http://ns.adobe.com/Flows/1.0/">
]>
<svg version="1.1"
	 xmlns="http://www.w3.org/2000/svg" xmlns:xlink="http://www.w3.org/1999/xlink" xmlns:a="http://ns.adobe.com/AdobeSVGViewerExtensions/3.0/"
	 x="0px" y="0px" width="39px" height="20px" viewBox="0 0 39 20" enable-background="new 0 0 39 20" xml:space="preserve">
<defs>
</defs>
<path fill="#6590A4" d="M0,14.573c0.324,1.522,0.057,3.634,0.138,5.395h10.905c0.006-0.001,0.01-0.001,0.014-0.002
	c0,0.001,0,0.001,0,0.002h28.396v-5.535h-0.138c0.029-0.109,0.025-0.227-0.015-0.334c0.002-0.218,0.058-0.378,0.152-0.506
	c-0.378-0.211-1.44-0.219-1.886-0.028c-0.069-0.028-0.141-0.058-0.214-0.08V7.437c0.079-0.433,0.657-0.365,0.698-0.839
	c-0.328,0.009-0.673,0.012-1.02,0.015c0.002-0.046-0.002-0.09-0.012-0.133c0.262-0.059,0.447-0.188,0.474-0.441
	c-0.05-0.512-0.732-0.262-1.118-0.279c-1.511-0.064-3.388-0.056-4.478,0.141c0.027-0.368,1.203-0.845,0.56-0.979
	c-0.16-0.011-0.332-0.01-0.501-0.013c-0.014-0.101-0.033-0.202-0.059-0.304V3.562c0.17-0.461,0.16-0.988,0.002-1.473
	c-0.015-0.375,0.313-0.41,0.276-0.807c-0.209-0.023-0.517,0.05-0.558-0.14c0.272-0.191,0.075-0.857,0.279-1.119
	C23.832,0.117,15.39-0.164,7.555,0.164c0.327,0.728,0.308,0.979-0.141,1.398c0.062,0.267,0.302,0.351,0.281,0.7
	c0.056,0,0.111,0,0.165,0C7.857,2.308,7.85,2.354,7.85,2.397C7.801,2.399,7.747,2.398,7.695,2.402V4.78
	c0.01,0.001,0.024,0,0.036,0.001C7.733,4.836,7.737,4.89,7.743,4.942c-0.313,0.004-0.615,0-0.887-0.022
	c0.01,0.41,0.32,0.52,0.558,0.7C7.46,5.634,7.496,5.657,7.523,5.692C7.421,5.705,7.319,5.729,7.221,5.759H4.337
	c-0.84,0-1.929-0.232-2.378,0.279C2.113,6.35,2.454,6.464,2.876,6.499c-0.028,0.032-0.06,0.065-0.088,0.099H1.542
	c0.951,0.896,0.49,4.202,0.522,6.784c-0.096,0.002-0.169,0.031-0.234,0.07H0.142v0.841h0.127c-0.014,0.055-0.018,0.105-0.016,0.162
	C0.156,14.48,0.066,14.516,0,14.573z M26.662,14.66c-0.027,0.018-0.06,0.028-0.083,0.052c0.279,1.254,0.154,2.886,0.062,4.315
	c-0.123-0.068-0.275-0.083-0.436,0.014c-0.016,0.012-0.037,0.017-0.056,0.026c-0.635,0.013-1.397-0.104-1.928,0.016
	c-0.141-0.015-0.281-0.03-0.422-0.047c-0.01-1.537-0.137-3.196,0.123-4.463H23.85c0.008-0.047,0.006-0.093,0-0.139
	c0.929,0.014,1.849,0.03,2.758,0.064C26.621,14.554,26.643,14.605,26.662,14.66z M23.222,9.816c0.015-0.819-0.012-1.549,0.141-2.082
	c0.002-0.008,0.006-0.015,0.009-0.023c0.513-0.558,2.019-0.551,2.51,0.007c0.441,1.201,0.045,2.744,0.419,4.476
	c0.019-0.001,0.03-0.009,0.046-0.011c0.012,0.063,0.016,0.124,0.031,0.188c0.011,0.025,0.021,0.05,0.026,0.073
	c-0.935,0.02-2.17-0.109-2.76-0.109h-0.338c0.091-0.192,0.053-0.441-0.111-0.582C23.354,11.198,23.216,10.407,23.222,9.816z
	 M21.184,19.075c-0.062,0.001-0.121,0-0.185,0c-0.004-0.001-0.008-0.007-0.014-0.008V19.05h-0.083
	c-0.021-0.002-0.034-0.012-0.052-0.012c-0.02,0-0.033,0.01-0.053,0.012H18.79c-0.063-0.042-0.143-0.071-0.241-0.071
	c-0.089,0-0.158,0.021-0.222,0.055v-4.411c0-0.013,0-0.025,0-0.037v-0.012l0,0c-0.002-0.049-0.006-0.098-0.02-0.146
	c0.924-0.005,1.845-0.009,2.763-0.011c-0.023,0.127,0.012,0.263,0.087,0.376C21.371,16.082,21.272,17.671,21.184,19.075z
	 M18.327,7.997c0.428-0.839,1.625-0.905,2.56-0.334c0.029,0.094,0.062,0.187,0.112,0.275c0.022,0.038,0.052,0.064,0.079,0.092
	c0.2,0.842,0.09,1.857,0.187,3.325c0.01,0.137-0.1,0.493,0.008,0.694c-0.05,0.086-0.075,0.185-0.067,0.284h-2.92
	c0.006-0.209,0.03-0.427,0.042-0.642C18.61,10.643,17.939,8.761,18.327,7.997z M13.43,7.997c0.445-0.882,1.706-0.91,2.658-0.279
	c0.335,1.239,0.105,2.584,0.137,4.144c-0.085,0.056-0.152,0.138-0.182,0.251c-0.021,0.071-0.016,0.147,0,0.222h-2.771
	c0.028-0.122,0.044-0.246,0.054-0.371C13.85,11.003,13.005,8.844,13.43,7.997z M12.763,14.446c0.942,0.004,1.893,0.003,2.845-0.001
	c-0.002,0.092,0.02,0.18,0.062,0.261v4.317c-0.073-0.063-0.164-0.109-0.291-0.109c-0.152,0-0.268,0.06-0.343,0.148
	c-0.035,0-0.069-0.001-0.104-0.003c-0.612-0.067-1.22-0.1-1.854-0.081c-0.089,0.001-0.164,0.028-0.228,0.065
	c-0.201-1.266-0.197-3.263,0.021-4.471h-0.238C12.686,14.539,12.729,14.497,12.763,14.446z"/>
</svg>
