<?xml version="1.0" encoding="utf-8"?>
<!-- Generator: Adobe Illustrator 15.0.2, SVG Export Plug-In  -->
<!DOCTYPE svg PUBLIC "-//W3C//DTD SVG 1.1//EN" "http://www.w3.org/Graphics/SVG/1.1/DTD/svg11.dtd" [
	<!ENTITY ns_flows "http://ns.adobe.com/Flows/1.0/">
]>
<svg version="1.1"
	 xmlns="http://www.w3.org/2000/svg" xmlns:xlink="http://www.w3.org/1999/xlink" xmlns:a="http://ns.adobe.com/AdobeSVGViewerExtensions/3.0/"
	 x="0px" y="0px" width="46px" height="30px" viewBox="0 0 46 30" enable-background="new 0 0 46 30" xml:space="preserve">
<defs>
</defs>
<path fill="#325E82" d="M45.665,25.194c-0.01-0.466,0.152-1.261-0.1-1.558v-0.211c0.066-0.002,0.125,0.004,0.195-0.002
	c-0.014-0.131-0.091-0.21-0.195-0.265v-0.131c0.308-1.372-0.09-3.371,0.1-4.626c-0.078-0.021-0.196-0.002-0.199-0.098
	c-0.003,0-0.005,0.001-0.008,0.001v-0.064c0.088-0.005,0.161-0.04,0.207-0.134c0.005-0.16-0.081-0.253-0.207-0.315v-0.1
	c0.037,0.007,0.07,0.018,0.107,0.023c0.06-1.309-0.199-2.539,0.393-3.15c-0.172-0.029-0.332-0.072-0.5-0.106v-0.108
	c0.035,0.008,0.07,0.014,0.107,0.018c0.067-0.403-0.075-0.722-0.1-1.083c-0.044-0.683,0.139-1.374-0.294-1.771
	c-0.22,0.397-0.081,1.704-0.394,2.068c-0.285-0.414-1.184-0.188-1.477-0.592c0-0.229,0-0.459,0-0.688
	c-0.194-0.233-0.17-0.685-0.395-0.887c0.029-0.2,0.219-0.648-0.099-0.688c-0.28,0.219-0.206,0.478-0.196,0.984
	c-0.284,0.303-0.479,0.519-0.295,0.886c-0.133-0.03-0.189-0.141-0.394-0.099c-0.131,0.187,0.034,0.566-0.099,0.689
	c-0.29-0.352-0.771,0.442-1.18-0.098c-0.234,0.325-0.797,0.473-0.985,0.098c-0.106,0.284-0.298,0.326-0.591,0.198
	c0.027-0.809-0.373-1.165-0.393-1.872c-0.047,0.035-0.082,0.076-0.118,0.118c-0.003-0.014-0.001-0.026-0.006-0.039
	c-0.015-0.04-0.028-0.089-0.042-0.13c0.022-0.049,0.041-0.102,0.066-0.145c-0.047-0.034-0.096-0.064-0.145-0.096
	c-0.041-0.12-0.084-0.241-0.137-0.359c0.059-0.709-0.049-1.845-0.21-2.104c-0.003,0.261,0.054,0.58-0.197,0.591
	c-0.105-0.386,0.228-1.213-0.197-1.278c-0.062,0.33,0.126,0.913-0.099,1.08c-0.17-0.058,0.008-0.466-0.195-0.491
	c-0.146,0.676,0.112,0.77-0.1,1.377c0.029-0.192-0.133-0.194-0.195-0.294c-0.023-0.186,0.109-0.219,0.096-0.394
	C36.8,9.486,36.89,9.135,36.609,9.151c-0.057,0.176,0.12,0.58-0.099,0.592c-0.08-0.501,0.049-0.683-0.197-1.083
	c-0.057,0.173,0.12,0.579-0.098,0.591c-0.091-0.615,0.145-1.03-0.197-1.278c-0.15,0.186,0.129,0.811-0.1,0.983
	c0.057-0.043-0.091-0.226-0.096-0.197c-0.117,0.587,0.047,0.737-0.198,1.278c-0.114-0.145-0.114-0.246,0-0.392
	c-0.747,0.234-0.373-1.079-0.688-0.196c-0.1-0.287-0.047-1.456-0.295-0.493c-0.022,0.185,0.11,0.218,0.098,0.394
	c-0.285,0.602-0.025,1.348-0.196,1.869c0.011-0.004,0.026-0.005,0.038-0.008c-0.024,0.045-0.043,0.094-0.051,0.146
	c-0.004,0.018,0,0.031-0.004,0.047c-0.097,0.031-0.195,0.064-0.279,0.11c0.43,0.782,0.236,2.248,0.296,3.249
	c0.118-0.02,0.229-0.045,0.345-0.067v0.109c-0.219,0.045-0.44,0.087-0.641,0.152c0.43,0.96,0.143,1.535,0.105,2.786
	c-0.092,0.01-0.172,0.033-0.24,0.07c-0.681,0.016-1.5,0.004-2.363-0.007c-0.025-0.007-0.053-0.012-0.079-0.018v-0.07
	c0.159-0.012,0.304-0.041,0.411-0.104c-0.174-0.943-0.102-1.404,0.197-2.066c-0.121,0-0.244,0-0.367,0
	c0.006-0.033,0.01-0.064,0.009-0.099c0.021,0,0.042,0,0.064,0c0.046-0.469,0.046-0.415,0-0.885
	c-0.274-0.002-0.577-0.034-0.581,0.229c-0.053-0.01-0.103-0.024-0.162-0.024c-0.208,0-0.361,0.076-0.473,0.192
	c-0.408,0.022-0.885-0.006-1.343-0.006c-0.551,0-1.257-0.146-1.591,0.101h-0.137c-0.002-0.005-0.006-0.009-0.006-0.017
	c0.021-0.09,0.023-0.184,0.012-0.275c0.016-0.001,0.033-0.002,0.048-0.003c0.079-0.34-0.108-0.417-0.196-0.592
	c-0.172-0.05-0.267-0.022-0.338,0.028c-0.039-0.012-0.066-0.032-0.109-0.036c-0.019-0.093-0.045-0.185-0.067-0.272
	c0.074-0.791-0.042-1.772,0.12-2.476c-0.063-0.017-0.123-0.038-0.188-0.058c-0.013-0.03-0.028-0.061-0.046-0.09
	c0.045,0.016,0.091,0.033,0.137,0.051c0.229-0.302,0.031-0.834-0.099-1.082c-0.601,0.098-0.644,0.404-1.181,0v0.002
	c-0.078-0.137-0.207-0.237-0.382-0.287c-0.004-0.004-0.008-0.01-0.013-0.013c0,0.002-0.001,0.004-0.001,0.006
	c-0.026-0.006-0.049-0.019-0.077-0.022v-0.08c0.124,0,0.25,0,0.373,0c-0.064-0.495,0.125-0.795,0-1.083
	c-0.169-0.043-0.285-0.03-0.373,0.008V8.5c0.055,0.004,0.113,0.049,0.178,0.16c0.001-0.79,0.053-1.456,0.096-2.065
	c0.027-0.341,0.32-0.865-0.051-1.056c-0.012-0.048-0.025-0.098-0.039-0.145c0.033,0.004,0.057,0.016,0.09,0.02
	c0.201-0.295,0.058-0.93,0.1-1.378c-0.061-0.017-0.115-0.039-0.172-0.057c0.003-0.028,0.016-0.058,0.016-0.088
	c0.018,0.017,0.037,0.031,0.057,0.045c-0.078-0.614,0.251-1.031-0.195-1.279c-0.089,0.178-0.1,0.435-0.188,0.608
	c-0.06-0.036-0.128-0.063-0.202-0.081c0.021-0.884-0.24-1.701-0.002-2.495c-0.227,0.03-0.109-0.284-0.295-0.296
	c-0.117,0.514,0.054,1.204-0.393,1.575c0-0.548,0.078-1.584-0.297-1.871c-0.047,0.904-0.287,1.692-0.295,2.362
	c-0.37-0.222-0.464-0.716-0.887-0.887c-0.11,0.417-0.443,0.608-0.688,0.887c0.052-1.161-0.237-1.605-0.395-2.46
	c-0.393,0.278,0.174,1.071-0.293,1.378c-0.576-0.247,0.13-0.734-0.395-1.082c-0.166,0.889-0.063,1.783-0.19,2.587
	c-0.116,0.11-0.177,0.241-0.199,0.377c-0.172-0.232,0.105-0.563-0.301-0.603c-0.093,0.204-0.103,0.639-0.099,1.182
	c0.043-0.019,0.078-0.044,0.119-0.063V3.78c-0.048,0.076-0.075,0.159-0.093,0.244c-0.008,0.003-0.015,0.01-0.026,0.012
	c0,0.404,0,0.811,0,1.215c-0.086,0.147-0.115,0.316-0.091,0.486c0.022,1.017,0.236,1.84,0.189,2.923
	c0.008-0.004,0.012-0.012,0.02-0.016v0.114c-0.073,0-0.144,0-0.216,0c0,0.362,0,0.722,0,1.083c0.052,0.02,0.132,0.009,0.216,0v0.123
	c-0.12,0.054-0.176,0.168-0.199,0.32c-0.047,0.006-0.094,0.014-0.143,0.021c-0.019-0.038-0.042-0.068-0.072-0.069
	c-0.027,0.04-0.051,0.064-0.076,0.095c-0.141,0.027-0.278,0.061-0.415,0.105c-0.155-0.073-0.33-0.203-0.591-0.2
	c-0.076,0.104-0.127,0.409-0.117,0.673c-0.071,0.106-0.125,0.223-0.133,0.364c-0.027,0.445,0.031,0.956,0.104,1.398
	c0.091,0.541,0.084,1.086,0.111,1.627c-0.019-0.005-0.036-0.006-0.053-0.009c-0.008-0.004-0.017-0.002-0.026-0.004
	c-0.023-0.107-0.055-0.208-0.28-0.115c-0.166,0.037-0.268,0.138-0.328,0.284c-0.14,0.13-0.226,0.315-0.244,0.502
	c-1.122,0-2.243,0-3.364,0c-0.153-0.173-0.132-0.521-0.591-0.392c-0.223,0.105-0.038,0.617-0.099,0.885c0.034,0,0.064,0,0.097,0
	c-0.021,0.032-0.038,0.066-0.054,0.101c-0.112-0.002-0.229,0.002-0.339-0.002c0.42,0.578,0.23,1.198,0.296,2.167
	c0.131,0,0.262,0,0.395,0v0.107c-0.936,0.015-1.854,0.007-2.658-0.107c-0.024,0.098-0.017,0.167,0.004,0.222
	c-0.035-0.006-0.073-0.01-0.107-0.019c0.009-0.027,0.014-0.06,0.003-0.106c-0.06-0.85,0.09-1.445-0.196-2.164
	c0.238-0.124,0.318-0.405,0.393-0.691c-0.105-0.054-0.261-0.057-0.393-0.087v-0.146c0.073-0.048,0.109-0.129,0.099-0.256
	c-0.055-0.108-0.083-0.242-0.099-0.386v-0.205h-0.017c-0.015-0.562,0.122-1.231,0.019-1.559c0.002-0.012,0.003-0.019,0.006-0.026
	c0.193-0.159,0.242-0.467,0.385-0.679c-0.087-0.058-0.18-0.107-0.277-0.154c-0.006-0.159-0.039-0.297-0.116-0.398
	c0-0.001-0.002-0.001-0.002-0.003c-0.02-0.553-0.026-1.64-0.194-2.299c0.082-0.232-0.14-0.452-0.099-0.099
	c-0.016,0.116,0.017,0.279-0.098,0.296c-0.059,0.175,0.289,0.408,0,0.493c-0.013-0.186-0.064-0.328-0.196-0.396
	c0.206,0.584-0.257,0.448-0.395,0.592c-0.105,0.109,0.27,0.533-0.198,0.392c0.008-0.448,0.06-1.603-0.294-1.081
	c0.072-0.365,0.098-0.677-0.099-0.983C9.689,8.51,9.761,9.447,9.447,8.66C9.33,9.314,9.521,9.352,9.349,9.842
	C9.213,9.714,9.252,9.414,9.25,9.151C9.04,9.271,8.78,9.339,8.66,9.546c0.241,0.064,0.015,0.461-0.097,0.491
	C8.564,9.512,8.601,8.949,8.365,8.66C8.312,8.804,8.48,9.169,8.266,9.151c-0.189-0.314,0.1-0.744-0.195-1.08
	C7.958,8.468,8.075,8.876,7.872,9.35C7.835,9.094,7.822,8.811,7.676,8.66C7.672,9.411,7.542,10,7.579,10.985
	c-0.033,0.057-0.059,0.12-0.082,0.186c-0.037,0.018-0.075,0.033-0.114,0.048c0.023,0.061,0.039,0.13,0.056,0.195
	c-0.01,0.079-0.015,0.163-0.014,0.25c0,0.045,0.009,0.092,0.014,0.138c-0.052-0.117-0.132-0.218-0.254-0.288
	c-0.055,0.568-0.277,1.209-0.493,1.872c-0.244,0.251-0.35-0.067-0.492-0.198c-0.185,0.408-0.719,0.222-0.984-0.098
	c-0.414,0.537-0.854-0.262-1.181,0.098c-0.093-0.371-0.005-0.463-0.099-0.689c-0.169-0.039-0.252,0.147-0.295,0
	c-0.013-0.446-0.251-0.668-0.395-0.984c0.085-0.133,0.149-0.876-0.296-0.787c-0.012,0.724-0.34,1.544-0.49,2.461
	c-0.438,0.054-1.107,0.118-1.478,0.395c-0.133-0.905-0.005-1.736-0.394-2.068c-0.245,0.782-0.188,1.864-0.29,2.789
	c-0.046,0.093-0.067,0.193-0.064,0.294C0.152,14.647,0.066,14.695,0,14.763c0.543,0.473,0.192,1.829,0.295,2.953
	c0.044-0.007,0.083-0.017,0.128-0.024c-0.018,0.025-0.031,0.053-0.046,0.081c-0.139,0.03-0.258,0.094-0.277,0.237
	c0.046,0.083,0.111,0.14,0.187,0.176c0.006,0.073,0.015,0.145,0.039,0.215c-0.071,0.039-0.166,0.053-0.129,0.2
	c0.043,1.085-0.055,2.527,0,3.541c0.013,0.207-0.12,0.66,0.069,0.822c-0.012,0.061-0.023,0.12-0.021,0.183
	c-0.081,0.027-0.136,0.08-0.145,0.176c0.043,0.053,0.116,0.081,0.204,0.096c0.02,0.047,0.047,0.094,0.076,0.136
	c-0.063,0.01-0.126,0.028-0.184,0.065c0.059,2.269-0.118,3.69-0.097,5.905c0.138-0.013,0.288-0.015,0.438-0.017v0.051h17.379h1.569
	h6.565c0.091-0.013,0.185-0.02,0.274-0.034c0.542,0,1.082,0,1.625,0h0.097c2.067,0,4.134,0,6.2,0h0.098c0.46,0,0.92,0,1.379,0h1.227
	c0.238,0.011,0.486,0.016,0.741,0h0.099c0.426,0,0.854,0,1.279,0h0.1c0.951,0,1.901,0,2.854,0h0.098c0.328,0,0.656,0,0.983,0h0.1
	c0.654,0,1.313,0,1.969,0h0.394c0.415-0.16,0.207-0.706,0.195-1.084C45.729,27.406,45.68,26.326,45.665,25.194z M7.579,13.188
	c-0.042-0.285-0.024-0.595-0.039-0.879c0.036,0.146,0.072,0.285,0.08,0.407c0.017,0.224,0.013,0.439,0.003,0.654
	C7.607,13.31,7.586,13.249,7.579,13.188z M21.552,2.067c-0.146-0.085-0.21-0.249-0.197-0.494C21.57,1.589,21.566,1.823,21.552,2.067
	z M24.45,3.294c-0.002-0.015-0.006-0.029-0.009-0.044c0.024,0.004,0.048,0.007,0.069,0.012C24.491,3.272,24.47,3.281,24.45,3.294z"
	/>
</svg>
