<?xml version="1.0" encoding="utf-8"?>
<!-- Generator: Adobe Illustrator 15.0.2, SVG Export Plug-In  -->
<!DOCTYPE svg PUBLIC "-//W3C//DTD SVG 1.1//EN" "http://www.w3.org/Graphics/SVG/1.1/DTD/svg11.dtd" [
	<!ENTITY ns_flows "http://ns.adobe.com/Flows/1.0/">
]>
<svg version="1.1"
	 xmlns="http://www.w3.org/2000/svg" xmlns:xlink="http://www.w3.org/1999/xlink" xmlns:a="http://ns.adobe.com/AdobeSVGViewerExtensions/3.0/"
	 x="0px" y="0px" width="6px" height="59px" viewBox="0 0 6 59" enable-background="new 0 0 6 59" xml:space="preserve">
<defs>
</defs>
<path fill="#ED1C24" d="M2.678,0c0.078,0,0.156,0,0.233,0C3.028,3.534,3.3,6.913,3.262,10.6c-0.056,0.522,0.412,0.521,0.465,0.933
	c-0.5,1.907-0.11,4.705-0.231,6.989c-0.125,0.401,0.239,0.098,0.348,0.349c0.122,0.284-0.088,0.858,0,1.283
	c0.073,0.275,0.717-0.02,0.815,0.232c0.031,0.785,0.42,1.212,0.816,1.631c-0.214,0.368,0.125,1.29-0.467,1.28
	c-0.01,0.437,0.502,0.353,0.35,0.933c-0.289,0.332-0.838,0.403-1.514,0.35c0.458,11.892,0.413,24.282,2.563,34.48
	c-2.137,0-4.272,0-6.407,0c1.778-10.297,1.668-22.481,1.863-34.364c-0.236-0.308-1.178,0.091-1.282-0.35
	c-0.406-0.479,0.134-0.76,0.118-0.931c-0.015-0.155-0.212-0.104-0.234-0.233c-0.069-0.425-0.123-0.878-0.349-1.398
	c0.701-0.038,0.9-0.575,0.815-1.397c0.216-0.252,1.055,0.12,1.048-0.349c-0.034-2.279,0.439-6.086-0.116-8.505
	c0.699-1.078,0.207-2.838,0.35-4.428c0.031-0.35,0.189-0.692,0.232-1.048C2.689,4.105,2.572,1.72,2.678,0z"/>
</svg>
