<?xml version="1.0" encoding="utf-8"?>
<!-- Generator: Adobe Illustrator 15.0.2, SVG Export Plug-In  -->
<!DOCTYPE svg PUBLIC "-//W3C//DTD SVG 1.1//EN" "http://www.w3.org/Graphics/SVG/1.1/DTD/svg11.dtd" [
	<!ENTITY ns_flows "http://ns.adobe.com/Flows/1.0/">
]>
<svg version="1.1"
	 xmlns="http://www.w3.org/2000/svg" xmlns:xlink="http://www.w3.org/1999/xlink" xmlns:a="http://ns.adobe.com/AdobeSVGViewerExtensions/3.0/"
	 x="0px" y="0px" width="36px" height="29px" viewBox="0 0 36 29" enable-background="new 0 0 36 29" xml:space="preserve">
<defs>
</defs>
<path fill="#123D5A" d="M34.501,27.895V14.953h0.094c0.065-0.928,0.151-1.833,0.101-2.747c0.258-0.652,0.855-0.964,1.125-1.605
	c-1.446,0.02-1.914-2.09-0.965-3.053c-3.482-0.372-7.654-0.055-11.404-0.16c-0.287-0.729-1.111-0.923-2.249-0.802
	c-0.208-0.468-0.153-1.088,0.481-1.126c0.045,0.489-0.514,0.626-0.159,0.964c0.591-0.978,0.086-2.34,0.319-3.372
	c-0.814-0.067-0.869,0.628-0.963,1.284c-0.738-0.044-0.584,0.808-1.124,0.964c0.037-0.788-0.282-1.216-0.16-2.088
	c-0.362-0.463-0.99-0.064-0.804-1.285c-0.274-0.008-0.416,0.118-0.48,0.32c-0.445-0.107,0.447-0.843-0.482-0.643
	C18.106,0.63,18.071,0.29,17.99,0c-0.213,0-0.428,0-0.642,0c0.079,0.204-0.405,0.749,0.321,1.284
	c-0.273,0.583-0.915,0.799-0.643,1.928c-0.144-0.125-0.363-0.174-0.643-0.16c0.039,1-0.112,1.813-0.642,2.248
	c-0.133-1.046-0.922-1.434-1.285-2.248c-0.74,0.171-0.244,0.963-0.161,1.604c-0.081,0.368-0.218,1.167,0,1.768
	c0.31-0.191,0.063-1.363,0.643-0.804c0.136,0.992-0.684,1.029-1.605,0.966c-0.056,0.426-0.598,0.366-0.643,0.802
	c-3.94,0.058-6.995-0.021-11.405,0c0.7,0.995,0.839,3.381-1.125,3.053c0.336,0.627,0.742,1.186,1.286,1.606
	c-0.065,1.797,0.188,3.24,0.105,5.046v10.802H0c0,0.232,0,0.465,0,0.696c12.1,0,24.202,0,36.303,0c0-0.231,0-0.464,0-0.696H34.501z
	 M7.229,27.467c-0.626,0.338-1.847,0.08-2.731,0.161c-0.015-3.678,0.01-8.649,0-12.851c0.911,0,1.82,0,2.731,0
	C7.229,19.006,7.229,23.236,7.229,27.467z M13.011,27.628c-1.038-0.087-2.436,0.185-3.213-0.161c0-4.23,0-8.459,0-12.689
	c1.125,0,2.25,0,3.374,0C13.286,19.576,12.991,23.093,13.011,27.628z M19.757,5.46c0.452,0.137,0.722,0.457,0.644,1.126
	C19.636,6.76,19.745,6.062,19.757,5.46z M18.151,5.943c0.47,0.01,0.906,0.058,0.804,0.643c-0.269,0-0.536,0-0.804,0
	C18.151,6.371,18.151,6.156,18.151,5.943z M17.83,6.586c-0.455,0.024-0.374-0.482-0.803-0.482
	C17.241,5.694,18.077,6.003,17.83,6.586z M15.742,5.62c0.16,0,0.321,0,0.481,0c0.097,0.285-0.471,0.668,0,0.804
	c0.115,0.437-0.756-0.115-0.642,0.32C15.113,6.472,15.945,6.161,15.742,5.62z M20.721,27.628c-2.11-0.015-3.237-0.031-5.3,0
	c-0.373-3.856-0.056-8.404-0.161-12.529c1.173-0.551,4.115-0.213,5.621-0.162C20.676,17.635,21.161,23.728,20.721,27.628z
	 M26.182,27.628c-0.618-0.194-2.39,0.259-3.212-0.161c0-4.23,0-8.459,0-12.689c1.07,0,2.142,0,3.212,0
	C26.204,19.29,26.181,22.988,26.182,27.628z M31.644,27.628c-0.969,0.003-1.977,0.05-2.729-0.161
	c-0.088-4.143,0.186-8.647-0.162-12.53c0.677-0.34,1.957-0.077,2.892-0.159C31.644,19.061,31.644,23.344,31.644,27.628z"/>
</svg>
