<?xml version="1.0" encoding="utf-8"?>
<!-- Generator: Adobe Illustrator 15.0.2, SVG Export Plug-In  -->
<!DOCTYPE svg PUBLIC "-//W3C//DTD SVG 1.1//EN" "http://www.w3.org/Graphics/SVG/1.1/DTD/svg11.dtd" [
	<!ENTITY ns_flows "http://ns.adobe.com/Flows/1.0/">
]>
<svg version="1.1"
	 xmlns="http://www.w3.org/2000/svg" xmlns:xlink="http://www.w3.org/1999/xlink" xmlns:a="http://ns.adobe.com/AdobeSVGViewerExtensions/3.0/"
	 x="0px" y="0px" width="21px" height="27px" viewBox="0 0 21 27" enable-background="new 0 0 21 27" xml:space="preserve">
<defs>
</defs>
<path fill="#325E82" d="M11.139,7.895c-0.185,0.518-0.708,0.694-0.964,1.139c0.387,0.17,0.896,0.216,1.228,0.438
	c0.29-0.185-0.264-0.254-0.176-0.525c2.619-2.964,5.339-5.828,7.893-8.858c0.878,0.525,1.542,1.266,2.368,1.842
	c-2.484,3.129-5.24,5.987-7.805,9.034c0.228,0.502,0.678,0.783,1.051,1.139c0.85-0.086,1.744-0.127,2.633-0.174
	c0.248-0.072,0.008-0.636,0.35-0.614c-0.026,0.479-0.156,0.604,0.263,0.701c0.013,0.247-0.214,0.253-0.438,0.263
	c-0.194,0.919-0.431,1.793-0.614,2.719c1.377,1.489,2.978,2.754,4.473,4.123c-0.534,0.869-1.32,1.486-1.842,2.369
	c-1.186-0.949-2.301-1.968-3.42-2.983c-0.594,1.543,0.466,3.282,0.965,4.562c-0.121,0.201-0.611,0.032-0.877,0.088
	c-0.057,1.114,0.113,2.451-0.088,3.42c-3.668-0.003-6.703-0.017-10.262,0c0-1.082,0-2.162,0-3.245
	c-0.121-0.199-0.61-0.032-0.877-0.087c0.86-1.669,1.611-3.436,2.279-5.613c0.166-0.537,0.686-1.669,0.09-1.754
	c-0.242-0.035-1.25,1.238-1.317,1.315c-1.267,1.43-2.437,2.817-3.683,4.122C1.489,20.788,0.827,20.047,0,19.472
	c1.711-1.973,3.424-3.942,5.173-5.879c-0.129-0.481-0.65-0.574-0.788-1.05c-0.325-0.056-0.901,0.142-0.964-0.177
	c0.132-0.371,0.76-0.006,0.351-0.524c0.567,0.382,1.731,0.56,2.456,0.351c0.694-0.202,1.057-1.311,1.666-1.756
	c0.162-0.117,0.631,0.181,0.701-0.436c-2.686-2.725-5.778-5.04-8.42-7.808C0.812,1.484,1.396,0.725,2.017,0
	C5.14,2.549,8.029,5.331,11.139,7.895z M1.842,0.616C1.94,0.634,1.978,0.712,2.017,0.789c0.24,0.064,0.178-0.173,0.352-0.173
	C2.384,0.186,1.825,0.186,1.842,0.616z M2.632,1.228c0.036-0.166,0.251-0.158,0.174-0.438C2.567,0.854,2.629,0.616,2.455,0.616
	C2.267,0.938,2.307,1.051,2.632,1.228z M1.491,1.054c0.174,0,0.111,0.239,0.351,0.174C2.114,1.015,1.907,0.84,1.667,0.701
	C1.665,0.877,1.427,0.813,1.491,1.054z M20.172,1.58c0.241-0.271,0.115-0.472-0.177-0.614C19.69,1.196,19.729,1.494,20.172,1.58z
	 M2.718,1.403c0.425,0.492,0.885-0.293,0.176-0.35C2.958,1.293,2.72,1.229,2.718,1.403z M1.401,1.754
	c0.244-0.168,0.223-0.625-0.174-0.613C1.039,1.462,1.079,1.577,1.401,1.754z M1.929,1.492c0.24-0.065,0.178,0.174,0.352,0.175
	C2.3,1.568,2.377,1.53,2.455,1.492C2.473,1.063,1.913,1.063,1.929,1.492z M20.436,1.93c0.239,0.064,0.177-0.175,0.351-0.176
	c-0.011-0.224-0.128-0.339-0.351-0.351C20.293,1.64,20.233,1.737,20.436,1.93z M2.718,2.105C2.757,1.938,2.97,1.947,2.894,1.667
	C2.655,1.73,2.718,1.493,2.543,1.492C2.354,1.813,2.395,1.928,2.718,2.105z M3.245,1.843C3.343,1.86,3.382,1.939,3.421,2.019
	c0.238,0.063,0.176-0.176,0.351-0.176C3.788,1.412,3.229,1.412,3.245,1.843z M19.382,1.843c0.1,0.018,0.137,0.097,0.176,0.176
	c0.24,0.063,0.178-0.176,0.352-0.176C19.925,1.412,19.366,1.412,19.382,1.843z M1.491,1.93c0.168,0.21,0.443,0.21,0.613,0
	C2.077,1.424,1.583,1.606,1.491,1.93z M20.698,2.105c0.098,0.019,0.137,0.097,0.176,0.177c0.238,0.062,0.177-0.176,0.35-0.177
	c-0.01-0.224-0.127-0.341-0.35-0.352C20.938,1.994,20.699,1.931,20.698,2.105z M4.034,2.455C4.053,2.356,4.132,2.32,4.21,2.282
	C4.204,2.023,4.009,1.955,3.858,1.843C3.619,2.114,3.744,2.313,4.034,2.455z M20.26,2.37c0.02-0.069,0.003-0.174,0.087-0.177
	c0.016-0.22-0.135-0.273-0.262-0.351C19.835,2.048,19.729,2.373,20.26,2.37z M2.017,2.37c0.098,0.018,0.137,0.096,0.176,0.173
	C2.433,2.609,2.368,2.37,2.543,2.37c-0.006-0.259-0.2-0.329-0.351-0.44C2.258,2.199,1.951,2.099,2.017,2.37z M3.245,2.455
	C3.433,2.269,3.277,1.979,3.069,1.93C2.837,2.103,2.874,2.448,3.245,2.455z M18.944,2.37c0.238-0.065,0.176,0.172,0.351,0.173
	c0.306-0.229,0.268-0.527-0.176-0.613C19.083,2.097,18.931,2.151,18.944,2.37z M4.649,2.719c0.021-0.286-0.105-0.421-0.352-0.437
	C3.977,2.536,4.288,2.979,4.649,2.719z M20.874,2.455C20.029,1.841,20.434,3.351,20.874,2.455L20.874,2.455z M2.455,2.808
	c0.239-0.064,0.177,0.174,0.351,0.175c0.038-0.165,0.189-0.22,0.175-0.439C2.856,2.522,2.833,2.398,2.718,2.37
	C2.691,2.575,2.415,2.533,2.455,2.808z M3.333,2.719c0.239-0.063,0.176,0.174,0.351,0.177c0.046-0.13,0.13-0.221,0.175-0.353
	C3.687,2.313,3.341,2.348,3.333,2.719z M19.382,2.719c0.322,0.189,0.438,0.147,0.613-0.176C19.779,2.251,19.503,2.454,19.382,2.719z
	 M18.944,2.982c0.045-0.131,0.129-0.22,0.175-0.352C18.696,2.143,18.236,2.925,18.944,2.982z M4.21,3.245
	c-0.02-0.167,0.099-0.192,0.088-0.35C4.058,2.959,4.12,2.721,3.946,2.719C3.737,2.959,3.751,3.271,4.21,3.245z M4.649,3.07
	c0.174,0.001,0.111,0.239,0.35,0.175c0.045-0.13,0.129-0.221,0.174-0.35C5.007,2.856,5.017,2.645,4.735,2.719
	C4.757,2.886,4.638,2.913,4.649,3.07z M19.909,3.07c0.099,0.019,0.137,0.099,0.176,0.175c0.238,0.064,0.176-0.174,0.351-0.175
	C20.452,2.64,19.893,2.64,19.909,3.07z M3.333,3.333C3.269,3.095,3.507,3.156,3.507,2.982C3.341,2.944,3.35,2.732,3.069,2.808
	C2.86,3.046,2.874,3.358,3.333,3.333z M19.207,3.333c0.239,0.064,0.177-0.175,0.351-0.176c-0.01-0.224-0.127-0.339-0.351-0.35
	C19.065,3.043,19.005,3.142,19.207,3.333z M18.154,3.245c0.099,0.021,0.138,0.099,0.175,0.176c0.24,0.064,0.178-0.173,0.352-0.176
	C18.698,2.817,18.14,2.817,18.154,3.245z M5.087,3.508c0.238-0.063,0.177,0.175,0.35,0.179C5.626,3.362,5.586,3.248,5.263,3.07
	C5.224,3.236,5.073,3.291,5.087,3.508z M3.771,3.772c-0.065-0.27,0.24-0.168,0.175-0.439c-0.24,0.064-0.176-0.175-0.351-0.176
	C3.405,3.378,3.351,3.76,3.771,3.772z M4.649,3.687c0.018-0.07,0-0.176,0.086-0.179C4.725,3.286,4.608,3.17,4.385,3.157
	C4.194,3.358,4.353,3.705,4.649,3.687z M19.47,3.508c0.1,0.019,0.137,0.099,0.177,0.179c0.238,0.061,0.177-0.178,0.349-0.179
	c-0.01-0.222-0.126-0.338-0.349-0.351C19.709,3.397,19.472,3.335,19.47,3.508z M18.769,3.772c0.239,0.063,0.178-0.176,0.351-0.176
	c0.015-0.22-0.134-0.274-0.263-0.352C18.71,3.477,18.499,3.541,18.769,3.772z M17.716,3.687C18.606,4.346,18.085,2.718,17.716,3.687
	L17.716,3.687z M5.964,4.035c0.019-0.068,0.002-0.173,0.087-0.176C6.041,3.637,5.923,3.52,5.7,3.508
	C5.493,3.747,5.506,4.061,5.964,4.035z M3.858,4.035C3.989,4.08,4.08,4.165,4.21,4.21c0.037-0.166,0.188-0.219,0.175-0.438
	c-0.173-0.002-0.111-0.24-0.351-0.176C3.996,3.764,3.845,3.816,3.858,4.035z M4.735,3.947c0.24-0.065,0.178,0.175,0.352,0.175
	c-0.065-0.24,0.174-0.177,0.176-0.35C5.095,3.735,5.104,3.521,4.823,3.597C4.845,3.763,4.725,3.79,4.735,3.947z M19.032,3.947
	c0.242,0.285,0.445,0.271,0.614-0.088c-0.179-0.025-0.173-0.236-0.352-0.263C19.27,3.775,19.058,3.768,19.032,3.947z M17.716,4.386
	c0.24-0.271,0.116-0.471-0.175-0.613C17.235,4.002,17.273,4.301,17.716,4.386z M18.243,4.122c0.212,0.273,0.387,0.066,0.525-0.175
	C18.597,3.715,18.251,3.751,18.243,4.122z M5.612,4.474c0.151-0.292-0.053-0.38-0.262-0.526C5.089,4.133,5.181,4.523,5.612,4.474z
	 M6.051,4.035C6.028,4.321,6.155,4.458,6.401,4.474c-0.063-0.24,0.175-0.178,0.176-0.352C6.441,4.017,6.235,3.844,6.051,4.035z
	 M4.473,4.562C4.73,4.556,4.798,4.36,4.911,4.21C4.744,4.174,4.753,3.96,4.473,4.035C4.331,4.271,4.271,4.368,4.473,4.562z
	 M18.681,4.474c0.174,0.001,0.111,0.24,0.352,0.176c0.045-0.13,0.129-0.222,0.175-0.352C19.035,4.065,18.69,4.102,18.681,4.474z
	 M16.927,4.649c0.1,0.019,0.137,0.097,0.176,0.174c0.257-0.005,0.326-0.2,0.438-0.35c-0.183-0.051-0.282-0.184-0.438-0.264
	C17.167,4.479,16.861,4.378,16.927,4.649z M17.979,4.737c0.24,0.063,0.177-0.176,0.351-0.176c-0.009-0.225-0.127-0.34-0.351-0.352
	C17.837,4.445,17.778,4.544,17.979,4.737z M6.491,4.737c0.238-0.064,0.176,0.173,0.35,0.174C7.03,4.589,6.989,4.475,6.665,4.298
	C6.628,4.465,6.415,4.458,6.491,4.737z M4.735,4.737c0.242,0.284,0.446,0.27,0.615-0.088c-0.18-0.026-0.172-0.237-0.352-0.264
	C4.974,4.565,4.761,4.558,4.735,4.737z M5.612,4.737C5.853,4.673,5.79,4.91,5.964,4.911C5.981,4.813,6.06,4.776,6.14,4.737
	C6.155,4.307,5.597,4.307,5.612,4.737z M18.243,4.911c0.098,0.02,0.136,0.099,0.174,0.177c0.241,0.063,0.178-0.175,0.352-0.177
	c-0.01-0.222-0.127-0.339-0.352-0.35C18.481,4.8,18.243,4.738,18.243,4.911z M17.541,5.175c0.239,0.065,0.176-0.174,0.351-0.177
	c0.014-0.219-0.134-0.272-0.264-0.349C17.482,4.88,17.271,4.943,17.541,5.175z M6.051,5.088c0.168,0.037,0.221,0.188,0.44,0.175
	C6.763,5.05,6.556,4.875,6.313,4.737C6.288,4.914,6.077,4.908,6.051,5.088z M6.929,5.088c0.098,0.018,0.137,0.097,0.175,0.175
	C7.343,5.328,7.28,5.088,7.454,5.088C7.471,4.658,6.913,4.658,6.929,5.088z M16.488,5.088c0.222,0.188,0.601,0.244,0.614-0.177
	C16.831,4.773,16.536,4.634,16.488,5.088z M5.612,5.438c0.039-0.168,0.189-0.221,0.176-0.44c-0.174,0-0.111-0.237-0.352-0.175
	C5.194,4.992,5.217,5.45,5.612,5.438z M17.804,5.351c0.242,0.284,0.445,0.271,0.613-0.088c-0.178-0.025-0.172-0.237-0.35-0.265
	C18.041,5.178,17.83,5.173,17.804,5.351z M6.577,5.526c0.174,0.001,0.112,0.239,0.352,0.175c0.273-0.212,0.066-0.387-0.176-0.526
	C6.751,5.349,6.515,5.286,6.577,5.526z M7.98,5.351C7.137,4.735,7.54,6.246,7.98,5.351L7.98,5.351z M16.05,5.526
	c0.155,0.078,0.256,0.211,0.438,0.263c0.038-0.165,0.188-0.22,0.176-0.438c-0.239,0.063-0.177-0.175-0.352-0.176
	C16.286,5.355,16.075,5.348,16.05,5.526z M17.015,5.526c0.2,0.189,0.547,0.032,0.526-0.264C17.276,5.138,17.035,5.189,17.015,5.526z
	 M5.7,5.613c0.099,0.018,0.137,0.099,0.176,0.176c0.257-0.006,0.326-0.201,0.438-0.351C6.147,5.194,5.688,5.218,5.7,5.613z
	 M7.894,5.965C8.36,6.255,8.558,5.63,8.068,5.526C8.031,5.693,7.817,5.686,7.894,5.965z M17.453,5.876
	c0.174,0.001,0.112,0.239,0.351,0.177c0.045-0.13,0.129-0.221,0.175-0.352C17.808,5.47,17.462,5.505,17.453,5.876z M6.14,6.053
	c0.27,0.239,0.469,0.115,0.613-0.177C6.574,5.852,6.581,5.64,6.401,5.613C6.375,5.822,6.098,5.776,6.14,6.053z M7.368,6.141
	c0.017-0.099,0.096-0.138,0.174-0.176C7.532,5.742,7.414,5.624,7.19,5.613C6.919,5.827,7.125,6.002,7.368,6.141z M15.698,6.053
	c0.271,0.239,0.471,0.115,0.614-0.177c-0.182-0.051-0.282-0.183-0.438-0.263C15.837,5.78,15.624,5.772,15.698,6.053z M16.751,6.141
	c0.277,0.013,0.301-0.226,0.352-0.439c-0.166,0.02-0.193-0.097-0.352-0.088C16.608,5.849,16.55,5.946,16.751,6.141z M7.542,6.313
	c0.176,0.003,0.112,0.241,0.352,0.178C8.167,6.277,7.96,6.103,7.718,5.965C7.718,6.141,7.479,6.075,7.542,6.313z M8.331,6.313
	c0.1,0.021,0.137,0.101,0.176,0.178c0.239,0.063,0.177-0.175,0.351-0.178C8.874,5.886,8.315,5.886,8.331,6.313z M17.19,6.491
	c0.257-0.006,0.325-0.201,0.438-0.351c-0.269,0.064-0.168-0.241-0.438-0.176C17.048,6.199,16.989,6.298,17.19,6.491z M6.577,6.403
	c0.18,0.025,0.173,0.238,0.352,0.263C6.956,6.458,7.233,6.504,7.19,6.228C6.974,5.934,6.696,6.138,6.577,6.403z M16.138,6.403
	c0.271,0.24,0.471,0.115,0.613-0.176c-0.129-0.045-0.221-0.13-0.35-0.175C16.375,6.23,16.163,6.225,16.138,6.403z M15.261,6.491
	c0.166,0.037,0.221,0.188,0.438,0.175c0.002-0.174,0.24-0.111,0.177-0.353C15.653,6.127,15.274,6.071,15.261,6.491z M7.104,6.841
	c0.1,0.019,0.138,0.1,0.175,0.176c0.258-0.006,0.326-0.2,0.439-0.351c-0.179-0.024-0.172-0.237-0.35-0.263
	C7.34,6.61,7.062,6.565,7.104,6.841z M7.98,6.754c0.175,0,0.112,0.24,0.351,0.176c0.273-0.212,0.067-0.389-0.175-0.526
	C8.155,6.577,7.917,6.515,7.98,6.754z M9.121,6.93c0.038-0.168,0.25-0.158,0.175-0.438C8.796,6.234,8.655,6.802,9.121,6.93z
	 M16.577,6.754c0.166,0.243,0.624,0.22,0.613-0.176c-0.238,0.065-0.176-0.174-0.352-0.175C16.813,6.583,16.603,6.576,16.577,6.754z
	 M14.822,6.93c0.183,0.051,0.283,0.184,0.438,0.264c0.037-0.168,0.189-0.223,0.174-0.439c-0.129-0.046-0.219-0.129-0.35-0.176
	C15.06,6.757,14.848,6.751,14.822,6.93z M15.787,6.93c0.067,0.02,0.173,0.002,0.175,0.087c0.225-0.009,0.34-0.128,0.351-0.351
	C16.112,6.476,15.766,6.635,15.787,6.93z M9.208,7.104C9.45,7.389,9.655,7.375,9.823,7.017C9.644,6.991,9.651,6.78,9.472,6.754
	C9.446,6.933,9.235,6.927,9.208,7.104z M7.542,7.28c0.271,0.24,0.471,0.115,0.614-0.176C7.978,7.079,7.985,6.868,7.806,6.841
	C7.778,7.049,7.501,7.005,7.542,7.28z M8.771,7.367C8.788,7.269,8.867,7.23,8.946,7.193C8.935,6.97,8.817,6.853,8.595,6.841
	C8.321,7.055,8.528,7.229,8.771,7.367z M16.226,7.28c0.129,0.046,0.221,0.13,0.352,0.175c-0.066-0.271,0.24-0.168,0.174-0.438
	C16.487,6.892,16.245,6.943,16.226,7.28z M14.472,7.367c0.178,0.025,0.172,0.238,0.351,0.264c0.025-0.179,0.237-0.172,0.263-0.351
	C14.869,7.083,14.511,6.882,14.472,7.367z M15.349,7.367c0.238-0.063,0.176,0.176,0.35,0.176c-0.064-0.27,0.242-0.168,0.177-0.438
	c-0.12-0.027-0.169-0.124-0.351-0.088C15.478,7.147,15.394,7.237,15.349,7.367z M8.857,7.543c0.18,0.063,0.348,0.274,0.527,0.088
	C9.45,7.302,9.155,7.335,9.033,7.193C9.097,7.434,8.858,7.369,8.857,7.543z M9.735,7.543c0.098,0.021,0.137,0.098,0.176,0.175
	c0.238,0.065,0.176-0.173,0.351-0.175C10.276,7.113,9.718,7.113,9.735,7.543z M7.98,7.631c0.181,0.026,0.173,0.237,0.351,0.264
	c0.027-0.207,0.306-0.163,0.264-0.439C8.376,7.162,8.1,7.366,7.98,7.631z M15.787,7.718c0.271,0.24,0.47,0.116,0.614-0.175
	C16.181,7.354,15.799,7.298,15.787,7.718z M14.997,7.808c0.213,0.271,0.388,0.064,0.527-0.177
	C15.353,7.397,15.006,7.436,14.997,7.808z M14.032,7.895c0.27-0.065,0.169,0.241,0.439,0.174c0.018-0.098,0.097-0.137,0.176-0.174
	C14.679,7.447,14,7.447,14.032,7.895z M8.507,8.068c0.098,0.021,0.137,0.099,0.176,0.178c0.447,0.031,0.447-0.647,0-0.615
	C8.747,7.901,8.442,7.8,8.507,8.068z M9.385,7.981c0.174,0.001,0.11,0.239,0.351,0.174C10.009,7.944,9.802,7.77,9.56,7.631
	C9.559,7.808,9.321,7.742,9.385,7.981z M10.175,7.981c0.238-0.063,0.176,0.173,0.35,0.174c0.037-0.165,0.25-0.157,0.176-0.438
	C10.435,7.594,10.194,7.644,10.175,7.981z M15.349,8.155c0.166,0.04,0.22,0.19,0.438,0.179c0.001-0.177,0.239-0.113,0.175-0.353
	c-0.129-0.046-0.221-0.129-0.351-0.174C15.585,7.985,15.374,7.979,15.349,8.155z M14.558,8.334c0.167-0.02,0.193,0.099,0.352,0.087
	c0.02-0.099,0.098-0.139,0.176-0.175C15.1,8.025,14.95,7.97,14.822,7.895C14.794,8.101,14.517,8.058,14.558,8.334z M13.595,8.334
	c0.275-0.044,0.231,0.234,0.438,0.262c0.038-0.168,0.188-0.222,0.176-0.44C14.04,8.12,14.05,7.906,13.77,7.981
	C13.834,8.221,13.596,8.157,13.595,8.334z M8.946,8.508c0.098,0.019,0.137,0.099,0.175,0.176c0.446,0.031,0.446-0.646,0-0.615
	C9.187,8.34,8.881,8.239,8.946,8.508z M10.175,8.596c0.017-0.098,0.097-0.138,0.174-0.175c-0.01-0.224-0.128-0.342-0.35-0.353
	C9.726,8.281,9.932,8.456,10.175,8.596z M14.997,8.684c0.24-0.063,0.177,0.174,0.352,0.174c-0.066-0.269,0.24-0.166,0.176-0.437
	c-0.131-0.047-0.221-0.132-0.352-0.175C15.238,8.513,14.933,8.413,14.997,8.684z M9.735,9.122c0.271-0.265,0.297-0.547-0.088-0.701
	C9.425,8.733,9.325,8.941,9.735,9.122z M13.243,8.596c0.006,0.257,0.201,0.326,0.352,0.438c0.025-0.179,0.236-0.171,0.262-0.35
	C13.648,8.513,13.472,8.307,13.243,8.596z M14.295,8.857c0.224-0.009,0.342-0.126,0.353-0.35
	C14.405,8.235,14.024,8.617,14.295,8.857z M14.558,9.122c0.24-0.063,0.179,0.174,0.352,0.176c0.026-0.18,0.238-0.172,0.264-0.352
	C15.005,8.705,14.548,8.726,14.558,9.122z M13.243,9.472c0.02-0.097,0.098-0.136,0.176-0.174c-0.007-0.259-0.201-0.326-0.352-0.44
	C12.763,9.089,12.802,9.388,13.243,9.472z M13.77,9.209c0.214,0.272,0.387,0.067,0.525-0.176C14.124,8.801,13.777,8.838,13.77,9.209
	z M14.208,9.56c0.099,0.02,0.137,0.098,0.176,0.177c0.238,0.063,0.176-0.175,0.35-0.177C14.751,9.13,14.191,9.13,14.208,9.56z
	 M12.366,9.736c0.274-0.043,0.23,0.236,0.439,0.265c0.042-0.105,0.092-0.201,0.174-0.265c-0.006-0.259-0.199-0.326-0.35-0.438
	C12.552,9.452,12.418,9.553,12.366,9.736z M13.507,9.822c0.238,0.065,0.176-0.172,0.35-0.173c0.016-0.22-0.133-0.276-0.262-0.352
	C13.448,9.527,13.236,9.593,13.507,9.822z M13.944,10.175c0.24,0.063,0.178-0.174,0.351-0.174c-0.01-0.225-0.126-0.342-0.351-0.352
	C13.802,9.883,13.743,9.982,13.944,10.175z M12.892,10.175c0.167-0.02,0.194,0.098,0.352,0.087c0.02-0.098,0.098-0.137,0.176-0.174
	c0.016-0.22-0.135-0.275-0.264-0.352C13.128,9.941,12.851,9.898,12.892,10.175z M13.331,10.524c0.24-0.062,0.176,0.176,0.352,0.176
	c0.025-0.179,0.236-0.171,0.262-0.352c-0.178-0.024-0.172-0.236-0.35-0.261C13.566,10.294,13.288,10.25,13.331,10.524z
	 M7.894,11.228c-0.036-0.212,0.159-0.19,0.087-0.439C7.665,10.741,7.46,11.257,7.894,11.228z M7.19,11.577
	c0.168,0.039,0.222,0.189,0.439,0.175c0.02-0.066,0.004-0.172,0.088-0.175c0.016-0.218-0.135-0.274-0.264-0.35
	C7.429,11.405,7.218,11.4,7.19,11.577z M6.841,12.103c0.068,0.02,0.173,0.002,0.176,0.09c0.223-0.013,0.34-0.128,0.352-0.351
	c-0.24,0.063-0.178-0.176-0.352-0.177C6.979,11.833,6.765,11.825,6.841,12.103z M14.997,12.366c0.143,0.268,0.205,0.614,0.614,0.615
	c0.277,0.042,0.032-0.435,0.351-0.352c-0.172,0.467,0.523,0.063,0.351,0.526c-0.022,0.183-0.384,0.024-0.438,0.177
	c-0.018,0.274,0.06,0.643-0.088,0.789c0.323,0.26,0.629,0.539,0.964,0.788c0.216-0.868,0.4-1.766,0.615-2.632
	C16.577,12.262,15.569,12.456,14.997,12.366z M5.437,13.333c0.188-0.282,0.414-0.524,0.614-0.79
	c-0.47,0.058-1.167-0.116-1.491,0.087C4.917,12.8,5.009,13.233,5.437,13.333z M6.491,12.63C6.935,12.871,6.815,12.324,6.491,12.63
	L6.491,12.63z M6.841,12.893c0.117-0.013,0.266,0.357,0.35,0.089c-0.219,0.042,0.213-0.402-0.087-0.438
	C7.078,12.722,6.866,12.714,6.841,12.893z M5.964,12.981c0.167,0.037,0.221,0.189,0.438,0.175c0.001-0.174,0.24-0.112,0.176-0.351
	c-0.129-0.046-0.221-0.129-0.35-0.176C6.201,12.809,5.989,12.803,5.964,12.981z M6.577,13.507c0.33,0.067,0.296-0.229,0.439-0.351
	c-0.131-0.045-0.222-0.129-0.352-0.175C6.603,13.159,6.39,13.328,6.577,13.507z M5.788,13.593c0.223-0.008,0.34-0.125,0.352-0.349
	c-0.131-0.045-0.222-0.13-0.352-0.175C5.646,13.303,5.587,13.401,5.788,13.593z M7.278,13.244c0.185,0.072,0.344,0.361,0.527,0.175
	C7.844,13.124,7.296,12.969,7.278,13.244z M6.929,13.771c0.271,0.239,0.47,0.113,0.613-0.179c-0.182-0.049-0.283-0.182-0.438-0.26
	C7.066,13.5,6.854,13.49,6.929,13.771z M15.173,13.419c0.03,0.32,0.301,0.402,0.525,0.526c0-0.204,0-0.408,0-0.612
	C15.431,13.269,15.38,13.421,15.173,13.419z M6.051,13.859c0.067,0.018,0.174,0.001,0.177,0.086c0.223-0.011,0.34-0.128,0.35-0.353
	C6.313,13.469,6.071,13.521,6.051,13.859z M5.612,13.945C5.055,13.287,5.235,14.397,5.612,13.945L5.612,13.945z M6.491,14.209
	c0.166,0.038,0.219,0.188,0.438,0.176c0-0.176,0.238-0.111,0.175-0.352C6.884,13.844,6.503,13.789,6.491,14.209z M6.14,14.209
	c0.076-0.181-0.229-0.394-0.264-0.176C6.001,14.056,6.023,14.177,6.14,14.209z M4.823,14.385c0.174,0.001,0.111,0.238,0.35,0.176
	c0.047-0.131,0.132-0.222,0.178-0.352C5.179,13.977,4.832,14.012,4.823,14.385z M5.612,14.296c0.24-0.063,0.178,0.175,0.352,0.176
	C5.979,14.219,5.667,13.988,5.612,14.296z M6.665,14.648c0.051-0.235-0.36-0.447-0.438-0.264
	C6.388,14.479,6.446,14.868,6.665,14.648z M5.612,14.91c-0.063-0.239,0.175-0.177,0.176-0.35c-0.174-0.001-0.111-0.241-0.352-0.176
	C5.259,14.61,5.22,14.881,5.612,14.91z M4.385,14.823c0.099,0.019,0.136,0.097,0.175,0.174c0.239,0.065,0.177-0.173,0.352-0.174
	C4.927,14.394,4.368,14.394,4.385,14.823z M6.313,14.823c0.078-0.18-0.227-0.395-0.263-0.175
	C6.177,14.668,6.198,14.793,6.313,14.823z M5.7,15.174c0.24-0.064,0.178,0.173,0.351,0.174c0.026-0.177,0.237-0.17,0.263-0.351
	c-0.154-0.077-0.255-0.21-0.438-0.261C5.838,14.902,5.626,14.895,5.7,15.174z M4.823,15.261c0.166-0.019,0.193,0.099,0.35,0.087
	c0.021-0.097,0.099-0.137,0.178-0.174c0.014-0.22-0.136-0.275-0.264-0.351C5.06,15.029,4.782,14.984,4.823,15.261z M3.946,15.261
	c0.242,0.283,0.446,0.271,0.613-0.087c-0.178-0.024-0.171-0.237-0.35-0.264C4.184,15.09,3.972,15.083,3.946,15.261z M5.263,15.612
	c0.27-0.066,0.168,0.24,0.438,0.175c0.02-0.099,0.099-0.136,0.176-0.175C5.908,15.166,5.229,15.166,5.263,15.612z M7.454,15.787
	c0.176,0.001,0.113,0.239,0.352,0.176c-0.114-0.297,0.195-0.612,0-0.702C7.75,15.499,7.44,15.479,7.454,15.787z M14.909,15.348
	c-0.035,0.211,0.16,0.192,0.088,0.439c0.258-0.005,0.326-0.202,0.438-0.349C15.3,15.331,15.095,15.156,14.909,15.348z M4.473,15.699
	c0.212,0.274,0.387,0.067,0.526-0.174C4.827,15.292,4.48,15.328,4.473,15.699z M3.596,15.787c0.175,0.001,0.11,0.239,0.351,0.176
	c0.046-0.129,0.131-0.221,0.176-0.351C3.95,15.381,3.604,15.417,3.596,15.787z M4.823,16.051c0.271-0.065,0.168,0.24,0.439,0.176
	c0.018-0.098,0.096-0.138,0.174-0.176C5.41,15.544,4.915,15.728,4.823,16.051z M15.611,16.227c0.174-0.213,0.377-0.388,0-0.527
	C15.715,15.933,15.443,16.217,15.611,16.227z M4.385,16.313c-0.065-0.239,0.174-0.177,0.175-0.351
	c-0.174-0.001-0.111-0.239-0.35-0.176C4.032,16.014,3.992,16.284,4.385,16.313z M15.261,15.876c0,0.058,0,0.115,0,0.175
	c0.216,0.137,0.258-0.297,0.088-0.264C15.343,15.841,15.335,15.894,15.261,15.876z M3.157,16.227
	c0.098,0.018,0.137,0.097,0.176,0.175c0.239,0.064,0.176-0.175,0.351-0.175C3.7,15.796,3.141,15.796,3.157,16.227z M15.698,16.401
	c0.18,0.026,0.173,0.237,0.352,0.263c0.027-0.206,0.305-0.164,0.263-0.438C16.095,15.933,15.817,16.137,15.698,16.401z
	 M4.473,16.313c0.006,0.258,0.2,0.326,0.351,0.438c0.025-0.177,0.237-0.17,0.264-0.35C4.878,16.231,4.699,16.026,4.473,16.313z
	 M15.261,16.664c0.074-0.101,0.115-0.235,0.088-0.438c-0.121,0.003-0.193-0.042-0.264-0.087
	C15.166,16.291,15.114,16.576,15.261,16.664z M3.771,16.751c0.238,0.066,0.177-0.173,0.351-0.174
	c0.016-0.221-0.135-0.274-0.264-0.351C3.712,16.457,3.501,16.521,3.771,16.751z M2.718,16.664c0.242,0.284,0.446,0.271,0.615-0.087
	c-0.179-0.025-0.172-0.236-0.353-0.264C2.956,16.493,2.744,16.485,2.718,16.664z M16.577,17.016c0.122-0.115,0.314-0.464,0-0.526
	C16.601,16.643,16.329,16.928,16.577,17.016z M4.473,17.191c0.019-0.099,0.098-0.136,0.177-0.176
	c-0.008-0.257-0.202-0.325-0.352-0.438C3.992,16.807,4.03,17.105,4.473,17.191z M15.435,16.929c0.205,0.172,0.236,0.172,0.44,0
	c-0.011-0.224-0.128-0.34-0.351-0.352C15.544,16.742,15.424,16.771,15.435,16.929z M3.245,17.104
	c0.212,0.274,0.388,0.065,0.526-0.175C3.599,16.696,3.253,16.732,3.245,17.104z M2.368,17.191c0.174,0,0.111,0.24,0.35,0.175
	c-0.063-0.239,0.176-0.177,0.176-0.351C2.722,16.783,2.376,16.819,2.368,17.191z M16.664,17.278c0.271,0.24,0.471,0.115,0.612-0.175
	c-0.178-0.026-0.17-0.237-0.35-0.263C16.899,17.046,16.622,17.004,16.664,17.278z M15.875,17.278
	c0.125,0.021,0.147,0.145,0.263,0.175c0.121-0.112,0.152-0.522-0.088-0.524C16.048,17.102,15.811,17.039,15.875,17.278z
	 M3.684,17.453c0.098,0.019,0.136,0.099,0.175,0.177c0.239,0.062,0.177-0.176,0.352-0.177C4.227,17.023,3.667,17.023,3.684,17.453z
	 M2.806,17.541c0.174,0.003,0.113,0.24,0.352,0.177c-0.064-0.241,0.174-0.178,0.176-0.352C3.161,17.135,2.814,17.169,2.806,17.541z
	 M1.929,17.63c0.099,0.019,0.138,0.098,0.176,0.176c0.24,0.063,0.176-0.175,0.351-0.176C2.473,17.199,1.913,17.199,1.929,17.63z
	 M17.103,17.63c0.179,0.025,0.172,0.236,0.351,0.263c0.028-0.206,0.305-0.162,0.263-0.439C17.499,17.161,17.222,17.364,17.103,17.63
	z M15.435,17.718c0.244,0.282,0.447,0.27,0.615-0.088c-0.179-0.026-0.172-0.238-0.352-0.264
	C15.673,17.546,15.462,17.539,15.435,17.718z M16.313,17.718c0.227,0.179,0.497,0.217,0.526-0.177
	C16.614,17.364,16.343,17.325,16.313,17.718z M3.245,17.718c0.006,0.256,0.201,0.325,0.351,0.438
	c0.026-0.179,0.237-0.172,0.263-0.35C3.649,17.633,3.472,17.429,3.245,17.718z M2.543,18.155c0.239,0.064,0.177-0.174,0.351-0.175
	c0.016-0.221-0.135-0.274-0.262-0.351C2.483,17.859,2.273,17.925,2.543,18.155z M1.491,18.066c0.382,0.453,0.867-0.191,0.262-0.349
	C1.728,17.896,1.517,17.889,1.491,18.066z M17.628,18.066c0.099,0.021,0.137,0.1,0.176,0.178c0.246-0.019,0.375-0.153,0.351-0.438
	C17.89,17.68,17.649,17.733,17.628,18.066z M17.103,18.331c0.019-0.1,0.097-0.137,0.174-0.176c-0.01-0.223-0.127-0.34-0.35-0.35
	C16.653,18.018,16.86,18.193,17.103,18.331z M16.138,18.331c0.224-0.011,0.34-0.128,0.351-0.351
	c-0.112-0.005-0.122-0.112-0.263-0.088C16.298,18.14,16.102,18.119,16.138,18.331z M3.245,18.594
	c-0.064-0.239,0.174-0.176,0.176-0.35c-0.18-0.027-0.172-0.237-0.352-0.264C2.764,18.21,2.802,18.509,3.245,18.594z M15.787,18.946
	c0.169-0.389,0.233-0.825-0.263-0.88C15.628,18.344,15.621,18.729,15.787,18.946z M18.067,18.506
	c0.098,0.019,0.137,0.098,0.176,0.177c0.447,0.031,0.447-0.646,0-0.616C18.308,18.337,18.001,18.236,18.067,18.506z M1.491,18.771
	c-0.065-0.271,0.24-0.17,0.176-0.439c-0.24,0.063-0.178-0.174-0.352-0.176C1.126,18.378,1.069,18.758,1.491,18.771z M2.017,18.506
	C2.858,18.875,2.253,17.627,2.017,18.506L2.017,18.506z M16.401,18.594c0.234,0.143,0.333,0.202,0.525,0
	c-0.006-0.258-0.201-0.326-0.35-0.438C16.538,18.322,16.388,18.376,16.401,18.594z M17.276,18.506
	c0.175,0.002,0.112,0.239,0.352,0.177c0.273-0.213,0.066-0.388-0.175-0.527C17.451,18.329,17.214,18.266,17.276,18.506z
	 M2.455,18.857c0.235,0.144,0.333,0.202,0.525,0C2.997,18.429,2.438,18.429,2.455,18.857z M18.506,18.857
	c0.099,0.019,0.136,0.097,0.175,0.175c0.258-0.005,0.326-0.2,0.438-0.35c-0.167-0.037-0.157-0.251-0.438-0.177
	C18.745,18.745,18.507,18.683,18.506,18.857z M1.578,18.946c0.174,0,0.111,0.238,0.351,0.174c-0.065-0.27,0.24-0.169,0.176-0.438
	C1.839,18.557,1.599,18.608,1.578,18.946z M17.19,19.208c0.242-0.168,0.22-0.626-0.176-0.614
	C16.774,18.865,16.901,19.064,17.19,19.208z M17.716,18.946c0.227,0.177,0.497,0.217,0.527-0.176
	c-0.168-0.039-0.222-0.189-0.439-0.177C17.823,18.761,17.706,18.788,17.716,18.946z M0.701,19.032c0.235,0.142,0.333,0.201,0.526,0
	C1.243,18.603,0.686,18.603,0.701,19.032z M19.382,19.472c0.24-0.271,0.116-0.47-0.175-0.614
	C18.901,19.088,18.94,19.387,19.382,19.472z M2.017,19.296c0.168,0.242,0.626,0.221,0.615-0.176
	C2.409,18.931,2.03,18.875,2.017,19.296z M18.506,19.472c0.272-0.213,0.066-0.387-0.177-0.525
	C18.151,19.17,18.112,19.442,18.506,19.472z M1.315,19.56c0.24,0.063,0.176-0.175,0.352-0.176c0.014-0.221-0.135-0.274-0.266-0.352
	C1.257,19.263,1.046,19.329,1.315,19.56z M17.276,19.384c0.271-0.066,0.17,0.24,0.439,0.176c0.047-0.131,0.131-0.222,0.176-0.352
	c-0.166-0.038-0.22-0.188-0.438-0.176C17.407,19.163,17.323,19.252,17.276,19.384z M0.263,19.472
	c0.166,0.036,0.22,0.188,0.438,0.176c0.001-0.175,0.239-0.113,0.175-0.352C0.638,19.36,0.7,19.121,0.525,19.12
	C0.499,19.3,0.288,19.292,0.263,19.472z M19.821,19.91c0.037-0.167,0.188-0.221,0.174-0.438c-0.172-0.002-0.11-0.239-0.349-0.176
	C19.456,19.517,19.401,19.896,19.821,19.91z M2.017,19.999c-0.064-0.241,0.175-0.18,0.176-0.352
	c-0.178-0.027-0.172-0.238-0.351-0.264C1.536,19.614,1.574,19.911,2.017,19.999z M17.804,19.821
	c0.174,0.001,0.111,0.238,0.351,0.178c0.188-0.323,0.149-0.438-0.176-0.615C17.941,19.55,17.79,19.604,17.804,19.821z
	 M18.593,19.734c0.271-0.065,0.169,0.241,0.439,0.176c0.02-0.068,0.003-0.174,0.087-0.176
	C19.136,19.305,18.577,19.305,18.593,19.734z M0.79,19.91c0.199,0.19,0.546,0.033,0.525-0.263c-0.239,0.063-0.177-0.175-0.351-0.176
	C1.03,19.741,0.724,19.641,0.79,19.91z M20.26,20.349c0.051-0.183,0.185-0.285,0.263-0.438c-0.167-0.037-0.221-0.189-0.438-0.176
	C19.845,20.006,19.97,20.204,20.26,20.349z M18.243,20.173c0.166,0.037,0.158,0.251,0.438,0.176
	c0.021-0.067,0.004-0.174,0.088-0.176C18.784,19.743,18.226,19.743,18.243,20.173z M19.119,19.91
	c-0.022,0.285,0.104,0.422,0.351,0.438c-0.064-0.24,0.176-0.177,0.177-0.35C19.511,19.891,19.305,19.718,19.119,19.91z
	 M1.228,20.261c0.098,0.019,0.136,0.098,0.174,0.176c0.241,0.063,0.178-0.176,0.352-0.176C1.77,19.831,1.211,19.831,1.228,20.261z
	 M19.558,20.349c0.008,0.257,0.2,0.326,0.352,0.438c0.188-0.321,0.148-0.438-0.176-0.614C19.716,20.271,19.637,20.311,19.558,20.349
	z M18.681,20.611c0.27-0.065,0.169,0.241,0.438,0.176c-0.063-0.239,0.175-0.177,0.176-0.351
	C19.074,20.246,18.694,20.19,18.681,20.611z M19.558,21.225c0.188-0.321,0.149-0.437-0.176-0.613
	C19.14,20.778,19.161,21.236,19.558,21.225z"/>
</svg>
