<?xml version="1.0" encoding="utf-8"?>
<!-- Generator: Adobe Illustrator 15.0.2, SVG Export Plug-In  -->
<!DOCTYPE svg PUBLIC "-//W3C//DTD SVG 1.1//EN" "http://www.w3.org/Graphics/SVG/1.1/DTD/svg11.dtd" [
	<!ENTITY ns_flows "http://ns.adobe.com/Flows/1.0/">
]>
<svg version="1.1"
	 xmlns="http://www.w3.org/2000/svg" xmlns:xlink="http://www.w3.org/1999/xlink" xmlns:a="http://ns.adobe.com/AdobeSVGViewerExtensions/3.0/"
	 x="0px" y="0px" width="43px" height="30px" viewBox="0 0 43 30" enable-background="new 0 0 43 30" xml:space="preserve">
<defs>
</defs>
<path fill="#123D5A" d="M41.522,23.939L29.905,1.78L30.304,0c0,0-0.321,0.161-0.684,0.37l-0.079-0.082l-0.28,0.276l-0.127,0.104
	c-0.212,0.141-0.391,0.279-0.476,0.39l-4.054,3.334l-0.392-2.216c0,0-1.58-1.313-1.534-0.978c0.018,0.147,0.374,2.057,0.766,4.146
	L1.031,23.771C0.389,23.855,0.026,23.911,0,23.915l0.206,1.321v4.798h1.301v-4.978c1.611-0.208,4.647-0.558,8.646-0.828v5.806h1.3
	v-5.89c2.382-0.144,5.054-0.252,7.936-0.287l-2.614,6.177h3.763l1.197-3.936h-0.006c0,0,0.046-0.145,0.127-0.394
	c0.071-0.348,0.178-0.685,0.324-0.999c0.083-0.258,0.179-0.548,0.277-0.858c0.546,0.004,1.108,0.019,1.665,0.028l-0.08,1.242
	c-0.152,0.092-0.307,0.204-0.465,0.354c-0.16,0.156-0.33,0.383-0.422,0.688c-0.091,0.305-0.059,0.659,0.04,0.908
	c0.137,0.34,0.313,0.566,0.493,0.751v2.215h0.808V28.49c0.083,0.057,0.168,0.115,0.251,0.169c0.921,0.57,1.854,0.986,2.791,1.375
	h2.799l0.008,0.034l0.164-0.034h4.444c-0.06-0.015-0.117-0.026-0.176-0.039l-2.051-5.39c0.615-0.064,1.229-0.124,1.843-0.173
	c1.934,0.181,3.886,0.407,5.847,0.69v4.911h1.299v-4.718c0.501,0.078,1.004,0.158,1.506,0.244l0.228-1.319
	C42.808,24.131,42.164,24.036,41.522,23.939z M27.457,6.964c0,0-0.837,3.426-0.952,3.418s-0.509,0.079-0.592-0.041
	c-0.038-0.054-0.245-0.572-0.449-1.169l1.294-2.206C27.15,6.956,27.457,6.964,27.457,6.964z M25.422,14.718l0.235,7.854
	c-0.378-0.01-0.744-0.014-1.116-0.021l0.406-6.365C25.123,15.646,25.283,15.152,25.422,14.718z M25.729,13.775
	c0.065-0.195,0.123-0.371,0.163-0.496l1.247,9.344c-0.383-0.016-0.769-0.034-1.146-0.045L25.729,13.775z M27.316,23.967l0.025,0.196
	c-0.429,0.065-0.86,0.146-1.294,0.243l-0.016-0.487C26.457,23.932,26.889,23.949,27.316,23.967z M27.659,23.979
	c0.289,0.014,0.567,0.019,0.86,0.033c-0.158,0.019-0.313,0.029-0.467,0.048c-0.125,0.019-0.251,0.037-0.378,0.055L27.659,23.979z
	 M27.477,22.637l-1.3-9.76c0.156,0.017,0.344,0.142,0.344,0.142l0.543,1.702l1.702,7.97C28.334,22.669,27.906,22.652,27.477,22.637z
	 M28.104,17.998l1.504,4.729c-0.168-0.008-0.33-0.012-0.497-0.021L28.104,17.998z M27.877,4.396l-0.73,1.245L26.42,5.698
	l1.807-2.527C28.112,3.59,27.987,4.017,27.877,4.396z M23.601,6.169L6.42,23.183c-0.968,0.087-1.839,0.175-2.609,0.258L23.597,6.155
	C23.599,6.158,23.599,6.164,23.601,6.169z M23.675,6.565c0.039,0.207,0.076,0.412,0.116,0.615L9.628,22.803l0.127,0.114
	c-1.002,0.071-1.943,0.146-2.813,0.22L23.675,6.565z M24.858,5.826l-0.063-0.37l2.982-2.955l0.786-0.685
	c-0.01,0.04-0.018,0.083-0.027,0.127L25.03,5.812L24.858,5.826z M27.594,3.482l-1.611,2.252L25.52,5.772L27.594,3.482z
	 M25.052,7.609l0.356-0.496c0.253-0.072,0.605-0.111,0.952-0.13l-1.035,1.763C25.192,8.317,25.082,7.896,25.052,7.609z
	 M24.387,10.347l-7.161,12.216c-1.012,0.026-1.993,0.061-2.939,0.101l9.832-13.747C24.227,9.494,24.319,9.991,24.387,10.347z
	 M29.404,4.029l9.589,19.554c-0.852-0.108-1.702-0.209-2.548-0.299l-7.421-17.56L29.404,4.029z M24.714,4.734l-0.042,0.037V4.77
	L24.714,4.734z M23.516,5.721c0.002,0.017,0.006,0.035,0.01,0.052L3.23,23.505c-0.605,0.066-1.13,0.13-1.573,0.186L23.516,5.721z
	 M9.99,22.9L23.868,7.593c0.058,0.301,0.111,0.592,0.164,0.868l-10.17,14.221C12.492,22.742,11.2,22.819,9.99,22.9z M19.955,22.515
	c-0.794,0.007-1.571,0.021-2.336,0.039l6.862-11.706c0.013,0.059,0.019,0.094,0.019,0.094l-0.069,0.995L19.955,22.515z
	 M22.891,22.517c0.507-1.56,1.104-3.4,1.641-5.051l-0.324,5.077C23.77,22.535,23.322,22.521,22.891,22.517z M24.387,24.934
	l0.067-1.052c0.416,0.008,0.823,0.013,1.243,0.024l0.018,0.581c-0.392,0.102-0.785,0.22-1.189,0.384
	C24.481,24.891,24.435,24.913,24.387,24.934z M24.65,26.565c-0.008,0.021-0.01,0.011,0.002-0.012
	C24.65,26.558,24.652,26.563,24.65,26.565z M24.992,26.811c-0.162-0.114-0.278-0.249-0.311-0.295
	c0.081-0.095,0.262-0.224,0.466-0.327c0.189-0.097,0.399-0.181,0.611-0.261l0.039,1.356c-0.061-0.031-0.128-0.06-0.189-0.091
	C25.385,27.071,25.169,26.941,24.992,26.811z M26.137,27.447l-0.048-1.636c0.455-0.152,0.933-0.282,1.422-0.394l0.364,2.716
	C27.274,27.928,26.688,27.7,26.137,27.447z M28.646,28.391c-0.139-0.044-0.279-0.094-0.42-0.14l-0.388-2.905
	c0.137-0.029,0.273-0.061,0.41-0.088c0.34-0.067,0.685-0.118,1.029-0.177l0.798,3.725C29.599,28.672,29.118,28.54,28.646,28.391z
	 M30.759,29.006c-0.105-0.03-0.212-0.063-0.318-0.094l-0.832-3.887c0.196-0.031,0.391-0.071,0.588-0.1
	c0.175,0.423,0.289,0.876,0.321,1.359c0.031,0.471-0.019,0.926-0.127,1.359c0.166,0.011,0.33,0.021,0.505,0.033l0.438,1.374
	C31.333,29.052,31.119,29.035,30.759,29.006z M32.073,22.885l-4.202-11.04l0.099-1.396l0.532-2.389l5.337,14.972
	C33.247,22.981,32.657,22.929,32.073,22.885z M34.203,23.063L28.639,7.448L28.9,6.285l7.165,16.958
	C35.442,23.18,34.82,23.117,34.203,23.063z M39.391,23.637l-9.869-20.13l0.273-1.221l11.316,21.589
	C40.537,23.79,39.965,23.711,39.391,23.637z"/>
</svg>
