<?xml version="1.0" encoding="utf-8"?>
<!-- Generator: Adobe Illustrator 15.0.2, SVG Export Plug-In  -->
<!DOCTYPE svg PUBLIC "-//W3C//DTD SVG 1.1//EN" "http://www.w3.org/Graphics/SVG/1.1/DTD/svg11.dtd" [
	<!ENTITY ns_flows "http://ns.adobe.com/Flows/1.0/">
]>
<svg version="1.1"
	 xmlns="http://www.w3.org/2000/svg" xmlns:xlink="http://www.w3.org/1999/xlink" xmlns:a="http://ns.adobe.com/AdobeSVGViewerExtensions/3.0/"
	 x="0px" y="0px" width="40px" height="38px" viewBox="0 0 40 38" enable-background="new 0 0 40 38" xml:space="preserve">
<defs>
</defs>
<path fill="#ED1C24" d="M40.429,32.069c-0.338-0.044-0.681-0.083-1.029-0.12c-0.002-0.014-0.004-0.025-0.006-0.038
	c-0.006-0.049-0.006-0.101-0.012-0.148c0.081,0.012,0.164,0.022,0.241,0.038c0.154-0.4,0.015-0.607-0.245-0.729
	c0-0.063,0.004-0.128,0.004-0.193c0.069,0.008,0.146,0.007,0.241-0.017c-0.037-0.947,0.163-2.133-0.342-2.616
	c-0.012-0.258-0.073-0.515-0.233-0.778c-0.717-2.389-1.453-4.759-2.108-7.208h-0.097c0.016-0.089,0.023-0.18,0.029-0.271
	c0.021,0.001,0.043,0.001,0.067,0.003c0.016-0.331,0.021-0.647-0.135-0.807c-0.018,0.003-0.036,0.007-0.054,0.008
	c0-0.017-0.002-0.034-0.002-0.053c0.018-0.019,0.03-0.041,0.038-0.07c0.145,0.001,0.261-0.029,0.287-0.15
	c-0.362-0.223-0.206-0.961-0.673-1.075c0.326,0.552-0.317,0.571-0.268,1.209c0.062-0.02,0.143-0.02,0.226-0.015
	c0.008,0.112,0.016,0.159,0.048,0.268c-0.058,0.038-0.107,0.085-0.139,0.149c0.081-0.014,0.116,0.019,0.133,0.066
	c0.006,0.014,0.002,0.027,0.008,0.043c0.004,0.014,0.004,0.03,0.008,0.044c0,0.182-0.09,0.453,0.037,0.507
	c0,0.047,0,0.097-0.004,0.145h-0.049c-0.549,2.692-1.079,5.315-1.428,7.729c-0.016,0.03-0.035,0.056-0.052,0.086
	c-0.368,0.736-0.59,1.981-0.34,2.797c0.045,0.15,0.106,0.293,0.176,0.429c-0.014,0.039-0.018,0.078-0.027,0.118
	c-0.021,0.037-0.026,0.08-0.03,0.12c-0.031,0.19-0.031,0.39,0.008,0.59c-0.365,0.081-0.734,0.158-1.124,0.211
	c0,0.314,0,0.628,0,0.942c-0.106,0.116-0.196,0.248-0.259,0.388c-0.246-0.046-0.447-0.085-0.564-0.101
	c-0.127-0.017-0.256-0.019-0.386-0.016c0-0.001,0-0.004,0.002-0.005c-0.032,0.001-0.062,0.001-0.096,0.003
	c0.009-0.182-0.016-0.36-0.059-0.533c-0.058-0.774-0.092-1.167-0.115-1.887c-0.237,0.002-0.475,0.006-0.711,0.006
	c-0.008-0.045-0.018-0.089-0.025-0.135c-0.063-0.27-0.222-0.521-0.432-0.726c-0.049-0.091-0.108-0.18-0.18-0.263
	c0.104-0.095,0.189-0.205,0.141-0.357c-0.491-0.088-0.948-0.594-1.491-0.541c0.002-0.141-0.008-0.279-0.035-0.413
	c0.154-0.736-0.125-1.561-0.491-2.09c-0.097-0.308-0.281-0.583-0.548-0.769c0.002-0.424,0.025-0.832,0.073-1.209
	c0.146-0.237,0.231-0.51,0.231-0.809c0-0.354-0.125-0.69-0.335-0.96c-0.143-0.354-0.364-0.626-0.783-0.705
	c0.069-0.247,0.126-0.498,0.152-0.757c0.056-0.577,0.029-1.145,0.004-1.712v-0.01c0.212-0.147,0.388-0.341,0.524-0.552
	c0.069-0.109,0.158-0.343,0.2-0.506c0.035-0.122,0.073-0.403,0.081-0.473c0.75-2.377-1.891-3.69-2.895-5.662
	c-0.002-0.211-0.018-0.411-0.079-0.618c-0.021-0.075,0.015-0.165-0.012-0.24c-0.021-0.057-0.045-0.108-0.071-0.158l0,0
	c0-0.035-0.01-0.063-0.023-0.088c0.193-0.401-0.388-2.218,0.394-2.4c-0.419,0.154-0.322-0.21-0.534-0.269
	c0.172,0.53-0.392,0.326-0.402,0.671c0.867-0.42,0.157,1.462,0.373,1.918c-0.082,0.005-0.159,0.06-0.159,0.168
	c0,0.063,0.011,0.112,0.05,0.165c0.048,0.056,0.031,0.166,0.034,0.237c0.004,0.065,0.025,0.127,0.045,0.187
	c-0.548,2.537-4.528,4.021-2.355,6.856v-0.001c0.006,0.008,0.012,0.02,0.02,0.027c0.105,0.115,0.25,0.178,0.404,0.213
	c-0.004,0.01-0.016,0.019-0.02,0.026c0.047,0,0.099-0.001,0.148-0.001c0.006,0,0.014,0,0.021,0c0,0.005,0.004,0.009,0.004,0.014
	c-0.044,0.502-0.052,1.006-0.006,1.509c0.014,0.146,0.031,0.274,0.058,0.396c-0.028,0.079-0.044,0.157-0.067,0.235
	c-0.008-0.001-0.016-0.006-0.026-0.005c0.006,0.027,0.002,0.054,0.002,0.082c-0.016,0.06-0.035,0.121-0.051,0.183
	c-0.006,0.015-0.012,0.031-0.021,0.047c0.143-0.401-0.378,0.564-0.415,0.693c-0.102,0.367-0.102,0.737-0.046,1.104
	c-0.01,0.029-0.025,0.055-0.033,0.086c-0.022,0.077-0.036,0.159-0.044,0.243c-0.006-0.002-0.008-0.002-0.012-0.003
	c-0.139-0.361-0.19-0.806-0.2-1.187c0.004-0.015,0.008-0.027,0.014-0.041c-0.004-0.004-0.01-0.007-0.014-0.011
	c-0.002-0.107-0.002-0.213,0.004-0.306c0.01-0.329-0.055-0.6-0.176-0.819c-0.121-1.138-0.249-2.268-0.351-3.428
	c-0.087-0.005-0.166-0.016-0.247-0.027c0.008-0.151,0-0.302-0.022-0.446c-0.004-1.868-1.055-4.132-0.271-5.431
	c-0.243-0.021-0.517-0.091-0.786-0.171c-0.008-0.088-0.031-0.172-0.062-0.253c0.014,0.007,0.03,0.015,0.046,0.021
	c-0.04-0.454-0.216-0.771-0.135-1.344c-0.43,0.117-0.42-0.205-0.536-0.402c-0.382-1.295-0.774-2.579-1.194-3.836
	c0.009-0.021,0.019-0.039,0.026-0.063c0.037-0.178,0.027-0.358,0.006-0.539c0.031,0.004,0.06,0.004,0.087,0.01
	c0.228-0.456-0.168-0.754-0.158-1.367c0.046-0.054,0.071-0.124,0.075-0.208c0.002-0.063,0.008-0.131,0.008-0.201
	c0.023,0.012,0.052,0.019,0.075,0.031c-0.11-0.38,0.19-0.346,0.135-0.67c0-0.002-0.002-0.002-0.002-0.003
	c0.097-0.055,0.16-0.156,0.182-0.265c0.032,0.001,0.062,0,0.09-0.001C19.303,1.478,18.415,0.909,18.197,0
	c0.067,1.067-1.295,1.628-1.025,2.795c-0.058,0.183,0.006,0.4,0.231,0.44c0.016,0.003,0.036,0,0.054,0.001
	c0.006,0.219,0.201,0.245,0.156,0.514c0.075-0.013,0.15-0.027,0.224-0.041c0,0.043,0.002,0.087,0.002,0.129
	c0.002,0.039,0.014,0.078,0.027,0.111c-0.126,0.518-0.441,0.85-0.388,1.546c0.071,0.049,0.176,0.058,0.303,0.053
	c0,0.021,0,0.046,0,0.071c-0.014,0.054-0.029,0.105-0.039,0.16c-0.642,1.893-1.22,3.846-1.927,5.671
	c-0.104,0.157-0.186,0.329-0.265,0.499c-0.154,0.004-0.316,0-0.485-0.012c0.804,1.452-0.421,3.648-0.291,5.428
	c-0.033,0.083-0.062,0.172-0.083,0.255c-0.025,0.083-0.039,0.171-0.056,0.26c-0.12,0.036-0.243,0.071-0.378,0.097
	c0.347,0.61,0.079,1.92,0.121,3c-0.143-0.065-0.283-0.139-0.422-0.217c-0.237-0.453-0.584-0.802-0.37-1.708
	c-0.029-0.007-0.058-0.015-0.087-0.021c0.029-0.08,0.052-0.165,0.065-0.251c0.006,0,0.014,0.002,0.021,0.004
	c-0.008-0.048-0.008-0.087-0.008-0.128c0,0,0-0.002,0-0.003c0,0-0.002-0.003,0-0.005c0.002-0.313,0.208-0.423,0.275-0.671
	c-0.019-0.005-0.044-0.01-0.065-0.017c0.056-0.207,0.058-0.438,0.027-0.663c0.012,0.003,0.028,0.006,0.038,0.011
	c1.201-2.715-2.012-3.121-2.014-5.505h-0.006c-0.006-0.044-0.016-0.087-0.029-0.131c0.012-0.001,0.023,0,0.035-0.002
	c-0.045-0.389-0.271-2.172,0.038-2.599c-0.226,0.165-0.058-0.29-0.305-0.355c0.143,0.501-0.283,0.434-0.404,0.671
	c0.827,0.056,0.335,1.823,0.135,2.147c0.023,0.006,0.042,0.018,0.062,0.026v0.052c-0.004,0.006-0.012,0.009-0.016,0.018v0.001
	c-0.008,0.007-0.017,0.013-0.022,0.02c-0.045,0.05-0.063,0.124-0.02,0.196l0.008,0.013c0.023,0.044,0.069,0.069,0.119,0.08
	c-0.091,2.229-3.33,2.938-1.928,5.402c-0.017,0.071-0.015,0.146,0.021,0.226c0.02,0.042,0.039,0.08,0.065,0.12
	c-0.012,0.008-0.026,0.014-0.034,0.021c0.01-0.005,0.022-0.01,0.036-0.013c0.033,0.054,0.067,0.101,0.104,0.146
	c-0.002,0-0.004,0.001-0.008,0.002c0.042,0.302,0.196,0.491,0.141,0.888c-0.135,0.149-0.152,0.388-0.004,0.515v1.014
	c0.004-0.002,0.006-0.002,0.014-0.005c-0.083,0.042-0.166,0.088-0.249,0.14H9.157c0.025,0.197-0.079,0.27-0.117,0.406
	c-0.231,0.207-0.428,0.438-0.55,0.672c-0.022,0.041-0.04,0.086-0.058,0.129c-0.143,0.204-0.233,0.505-0.229,0.896
	c-0.177,0.371-0.214,0.836-0.214,1.204c0,0.345,0.093,0.659,0.249,0.938c-0.004,0.118,0.048,0.214,0.129,0.272
	c0.021,0.877-0.077,1.872-0.016,2.71c-0.295,0.354-0.39,0.786-0.331,1.192c-0.023,0.015-0.051,0.022-0.071,0.034
	c0.032,0.011,0.058,0.023,0.082,0.037c0.023,0.134,0.064,0.262,0.12,0.385c-0.02,0.266-0.112,0.579,0.052,0.72
	c-0.083,0.041-0.166,0.087-0.25,0.142c-0.134,0.092-0.243,0.136-0.334,0.157c0.045,0.013,0.097,0.028,0.16,0.053
	c-0.06-0.023-0.117-0.032-0.178-0.045c-0.158,0.036-0.222-0.01-0.171-0.027c-0.158-0.008-0.32,0.012-0.475,0.056
	c-0.071,0-0.143,0-0.214,0c-0.196-1.011-0.524-1.891-0.671-2.951c-0.321,1.69-0.736,3.292-1.477,4.562
	c-0.089,0.013-0.196,0.008-0.279,0.025c-0.129-0.01-0.264-0.02-0.397-0.021c0.002-0.001,0.004-0.003,0.006-0.004
	c-0.481-0.815-0.885-2.422-1.071-3.087c-0.441,1.622-1.467,2.655-2.189,3.99c-0.172,0.095-0.336,0.204-0.501,0.327
	c-0.213,0.16-0.195,0.401-0.063,0.54c0.22,1.18-0.048,3.17,0.066,4.002c4.541-0.005,9.144-0.007,13.781-0.005
	c0.538,0.176,1.071,0.144,1.673,0.046c0.112-0.02,0.228-0.032,0.342-0.046c5.339,0,10.732,0.005,16.154,0.005
	c0.077,0.007,0.15,0.019,0.233,0.017c0.073-0.008,0.148-0.012,0.222-0.017c2.569,0.001,5.143,0.001,7.724,0
	C40.578,36.064,40.362,33.926,40.429,32.069z M28.436,18.402c0.006-0.052,0.006-0.096,0.012-0.146
	c0.01-0.023,0.015-0.046,0.022-0.069C28.462,18.229,28.452,18.295,28.436,18.402z"/>
</svg>
