<?xml version="1.0" encoding="utf-8"?>
<!-- Generator: Adobe Illustrator 15.0.2, SVG Export Plug-In  -->
<!DOCTYPE svg PUBLIC "-//W3C//DTD SVG 1.1//EN" "http://www.w3.org/Graphics/SVG/1.1/DTD/svg11.dtd" [
	<!ENTITY ns_flows "http://ns.adobe.com/Flows/1.0/">
]>
<svg version="1.1"
	 xmlns="http://www.w3.org/2000/svg" xmlns:xlink="http://www.w3.org/1999/xlink" xmlns:a="http://ns.adobe.com/AdobeSVGViewerExtensions/3.0/"
	 x="0px" y="0px" width="55px" height="21px" viewBox="0 0 55 21" enable-background="new 0 0 55 21" xml:space="preserve">
<defs>
</defs>
<path fill="#6590A4" d="M55.109,20.622c0.069-0.847-1.526-0.029-1.841-0.492c-0.192-0.927,0.222-1.252,0.368-1.842
	c-0.443-0.046-0.881-0.07-1.322-0.081c0.002-0.005,0.004-0.009,0.004-0.012c0.029-0.007,0.057-0.012,0.091-0.029
	c0.196-0.062,0.253-0.843-0.133-0.773c-0.031-0.1-0.073-0.192-0.125-0.279c0.133-0.014,0.258-0.032,0.38-0.054
	c-0.18-0.003-0.357-0.062-0.53-0.15c-0.13-0.146-0.299-0.264-0.509-0.341c-0.588-0.458-1.161-1.042-1.785-0.856
	c-0.048,0.014-0.101,0.029-0.154,0.046c0.166-0.189,0.277-0.395,0.339-0.608c0.201-0.176,0.392-0.358,0.571-0.551
	c0.004-0.007,0.01-0.013,0.019-0.02c0.101-0.114,0.199-0.23,0.295-0.349c0.023-0.025,0.041-0.049,0.059-0.075
	c0.079-0.101,0.157-0.202,0.23-0.307c0.025-0.034,0.047-0.066,0.071-0.102c0.066-0.095,0.134-0.191,0.193-0.288
	c0.026-0.038,0.05-0.079,0.073-0.115c0.06-0.097,0.115-0.189,0.168-0.284c0.024-0.041,0.046-0.079,0.069-0.12
	c0.054-0.097,0.105-0.194,0.159-0.292c0.018-0.035,0.035-0.071,0.053-0.104c0.065-0.133,0.127-0.264,0.188-0.391
	c-0.434,0.254-0.848,0.528-1.251,0.814c-0.01-0.066-0.021-0.131-0.038-0.195c0.535-0.382,1.089-0.75,1.657-1.11
	c-3.23-0.343-6.576,0.025-8.689,1.229c-0.226,0.02-0.426,0.085-0.599,0.185c-0.322-0.181-0.65-0.351-0.995-0.509
	c-0.707-0.327-1.338-0.671-2.027-0.91c0.83-1.188,1.705-2.327,2.368-3.678c-3.805-0.854-7.987-0.017-10.753,1.46
	c-0.06-0.226-0.184-0.428-0.374-0.579c-0.847-1.165-2.013-2.28-3.046-3.06c-0.26-0.265-0.57-0.457-0.933-0.553
	C24.913,2.555,21.698,0.627,17.182,0c0.267,2.188,1.151,4.41,1.227,6.383c-1.677-1.105-3.873-1.69-6.504-1.841
	c0.166,1.301,0.394,2.539,0.488,3.91c-0.008,0.003-0.016,0.005-0.023,0.007c-1.974-0.834-5.156-1.274-7.585-0.604
	c0.902,2.05,1.69,4.213,2.484,6.372c-0.036,0.043-0.067,0.085-0.102,0.125c-0.558-1.562-2.973,0.412-4.47,0.255
	c0.175,0.649,0.977,0.979,1.863,1.036c-0.032,0.059-0.056,0.121-0.079,0.182c-0.309-0.021-0.622-0.058-0.925-0.112
	c-0.152,0.816,0.418,1.167,0.982,1.428c0.059,0.074,0.138,0.168,0.215,0.256c-0.665-0.296-1.405-0.516-2.302-0.58
	c-0.501,0.498-0.815,1.18-0.883,2.112c-0.164,0.437-0.131,0.931,0.107,1.324H0v0.982h17.828c1.048,0.225,2.346,0.032,3.411,0.032
	c0.396,0,0.796-0.012,1.189-0.032h19.424c3.997,0,8.269,0.313,12.027,0C54.177,21.211,55.349,21.551,55.109,20.622z"/>
</svg>
