<?xml version="1.0" encoding="utf-8"?>
<!-- Generator: Adobe Illustrator 15.0.2, SVG Export Plug-In  -->
<!DOCTYPE svg PUBLIC "-//W3C//DTD SVG 1.1//EN" "http://www.w3.org/Graphics/SVG/1.1/DTD/svg11.dtd" [
	<!ENTITY ns_flows "http://ns.adobe.com/Flows/1.0/">
]>
<svg version="1.1"
	 xmlns="http://www.w3.org/2000/svg" xmlns:xlink="http://www.w3.org/1999/xlink" xmlns:a="http://ns.adobe.com/AdobeSVGViewerExtensions/3.0/"
	 x="0px" y="0px" width="34px" height="33px" viewBox="0 0 34 33" enable-background="new 0 0 34 33" xml:space="preserve">
<defs>
</defs>
<path fill="#6590A4" d="M33.251,31.915c-0.298-1.932-0.212-4.247-0.216-6.47c-0.042-0.004-0.085-0.005-0.128-0.008
	c0.164-0.131,0.208-0.367,0.128-0.557c0-1.608,0-3.219,0-4.828c-0.062-0.367,0.86-0.717,0.323-0.86c-3.361,0-6.722,0-10.084,0
	c-0.146-0.129-0.344-0.211-0.59-0.239c0-0.072,0-0.146,0-0.218c0.445-0.093,0.449-0.77,0.01-0.874
	c0.01-0.054,0.021-0.103,0.025-0.159c0.012-0.163-0.006-0.306-0.048-0.432c0.054-0.411,0.317-0.913,0.013-1.097
	c-0.137,0.006-0.279,0.013-0.422,0.019c0.051-0.112,0.086-0.229,0.103-0.353c0.305-0.087,0.513-0.271,0.535-0.64
	c-0.22-0.054-0.43-0.066-0.634-0.06c-0.034-0.076-0.076-0.148-0.127-0.214c0.543-0.016,1.002-0.114,1.192-0.48
	c-0.091-0.231-0.687,0.041-0.755-0.215c0.109-1.026-0.498-1.017-0.108-1.833c-0.319-0.291-0.144-1.078-0.646-1.186
	c0.096,0.779-0.377,0.988-0.432,1.617c0.543,0.468-0.191,0.839-0.217,1.616c-0.346-0.023-0.455,0.19-0.861,0.108
	c0.059-1.88-0.128-4.008,0.107-5.713c-0.043,0-0.086,0-0.127,0c0.008-0.11,0.008-0.217-0.008-0.325c0.01,0,0.018,0,0.027,0
	c0.055-1.668-0.162-3.61,0.216-4.959c-0.048-0.001-0.097-0.001-0.142-0.001c0.004-0.042,0.012-0.084,0.012-0.127V3.37
	c0-0.232-0.073-0.446-0.195-0.626c0-0.053,0-0.105,0-0.157c-0.049-0.021-0.104-0.037-0.159-0.053
	c-0.019-0.132-0.056-0.259-0.114-0.378c0.02,0,0.039,0,0.059,0c0.084-0.239,0.227-0.421,0.215-0.754
	c-0.434-0.104-0.305-0.774-0.646-0.972c0.04,0.432-0.252,0.695-0.379,1.159c-0.07-0.01-0.143-0.019-0.221-0.019
	c-0.129,0-0.24,0.021-0.346,0.056c-0.334-0.289-0.738-0.507-1.209-0.657C17.358,0.581,17.374,0.135,17.079,0
	c0.023,0.456-0.167,0.695-0.217,1.077c-0.631,0.065-1.032,0.36-1.32,0.771c-0.087-0.023-0.178-0.039-0.271-0.039h-0.043
	c-0.081-0.551-0.431-0.835-0.521-1.378c-0.125,0.633-0.773,0.938-0.433,1.726c0.042,0,0.083,0,0.123,0
	c-0.161,0.164-0.271,0.374-0.312,0.605c-0.014,0.046-0.022,0.093-0.025,0.148c0.003,0.002,0.007,0.002,0.01,0.005
	c0,0.015-0.004,0.026-0.004,0.039c0,0.221,0.068,0.427,0.179,0.603c-0.098,0-0.192,0.001-0.293,0.001
	c-0.026-0.165-0.178-0.016-0.216,0.107c0.549,1.14,0.255,3.122,0.32,4.743c-0.029,0.101-0.05,0.207-0.05,0.313
	c0,0.043,0.007,0.08,0.011,0.12c-0.021,0-0.043,0-0.065,0c-0.04,1.709,0.124,3.914-0.108,5.713
	c-0.222,0.035-0.317-0.058-0.461-0.102c-0.093-0.055-0.192-0.101-0.299-0.127c-0.008-0.562-0.192-0.944-0.533-1.174
	c0.282,0.031,0.463-0.038,0.43-0.322c-0.333-0.615-0.294-1.357-0.754-1.617c0.052,0.929-0.786,1.241-0.108,1.939
	c-0.403,0.074-0.587,0.789-0.324,1.188c-0.245,0.078-0.84-0.194-0.755,0.215c0.176,0.181,0.442,0.269,0.75,0.317
	c-0.071,0.122-0.121,0.256-0.145,0.399c-0.091,0.01-0.184,0.022-0.28,0.038c0.071,0.154,0.172,0.267,0.295,0.353
	c0.042,0.203,0.137,0.383,0.272,0.532c-0.155-0.006-0.309-0.014-0.46-0.021c-0.039,0.365,0.285,0.87,0.218,1.4
	c0.078,0,0.156,0,0.235,0c-0.019,0.098-0.029,0.198-0.026,0.298l0,0c-0.049,0.018-0.088,0.043-0.124,0.074
	c-0.004,0.005-0.011,0.008-0.014,0.012c-0.032,0.03-0.056,0.063-0.076,0.1c-0.006,0.012-0.012,0.018-0.016,0.029
	c-0.004,0.007-0.004,0.015-0.008,0.021c-0.025,0.002-0.055,0.003-0.081,0.006c0.027,0,0.053,0,0.08,0
	c-0.01,0.025-0.021,0.052-0.025,0.079c-0.005,0.017-0.007,0.033-0.009,0.052c-0.004,0.032-0.004,0.063-0.002,0.095
	c0.002,0.025,0.007,0.051,0.012,0.074c0.006,0.026,0.012,0.05,0.021,0.075c0.008,0.019,0.02,0.037,0.033,0.055
	c0,0.174,0,0.352,0,0.525c-0.163,0.037-0.308,0.116-0.437,0.219c0.002-0.033,0.002-0.065,0.003-0.096c-3.485,0-6.97,0-10.457,0
	c0.97,0.887,0.363,3.761,0.533,5.742c-0.005,0.019-0.013,0.036-0.015,0.056c-0.064,0.143-0.056,0.318,0.02,0.455
	c-0.017,1.835,0.099,4.613-0.215,6.47c-0.491,0.047-1.322-0.245-1.078,0.538c4.649,0,9.298,0,13.948,0
	c0.123,0.046,0.252,0.072,0.387,0.072h0.118c0.035,0,0.064-0.008,0.097-0.012c0.146,0.009,0.288-0.018,0.424-0.061
	c1.48,0,2.96,0,4.439,0c0.204,0.057,0.421,0.061,0.628,0c4.748,0,9.496,0,14.244,0C34.52,31.723,33.763,31.941,33.251,31.915z
	 M29.586,20.7c1.9-0.505,1.825,1.909,1.731,4.163c-0.092,0.085-0.15,0.201-0.15,0.332v0.061c0,0.035,0.008,0.065,0.014,0.098
	c-0.854-0.025-1.713-0.032-2.578-0.027c0.03-0.156,0.033-0.318,0.006-0.476C28.388,23.086,28.286,21.046,29.586,20.7z
	 M24.303,20.915c1.825-1.416,2.643,1.416,2.292,3.514c-0.166,0.267-0.215,0.604-0.15,0.915c-0.905,0.008-1.826,0.011-2.77-0.002
	c0.053-0.166,0.064-0.35,0.04-0.526c0.207-0.318,0.038-0.904,0.048-1.203C23.806,22.313,23.675,21.403,24.303,20.915z
	 M15.808,24.593c-0.01-0.051-0.026-0.1-0.042-0.148c0.177-1.808-0.513-4.236,1.096-4.498c1.938-0.315,1.717,1.821,1.725,3.449
	c0.004,0.438-0.123,1.02,0.064,1.405c-0.023,0.179-0.009,0.363,0.047,0.535c-0.949,0-1.898,0-2.848,0
	C15.88,25.078,15.878,24.86,15.808,24.593z M18.714,29.646c-0.002,0.034,0.003,0.071-0.002,0.108
	c-0.011,0.063-0.011,0.128-0.019,0.191c0.001-0.146,0.001-0.288,0.003-0.426C18.703,29.563,18.707,29.604,18.714,29.646z
	 M14.005,14.942c-0.001,0.004-0.001,0.009-0.001,0.013c-0.008-0.01-0.02-0.017-0.029-0.027c0.012,0.001,0.021,0.004,0.032,0.005
	C14.007,14.936,14.006,14.939,14.005,14.942z M16.464,3.544c0.007,0.005,0.016,0.006,0.024,0.009c-0.011,0-0.019,0-0.027,0
	C16.462,3.55,16.463,3.548,16.464,3.544z M16.327,8.474c0.111-1.59-0.477-3.803,0.967-3.622c1.185,0.148,0.622,2.18,0.755,3.665
	c0.019,0,0.036,0,0.056,0c-0.018,0.108-0.018,0.215-0.008,0.325c-0.584,0-1.168,0-1.752,0c0.004-0.04,0.011-0.077,0.011-0.12
	C16.355,8.637,16.345,8.554,16.327,8.474z M9.747,20.7c0.911,0.361,0.854,1.743,0.863,3.019c0.001,0.479-0.181,1.162,0.07,1.281
	c-0.023,0.109-0.032,0.223-0.023,0.336c-0.877,0-1.754,0-2.63,0c0.001-0.007,0.003-0.015,0.003-0.021c0-0.263-0.097-0.504-0.251-0.7
	C7.649,22.396,7.797,19.929,9.747,20.7z M3.925,20.7c2.12-0.696,1.999,2.554,1.846,4.176c-0.059,0.136-0.09,0.284-0.09,0.438
	c0,0.007,0.002,0.015,0.002,0.021c-0.885,0-1.77,0-2.655,0c0.081-0.131,0.091-0.296,0.034-0.438
	C2.876,23.251,2.694,21.106,3.925,20.7z M10.61,31.915c-0.936,0-1.87,0-2.805,0c0.156-2.339-0.695-5.882,1.511-5.715
	c0.95,0.071,1.146,0.862,1.354,1.832c-0.007,0.244-0.021,0.5-0.033,0.761C10.522,29.728,10.67,30.925,10.61,31.915z M15.621,31.915
	c0.044-0.1,0.079-0.195,0.106-0.294c0.017,0.036,0.035,0.064,0.058,0.078c-0.009-0.09-0.011-0.194-0.012-0.306
	c0.035-0.22,0.037-0.438,0.013-0.657c0.006-0.163,0.011-0.323,0.013-0.476c0.105-0.543-0.004-1.211-0.062-1.738
	c0.014-0.098,0.023-0.197,0.033-0.298c0.006,0.01,0.009,0.017,0.015,0.023c-0.005-0.031-0.003-0.055-0.007-0.086
	c0.024-0.234,0.042-0.471,0.042-0.707c0-0.069-0.005-0.123-0.007-0.186c0.37-1.354,2.218-1.248,2.756-0.06
	c-0.035,0.383,0.014,0.763,0.018,1.2c0.002,0.158,0.025,0.313,0.054,0.472c0.001,0.102,0.008,0.196,0.015,0.29
	c-0.131,0.561-0.072,1.309-0.057,2.016c-0.026,0.14-0.023,0.271,0.002,0.396c-0.002,0.114-0.004,0.224-0.014,0.331
	C17.6,31.915,16.61,31.915,15.621,31.915z M23.188,31.903c0.02-0.013,0.035-0.028,0.053-0.041c-0.008,0.019-0.01,0.036-0.016,0.053
	C23.21,31.912,23.201,31.905,23.188,31.903z M26.565,31.915c-0.934,0-1.869,0-2.803,0c0-1.164,0-2.325,0-3.487
	c0.043-0.185,0.077-0.369,0.087-0.557c0.005-0.107-0.013-0.211-0.042-0.309c0-0.175-0.002-0.35,0.064-0.5
	c0.242-0.565,1.234-1.281,2.156-0.646C27.244,27.252,26.222,30.082,26.565,31.915z"/>
</svg>
