<?xml version="1.0" encoding="utf-8"?>
<!-- Generator: Adobe Illustrator 15.0.2, SVG Export Plug-In  -->
<!DOCTYPE svg PUBLIC "-//W3C//DTD SVG 1.1//EN" "http://www.w3.org/Graphics/SVG/1.1/DTD/svg11.dtd" [
	<!ENTITY ns_flows "http://ns.adobe.com/Flows/1.0/">
]>
<svg version="1.1"
	 xmlns="http://www.w3.org/2000/svg" xmlns:xlink="http://www.w3.org/1999/xlink" xmlns:a="http://ns.adobe.com/AdobeSVGViewerExtensions/3.0/"
	 x="0px" y="0px" width="26px" height="40px" viewBox="0 0 26 40" enable-background="new 0 0 26 40" xml:space="preserve">
<defs>
</defs>
<path fill="#325E82" d="M13.062,0.253c-0.17,0.223-0.313,0.652,0,0.837c-0.384,0.516-0.051,1.452-0.144,2.268
	c0.132,0.096,0.427,0.031,0.54,0.148c-0.008,0.239-0.297,0.194-0.54,0.197c0.043,0.217,0.496,0.027,0.54,0.244
	c-0.008,0.226-0.335,0.127-0.54,0.15c-0.021,0.275,0.413,0.025,0.54,0.245c0.002,0.264-0.424,0.103-0.54,0.248
	c0.138,0.122,0.563-0.039,0.54,0.245c-0.113,0.118-0.408,0.053-0.54,0.149c0.132,0.095,0.427,0.03,0.54,0.147
	c-0.008,0.237-0.297,0.194-0.54,0.196c0.053,0.21,0.463,0.063,0.54,0.246c0.004,0.27-0.479,0.047-0.54,0.249
	c0.099,0.129,0.496-0.04,0.54,0.146c0.002,0.263-0.412,0.114-0.54,0.246c0.138,0.123,0.563-0.039,0.54,0.246
	c-0.115,0.099-0.313,0.114-0.54,0.099c0.043,0.22,0.496,0.028,0.54,0.247c-0.002,0.211-0.295,0.131-0.495,0.148
	c-0.158,0.435,0.03,1.12,0.05,1.381c0.277-0.018-0.004-0.325,0.249-0.396c0.083,0.303-0.397,0.769,0.246,0.838
	c0.04,0.172-0.054,0.208-0.1,0.296c0.006,0.108,0.209,0.021,0.295,0.049c1.191,1.422,3.074,2.153,5.473,2.368
	c0.072,0.186-0.135,0.093-0.1,0.246c0.355,0.122,0.916,0.025,1.234-0.05c0.051,0.185-0.123,0.14-0.1,0.295
	c0.107,0.151,0.277-0.046,0.443,0c-0.029,0.232-0.238,0.287-0.395,0.396c-0.021,0.117,0.225-0.029,0.148,0.147
	c-0.137,0.125-0.332,0.194-0.543,0.246c-0.014,0.243,0.094,0.366,0.148,0.541c-0.141,0.053-0.205,0.053-0.346,0
	c0.02-0.179,0.1-0.294,0.148-0.443c-1.135,0.195-2.953,0.137-4.289,0.297c-0.012,0.557-0.211,1.135,0,1.627
	c0.506-0.002,1.041,0.023,1.479-0.049c0.08,0.193-0.213,0.017-0.197,0.147c0.033,0.146,0.107-0.047,0.197,0
	c0.08,0.195-0.213,0.017-0.197,0.146c0.043,0.158,0.244,0.154,0.346,0.248c-0.016,0.148-0.268,0.057-0.295,0.196
	c0.504,0.334,1.506,0.433,2.266,0.346c0.168,0.093-0.082,0.174-0.049,0.296c0.449,0.006,0.908,0.018,1.234-0.101
	c0.051,0.185-0.123,0.141-0.1,0.297c0.107,0.151,0.277-0.047,0.443,0c-0.029,0.232-0.238,0.287-0.395,0.396
	c-0.021,0.116,0.225-0.029,0.148,0.147c-0.117,0.145-0.336,0.188-0.543,0.247c-0.014,0.244,0.094,0.365,0.148,0.542
	c-0.141,0.052-0.205,0.052-0.346,0c0.018-0.182,0.121-0.272,0.148-0.445c-1.129,0.203-2.955,0.137-4.289,0.297
	c-0.018,0.563-0.203,1.126,0,1.627c0.5-0.011,1.053,0.035,1.479-0.048c0.08,0.192-0.213,0.015-0.197,0.147
	c0.012,0.062,0.146,0.063,0.148,0c0.201,0.111-0.158,0.064-0.148,0.146c0.043,0.155,0.244,0.152,0.346,0.247
	c-0.016,0.147-0.268,0.058-0.295,0.198c0.508,0.36,1.379,0.36,2.217,0.394c0.232,0.006-0.053,0.07,0,0.197
	c0.35,0.117,0.928,0.039,1.234-0.049c0.063,0.194-0.164,0.101-0.1,0.294c0.096,0.142,0.307-0.017,0.443,0
	c-0.029,0.233-0.238,0.289-0.395,0.396c-0.021,0.117,0.225-0.027,0.148,0.148c-0.117,0.145-0.336,0.188-0.543,0.246
	c-0.014,0.243,0.094,0.367,0.148,0.542c-0.141,0.051-0.205,0.051-0.346,0c0.018-0.183,0.121-0.272,0.148-0.444
	c-1.119,0.212-2.957,0.133-4.289,0.296c-0.012,0.556-0.211,1.136,0,1.628c0.5-0.011,1.053,0.034,1.479-0.052
	c0.08,0.195-0.213,0.019-0.197,0.149c0.012,0.063,0.146,0.064,0.148,0c0.188,0.116-0.184,0.071-0.148,0.198
	c0.111,0.07,0.229,0.133,0.346,0.196c-0.016,0.146-0.268,0.058-0.295,0.198c0.523,0.378,1.434,0.37,2.316,0.394
	c0.037,0.151-0.135,0.096-0.1,0.246c0.426-0.002,0.883,0.026,1.184-0.099c0.17,0.095-0.084,0.174-0.049,0.296
	c0.096,0.142,0.307-0.017,0.443,0c-0.029,0.232-0.238,0.286-0.395,0.394c-0.021,0.118,0.225-0.026,0.148,0.148
	c-0.092,0.17-0.348,0.179-0.543,0.246c-0.014,0.244,0.094,0.367,0.148,0.544c-0.141,0.051-0.205,0.051-0.346,0
	c0.049-0.149,0.131-0.266,0.148-0.444c-1.043,0.198-2.912,0.137-4.289,0.295c-0.006,0.563-0.211,1.135,0,1.629
	c0.5-0.014,1.053,0.034,1.479-0.051c0.08,0.194-0.213,0.017-0.197,0.148c0.012,0.062,0.146,0.064,0.148,0
	c0.188,0.115-0.184,0.071-0.148,0.197c0.111,0.07,0.229,0.133,0.346,0.195c-0.035,0.131-0.232,0.098-0.295,0.198
	c0.529,0.376,1.428,0.378,2.316,0.395c0.037,0.151-0.135,0.095-0.1,0.247c0.313,0.069,0.867-0.013,1.184-0.099
	c0.17,0.093-0.084,0.172-0.049,0.295c0.096,0.143,0.307-0.016,0.443,0c-0.029,0.232-0.217,0.312-0.395,0.396
	c-0.021,0.117,0.225-0.028,0.148,0.146c-0.066,0.099-0.137,0.192-0.346,0.148c-0.008,0.106,0.176,0.021,0.248,0.047
	c-0.016,0.117-0.125,0.233,0.098,0.199c-0.018,0.117-0.078,0.187-0.051,0.346c0.068,0.082,0.221,0.075,0.297,0.147
	c0.314,0.822,0.988,1.538,1.826,1.677c0.021,0.103-0.035,0.131-0.051,0.198c0.021,0.108,0.242,0.019,0.346,0.048
	c-0.063,0.134-0.199,0.197-0.295,0.296c0.615,0.437,1.785,0.316,2.711,0.444c0.244,0.021-0.107,0.104-0.051,0.246
	c0.221,0.038,0.295-0.065,0.496-0.049c-0.17,0.096-0.303,0.224-0.496,0.296c0.023,0.077,0.156,0.041,0.098,0.196
	c-0.205,0.056-0.361,0.162-0.59,0.196c-0.035,0.299,0.074,0.453,0.197,0.592c0.031,0.129-0.02,0.178-0.146,0.148
	c0.037,1.631-0.029,3.502,0,5.274c-7.922,0-15.844,0-23.763,0c0-1.742,0-3.483,0-5.226c0.02-0.118-0.225,0.027-0.146-0.146
	c0.051-0.228,0.271-0.289,0.247-0.593c-0.185-0.115-0.43-0.163-0.644-0.246c-0.016-0.099,0.01-0.154,0.098-0.148
	C0.356,33.844,0.224,33.716,0,33.676c0.103-0.148,0.259,0.064,0.445,0c0.16-0.074-0.104-0.12-0.052-0.246
	c0.942-0.11,2.068-0.036,2.764-0.395c-0.016-0.185-0.264-0.134-0.25-0.346c0.102,0,0.198,0,0.297,0
	c0.021-0.12-0.089-0.106-0.047-0.246c0.879-0.127,1.506-0.922,1.872-1.726c0.119,0.021,0.107-0.09,0.246-0.05
	c0.021-0.17-0.021-0.276-0.052-0.395c0.226,0.034,0.114-0.082,0.101-0.199c0.081,0,0.162,0,0.246,0
	C5.469,30,5.253,30.034,5.224,29.879c-0.021-0.106,0.071-0.093,0.15-0.098c-0.119-0.16-0.362-0.197-0.396-0.444
	c0.165,0.003,0.246,0.085,0.446,0.05c0.047-0.197-0.148-0.148-0.1-0.345c0.364,0.077,0.921,0.172,1.281,0.099
	c0.039-0.17-0.2-0.064-0.146-0.247c0.895,0.007,1.712-0.062,2.315-0.345c0.002-0.167-0.195-0.134-0.293-0.197
	c0.077-0.099,0.162-0.198,0.343-0.198c0.063-0.214-0.233-0.06-0.196-0.245c0.044,0.037,0.111,0.052,0.196,0.05
	c0.075-0.209-0.275,0.01-0.196-0.198c0.41,0.082,0.946,0.037,1.428,0.051c0.299-0.438,0.077-1.11,0.051-1.579
	c-1.241-0.319-3.09-0.032-4.289-0.395c0.014,0.201,0.139,0.288,0.146,0.494c-0.141,0.051-0.204,0.051-0.345,0
	c0.079-0.135,0.131-0.298,0.148-0.494c-0.132-0.146-0.438-0.121-0.544-0.296c-0.021-0.105,0.071-0.094,0.15-0.099
	C5.277,25.259,4.994,25.262,4.978,25c0.165,0.002,0.246,0.084,0.446,0.049c0.047-0.197-0.148-0.148-0.1-0.345
	c0.351,0.108,0.813,0.106,1.281,0.099c0.039-0.169-0.2-0.062-0.146-0.246c0.889,0,1.712-0.06,2.315-0.346
	c0.002-0.165-0.195-0.133-0.293-0.197c0.077-0.099,0.162-0.197,0.343-0.197c0.063-0.213-0.233-0.06-0.196-0.246
	c0.044,0.038,0.111,0.054,0.196,0.05c0.075-0.208-0.275,0.012-0.196-0.199c0.41,0.084,0.946,0.043,1.428,0.052
	c0.299-0.438,0.077-1.11,0.051-1.579c-1.251-0.312-3.092-0.03-4.289-0.395c0.014,0.201,0.139,0.289,0.146,0.494
	c-0.141,0.051-0.204,0.051-0.345,0c0.05-0.164,0.148-0.279,0.148-0.494c-0.132-0.145-0.438-0.12-0.544-0.294
	c-0.021-0.106,0.071-0.095,0.15-0.101c-0.097-0.181-0.38-0.181-0.396-0.443c0.165,0.003,0.246,0.084,0.446,0.05
	c0.047-0.197-0.148-0.148-0.1-0.344c0.337,0.121,0.817,0.102,1.281,0.099c0.039-0.171-0.2-0.063-0.146-0.247
	c0.924,0,1.625-0.048,2.315-0.346c0.002-0.166-0.195-0.133-0.293-0.197c0.058-0.14,0.242-0.151,0.343-0.245
	c0.075-0.209-0.275,0.011-0.196-0.197c0.087-0.008,0.104,0.059,0.196,0.049c0.075-0.209-0.275,0.01-0.196-0.196
	c0.41,0.081,0.946,0.038,1.428,0.048c0.303-0.373,0.064-1.076,0.051-1.578c-1.251-0.31-3.09-0.032-4.289-0.395
	c0.014,0.201,0.139,0.287,0.146,0.494c-0.141,0.052-0.204,0.052-0.345,0c0.05-0.163,0.148-0.279,0.148-0.494
	c-0.132-0.145-0.438-0.121-0.544-0.295c-0.021-0.105,0.071-0.095,0.15-0.099c-0.097-0.184-0.38-0.181-0.396-0.444
	c0.192-0.026,0.242,0.089,0.446,0.05c0.047-0.197-0.148-0.149-0.1-0.347c0.351,0.11,0.813,0.109,1.281,0.101
	c0.043-0.191-0.216-0.081-0.146-0.296c0.791,0.113,1.724-0.052,2.315-0.295c0.002-0.168-0.195-0.135-0.293-0.198
	c0.058-0.139,0.242-0.152,0.343-0.245c0.075-0.209-0.275,0.01-0.196-0.198c0.087-0.007,0.104,0.061,0.196,0.049
	c0.043-0.159-0.162-0.068-0.196-0.147c0.337-0.057,0.946,0.038,1.428,0c0.303-0.373,0.064-1.076,0.051-1.578
	c-1.253-0.309-3.084-0.039-4.289-0.394c0.014,0.2,0.139,0.287,0.146,0.491c-0.141,0.053-0.204,0.053-0.345,0
	c0.05-0.163,0.148-0.276,0.148-0.491c-0.143-0.139-0.417-0.142-0.544-0.296c-0.021-0.106,0.071-0.094,0.15-0.1
	c-0.097-0.182-0.38-0.181-0.396-0.443c0.192-0.025,0.242,0.089,0.446,0.05c0.047-0.197-0.148-0.148-0.1-0.345
	c0.351,0.109,0.813,0.107,1.281,0.099c0.043-0.191-0.216-0.081-0.146-0.295c2.429-0.202,4.275-0.981,5.522-2.368
	c0.081,0,0.162,0,0.243,0c-0.016-0.149-0.15-0.175-0.097-0.393c0.097,0,0.195,0,0.295,0c0.156-0.279-0.089-0.424-0.1-0.79
	c0.21,0.004,0.157,0.27,0.248,0.396c0.195-0.297,0.143-0.843,0.148-1.33c-0.154-0.112-0.557,0.027-0.543-0.249
	c0.141-0.09,0.416-0.043,0.543-0.146c-0.141-0.123-0.566,0.039-0.543-0.248c0.113-0.098,0.312-0.113,0.543-0.098
	c-0.036-0.226-0.491-0.037-0.543-0.246c0.015-0.231,0.412-0.081,0.543-0.196c-0.065-0.186-0.479-0.017-0.543-0.198
	c0.026-0.236,0.412-0.116,0.543-0.247c-0.141-0.123-0.566,0.039-0.543-0.246c0.113-0.117,0.408-0.053,0.543-0.147
	c-0.135-0.097-0.43-0.031-0.543-0.149c0.009-0.238,0.297-0.193,0.543-0.197c-0.054-0.209-0.467-0.06-0.543-0.246
	c0.011-0.252,0.454-0.069,0.543-0.247c-0.141-0.123-0.566,0.04-0.543-0.245c0.129-0.101,0.408-0.052,0.543-0.149
	c-0.141-0.121-0.566,0.041-0.543-0.245c0.141-0.074,0.308-0.119,0.543-0.099c-0.119-0.764,0.285-1.759-0.148-2.219
	c0.202-0.239,0.287-0.672,0-0.888C12.623-0.064,12.979-0.118,13.062,0.253z M8.971,14.943c0.218,0,0.428,0,0.64,0
	c0-0.032,0-0.066,0-0.099c-0.212,0-0.422,0-0.64,0C8.971,14.876,8.971,14.911,8.971,14.943z M9.711,14.943
	c0.123-0.04,0.426,0.096,0.396-0.099C9.982,14.884,9.681,14.75,9.711,14.943z M15.528,14.943c0.125-0.04,0.424,0.096,0.396-0.099
	C15.774,14.86,15.54,14.79,15.528,14.943z M16.024,14.943c0.211,0,0.426,0,0.639,0c0-0.032,0-0.066,0-0.099
	c-0.213,0-0.428,0-0.639,0C16.024,14.876,16.024,14.911,16.024,14.943z M8.971,19.282c0.218,0,0.428,0,0.64,0
	c0-0.033,0-0.065,0-0.101c-0.212,0-0.422,0-0.64,0C8.971,19.216,8.971,19.249,8.971,19.282z M10.106,19.233
	c-0.073-0.077-0.253-0.045-0.396-0.052C9.661,19.352,10.081,19.3,10.106,19.233z M15.528,19.282
	c0.125-0.041,0.424,0.095,0.396-0.101C15.774,19.198,15.54,19.127,15.528,19.282z M16.024,19.282
	c0.213-0.031,0.557,0.063,0.686-0.049C16.577,19.171,16.079,19.107,16.024,19.282z M9.61,19.379c-0.082,0-0.163,0-0.244,0
	C9.291,19.531,9.689,19.531,9.61,19.379z M8.971,23.62c0.218,0,0.428,0,0.64,0c0-0.033,0-0.066,0-0.099c-0.212,0-0.422,0-0.64,0
	C8.971,23.553,8.971,23.586,8.971,23.62z M10.106,23.57c-0.073-0.076-0.253-0.044-0.396-0.049
	C9.661,23.69,10.081,23.638,10.106,23.57z M15.528,23.62c0.125-0.042,0.424,0.096,0.396-0.099
	C15.774,23.536,15.54,23.465,15.528,23.62z M16.024,23.62c0.213-0.031,0.557,0.064,0.686-0.05
	C16.577,23.509,16.079,23.446,16.024,23.62z M9.61,23.717c-0.082,0-0.163,0-0.244,0C9.291,23.87,9.689,23.87,9.61,23.717z
	 M8.971,27.958c0.218,0,0.428,0,0.64,0c0-0.034,0-0.065,0-0.102c-0.212,0-0.422,0-0.64,0C8.971,27.893,8.971,27.924,8.971,27.958z
	 M9.711,27.958c0.2-0.061,0.362,0.129,0.396-0.05C10.056,27.866,9.679,27.771,9.711,27.958z M15.528,27.958
	c0.035,0.02,0.395,0.065,0.396-0.102C15.774,27.874,15.54,27.803,15.528,27.958z M16.024,27.958c0.314-0.031,0.48,0.089,0.686-0.05
	C16.577,27.848,16.079,27.784,16.024,27.958z M9.61,28.055c-0.082,0-0.163,0-0.244,0C9.291,28.208,9.689,28.208,9.61,28.055z"/>
</svg>
