<?xml version="1.0" encoding="utf-8"?>
<!-- Generator: Adobe Illustrator 15.0.2, SVG Export Plug-In  -->
<!DOCTYPE svg PUBLIC "-//W3C//DTD SVG 1.1//EN" "http://www.w3.org/Graphics/SVG/1.1/DTD/svg11.dtd" [
	<!ENTITY ns_flows "http://ns.adobe.com/Flows/1.0/">
]>
<svg version="1.1"
	 xmlns="http://www.w3.org/2000/svg" xmlns:xlink="http://www.w3.org/1999/xlink" xmlns:a="http://ns.adobe.com/AdobeSVGViewerExtensions/3.0/"
	 x="0px" y="0px" width="21px" height="48px" viewBox="0 0 21 48" enable-background="new 0 0 21 48" xml:space="preserve">
<defs>
</defs>
<path fill="#ED1C24" d="M16.39,40.179l-0.059-0.156v-2.566h-0.936c-0.75-1.992-1.428-4.49-1.963-6.99h0.522v-1.595l-0.919-0.5
	c-0.552-3.247-0.859-6.644-1.078-10.063C11.71,14.54,11.752,7.383,11.752,7.383h0.418l0.033-1.983l-0.489-0.008l-0.413-1.277h0.016
	l0.068-3.964L11.184,0l0,0h-0.006l0,0l-0.209,0.144l-0.07,3.964h0.018L10.465,5.37L9.97,5.361l-0.034,1.98l0.424,0.015
	c0,0-0.212,7.156-0.591,10.917c-0.326,3.436-0.758,6.846-1.432,10.098l-0.881,0.5v1.595h0.395c-0.625,2.515-1.406,5.021-2.237,6.99
	h-1.17v2.723h0.062C3.125,43.261,1.478,46.181,0,47.992l3.64,0.063c1.091-2.358,2.959-5.548,6.812-5.483
	c3.846,0.065,5.612,3.316,6.618,5.715l3.639,0.063C19.259,46.446,17.673,43.381,16.39,40.179z M12.706,38.36H8.295v-0.563h4.411
	V38.36z M10.42,37.456l-2.116-0.035c0,0,0.421-1.044,0.709-2.293c0.272-1.264,0.406-2.354,0.406-2.354l1.195,0.02h0.004l1.203,0.021
	c0,0,0.088,1.096,0.327,2.369c0.219,1.119,0.537,2.075,0.604,2.272H10.42z"/>
</svg>
