<?xml version="1.0" encoding="utf-8"?>
<!-- Generator: Adobe Illustrator 15.0.2, SVG Export Plug-In  -->
<!DOCTYPE svg PUBLIC "-//W3C//DTD SVG 1.1//EN" "http://www.w3.org/Graphics/SVG/1.1/DTD/svg11.dtd" [
	<!ENTITY ns_flows "http://ns.adobe.com/Flows/1.0/">
]>
<svg version="1.1"
	 xmlns="http://www.w3.org/2000/svg" xmlns:xlink="http://www.w3.org/1999/xlink" xmlns:a="http://ns.adobe.com/AdobeSVGViewerExtensions/3.0/"
	 x="0px" y="0px" width="47px" height="51px" viewBox="0 0 47 51" enable-background="new 0 0 47 51" xml:space="preserve">
<defs>
</defs>
<path fill="#325E82" d="M0.386,50.905h4.042c0.139-0.618-0.254-1.769,0.192-2.079h1.109c-0.14,0.345-0.381,1.51-0.128,2.079h5.914
	c0.017-0.033,0.037-0.063,0.05-0.097c0.011-0.023,0.021-0.045,0.03-0.068c0.226-0.66,0.048-1.661,0.048-2.468v-3.511h3.141
	c0.031,0.322-0.117,1.414-0.042,2.273c-0.158,0.473-0.214,0.943-0.104,1.393c-0.012,0.011-0.028,0.017-0.039,0.029
	c0.215,0.774,0.078,1.7,0.15,2.448h6.456c0.01-0.022,0.024-0.042,0.033-0.066v-7.187h0.272h3.503h0.773v7.253h6.182v-2.633
	c-0.076-0.005-0.159-0.004-0.242-0.003c0.002-0.064-0.011-0.13-0.029-0.194c0.029,0.003,0.055,0.011,0.088,0.013
	c0.363-0.631,0.158-1.83,0.16-2.82c0.975,0.037,2.119,0.001,3.166-0.123v1.589c-0.006,0.085-0.01,0.171-0.014,0.255
	c-0.055,0.896-0.063,1.771-0.051,2.653c-0.006,0.169-0.004,0.331,0.006,0.489c0.002,0.125,0,0.248,0.004,0.375
	c0.005,0.148,0.054,0.282,0.128,0.399h5.871c0.019-0.972-0.481-2.461,0.893-2.079c0.451,0.312,0.027,1.497,0.208,2.079h4.035
	c-0.074-4.187-0.449-8.906,0.007-12.981h-0.253c0.024-0.111,0.035-0.23,0.012-0.365c0.002,0.008-0.01-0.099-0.025-0.222
	c0.194-0.685,0.524-1.233,0.82-1.815c-0.273-0.137-0.582-0.226-0.904-0.292c-0.004-0.067,0-0.13-0.023-0.204
	c-0.049-0.146-0.103-0.29-0.156-0.433c0.298-3.522-0.545-8.642,0.346-12.007c-0.249-0.033-0.398,0.033-0.516,0.133
	c-0.09-0.111-0.204-0.206-0.364-0.252c-0.033-0.008-0.062-0.035-0.091-0.059c0.018-0.004,0.027-0.002,0.047-0.008
	c0.391-2.406-1.299-6.508,0.186-8.869h-0.999c-0.032-0.065-0.063-0.131-0.101-0.188c0.057,0,0.121,0.001,0.174,0.003
	c0.312-0.446,0.302-1.807-0.369-1.849c-0.305,0.002-0.104,0.513-0.369,0.555c-0.148-0.641,0.275-0.71,0.185-1.294
	c-0.041-0.006-0.089-0.013-0.132-0.019c0.035-0.182,0.016-0.37-0.062-0.538c0.021-0.229,0.089-0.407,0.193-0.552
	c-0.657-0.031-0.972-1.148-1.479-1.848c0.104-2.305-1.039-5.183,0-7.208c-0.438-0.52-0.699-0.664-1.294-0.185
	c0.477,1.102,0.723,4.476-0.184,5.728c0.421,0.257,0.068,1.287,0.184,1.848c-0.63,0.355-0.602,1.369-1.478,1.479
	c0.149,0.288,0.099,0.776,0.296,1.017c-0.015,0.087-0.018,0.171-0.008,0.258c-0.174,0.055-0.336,0.12-0.473,0.204
	c0.049,0.339,0.789,0.913,0.185,1.294c-0.042-0.327,0.187-0.925-0.37-0.739c-0.414,0.179-0.351,0.602-0.346,1.239
	c-0.197,0.167-0.305,0.437-0.291,0.699c-0.135,0.007-0.289,0.035-0.472,0.095c0.026,0.713,0.624,0.854,0.554,1.662
	c0.4,2.242-0.461,3.977-0.554,5.359c-0.026,0.395-0.243,1.156,0.055,1.568c-0.063,0.18-0.137,0.352-0.222,0.513
	c-0.021,0.04-0.023,0.079-0.038,0.118c-0.09-0.144-0.225-0.241-0.534-0.166c-0.596,0.548,0.558,0.91,0.555,1.479
	c-0.158,2.262-0.045,5.746-0.006,8.135c-0.125-0.019-0.25-0.043-0.378-0.056c-0.136-1.876,0.302-4.323-0.909-5.122
	c-0.738,2.129-0.031,5.308-3.143,4.064c-2.278-0.91-1.793-4.886-1.842-7.624c0.08-0.177,0.098-0.378,0.051-0.568
	c0.188-0.017,0.359-0.096,0.498-0.308c-0.549-0.251-1.138-0.461-1.727-0.672c0.108-0.229,0.107-0.502-0.014-0.723
	c-0.109-1.125,0.141-2.609-0.662-3.041c-0.232,1,0.121,1.758-0.37,2.219h-0.312c-0.14-0.027-0.285-0.043-0.433-0.05
	c-0.095-0.641,0.012-1.271-0.179-2.169c-1.191,0.389,0.127,2.235-0.926,2.587c-1.181-0.122-2.066-0.878-3.09-1.258
	c-0.034-0.088-0.088-0.169-0.137-0.246c0.03,0.01,0.054,0.017,0.086,0.026c-0.237-0.707,0.273-2.934-0.37-4.066
	c-0.363-0.055-0.366,0.25-0.555,0.371c-0.033-0.404,0.151-0.588,0.555-0.555c-0.216-0.4-0.524-0.708-0.924-0.925
	c0.268,0.699-0.508,0.354-0.37,0.925c0.144,0.041,0.364,0.004,0.37,0.184c-1.32,0.647-0.455,2.43-0.875,3.899
	c-0.019,0.025-0.042,0.048-0.06,0.074c-0.083,0.118-0.116,0.239-0.122,0.358c-0.968,0.337-2.041,0.922-2.999,1.316
	c-0.058-0.07-0.124-0.128-0.199-0.178c-0.049-0.994-0.07-1.335-0.181-2.514c-0.785,0.14-0.488,1.36-0.555,2.219
	c-0.325-0.107-1.085,0.223-1.108-0.186c-0.116-0.686,0.3-1.902-0.37-2.033c-0.325,1.348-0.346,1.863-0.37,3.512
	c0.009-0.002,0.018-0.006,0.027-0.009c-0.008,0.059-0.014,0.114-0.01,0.173c-0.688,0.28-1.288,0.617-1.68,1.129
	c0.12-0.035,0.234-0.055,0.352-0.08c-0.11,0.249-0.105,0.537,0.043,0.76c0.208,4.016,0.232,8.621-4.091,7.451
	c-0.665-0.998,0.148-3.473-0.924-4.064c-0.583,0.832-0.708,2.122-0.791,3.454c-0.175-0.776-0.26-1.584-0.318-2.384v-4.027
	c-0.01-0.676,1.039-0.901,0.554-1.479c-0.291-0.039-0.452,0.053-0.575,0.183c-0.055-0.179-0.172-0.329-0.341-0.425
	c0.471-2.565-1.337-6.068,0.177-8.813c-0.294-0.312-0.593,0.113-1.204,0.012c-0.057-0.068-0.118-0.135-0.188-0.191
	c0.227-0.001,0.447-0.002,0.653-0.005c-0.042-0.761,0.149-1.751-0.555-1.849c-0.305,0.002-0.104,0.513-0.37,0.555
	c-0.263-0.805,0.632-0.85,0.185-1.294c-0.11-0.021-0.237-0.041-0.361-0.062c0.035-0.094,0.049-0.191,0.049-0.293
	c0.041-0.006,0.094-0.007,0.127-0.016C7.009,10.067,7.063,9.814,7.207,9.65c-0.755-0.354-1.02-1.197-1.478-1.848
	c0.062-2.369-1-5.285,0-7.392c-0.598,0.229-0.142-0.598-0.74-0.37C4.698,0.057,4.845,0.512,4.435,0.41
	C4.853,1.423,5.236,4.825,4.25,5.954C4.673,6.27,4.318,7.365,4.435,7.986c-0.52,0.589-0.998,1.22-1.479,1.849
	c0.092,0.011,0.133,0.073,0.158,0.151c-0.199,0.151-0.326,0.414-0.326,0.649v0.066c0,0.08,0.017,0.15,0.036,0.218
	c-0.016,0.01-0.037,0.015-0.053,0.023c0.049,0.339,0.788,0.913,0.185,1.294c-0.042-0.327,0.187-0.925-0.369-0.739
	c-0.32,0.245-0.616,1.465-0.185,1.849c0.059-0.003,0.137-0.003,0.203-0.005c-0.04,0.07-0.072,0.143-0.09,0.222
	c-0.501,0.011-0.77-0.314-1.037-0.032c0.018,0.461,0.271,0.688,0.429,1.008c-0.088,0.455,0.003,0.992,0.103,1.525
	c0.024,0.916,0.129,1.779,0.022,2.641C1.927,19.557,0.79,21.75,1.848,22.4c0.029,0.002,0.045-0.008,0.071-0.008
	c0.044,0.072,0.1,0.137,0.163,0.193H1.783c-0.022-0.002-0.042-0.014-0.064-0.014H1.652c-0.025,0-0.042,0.012-0.065,0.014H1.479
	c0.003,0.008,0.008,0.013,0.012,0.02c-0.102,0.021-0.192,0.053-0.268,0.105c-0.101-0.104-0.241-0.165-0.483-0.125
	c-0.038,2.061,0.519,6.912,0.37,9.795c0,0-0.338,0.267-0.37,0.369c-0.129,0.428-0.191,1.145-0.055,1.648
	c-0.087,0.238-0.069,0.52,0.079,0.768C0.509,35.162,0.25,35.16,0,35.152C1.366,39.025,0.643,45.859,0.386,50.905z M41.764,44.761
	c-1.153-0.018-0.285-2.057-0.555-2.957h0.369C42.28,42.033,41.975,44.234,41.764,44.761z M41.579,6.508
	c0.255-0.588,0.184,0.652,0.186,0.924C41.508,8.02,41.581,6.779,41.579,6.508z M41.394,15.933c0.331-0.023,0.39,0.226,0.739,0.185
	c-0.139,1.104,0.044,1.604,0,2.956h-1.109C41.147,17.646,40.838,16.67,41.394,15.933z M40.47,26.651
	c0.589-0.606,1.679-0.683,2.218,0c0.19,0.944,0.195,2.456,0.185,4.065H40.47V26.651z M4.989,6.508
	C5.244,5.92,5.173,7.161,5.174,7.432C4.92,8.02,4.992,6.779,4.989,6.508z M4.62,16.118c0.262,0.017,0.523,0.03,0.554-0.185
	c0.76,0.41,0.195,2.146,0.37,3.141H4.435C4.552,17.508,4.464,17.237,4.62,16.118z M6.098,26.466c0.204,1.056,0.18,2.479,0.185,4.134
	c-0.009,0.038-0.018,0.077-0.027,0.116H3.881C3.991,28.377,3.181,25.396,6.098,26.466z"/>
</svg>
