<?xml version="1.0" encoding="utf-8"?>
<!-- Generator: Adobe Illustrator 15.0.2, SVG Export Plug-In  -->
<!DOCTYPE svg PUBLIC "-//W3C//DTD SVG 1.1//EN" "http://www.w3.org/Graphics/SVG/1.1/DTD/svg11.dtd" [
	<!ENTITY ns_flows "http://ns.adobe.com/Flows/1.0/">
]>
<svg version="1.1"
	 xmlns="http://www.w3.org/2000/svg" xmlns:xlink="http://www.w3.org/1999/xlink" xmlns:a="http://ns.adobe.com/AdobeSVGViewerExtensions/3.0/"
	 x="0px" y="0px" width="66px" height="33px" viewBox="0 0 66 33" enable-background="new 0 0 66 33" xml:space="preserve">
<defs>
</defs>
<path fill="#6590A4" d="M0,24.406c0.541,2.549,0.092,6.088,0.231,9.037h18.263c0.009-0.002,0.015-0.002,0.023-0.004v0.002
	l47.557,0.002v-9.271h-0.231c0.052-0.184,0.045-0.381-0.023-0.559c0.003-0.365,0.099-0.635,0.255-0.848
	c-0.631-0.352-2.41-0.365-3.158-0.049c-0.115-0.047-0.232-0.096-0.358-0.131V12.458c0.135-0.727,1.103-0.616,1.173-1.406
	c-0.551,0.012-1.128,0.018-1.709,0.021c0.004-0.075-0.004-0.147-0.02-0.222c0.438-0.101,0.748-0.313,0.791-0.737
	c-0.082-0.857-1.227-0.44-1.874-0.469c-2.527-0.107-5.672-0.096-7.498,0.234c0.049-0.616,2.017-1.412,0.938-1.64
	c-0.27-0.017-0.556-0.016-0.837-0.021c-0.023-0.169-0.056-0.339-0.101-0.507V5.964c0.288-0.771,0.269-1.655,0.002-2.466
	c-0.021-0.629,0.527-0.686,0.466-1.351c-0.351-0.04-0.865,0.083-0.936-0.234c0.459-0.321,0.126-1.436,0.468-1.874
	C39.91,0.196,25.774-0.273,12.653,0.274c0.547,1.22,0.513,1.64-0.234,2.343c0.101,0.446,0.504,0.589,0.468,1.172
	c0.09,0.001,0.186,0.001,0.277,0.002c-0.006,0.075-0.017,0.149-0.017,0.225c-0.086,0.004-0.176,0.002-0.261,0.007v3.983
	c0.019,0.003,0.04,0.002,0.06,0.005c0.004,0.09,0.013,0.179,0.021,0.268c-0.523,0.006-1.03-0.002-1.487-0.038
	c0.018,0.687,0.536,0.87,0.938,1.171c0.074,0.024,0.134,0.066,0.179,0.119c-0.173,0.025-0.342,0.068-0.506,0.115H7.264
	c-1.405,0-3.23-0.393-3.984,0.469c0.259,0.52,0.829,0.713,1.538,0.77c-0.051,0.055-0.101,0.109-0.147,0.168H2.579
	c1.598,1.502,0.824,7.037,0.876,11.363c-0.158,0.004-0.282,0.051-0.392,0.117H0.235v1.406h0.212c-0.021,0.09-0.03,0.18-0.024,0.271
	C0.259,24.252,0.111,24.311,0,24.406z M44.653,24.551c-0.045,0.029-0.101,0.049-0.137,0.09c0.464,2.098,0.259,4.83,0.101,7.227
	c-0.207-0.115-0.462-0.141-0.729,0.023c-0.028,0.018-0.064,0.027-0.094,0.043c-1.063,0.023-2.344-0.174-3.229,0.027
	c-0.234-0.027-0.472-0.051-0.707-0.078c-0.015-2.574-0.23-5.354,0.207-7.477H39.94c0.013-0.076,0.011-0.154,0.002-0.232
	c1.554,0.021,3.098,0.053,4.617,0.109C44.587,24.375,44.619,24.463,44.653,24.551z M38.894,16.44
	c0.018-1.371-0.021-2.592,0.231-3.486c0.006-0.013,0.013-0.025,0.017-0.039c0.854-0.936,3.378-0.924,4.204,0.012
	c0.737,2.01,0.075,4.595,0.703,7.498c0.027-0.002,0.049-0.016,0.077-0.021c0.019,0.105,0.023,0.209,0.051,0.316
	c0.013,0.041,0.03,0.082,0.043,0.123c-1.566,0.031-3.634-0.184-4.623-0.184H39.03c0.151-0.324,0.09-0.74-0.184-0.979
	C39.113,18.756,38.883,17.43,38.894,16.44z M35.478,31.947c-0.103,0-0.205,0-0.308,0c-0.008-0.004-0.015-0.012-0.023-0.014v-0.029
	h-0.143c-0.032-0.004-0.054-0.018-0.086-0.018s-0.056,0.014-0.088,0.018h-3.357c-0.111-0.07-0.242-0.123-0.408-0.123
	c-0.147,0-0.266,0.041-0.372,0.096v-7.389c0.002-0.02,0-0.041,0-0.061v-0.021l0,0c-0.002-0.082-0.009-0.162-0.032-0.242
	c1.547-0.01,3.092-0.016,4.628-0.018c-0.039,0.211,0.021,0.439,0.147,0.629C35.792,26.934,35.627,29.596,35.478,31.947z
	 M30.692,13.394c0.718-1.407,2.722-1.518,4.288-0.562c0.049,0.158,0.103,0.315,0.189,0.464c0.037,0.062,0.084,0.106,0.129,0.152
	c0.337,1.411,0.151,3.112,0.315,5.569c0.016,0.23-0.166,0.826,0.011,1.162c-0.083,0.145-0.124,0.309-0.113,0.479h-4.888
	c0.009-0.352,0.05-0.717,0.068-1.078C31.165,17.824,30.043,14.67,30.692,13.394z M22.493,13.394
	c0.746-1.476,2.854-1.526,4.452-0.468c0.56,2.076,0.173,4.324,0.229,6.939c-0.141,0.096-0.258,0.229-0.31,0.422
	c-0.034,0.117-0.023,0.244,0.002,0.371h-4.64c0.045-0.205,0.074-0.412,0.088-0.623C23.194,18.428,21.777,14.811,22.493,13.394z
	 M21.376,24.193c1.577,0.008,3.168,0.006,4.764-0.002c-0.006,0.154,0.03,0.305,0.103,0.441v7.229
	c-0.123-0.105-0.279-0.184-0.488-0.184c-0.255,0-0.447,0.1-0.575,0.248c-0.058,0-0.115-0.002-0.173-0.004
	c-1.025-0.115-2.043-0.168-3.104-0.141c-0.151,0.006-0.275,0.051-0.382,0.113c-0.34-2.121-0.329-5.461,0.036-7.488h-0.403
	C21.244,24.352,21.318,24.279,21.376,24.193z"/>
</svg>
