<?xml version="1.0" encoding="utf-8"?>
<!-- Generator: Adobe Illustrator 15.0.2, SVG Export Plug-In  -->
<!DOCTYPE svg PUBLIC "-//W3C//DTD SVG 1.1//EN" "http://www.w3.org/Graphics/SVG/1.1/DTD/svg11.dtd" [
	<!ENTITY ns_flows "http://ns.adobe.com/Flows/1.0/">
]>
<svg version="1.1"
	 xmlns="http://www.w3.org/2000/svg" xmlns:xlink="http://www.w3.org/1999/xlink" xmlns:a="http://ns.adobe.com/AdobeSVGViewerExtensions/3.0/"
	 x="0px" y="0px" width="68px" height="43px" viewBox="0 0 68 43" enable-background="new 0 0 68 43" xml:space="preserve">
<defs>
</defs>
<path fill="#123D5A" d="M67.771,35.395c0.043-0.443-0.341-0.459-0.525-0.672c0.264-0.398,0.092-1.084-0.533-1.084
	c-0.094,0-0.178,0.01-0.257,0.027c-1.731-0.789-4.188-0.852-6.521-1.037c-0.148-0.165-0.377-0.257-0.662-0.197
	c-0.025,0.006-0.057,0.016-0.085,0.022c0.029-0.29,0.003-0.602-0.062-0.925c0.018-0.061,0.039-0.117,0.039-0.189v-0.064
	c0-0.193-0.087-0.369-0.221-0.494c-0.051-0.404-0.537-1.053-0.751-1.428c-1.931,0.068-3.221-0.013-5.303,0v0.031
	c-0.038-0.006-0.067-0.023-0.11-0.023h-0.036c0.071-0.619,0.267-1.113,0.589-1.48c-0.404,0.044-0.272-0.525-0.147-0.295
	c-0.252-0.465-0.732-0.813-0.59-1.326c-0.702-0.119-1.458-0.346-1.995-0.146c-0.052-0.002-0.104-0.003-0.154-0.005
	c0.609-0.598,0.899-1.514,1.412-2.207c-0.164-0.031-0.229-0.162-0.295-0.294c-0.027,0.019-0.063,0.03-0.095,0.047
	c-0.194-0.292-0.598-0.361-0.899-0.21c-0.442-0.107-0.941-0.353-1.215-0.279c0.702-1.557,0.136-4.383,0.737-6.041
	c-0.466-1.193-0.464-2.584-0.59-3.977c-0.238-2.629-1.052-4.908-2.505-6.336c0,0.004-0.002,0.006-0.005,0.01
	c-0.008-0.018-0.018-0.035-0.028-0.051c0.133-0.062,0.198-0.189,0.181-0.4c-0.386,0.041-0.634-0.055-0.59-0.442
	c0.071-0.985,0.585-2.229,0.149-3.389c-0.298-0.786-1.199-1.037-1.77-1.474c-0.605-0.463-0.686-0.957-1.031-1.031
	c-0.859-0.184-1.543,0.383-2.357,0.737c-0.1,1.078-1.251,1.106-1.178,2.357c0.018,0.001,0.043,0.001,0.063,0.002
	c0.011,0.101,0.056,0.193,0.121,0.276c-0.012,0.008-0.024,0.01-0.038,0.016c0,1.229,0.612,1.392,0.294,2.652
	c1.063,0.41,1.17,1.777,2.653,1.768c-0.415,0.667-0.628,1.534-0.885,2.357c-0.173-0.391,0.283-0.867,0-0.884
	c-0.418,0.552-0.591,1.176-0.639,1.839c-0.14,0.215-0.168,0.443-0.012,0.682c0.046,1.187,0.359,2.463,0.355,3.667
	c-0.512-0.315-0.705-0.275-0.854,0.196c-0.006-0.002-0.009-0.007-0.014-0.01c0.1-0.603-0.451-1.034-0.813-0.83
	c-0.073-0.046-0.15-0.078-0.236-0.096c0.002-0.047,0.006-0.093,0.002-0.145c-1.151-0.916-0.556-4.016-2.357-3.83
	C37.853,11.734,38.373,12,38.6,12.559c-0.212,0.722-0.321,1.545-0.294,2.504c0.909,0.416,0.985,1.917,0.89,3.315
	c-0.048-0.054-0.099-0.102-0.153-0.144V17.42c-0.469,0.121-1.085,0.095-1.475,0.295c-2.041-0.604-3.332,0.783-4.124,1.915
	c0.174,0.023,0.418-0.024,0.441,0.147c-0.366,0.272-1.109,0.166-1.178,0.736c0.013,0.232,0.376,0.116,0.294,0.442
	c0.218,0.016,0.349-0.059,0.46-0.149c-0.196,0.212-0.36,0.434-0.259,0.801c0.044,0.165,0.128,0.302,0.23,0.418
	c0.025,0.16,0.039,0.338,0.011,0.551c0.516,0.197,0.926,0.246,1.265,0.193c-0.006,0.011-0.012,0.021-0.018,0.033
	c-0.73,0.025-1.492,0.093-1.837,0.511c-0.478-0.13-1.289-0.481-1.768-0.147c0.026,0.074,0.069,0.131,0.116,0.185
	c-0.072,0.017-0.138,0.044-0.2,0.082c-0.231-0.103-0.45-0.167-0.653-0.119c-0.167,0.494,0.124,0.528,0.33,0.648
	c-0.014,0.13,0.002,0.267,0.065,0.4c0.119,0.251,0.282,0.464,0.46,0.664c0.155,0.29,0.341,0.563,0.56,0.797
	c-0.022,0.001-0.044-0.001-0.065-0.001c-0.07-0.08-0.132-0.139-0.17-0.151c-0.477-0.151-0.986,0.068-1.439,0.206
	c-0.163-0.033-0.33,0.005-0.472,0.091c-0.051,0.002-0.104,0.005-0.152-0.003c0.022,0.023,0.053,0.039,0.077,0.059
	c-0.018,0.014-0.037,0.024-0.052,0.039c-0.082,0.074-0.162,0.148-0.243,0.223c-0.151,0.14-0.217,0.367-0.189,0.571
	c-0.013-0.004-0.021-0.003-0.035-0.007c0.012,0.018,0.028,0.029,0.041,0.047c0.002,0.018,0.002,0.036,0.006,0.054
	c0.041,0.137,0.1,0.292,0.161,0.451c-0.118-0.036-0.241-0.069-0.355-0.11c0.125,0.521,0.253,1.035,0.301,1.633
	c-0.144,0.014-0.283,0.047-0.415,0.104c-2.735-0.338-4.628,1.138-6.373,2.261c-0.553,0.04-1.077,0.144-1.51,0.37
	c-0.04,0.021-0.083,0.049-0.125,0.072c-1.394,0.341-2.31,1.16-3.397,1.807c-0.225,0.087-0.445,0.189-0.664,0.299
	c-0.373-0.059-0.696-0.09-0.931-0.063c-1.49,0.172-3.432,2.175-4.86,2.652H9.428C6.286,37.997,3.142,39.569,0,41.141v1.62
	c0.137-0.044,0.282-0.097,0.425-0.147c0.095,0.058,0.202,0.101,0.324,0.101h0.712c0.133,0,0.239-0.038,0.332-0.091
	c21.419,0.325,43.448,0.041,65.094,0.138v-6.188c-0.101-0.098-0.226-0.128-0.362-0.126c-0.002-0.04-0.014-0.081-0.021-0.12
	c0.305-0.021,0.604-0.035,0.826-0.048C67.461,35.969,67.558,35.624,67.771,35.395z"/>
</svg>
