<?xml version="1.0" encoding="utf-8"?>
<!-- Generator: Adobe Illustrator 15.0.2, SVG Export Plug-In  -->
<!DOCTYPE svg PUBLIC "-//W3C//DTD SVG 1.1//EN" "http://www.w3.org/Graphics/SVG/1.1/DTD/svg11.dtd" [
	<!ENTITY ns_flows "http://ns.adobe.com/Flows/1.0/">
]>
<svg version="1.1"
	 xmlns="http://www.w3.org/2000/svg" xmlns:xlink="http://www.w3.org/1999/xlink" xmlns:a="http://ns.adobe.com/AdobeSVGViewerExtensions/3.0/"
	 x="0px" y="0px" width="43px" height="71px" viewBox="0 0 43 71" enable-background="new 0 0 43 71" xml:space="preserve">
<defs>
</defs>
<path fill="#123D5A" d="M43.089,70.728L27.845,26.222v-2.126c0,0,5.18-19.703,5.322-20.411c0.143-0.709-3.402,1.843-3.402,1.843
	l-1.92,7.654l-5.592-0.851c0,0-2.127-8.93-1.702-9.496C20.979,2.268,17.15,0,17.15,0l3.401,22.537v2.977L0,69.878l12.047,0.142
	l0.711-4.434c6.661-2.874,18.568,1.173,18.568,1.173l-2.41,3.969H43.089z M27.171,16.284c0.389,0.876-2.045,6.083-2.238,6.327
	c-0.195,0.243-1.021,0-1.266,0c-0.242,0-1.507-7.398-1.507-7.398S26.783,15.408,27.171,16.284z M23.246,28.207
	c0,0,0.99-0.567,1.135,0c0.143,0.567,7.086,28.489,7.086,28.489h-3.621c0,0-6.3-4.677-13.67-5.669L23.246,28.207z M13.959,53.911
	c2.799,0,4.896,2.186,4.896,2.186H13L13.959,53.911z M10.631,61.532l1.134-2.852c19.682,0,20.27,2.551,20.27,2.551
	s0.088,0.885,0.141,1.418C32.035,61.231,10.631,61.532,10.631,61.532z"/>
</svg>
