<?xml version="1.0" encoding="utf-8"?>
<!-- Generator: Adobe Illustrator 15.0.2, SVG Export Plug-In  -->
<!DOCTYPE svg PUBLIC "-//W3C//DTD SVG 1.1//EN" "http://www.w3.org/Graphics/SVG/1.1/DTD/svg11.dtd" [
	<!ENTITY ns_flows "http://ns.adobe.com/Flows/1.0/">
]>
<svg version="1.1"
	 xmlns="http://www.w3.org/2000/svg" xmlns:xlink="http://www.w3.org/1999/xlink" xmlns:a="http://ns.adobe.com/AdobeSVGViewerExtensions/3.0/"
	 x="0px" y="0px" width="40px" height="59px" viewBox="0 0 40 59" enable-background="new 0 0 40 59" xml:space="preserve">
<defs>
</defs>
<path fill="#325E82" d="M39.984,7.211c0.092-0.159-0.081-0.185-0.16-0.281c-0.459,0.036-0.927,0.063-1.405,0.08
	c0.034-0.141,0.227-0.124,0.16-0.361c-0.962-0.123-1.927,0.021-2.73,0.401c-0.141,0.131-0.241,0.3-0.48,0.321
	c-0.261,0.023-0.344-0.104-0.562-0.16c-1.442,0.534-3.232,0.136-4.978,0.241c-0.171-0.024-0.079,0.217-0.282,0.161
	c-0.678-0.023-1.304-0.357-1.846-0.482c-0.227-0.051-0.498-0.005-0.723-0.08c-0.153-0.051-0.283-0.215-0.441-0.281
	c-0.3-0.124-0.692-0.235-1.043-0.361c-0.979-0.351-2.1-0.34-3.134-0.521c-0.156-0.286,0.015-0.574,0-0.924
	c-0.005-0.156-0.081-0.323-0.079-0.522c0.011-1.069,0.27-2.71-0.041-3.492c-0.284-0.721-1.655-1.279-2.567-0.723
	c-0.451,0.275-0.887,1.163-0.964,2.007c-0.119,1.28-0.316,2.438-0.441,3.453c-0.716,0.134-1.534,0.205-2.167,0.16
	c-0.944-0.066-1.92,0.49-2.931,0.563c-0.369,0.026-0.806-0.077-1.164,0c-0.353,0.075-0.658,0.423-1.043,0.481
	c-0.54,0.083-1.218,0.097-1.848,0.121C8.503,7.033,7.835,7.155,7.269,7.13c-0.18-0.007-0.351-0.104-0.521-0.12
	C6.254,6.966,5.754,7,5.299,6.81C5.137,6.805,5.231,7.061,5.019,7.01C4.526,6.915,3.981,6.372,3.535,6.288
	c-0.22-0.041-0.434,0.048-0.643,0.041C2.5,6.313,2.131,6.172,1.727,6.288C1.578,6.479,1.875,6.64,1.849,6.689
	c-0.521-0.013-0.998,0.02-1.444,0.08C0.315,6.971,0.234,6.94,0.003,7.01c-0.045,0.314,0.359,0.245,0.201,0.562
	c0.267,0.04,0.547,0.067,0.6,0.321c0.849,0.138,1.714,0.442,2.651,0.442c0.624,0,1.211-0.207,1.765,0
	c0.611,0.968,1.16,2.239,1.927,3.091c0.131,0.146,0.342,0.354,0.523,0.441c1.13,0.554,2.515-0.206,3.931,0
	c1.03,0.15,2.088,1.007,3.134,1.205c0.174,2.213-0.384,4.591-0.322,6.824c0.083,0.104,0.403-0.029,0.483,0.08
	c-0.03,0.279-0.043,0.572-0.122,0.803c0.09,0.234,0.427,0.316,0.482,0.643c0.052,0.304-0.113,0.789-0.162,1.244
	c-0.047,0.455-0.077,0.949-0.038,1.365c0.045,0.473,0.26,0.734,0.36,1.043c0.052,0.16-0.06,0.328,0.12,0.441
	c0,0.617-0.182,1.264-0.201,1.928c-0.006,0.285,0.111,0.594,0.122,0.883c0.049,1.357-0.259,2.908-0.32,4.415
	c-0.088,2.052,0.461,5.259,0.322,6.986c-0.703,0.095-0.673,0.163-0.84,0.271l-0.606,0.006c-0.675,0.122-1.192,0.4-1.91,0.479
	c-0.222,0.257-0.081,0.876-0.119,1.314c-0.313,0.168-0.793,0.166-1.077,0.359c-0.275,4.627-0.869,8.935-1.196,13.51
	c-0.318,0-0.637,0-0.957,0c-0.063,1.172-0.234,2.235-0.237,3.467c4.063,0.08,8.447-0.159,12.313,0.12c3.666,0,7.332,0,11,0
	c-0.031-1.203-0.164-2.309-0.239-3.468c-0.362-0.037-0.931,0.133-0.957-0.239c-0.313-4.509-0.801-8.843-1.076-13.39
	c-0.318-0.16-0.919-0.039-1.077-0.359c0-0.398,0-0.797,0-1.195c-0.812-0.183-1.621-0.369-2.271-0.717l-1.84,0.018
	c-0.056-0.023-0.113-0.036-0.169-0.066c-0.068-2.16,0.327-6.402,0.248-8.7c0.214,0,0.453,0.025,0.563-0.08
	c0.123-0.694,0.006-1.341,0.04-2.128c0.03-0.697-0.115-1.479,0-2.007c0.043-0.2,0.282-0.431,0.32-0.642
	c0.052-0.277-0.027-0.588-0.04-0.884c-0.058-1.336-0.002-2.973,0-4.376c0.006-2.613-0.066-5.021-0.16-7.627
	c0.88-0.055,1.506-0.595,2.448-0.843c1.296-0.341,2.911-0.261,4.334-0.321c0.295-0.012,0.599,0.042,0.885,0
	c0.423-0.061,0.944-0.799,1.205-1.204c0.47-0.729,0.781-1.412,0.963-2.248c0.378-0.212,0.725-0.033,1.083,0
	c1.199,0.11,2.351-0.333,3.373-0.521c0.111-0.181,0.259-0.332,0.563-0.321c-0.066-0.36,0.329-0.258,0.32-0.563
	C40.313,7.23,40.191,7.177,39.984,7.211z"/>
</svg>
