<?xml version="1.0" encoding="utf-8"?>
<!-- Generator: Adobe Illustrator 15.0.2, SVG Export Plug-In  -->
<!DOCTYPE svg PUBLIC "-//W3C//DTD SVG 1.1//EN" "http://www.w3.org/Graphics/SVG/1.1/DTD/svg11.dtd" [
	<!ENTITY ns_flows "http://ns.adobe.com/Flows/1.0/">
]>
<svg version="1.1"
	 xmlns="http://www.w3.org/2000/svg" xmlns:xlink="http://www.w3.org/1999/xlink" xmlns:a="http://ns.adobe.com/AdobeSVGViewerExtensions/3.0/"
	 x="0px" y="0px" width="64px" height="60px" viewBox="0 0 64 60" enable-background="new 0 0 64 60" xml:space="preserve">
<defs>
</defs>
<path fill="#6590A4" d="M61.636,59.155c-0.553-3.578-0.393-7.868-0.4-11.991c-0.078-0.006-0.157-0.009-0.236-0.014
	c0.303-0.242,0.385-0.68,0.236-1.031c0-2.982,0-5.965,0-8.947c-0.113-0.683,1.594-1.331,0.6-1.599c-6.229,0-12.46,0-18.69,0
	c-0.273-0.235-0.641-0.39-1.094-0.44c0-0.134,0-0.269,0-0.402c0.825-0.174,0.831-1.432,0.017-1.623
	c0.016-0.098,0.039-0.191,0.048-0.294c0.021-0.302-0.013-0.567-0.089-0.8c0.102-0.762,0.589-1.694,0.024-2.037
	c-0.254,0.013-0.52,0.024-0.785,0.035c0.097-0.205,0.159-0.424,0.192-0.648c0.563-0.164,0.949-0.506,0.992-1.185
	c-0.407-0.104-0.797-0.126-1.174-0.116c-0.065-0.139-0.141-0.272-0.236-0.394c1.005-0.029,1.857-0.21,2.21-0.89
	c-0.169-0.43-1.273,0.075-1.399-0.399c0.203-1.899-0.924-1.885-0.2-3.397c-0.593-0.54-0.266-1.998-1.199-2.198
	c0.179,1.444-0.697,1.834-0.8,2.997c1.009,0.867-0.354,1.555-0.399,2.998c-0.643-0.043-0.846,0.354-1.598,0.2
	c0.111-3.485-0.237-7.432,0.199-10.592c-0.08,0-0.158,0-0.236,0c0.018-0.2,0.018-0.401-0.014-0.601c0.017,0,0.033,0,0.051,0
	c0.103-3.094-0.299-6.692,0.399-9.192c-0.088-0.001-0.177-0.001-0.263-0.001c0.008-0.079,0.023-0.155,0.023-0.236v-0.11
	c0-0.427-0.136-0.826-0.361-1.162c0-0.097,0-0.193,0-0.289c-0.09-0.042-0.194-0.069-0.297-0.098
	c-0.034-0.245-0.104-0.482-0.213-0.701c0.037,0,0.074,0,0.11,0c0.155-0.444,0.42-0.78,0.399-1.399
	c-0.807-0.191-0.564-1.435-1.198-1.799c0.073,0.8-0.47,1.288-0.704,2.15c-0.129-0.022-0.265-0.037-0.41-0.037
	c-0.236,0-0.443,0.043-0.638,0.103c-0.62-0.534-1.368-0.939-2.246-1.215C32.176,1.08,32.207,0.25,31.658,0
	c0.045,0.844-0.308,1.29-0.399,1.999c-1.172,0.12-1.916,0.667-2.448,1.426c-0.163-0.042-0.33-0.071-0.504-0.071h-0.077
	c-0.152-1.022-0.799-1.549-0.968-2.554c-0.231,1.173-1.432,1.738-0.799,3.198c0.075,0,0.15,0,0.226,0
	C26.39,4.3,26.186,4.69,26.11,5.121c-0.026,0.081-0.043,0.172-0.048,0.275c0.005,0.003,0.013,0.005,0.019,0.008
	c0,0.024-0.007,0.047-0.007,0.072c0,0.409,0.125,0.792,0.333,1.118c-0.184,0-0.358,0.001-0.544,0.001
	c-0.047-0.307-0.329-0.029-0.399,0.2c1.019,2.11,0.472,5.785,0.594,8.791c-0.054,0.188-0.093,0.38-0.093,0.582
	c0,0.075,0.012,0.146,0.019,0.22c-0.04,0-0.08,0-0.121,0c-0.072,3.171,0.23,7.259-0.2,10.592c-0.412,0.063-0.588-0.107-0.854-0.19
	c-0.174-0.101-0.358-0.185-0.557-0.232c-0.012-1.042-0.355-1.752-0.987-2.176c0.523,0.057,0.859-0.072,0.799-0.6
	c-0.618-1.139-0.546-2.518-1.399-2.997c0.096,1.72-1.456,2.302-0.2,3.597c-0.747,0.136-1.089,1.462-0.6,2.199
	c-0.454,0.146-1.559-0.36-1.399,0.399c0.326,0.333,0.818,0.498,1.388,0.587c-0.133,0.225-0.225,0.475-0.268,0.74
	c-0.171,0.02-0.343,0.041-0.521,0.072c0.132,0.283,0.319,0.495,0.547,0.653c0.078,0.375,0.253,0.709,0.504,0.985
	c-0.285-0.013-0.571-0.025-0.851-0.041c-0.073,0.682,0.526,1.617,0.4,2.599c0.147,0,0.294,0,0.44,0
	c-0.036,0.183-0.056,0.368-0.051,0.552h0c-0.089,0.033-0.162,0.082-0.228,0.139c-0.008,0.008-0.019,0.014-0.027,0.021
	c-0.059,0.055-0.104,0.117-0.142,0.188c-0.01,0.017-0.021,0.033-0.029,0.051c-0.007,0.014-0.008,0.027-0.014,0.041
	c-0.048,0.003-0.103,0.006-0.15,0.008c0.049,0,0.098,0,0.147,0c-0.02,0.049-0.038,0.098-0.049,0.15
	c-0.007,0.031-0.012,0.063-0.016,0.094c-0.006,0.061-0.008,0.117-0.002,0.178c0.003,0.047,0.012,0.092,0.022,0.137
	c0.011,0.047,0.022,0.094,0.04,0.139c0.015,0.036,0.037,0.068,0.057,0.101c0,0.325,0,0.649,0,0.976
	c-0.3,0.068-0.568,0.214-0.807,0.404c0.004-0.059,0.004-0.121,0.007-0.179c-6.462,0-12.923,0-19.385,0
	c1.796,1.645,0.674,6.972,0.989,10.644c-0.009,0.035-0.023,0.07-0.028,0.105c-0.119,0.266-0.104,0.592,0.037,0.842
	c-0.032,3.402,0.183,8.555-0.398,11.991c-0.91,0.09-2.452-0.452-1.999,0.999c8.619,0,17.238,0,25.856,0
	c0.228,0.085,0.467,0.136,0.715,0.136h0.22c0.063,0,0.118-0.017,0.179-0.021c0.27,0.014,0.534-0.035,0.786-0.115
	c2.743,0,5.486,0,8.228,0c0.379,0.106,0.781,0.113,1.164,0c8.802,0,17.603,0,26.403,0C63.987,58.801,62.585,59.205,61.636,59.155z
	 M54.841,38.371c3.525-0.936,3.384,3.537,3.209,7.715c-0.169,0.156-0.277,0.374-0.277,0.617v0.109c0,0.067,0.013,0.125,0.024,0.184
	c-1.582-0.048-3.172-0.059-4.778-0.051c0.057-0.291,0.063-0.592,0.011-0.883C52.623,42.794,52.432,39.01,54.841,38.371z
	 M45.049,38.771c3.384-2.626,4.898,2.622,4.246,6.511c-0.305,0.496-0.396,1.119-0.276,1.695c-1.678,0.016-3.385,0.021-5.133-0.002
	c0.097-0.309,0.118-0.646,0.073-0.976c0.385-0.592,0.072-1.679,0.09-2.232C44.126,41.359,43.886,39.672,45.049,38.771z
	 M29.304,45.588c-0.018-0.095-0.047-0.187-0.077-0.277c0.328-3.35-0.951-7.853,2.031-8.339c3.591-0.585,3.181,3.376,3.197,6.396
	c0.006,0.813-0.228,1.889,0.117,2.604c-0.041,0.333-0.014,0.672,0.088,0.993c-1.759,0-3.518,0-5.277,0
	C29.437,46.485,29.435,46.082,29.304,45.588z M34.691,54.953c-0.004,0.065,0.004,0.133-0.006,0.199
	c-0.02,0.119-0.02,0.236-0.034,0.355c0.002-0.27,0.003-0.532,0.005-0.788C34.67,54.797,34.676,54.876,34.691,54.953z M25.961,27.697
	c-0.001,0.008-0.001,0.017-0.002,0.025c-0.016-0.02-0.036-0.034-0.053-0.053c0.021,0.002,0.038,0.007,0.058,0.008
	C25.964,27.685,25.962,27.69,25.961,27.697z M30.521,6.568c0.013,0.007,0.028,0.01,0.042,0.017c-0.017,0-0.033,0-0.049,0
	C30.515,6.58,30.519,6.574,30.521,6.568z M30.263,15.706c0.206-2.948-0.882-7.049,1.794-6.713c2.195,0.275,1.151,4.04,1.399,6.794
	c0.034,0,0.068,0,0.103,0c-0.031,0.199-0.031,0.4-0.013,0.601c-1.084,0-2.167,0-3.25,0c0.009-0.073,0.022-0.145,0.022-0.22
	C30.319,16.01,30.297,15.855,30.263,15.706z M18.068,38.371c1.688,0.668,1.583,3.23,1.599,5.596
	c0.005,0.885-0.334,2.151,0.131,2.371c-0.042,0.206-0.059,0.416-0.043,0.627c-1.625,0-3.249,0-4.874,0
	c0-0.015,0.004-0.027,0.004-0.041c0-0.488-0.179-0.936-0.464-1.298C14.18,41.514,14.456,36.939,18.068,38.371z M7.276,38.371
	c3.93-1.295,3.706,4.732,3.421,7.739c-0.107,0.252-0.167,0.526-0.167,0.813c0,0.014,0.003,0.026,0.003,0.041
	c-1.64,0-3.281,0-4.921,0c0.148-0.241,0.169-0.551,0.063-0.815C5.332,43.1,4.997,39.121,7.276,38.371z M19.667,59.155
	c-1.732,0-3.464,0-5.196,0c0.287-4.331-1.289-10.903,2.798-10.592c1.76,0.134,2.124,1.599,2.511,3.399
	c-0.013,0.452-0.038,0.925-0.06,1.408C19.506,55.102,19.78,57.322,19.667,59.155z M28.957,59.155
	c0.082-0.181,0.147-0.362,0.198-0.542c0.029,0.066,0.062,0.119,0.105,0.143c-0.016-0.164-0.021-0.357-0.023-0.568
	c0.063-0.404,0.07-0.81,0.025-1.215c0.01-0.299,0.019-0.599,0.023-0.881c0.193-1.008-0.008-2.244-0.112-3.221
	c0.024-0.184,0.041-0.367,0.061-0.551c0.011,0.012,0.016,0.028,0.026,0.04c-0.01-0.056-0.006-0.101-0.014-0.155
	c0.045-0.438,0.081-0.876,0.081-1.313c0-0.127-0.011-0.229-0.015-0.343c0.686-2.511,4.112-2.314,5.11-0.11
	c-0.066,0.708,0.026,1.41,0.033,2.223c0.002,0.293,0.048,0.584,0.1,0.875c0.002,0.187,0.014,0.36,0.025,0.535
	c-0.242,1.039-0.133,2.428-0.103,3.736c-0.05,0.258-0.046,0.505,0.003,0.738c-0.003,0.207-0.01,0.412-0.025,0.608
	C32.623,59.155,30.79,59.155,28.957,59.155z M42.984,59.136c0.034-0.022,0.063-0.05,0.097-0.073
	c-0.012,0.029-0.02,0.064-0.031,0.093C43.023,59.153,43.009,59.14,42.984,59.136z M49.245,59.155c-1.731,0-3.464,0-5.196,0
	c0-2.153,0-4.308,0-6.46c0.079-0.344,0.143-0.688,0.16-1.031c0.01-0.201-0.024-0.393-0.077-0.578
	c-0.002-0.318-0.004-0.643,0.117-0.924c0.451-1.047,2.29-2.373,3.997-1.199C50.502,50.516,48.606,55.762,49.245,59.155z"/>
</svg>
