<?xml version="1.0" encoding="utf-8"?>
<!-- Generator: Adobe Illustrator 15.0.2, SVG Export Plug-In  -->
<!DOCTYPE svg PUBLIC "-//W3C//DTD SVG 1.1//EN" "http://www.w3.org/Graphics/SVG/1.1/DTD/svg11.dtd" [
	<!ENTITY ns_flows "http://ns.adobe.com/Flows/1.0/">
]>
<svg version="1.1"
	 xmlns="http://www.w3.org/2000/svg" xmlns:xlink="http://www.w3.org/1999/xlink" xmlns:a="http://ns.adobe.com/AdobeSVGViewerExtensions/3.0/"
	 x="0px" y="0px" width="38px" height="35px" viewBox="0 0 38 35" enable-background="new 0 0 38 35" xml:space="preserve">
<defs>
</defs>
<path fill="#595959" d="M37.412,18.631l0.329-0.65l-0.321-0.759c-0.121-0.823-2.172-1.535-4.643-1.406l-10.059-0.009
	c0,0-1.146-1.596-2.681-3.739l1.696,0.015c0,0,0.813,0.141,0.963-0.543l0.008-0.848c-0.145-0.685-0.959-0.552-0.959-0.552
	l-3.104-0.024c-0.997-1.397-2.057-2.878-3.023-4.232l1.726,0.013c0,0,0.823,0.13,0.954-0.549l0.012-0.851
	c-0.129-0.693-0.948-0.554-0.948-0.554l-3.142-0.021c-1.103-1.551-1.908-2.686-2.049-2.904c-0.554-0.83-1.232-1.118-2.742-0.983
	l4.339,12.359l0.519,3.468l-3.453-0.078l-0.411,0.046l-3.281,0.188l-2.489,0.302c-1.085-1.37-2.302-3.476-2.302-3.476
	s-0.126-0.685-1.504-0.421l0.883,4.21L0,17.368l1.722,0.778L0.768,22.87c1.373,0.279,1.512-0.391,1.512-0.391
	s1.247-2.092,2.354-3.453l2.483,0.348l3.28,0.238l0.406,0.049l3.451-0.02L13.688,23.1l-1.875,5.1
	c-0.124,0.025-0.254,0.079-0.359,0.183c-0.112,0.082-0.207,0.201-0.248,0.387l-0.002,0.861c0.008,0.045,0.025,0.078,0.041,0.115
	l-2.078,5.65c1.504,0.147,2.188-0.122,2.755-0.941c0.187-0.277,1.476-2.039,3.101-4.25l2.135,0.016c0,0,0.586,0.097,0.85-0.279
	c0.072-0.078,0.135-0.176,0.164-0.316l0.002-0.846c-0.137-0.688-0.953-0.552-0.953-0.552l-0.733-0.007
	c1.028-1.398,2.1-2.848,3.056-4.143l2.104,0.014c0,0,0.497,0.078,0.786-0.219c0.099-0.082,0.177-0.201,0.214-0.373l0.006-0.846
	c-0.129-0.693-0.951-0.563-0.951-0.563l-0.689-0.005c1.008-1.363,1.682-2.273,1.682-2.273l10.055,0.152
	C35.213,20.113,37.277,19.448,37.412,18.631z"/>
</svg>
