<?xml version="1.0" encoding="utf-8"?>
<!-- Generator: Adobe Illustrator 15.0.2, SVG Export Plug-In  -->
<!DOCTYPE svg PUBLIC "-//W3C//DTD SVG 1.1//EN" "http://www.w3.org/Graphics/SVG/1.1/DTD/svg11.dtd" [
	<!ENTITY ns_flows "http://ns.adobe.com/Flows/1.0/">
]>
<svg version="1.1"
	 xmlns="http://www.w3.org/2000/svg" xmlns:xlink="http://www.w3.org/1999/xlink" xmlns:a="http://ns.adobe.com/AdobeSVGViewerExtensions/3.0/"
	 x="0px" y="0px" width="37px" height="34px" viewBox="0 0 37 34" enable-background="new 0 0 37 34" xml:space="preserve">
<defs>
</defs>
<path fill="#595959" d="M0.495,8.81L0,9.346l0.104,0.818c-0.107,0.825,1.671,2.068,4.082,2.617l9.679,2.748
	c0,0,0.666,1.847,1.56,4.328l-1.628-0.477c0,0-0.745-0.357-1.073,0.261l-0.238,0.813c-0.05,0.698,0.771,0.793,0.771,0.793
	l2.979,0.867c0.58,1.616,1.196,3.33,1.756,4.896l-1.655-0.482c0,0-0.756-0.35-1.068,0.269l-0.244,0.815
	c-0.062,0.703,0.764,0.792,0.764,0.792l3.017,0.876c0.639,1.792,1.104,3.104,1.182,3.353c0.306,0.948,0.882,1.411,2.37,1.692
	l-0.81-13.074l0.446-3.477l3.3,1.014l0.409,0.067l3.208,0.714l2.479,0.387c0.67,1.614,1.268,3.972,1.268,3.972
	s-0.066,0.693,1.332,0.814l0.297-4.291l1.864-0.239l-1.443-1.217l2.205-4.287c-1.246-0.644-1.562-0.035-1.562-0.035
	s-1.771,1.672-3.205,2.681l-2.295-1.011l-3.091-1.122l-0.38-0.159l-3.323-0.92l1.486-3.173l3.192-4.396
	c0.126,0.009,0.267-0.007,0.394-0.078c0.132-0.047,0.257-0.136,0.346-0.305l0.236-0.828c0.005-0.045-0.003-0.082-0.007-0.122
	l3.538-4.871c-1.407-0.552-2.14-0.479-2.907,0.154c-0.256,0.216-1.976,1.561-4.143,3.246l-2.049-0.598c0,0-0.538-0.252-0.895,0.038
	c-0.09,0.056-0.177,0.134-0.242,0.261l-0.232,0.813c-0.057,0.698,0.767,0.791,0.767,0.791l0.703,0.207
	c-1.37,1.066-2.796,2.168-4.069,3.154l-2.02-0.587c0,0-0.456-0.21-0.815-0.003c-0.119,0.053-0.225,0.145-0.308,0.3l-0.234,0.813
	c-0.066,0.701,0.761,0.8,0.761,0.8l0.66,0.192c-1.339,1.038-2.234,1.73-2.234,1.73L5.347,8.796C3.014,7.982,0.846,8.059,0.495,8.81z
	"/>
</svg>
