<?xml version="1.0" encoding="utf-8"?>
<!-- Generator: Adobe Illustrator 15.0.2, SVG Export Plug-In  -->
<!DOCTYPE svg PUBLIC "-//W3C//DTD SVG 1.1//EN" "http://www.w3.org/Graphics/SVG/1.1/DTD/svg11.dtd" [
	<!ENTITY ns_flows "http://ns.adobe.com/Flows/1.0/">
]>
<svg version="1.1"
	 xmlns="http://www.w3.org/2000/svg" xmlns:xlink="http://www.w3.org/1999/xlink" xmlns:a="http://ns.adobe.com/AdobeSVGViewerExtensions/3.0/"
	 x="0px" y="0px" width="111px" height="58px" viewBox="0 0 111 58" enable-background="new 0 0 111 58" xml:space="preserve">
<defs>
</defs>
<rect fill="#FFFFFF" width="110.807" height="57.559"/>
<path fill="#EE3124" d="M51.526,6.079H6.227v45.306h39.928c2.967,0,5.371-2.406,5.371-5.375V6.079"/>
<rect x="11.666" y="28.769" fill="#FFFFFF" width="3.628" height="16.079"/>
<path fill="#FFFFFF" d="M26.224,38.002l-1.003-3.414c-0.264-0.953-0.55-2.172-0.788-3.102h-0.071
	c-0.212,0.953-0.477,2.174-0.716,3.102l-0.976,3.414H26.224 M22.142,40.719l-1.114,4.129h-3.773l4.915-16.079h4.745l5.01,16.079
	h-3.915l-1.236-4.129H22.142z"/>
<path fill="#FFFFFF" d="M36.591,28.769v9.233c0,2.788,1.073,4.198,2.914,4.198c1.907,0,2.954-1.338,2.954-4.198v-9.233h3.628v9.018
	c0,4.959-2.502,7.322-6.706,7.322c-4.051,0-6.416-2.266-6.416-7.371v-8.969H36.591"/>
<rect x="56.856" y="9.051" width="0.824" height="3.948"/>
<polyline points="58.922,12.999 58.922,9.051 60.035,9.051 61.087,11.785 61.097,11.785 61.097,9.051 61.866,9.051 61.866,12.999 
	60.779,12.999 59.704,10.112 59.693,10.112 59.693,12.999 58.922,12.999 "/>
<path d="M64.173,13.063c-1.022,0-1.215-0.602-1.169-1.285h0.825c0,0.378,0.017,0.695,0.47,0.695c0.279,0,0.416-0.181,0.416-0.448
	c0-0.71-1.664-0.755-1.664-1.931c0-0.617,0.298-1.109,1.305-1.109c0.8,0,1.199,0.36,1.146,1.186h-0.805
	c0-0.294-0.049-0.595-0.382-0.595c-0.267,0-0.425,0.146-0.425,0.419c0,0.75,1.662,0.686,1.662,1.925
	C65.553,12.942,64.803,13.063,64.173,13.063"/>
<polyline points="69.032,9.051 69.032,9.708 68.116,9.708 68.116,12.999 67.289,12.999 67.289,9.708 66.372,9.708 66.372,9.051 
	69.032,9.051 "/>
<rect x="69.958" y="9.051" width="0.826" height="3.948"/>
<polyline points="74.368,9.051 74.368,9.708 73.448,9.708 73.448,12.999 72.625,12.999 72.625,9.708 71.706,9.708 71.706,9.051 
	74.368,9.051 "/>
<path d="M77.958,9.051v2.799c0,0.59-0.332,1.213-1.338,1.213c-0.908,0-1.346-0.47-1.346-1.213V9.051H76.1v2.744
	c0,0.487,0.209,0.679,0.508,0.679c0.36,0,0.525-0.241,0.525-0.679V9.051H77.958"/>
<polyline points="81.522,9.051 81.522,9.708 80.604,9.708 80.604,12.999 79.778,12.999 79.778,9.708 78.859,9.708 78.859,9.051 
	81.522,9.051 "/>
<path d="M56.873,16.446h1.378c1.081,0,1.284,0.724,1.284,1.952c0,0.607,0.091,1.996-1.319,1.996h-1.343V16.446 M57.698,19.786h0.397
	c0.504,0,0.603-0.376,0.603-1.365c0-0.728,0-1.369-0.574-1.369h-0.426V19.786z"/>
<polyline points="60.725,16.446 61.458,16.446 61.059,17.522 60.534,17.522 60.725,16.446 "/>
<path d="M62.19,20.394l1.095-3.948h1.085l1.072,3.948h-0.871l-0.215-0.875h-1.127l-0.225,0.875H62.19 M63.78,17.206h-0.01
	l-0.375,1.705h0.783L63.78,17.206z"/>
<polyline points="66.353,20.394 66.353,16.446 67.682,16.446 68.301,19.129 68.311,19.129 68.967,16.446 70.25,16.446 70.25,20.394 
	69.45,20.394 69.45,17.348 69.437,17.348 68.68,20.394 67.89,20.394 67.17,17.348 67.159,17.348 67.159,20.394 66.353,20.394 "/>
<path d="M71.465,20.394v-3.948h2.154v0.606h-1.33v0.973h1.225v0.608H72.29v1.153h1.373v0.607H71.465 M73.247,15.261l-0.873,0.781
	h-0.355l0.492-0.781H73.247z"/>
<polyline points="74.743,20.394 74.743,16.446 75.859,16.446 76.91,19.18 76.92,19.18 76.92,16.446 77.694,16.446 77.694,20.394 
	76.604,20.394 75.526,17.507 75.515,17.507 75.515,20.394 74.743,20.394 "/>
<path d="M78.553,20.394l1.094-3.948h1.088l1.074,3.948h-0.871l-0.219-0.875h-1.125l-0.227,0.875H78.553 M80.143,17.206h-0.011
	l-0.374,1.705h0.785L80.143,17.206z"/>
<path d="M84.258,17.66c0.007-0.366-0.055-0.688-0.494-0.688c-0.513,0-0.513,0.692-0.513,1.458c0,1.234,0.12,1.453,0.591,1.453
	c0.136,0,0.285-0.031,0.41-0.076v-0.875h-0.447v-0.606h1.272v2.001c-0.224,0.043-0.786,0.132-1.114,0.132
	c-1.389,0-1.549-0.576-1.549-2.074c0-0.994,0.049-2.005,1.402-2.005c0.808,0,1.311,0.455,1.261,1.279H84.258"/>
<polyline points="86.359,20.394 86.359,16.446 88.51,16.446 88.51,17.052 87.184,17.052 87.184,18.025 88.409,18.025 88.409,18.633 
	87.184,18.633 87.184,19.786 88.553,19.786 88.553,20.394 86.359,20.394 "/>
<polyline points="89.663,20.394 89.663,16.446 90.993,16.446 91.607,19.129 91.62,19.129 92.278,16.446 93.559,16.446 
	93.559,20.394 92.758,20.394 92.758,17.348 92.745,17.348 91.986,20.394 91.198,20.394 90.477,17.348 90.467,17.348 90.467,20.394 
	89.663,20.394 "/>
<polyline points="94.774,20.394 94.774,16.446 96.926,16.446 96.926,17.052 95.598,17.052 95.598,18.025 96.823,18.025 
	96.823,18.633 95.598,18.633 95.598,19.786 96.971,19.786 96.971,20.394 94.774,20.394 "/>
<polyline points="98.053,20.394 98.053,16.446 99.167,16.446 100.217,19.18 100.23,19.18 100.23,16.446 100.999,16.446 
	100.999,20.394 99.91,20.394 98.834,17.507 98.823,17.507 98.823,20.394 98.053,20.394 "/>
<polyline points="104.584,16.446 104.584,17.103 103.664,17.103 103.664,20.394 102.84,20.394 102.84,17.103 101.922,17.103 
	101.922,16.446 104.584,16.446 "/>
<polyline points="56.856,27.788 56.856,23.841 59.011,23.841 59.011,24.447 57.68,24.447 57.68,25.42 58.905,25.42 58.905,26.027 
	57.68,26.027 57.68,27.181 59.052,27.181 59.052,27.788 56.856,27.788 "/>
<polyline points="62.589,23.841 62.589,24.498 61.672,24.498 61.672,27.788 60.846,27.788 60.846,24.498 59.926,24.498 
	59.926,23.841 62.589,23.841 "/>
<path d="M65.502,23.841h1.379c1.08,0,1.281,0.721,1.281,1.953c0,0.605,0.094,1.994-1.314,1.994h-1.346V23.841 M66.327,27.181h0.402
	c0.501,0,0.6-0.378,0.6-1.365c0-0.729,0-1.368-0.576-1.368h-0.426V27.181z"/>
<polyline points="69.463,23.841 70.196,23.841 69.795,24.917 69.272,24.917 69.463,23.841 "/>
<path d="M74.004,23.841v2.799c0,0.59-0.332,1.212-1.338,1.212c-0.906,0-1.342-0.469-1.342-1.212v-2.799h0.822v2.745
	c0,0.485,0.207,0.676,0.51,0.676c0.359,0,0.523-0.241,0.523-0.676v-2.745H74.004"/>
<path d="M76.139,27.788h-0.826v-3.947h1.523c0.564,0,0.926,0.359,0.926,1.034c0,0.502-0.199,0.88-0.732,0.968v0.012
	c0.18,0.019,0.715,0.065,0.715,0.773c0,0.253,0.018,0.996,0.094,1.16H77.03c-0.109-0.24-0.09-0.51-0.09-0.767
	c0-0.47,0.045-0.869-0.587-0.869h-0.214V27.788 M76.139,25.547h0.365c0.328,0,0.421-0.328,0.421-0.578
	c0-0.379-0.159-0.521-0.421-0.521h-0.365V25.547z"/>
<path d="M79.032,27.788v-3.947h1.463c0.627,0,1.146,0.179,1.146,1.02c0,0.456-0.223,0.785-0.672,0.871v0.011
	c0.588,0.083,0.74,0.458,0.74,1.001c0,0.999-0.871,1.043-1.221,1.043H79.032 M79.856,25.455h0.55c0.179,0,0.433-0.122,0.433-0.505
	c0-0.289-0.197-0.503-0.477-0.503h-0.506V25.455z M79.856,27.181h0.459c0.174,0,0.566-0.006,0.566-0.557
	c0-0.351-0.131-0.563-0.548-0.563h-0.478V27.181z"/>
<path d="M82.706,27.788l1.096-3.947h1.087l1.071,3.947h-0.87l-0.219-0.873h-1.126l-0.223,0.873H82.706 M84.295,24.601h-0.008
	l-0.377,1.705h0.785L84.295,24.601z"/>
<polyline points="87.002,27.788 87.002,23.841 88.118,23.841 89.168,26.574 89.178,26.574 89.178,23.841 89.95,23.841 89.95,27.788 
	88.861,27.788 87.786,24.9 87.774,24.9 87.774,27.788 87.002,27.788 "/>
<rect x="91.293" y="23.841" width="0.824" height="3.947"/>
<path d="M94.534,27.853c-1.02,0-1.213-0.601-1.17-1.285h0.826c0,0.379,0.018,0.695,0.471,0.695c0.28,0,0.416-0.18,0.416-0.447
	c0-0.712-1.664-0.754-1.664-1.93c0-0.618,0.297-1.11,1.301-1.11c0.807,0,1.203,0.36,1.15,1.187h-0.805
	c0-0.296-0.049-0.596-0.384-0.596c-0.265,0-0.425,0.148-0.425,0.42c0,0.75,1.66,0.682,1.66,1.926
	C95.911,27.733,95.165,27.853,94.534,27.853"/>
<polyline points="97.136,27.788 97.136,23.841 98.466,23.841 99.081,26.527 99.096,26.527 99.749,23.841 101.032,23.841 
	101.032,27.788 100.231,27.788 100.231,24.744 100.219,24.744 99.459,27.788 98.672,27.788 97.95,24.744 97.941,24.744 
	97.941,27.788 97.136,27.788 "/>
<polyline points="102.405,27.788 102.405,23.841 104.557,23.841 104.557,24.447 103.229,24.447 103.229,25.42 104.45,25.42 
	104.45,26.027 103.229,26.027 103.229,27.181 104.6,27.181 104.6,27.788 102.405,27.788 "/>
<rect x="56.867" y="34.702" fill="#FFFFFF" stroke="#000000" stroke-width="0.5" width="47.765" height="14.128"/>
<line fill="#FFFFFF" stroke="#000000" stroke-width="0.5" x1="104.631" y1="31.236" x2="56.867" y2="31.236"/>
<path fill="#EE3124" d="M64.948,40.514c-0.019,0.008-0.094,0.03-0.087,0.031c-0.007-0.001-0.011-0.004-0.011-0.01
	c0.008-0.027-0.122,0.094-0.129,0.047c-0.002-0.008,0.007,0.002-0.012-0.003c0.046,0.007-0.291,0.114-0.291,0.107
	c-0.016-0.034-0.012-0.07,0.01-0.101c0.027-0.068-0.059-0.164-0.027-0.136c-0.023-0.023-0.023-0.046-0.001-0.068
	c0.017,0.011,0.001-0.004,0.011-0.032c0.008-0.006-0.02-0.045,0.006-0.03c0.021-0.007,0.057-0.125,0.031-0.212
	c-0.057-0.129-0.031-1.063-0.005-1.025c0.011-0.066-0.049-0.113-0.021-0.16c0.002-0.049-0.045-0.051-0.037-0.083
	c-0.025-0.1-0.164-0.099-0.149-0.119c-0.073,0.017-0.343,0.452-0.347,0.462c0.018-0.015-0.184,0.284-0.178,0.285
	c-0.023-0.006-0.047,0.033-0.053,0.078c-0.001,0.006-0.112,0.144-0.102,0.116c-0.037,0.063-0.082,0.126-0.117,0.189
	c0.027-0.017-0.05,0.054-0.037,0.052c0.002-0.009-0.087,0.211-0.087,0.191c0.007-0.029-0.108,0.107-0.12,0.109
	c-0.025,0.1-0.395-0.146-0.4-0.256c0-0.004-0.008-0.104-0.057-0.115c0.021,0.019-0.262-0.239-0.244-0.219
	c-0.146-0.199-0.263-0.193-0.484-0.385c0.002-0.004-0.049-0.125-0.087-0.168c-0.083,0.02-0.196,0.148-0.171,0.18
	c-0.037,0.016-0.043-0.029-0.057-0.045c-0.011,0.05,0.037,0.33,0.037,0.33c-0.007,0.04,0.02,0.249,0.027,0.217l0.018,0.018
	c0,0.004-0.025,0.033,0.004,0.053c0.033,0.06,0.1,0.101,0.078,0.184c-0.03,0.015,0.003,0.124,0,0.089
	c-0.035,0.173,0.367,0.494,0.313,0.725c-0.027,0.021,0.076,0.142,0.054,0.137c-0.033,0.042-0.138,0.066-0.211,0.085
	c-0.021,0.016-0.043,0.002-0.066-0.004c-0.021-0.004-0.205-0.079-0.256-0.045c-0.002,0.006-0.152-0.034-0.154-0.027
	c0.028-0.03-0.172,0.042-0.142-0.021c0.014-0.051-0.171,0.052-0.126,0.025c-0.004,0.002-0.081,0.047-0.079,0.031
	c0.007-0.016-0.07-0.002-0.052,0.003c-0.014-0.005-0.092-0.026-0.08-0.017c-0.043-0.03-0.053,0.009-0.104-0.016
	c-0.003,0.006-0.061,0.014-0.071,0.011c-0.004-0.002-0.117,0.005-0.117,0c0.01-0.003-0.099,0.03-0.107,0.005
	c0.006-0.007-0.083,0.061-0.107,0.021c0.01-0.035-0.102,0.026-0.119,0.03c-0.012-0.004-0.07-0.029-0.058-0.009
	c-0.011,0.003-0.079,0.089-0.079,0.089c0.014,0.006,0.383,0.281,0.323,0.237c0,0,0.04,0.033,0.136,0.092
	c-0.014,0.04,0.145,0.001,0.119,0.091c0.148-0.086,0.448,0.318,0.553,0.255c0.014,0,0.06,0.071,0.074,0.063
	c-0.024-0.02,0.076,0.034,0.045,0.032c0.014,0.016,0.008,0.011,0.056,0.061c0.12-0.005,0.171,0.094,0.212,0.127
	c0.132,0.253-0.417,0.501-0.464,0.628c-0.001,0.005-0.001,0.014-0.009,0.011c0.006,0.005-0.078,0.033-0.086,0.075l-0.084,0.105
	c-0.072-0.02-0.258,0.275-0.334,0.313l-0.178,0.081c0,0-0.026,0.026-0.043,0.05c-0.016,0.027-0.04,0.058-0.059,0.062
	c-0.016,0.008-0.127,0.117-0.127,0.117l-0.025,0.051l0.043,0.021c0,0-0.027,0.033-0.033,0.047s-0.023,0.051,0.012,0.059
	c0.038,0.006,0.057,0.006,0.065,0.023s0.151,0.029,0.163,0.027c0.011-0.005,0.082-0.036,0.082-0.036
	c0.071-0.021,0.297-0.019,0.322,0.004c-0.005,0,0.329-0.083,0.337-0.11c0.013,0.004,0.206-0.066,0.206-0.066
	c0.055-0.024,0.176-0.044,0.213-0.09c-0.037,0.009,0.158-0.059,0.213-0.032c0.017,0.01,0.482-0.087,0.5-0.147
	c0.037,0.004,0.043,0.039,0.046,0.041c-0.013,0.063-0.003,0.232-0.025,0.263c0-0.023-0.065,0.045-0.042,0.083
	c0.045,0.013,0.042-0.004,0.072,0.064c-0.014-0.03,0.002,0.139-0.001,0.199c0.001,0.033,0.055,0.141-0.032,0.186
	c0,0-0.05,0.101-0.053,0.1c0.008-0.049,0.008,0.025-0.001,0.012c0.044-0.023,0.028,0.113,0.019,0.128
	c0.01-0.021-0.021,0.025-0.023,0.011c-0.073,0.139,0.078,0.154-0.009,0.168c0.036,0.013,0.056,0.195,0.054,0.17
	c0.007,0.063,0.004,0.122-0.016,0.18c-0.012-0.039-0.033,0.069-0.027,0.099c0.016,0.071-0.02,0.2,0.047,0.231
	c-0.011-0.027,0.049,0.063,0.049,0.063c0.154,0.065,0.191-0.137,0.26-0.169c0.023-0.002,0.05-0.097,0.074-0.091
	c0-0.006,0.095-0.449,0.166-0.427c-0.005,0,0.119-0.181,0.143-0.26c0,0.007-0.059-0.062,0.066-0.116
	c0.057,0.02,0.086-0.139,0.102-0.231c0.004-0.052,0.04-0.025,0.045-0.082c-0.002,0.017,0.107-0.161,0.123-0.235
	c0.02,0.002,0.021-0.081,0.033-0.068c-0.035-0.031,0.028-0.063,0.021-0.09c0.01-0.044,0.007-0.08,0.025-0.079
	c0.02-0.084,0.071-0.048,0.086-0.04c0.023,0.014,0.061-0.008,0.063,0.055c-0.024,0.033,0.079,0.063,0.071,0.083
	c-0.002-0.016,0.498,0.575,0.637,0.688c0.008,0.008,0.395,0.392,0.379,0.389c0.044,0.021,0.078,0.098,0.08,0.094
	c-0.016,0.025,0.076,0.066,0.09,0.066c0.061,0.102,0.063,0.082,0.094,0.063c0.011,0.046,0.089,0.023,0.117,0.038
	c-0.009-0.021,0.063-0.041,0.048-0.066c0.021,0.007-0.016-0.082,0.003-0.071c-0.023-0.045-0.172-0.241-0.16-0.275
	c0.003-0.013,0.021-0.007,0.031-0.005c-0.002-0.012-0.018-0.024-0.028-0.033c0.026,0,0.032-0.013,0.018-0.04
	c-0.026,0.015-0.063-0.154-0.04-0.178c0.01-0.043-0.119-0.566-0.182-0.618c0.005-0.017-0.021-0.133-0.025-0.143
	c-0.102-0.064-0.019-0.191-0.09-0.213c-0.015,0.031-0.088-0.086-0.098-0.186c-0.032-0.062,0-0.21-0.023-0.188
	c-0.02-0.022,0.105-0.076,0.137-0.009c0.264,0.101,0.768-0.065,0.951,0.077c0.043-0.082,0.141-0.02,0.088-0.035
	c-0.009,0.011,0.01,0.016,0.021,0.019c-0.024-0.005,0.179-0.019,0.208-0.001c-0.076-0.021,0.115-0.007,0.107-0.011
	c-0.068-0.013,0.137,0.024,0.354-0.111c0.078-0.022,0.064-0.063,0.097-0.138c-0.015,0.063,0.021-0.064-0.048-0.104
	c-0.383-0.097-0.689-0.382-1.074-0.482c-0.148-0.03-0.389-0.396-0.518-0.372c0.232-0.266,0.457-0.53,0.699-0.755
	c0.047-0.046,0.526-0.563,0.526-0.56c0.019-0.024,0.044-0.111,0.044-0.073c0-0.013-0.005-0.03-0.02-0.049
	c0,0.007-0.18-0.134-0.227-0.046c0.063,0.038-0.127,0.053-0.176,0.064c-0.014,0.007-0.027,0.005-0.037,0.002
	c-0.049-0.012-0.11,0.043-0.143,0.05c-0.071-0.062-0.246,0.056-0.326,0.081c0.006-0.004-0.035,0.005-0.097-0.008
	c-0.028,0.043-0.026,0.031-0.021,0.025c-0.023,0.014-0.043,0.033-0.136,0.064c0.011,0.004-0.062,0.035-0.086,0.029
	c0.002,0.011-0.011,0.043-0.054,0.037C64.957,40.514,64.961,40.501,64.948,40.514"/>
<polyline fill="#EE3124" points="68.45,40.295 67.608,40.295 68.342,39.318 69.342,39.318 70.077,40.295 69.236,40.295 
	68.84,39.769 68.45,40.295 "/>
<rect x="68.284" y="40.663" fill="#EE3124" width="1.116" height="3.406"/>
<rect x="69.944" y="39.382" fill="#EE3124" width="1.115" height="4.688"/>
<path fill="#EE3124" d="M72.471,42.638c0.02,0.467,0.289,0.776,0.764,0.776c0.268,0,0.531-0.126,0.637-0.377h1.043
	c-0.204,0.789-0.934,1.13-1.694,1.13c-1.108,0-1.864-0.669-1.864-1.812c0-1.044,0.833-1.792,1.839-1.792
	c1.221,0,1.831,0.92,1.78,2.074H72.471 M73.858,42.016c-0.02-0.384-0.29-0.696-0.663-0.696c-0.394,0-0.657,0.282-0.724,0.696H73.858
	z"/>
<path fill="#EE3124" d="M77.684,44.069h-0.441v-0.362h-0.008c-0.145,0.295-0.488,0.426-0.855,0.426c-0.824,0-1.23-0.654-1.23-1.408
	c0-0.756,0.402-1.395,1.221-1.395c0.272,0,0.668,0.104,0.865,0.42h0.008v-1.377h0.441V44.069 M76.442,43.742
	c0.59,0,0.818-0.506,0.818-1.008c0-0.53-0.24-1.016-0.846-1.016c-0.6,0-0.803,0.514-0.803,1.036
	C75.612,43.257,75.872,43.742,76.442,43.742z"/>
<path fill="#EE3124" d="M80.386,43.221c-0.12,0.59-0.544,0.912-1.145,0.912c-0.853,0-1.259-0.592-1.284-1.408
	c0-0.803,0.528-1.395,1.258-1.395c0.949,0,1.238,0.887,1.211,1.533h-2.002c-0.015,0.466,0.248,0.879,0.834,0.879
	c0.361,0,0.615-0.177,0.693-0.521H80.386 M79.961,42.475c-0.021-0.418-0.336-0.756-0.771-0.756c-0.462,0-0.735,0.348-0.767,0.756
	H79.961z"/>
<polyline fill="#EE3124" points="80.713,39.382 84.167,39.382 84.167,40.361 81.933,40.361 81.933,41.319 83.865,41.319 
	83.865,42.262 81.933,42.262 81.933,44.069 80.713,44.069 80.713,39.382 "/>
<path fill="#EE3124" d="M84.391,40.663h1.084v0.597h0.01c0.166-0.434,0.547-0.664,1.026-0.664c0.085,0,0.176,0.008,0.262,0.028
	v1.016c-0.144-0.038-0.274-0.065-0.427-0.065c-0.551,0-0.84,0.382-0.84,0.809v1.687h-1.115V40.663"/>
<path fill="#EE3124" d="M86.773,41.712c0.021-0.444,0.231-0.734,0.532-0.912c0.303-0.169,0.695-0.236,1.084-0.236
	c0.809,0,1.589,0.178,1.589,1.142v1.49c0,0.289,0,0.605,0.134,0.874h-1.126c-0.039-0.105-0.052-0.209-0.064-0.321
	c-0.289,0.301-0.716,0.419-1.124,0.419c-0.648,0-1.162-0.328-1.162-1.031c0-1.108,1.209-1.021,1.982-1.18
	c0.191-0.04,0.297-0.105,0.297-0.316c0-0.253-0.309-0.353-0.539-0.353c-0.309,0-0.505,0.137-0.559,0.425H86.773 M88.219,43.479
	c0.53,0,0.707-0.303,0.682-1.004c-0.158,0.096-0.443,0.117-0.688,0.184c-0.249,0.057-0.461,0.164-0.461,0.433
	C87.751,43.366,87.967,43.479,88.219,43.479z"/>
<path fill="#EE3124" d="M90.383,40.663h1.086v0.467h0.012c0.205-0.35,0.662-0.566,1.07-0.566c1.138,0,1.229,0.827,1.229,1.319v2.187
	h-1.116v-1.647c0-0.466,0.053-0.938-0.559-0.938c-0.42,0-0.605,0.354-0.605,0.729v1.857h-1.117V40.663"/>
<path fill="#EE3124" d="M96.413,41.909c-0.004-0.288-0.262-0.493-0.544-0.493c-0.623,0-0.722,0.532-0.722,1.006
	c0,0.439,0.189,0.893,0.662,0.893c0.387,0,0.586-0.224,0.637-0.582h1.086c-0.101,0.91-0.809,1.435-1.715,1.435
	c-1.025,0-1.787-0.703-1.787-1.745c0-1.082,0.689-1.858,1.787-1.858c0.846,0,1.602,0.446,1.682,1.346H96.413"/>
<path fill="#EE3124" d="M98.712,42.638c0.02,0.467,0.288,0.776,0.763,0.776c0.27,0,0.531-0.126,0.635-0.377h1.047
	c-0.205,0.789-0.935,1.13-1.694,1.13c-1.11,0-1.866-0.669-1.866-1.812c0-1.044,0.834-1.792,1.838-1.792
	c1.225,0,1.834,0.92,1.781,2.074H98.712 M100.098,42.016c-0.02-0.384-0.289-0.696-0.664-0.696c-0.393,0-0.654,0.282-0.722,0.696
	H100.098z"/>
</svg>
