<?xml version="1.0" encoding="UTF-8" standalone="no"?>
<!-- Generator: Adobe Illustrator 15.0.2, SVG Export Plug-In  -->

<svg
   xmlns:dc="http://purl.org/dc/elements/1.1/"
   xmlns:cc="http://creativecommons.org/ns#"
   xmlns:rdf="http://www.w3.org/1999/02/22-rdf-syntax-ns#"
   xmlns:svg="http://www.w3.org/2000/svg"
   xmlns="http://www.w3.org/2000/svg"
   xmlns:sodipodi="http://sodipodi.sourceforge.net/DTD/sodipodi-0.dtd"
   xmlns:inkscape="http://www.inkscape.org/namespaces/inkscape"
   version="1.1"
   x="0px"
   y="0px"
   width="36px"
   height="36px"
   viewBox="0 0 36 36"
   enable-background="new 0 0 36 36"
   xml:space="preserve"
   id="svg3369"
   inkscape:version="0.91 r13725"
   sodipodi:docname="book.svg"><metadata
   id="metadata3393"><rdf:RDF><cc:Work
       rdf:about=""><dc:format>image/svg+xml</dc:format><dc:type
         rdf:resource="http://purl.org/dc/dcmitype/StillImage" /></cc:Work></rdf:RDF></metadata><sodipodi:namedview
   pagecolor="#ffffff"
   bordercolor="#666666"
   borderopacity="1"
   objecttolerance="10"
   gridtolerance="10"
   guidetolerance="10"
   inkscape:pageopacity="0"
   inkscape:pageshadow="2"
   inkscape:window-width="1920"
   inkscape:window-height="1058"
   id="namedview3391"
   showgrid="false"
   inkscape:zoom="13.111111"
   inkscape:cx="8.1387988"
   inkscape:cy="16.717067"
   inkscape:window-x="-8"
   inkscape:window-y="-8"
   inkscape:window-maximized="1"
   inkscape:current-layer="svg3369" />
<defs
   id="defs3371">
</defs>
<g
   id="g3373">
	
		
	<g
   id="g3377">
		<path
   fill="#D0DBE7"
   d="M32.586,17.898c0,8.111-6.578,14.691-14.691,14.691S3.201,26.01,3.201,17.898    c0-8.119,6.58-14.697,14.693-14.697S32.586,9.779,32.586,17.898z"
   id="path3379" />
	</g>
</g>
<path
   fill="#FFFFFF"
   d="M17.979,9.838c0.412-0.059,0.955,0.248,1.459,0.441c2.127,0.813,4.316,1.635,6.508,2.482  c0.758,0.287,2.189,0.543,2.17,1.416c-0.01,0.467-0.746,0.693-0.836,1.15c-0.037,0.188-0.02,0.412,0,0.533  c0.111,0.781,1.127,0.805,1.102,1.59c-0.01,0.447-0.908,1.07-1.191,1.33c-2.744,2.494-5.119,4.586-7.838,7.088  c-0.328,0.297-1.025,1.07-1.373,1.104c-0.297,0.029-0.809-0.275-1.246-0.438c-2.434-0.939-4.738-1.809-7.168-2.705  c-0.857-0.316-1.666-0.676-1.945-1.504c-0.109-0.316-0.135-0.879-0.18-1.42c-0.051-0.57-0.143-1.176-0.09-1.461  c0.09-0.455,0.787-0.875,1.242-1.285c2.893-2.596,5.629-5.176,8.543-7.791C17.379,10.154,17.629,9.891,17.979,9.838z"
   id="path3381" />
<path
   fill="#123D5A"
   d="M17.979,9.838c0.412-0.059,0.955,0.248,1.459,0.441c2.127,0.813,4.316,1.635,6.508,2.482  c0.758,0.287,2.189,0.543,2.17,1.416c-0.01,0.467-0.746,0.693-0.836,1.15c-0.037,0.188-0.02,0.412,0,0.533  c0.111,0.781,1.127,0.805,1.102,1.59c-0.01,0.447-0.908,1.07-1.191,1.33c-2.744,2.494-5.119,4.586-7.838,7.088  c-0.328,0.297-1.025,1.07-1.373,1.104c-0.297,0.029-0.809-0.275-1.246-0.438c-2.434-0.939-4.738-1.809-7.168-2.705  c-0.857-0.316-1.666-0.676-1.945-1.504c-0.109-0.316-0.135-0.879-0.18-1.42c-0.051-0.57-0.143-1.176-0.09-1.461  c0.09-0.455,0.787-0.875,1.242-1.285c2.893-2.596,5.629-5.176,8.543-7.791C17.379,10.154,17.629,9.891,17.979,9.838z M18.859,22.768  c-0.338,0.314-0.836,0.895-1.146,0.93c-0.279,0.033-0.777-0.211-1.152-0.355c-2.324-0.896-4.275-1.662-6.553-2.52  c-0.387-0.148-0.984-0.408-1.15-0.313c-0.412,0.23,0.035,1.119-0.045,1.688c0.605,0.424,1.352,0.648,2.078,0.924  c1.848,0.715,3.637,1.359,5.535,2.084c0.393,0.145,0.9,0.426,1.152,0.396c0.328-0.033,0.906-0.725,1.242-1.02  c2.832-2.543,5.635-5.049,8.322-7.568c-0.328-0.277-0.455-0.76-0.617-1.197C24.031,18.131,21.447,20.418,18.859,22.768z"
   id="path3383" />
<g
   id="g3385">
	<path
   fill="#6590A4"
   d="M17.458,13.019c0.385-0.349,1.1-0.488,1.588-0.311l3.162,1.152c0.488,0.178,0.575,0.611,0.192,0.962   l-0.93,0.856c-0.383,0.352-1.089,0.48-1.571,0.286l-3.063-1.238c-0.482-0.194-0.561-0.639-0.176-0.987L17.458,13.019z"
   id="path3387" />
</g>
<path
   fill="#E82630"
   d="M9.492,21.428l1.389,0.463c0,0-2.891,1.643-1.178,4.576H8.48C8.48,26.467,6.688,23.254,9.492,21.428z"
   id="path3389" />
</svg>