<?xml version="1.0" encoding="UTF-8" standalone="no"?>
<!-- Generator: Adobe Illustrator 15.0.2, SVG Export Plug-In  -->

<svg
   xmlns:dc="http://purl.org/dc/elements/1.1/"
   xmlns:cc="http://creativecommons.org/ns#"
   xmlns:rdf="http://www.w3.org/1999/02/22-rdf-syntax-ns#"
   xmlns:svg="http://www.w3.org/2000/svg"
   xmlns="http://www.w3.org/2000/svg"
   xmlns:sodipodi="http://sodipodi.sourceforge.net/DTD/sodipodi-0.dtd"
   xmlns:inkscape="http://www.inkscape.org/namespaces/inkscape"
   version="1.1"
   x="0px"
   y="0px"
   width="36px"
   height="36px"
   viewBox="0 0 36 36"
   enable-background="new 0 0 36 36"
   xml:space="preserve"
   id="svg3496"
   inkscape:version="0.91 r13725"
   sodipodi:docname="monument.svg"><metadata
   id="metadata3528"><rdf:RDF><cc:Work
       rdf:about=""><dc:format>image/svg+xml</dc:format><dc:type
         rdf:resource="http://purl.org/dc/dcmitype/StillImage" /></cc:Work></rdf:RDF></metadata><sodipodi:namedview
   pagecolor="#ffffff"
   bordercolor="#666666"
   borderopacity="1"
   objecttolerance="10"
   gridtolerance="10"
   guidetolerance="10"
   inkscape:pageopacity="0"
   inkscape:pageshadow="2"
   inkscape:window-width="1920"
   inkscape:window-height="1058"
   id="namedview3526"
   showgrid="false"
   inkscape:zoom="6.5555556"
   inkscape:cx="1.5254237"
   inkscape:cy="18"
   inkscape:window-x="-8"
   inkscape:window-y="-8"
   inkscape:window-maximized="1"
   inkscape:current-layer="svg3496" />
<defs
   id="defs3498">
</defs>
<g
   id="g3500">
	
		
	<g
   id="g3504">
		<circle
   fill="#D0DBE7"
   cx="17.894"
   cy="17.891"
   r="14.692"
   id="circle3506" />
	</g>
</g>
<g
   id="g3508">
	<g
   id="g3510">
		<polygon
   fill="#6590A4"
   points="14.492,14.793 14.492,13.453 9.924,13.453 9.924,14.793 10.936,14.793 10.936,20.986     9.924,20.986 9.924,22.328 14.492,22.328 14.492,20.986 13.484,20.986 13.484,14.793   "
   id="polygon3512" />
		<polygon
   fill="#6590A4"
   points="20.58,14.793 20.58,13.453 16.006,13.453 16.006,14.793 17.018,14.793 17.018,20.986     16.006,20.986 16.006,22.328 20.58,22.328 20.58,20.986 19.566,20.986 19.566,14.793   "
   id="polygon3514" />
		<polygon
   fill="#6590A4"
   points="26.662,14.793 26.662,13.453 22.09,13.453 22.09,14.793 23.1,14.793 23.1,20.986 22.09,20.986     22.09,22.328 26.662,22.328 26.662,20.986 25.65,20.986 25.65,14.793   "
   id="polygon3516" />
		<rect
   x="8.041"
   y="24.998"
   fill="#325E82"
   width="19.688"
   height="0.934"
   id="rect3518" />
		<rect
   x="9.18"
   y="23.172"
   fill="#325E82"
   width="17.482"
   height="0.936"
   id="rect3520" />
		<path
   fill="#6590A4"
   d="M18.098,7.361l-9.295,5.357h18.59L18.098,7.361z M18.098,11.098c-0.496,0-0.891-0.4-0.891-0.893    s0.395-0.895,0.891-0.895c0.492,0,0.893,0.402,0.893,0.895S18.59,11.098,18.098,11.098z"
   id="path3522" />
	</g>
</g>
<path
   fill="#E82630"
   d="M18.979,10.215c0,0.488-0.393,0.883-0.883,0.883c-0.486,0-0.879-0.395-0.879-0.883  c0-0.484,0.393-0.881,0.879-0.881C18.586,9.334,18.979,9.73,18.979,10.215z"
   id="path3524" />
</svg>