<?xml version="1.0" encoding="UTF-8" standalone="no"?>
<!-- Generator: Adobe Illustrator 15.0.2, SVG Export Plug-In  -->

<svg
   xmlns:dc="http://purl.org/dc/elements/1.1/"
   xmlns:cc="http://creativecommons.org/ns#"
   xmlns:rdf="http://www.w3.org/1999/02/22-rdf-syntax-ns#"
   xmlns:svg="http://www.w3.org/2000/svg"
   xmlns="http://www.w3.org/2000/svg"
   xmlns:sodipodi="http://sodipodi.sourceforge.net/DTD/sodipodi-0.dtd"
   xmlns:inkscape="http://www.inkscape.org/namespaces/inkscape"
   version="1.1"
   x="0px"
   y="0px"
   width="36px"
   height="36px"
   viewBox="0 0 36 36"
   enable-background="new 0 0 36 36"
   xml:space="preserve"
   id="svg3554"
   inkscape:version="0.91 r13725"
   sodipodi:docname="people.svg"><metadata
   id="metadata3584"><rdf:RDF><cc:Work
       rdf:about=""><dc:format>image/svg+xml</dc:format><dc:type
         rdf:resource="http://purl.org/dc/dcmitype/StillImage" /></cc:Work></rdf:RDF></metadata><sodipodi:namedview
   pagecolor="#ffffff"
   bordercolor="#666666"
   borderopacity="1"
   objecttolerance="10"
   gridtolerance="10"
   guidetolerance="10"
   inkscape:pageopacity="0"
   inkscape:pageshadow="2"
   inkscape:window-width="1920"
   inkscape:window-height="1058"
   id="namedview3582"
   showgrid="false"
   inkscape:zoom="6.5555556"
   inkscape:cx="18"
   inkscape:cy="18"
   inkscape:window-x="-8"
   inkscape:window-y="-8"
   inkscape:window-maximized="1"
   inkscape:current-layer="svg3554" />
<defs
   id="defs3556">
</defs>
<g
   id="g3558">
	
		
	<g
   id="g3562">
		<circle
   fill="#D0DBE7"
   cx="17.893"
   cy="17.895"
   r="14.691"
   id="circle3564" />
	</g>
</g>
<path
   fill="#6590A4"
   d="M16.074,14.105c0,0.84-0.686,1.523-1.527,1.523c-0.844,0-1.527-0.684-1.527-1.523  c0-0.846,0.684-1.529,1.527-1.529C15.389,12.576,16.074,13.26,16.074,14.105z"
   id="path3566" />
<path
   fill="#6590A4"
   d="M16.98,18.123c0-0.977-0.418-1.898-1.24-2.291c-0.273,0.256-0.791,0.336-1.193,0.336s-0.92-0.08-1.191-0.336  c-0.822,0.393-1.244,1.314-1.244,2.291c0,0.535,0.17,1.027,0.455,1.428v3.418c0,0.137,0.113,0.25,0.252,0.25h1.166  c0.139,0,0.252-0.113,0.252-0.25v-1.996h0.66v1.996c0,0.137,0.113,0.25,0.254,0.25h1.164c0.139,0,0.252-0.113,0.252-0.25v-3.477  C16.83,19.102,16.98,18.631,16.98,18.123z"
   id="path3568" />
<path
   fill="#123D5A"
   d="M21.475,14.105c0,0.84-0.686,1.523-1.527,1.523c-0.844,0-1.527-0.684-1.527-1.523  c0-0.846,0.684-1.529,1.527-1.529C20.789,12.576,21.475,13.26,21.475,14.105z"
   id="path3570" />
<path
   fill="#123D5A"
   d="M22.381,18.123c0-0.977-0.416-1.898-1.244-2.291c-0.27,0.256-0.787,0.336-1.189,0.336  c-0.404,0-0.92-0.08-1.193-0.336c-0.824,0.393-1.242,1.314-1.242,2.291c0,0.535,0.17,1.027,0.457,1.428v3.418  c0,0.137,0.113,0.25,0.252,0.25h1.162c0.143,0,0.254-0.113,0.254-0.25v-1.996h0.66v1.996c0,0.137,0.115,0.25,0.252,0.25h1.168  c0.137,0,0.252-0.113,0.252-0.25v-3.477C22.229,19.102,22.381,18.631,22.381,18.123z"
   id="path3572" />
<path
   fill="#E82630"
   d="M10.678,14.105c0,0.84-0.686,1.525-1.527,1.525c-0.846,0-1.527-0.686-1.527-1.525  c0-0.846,0.682-1.529,1.527-1.529C9.992,12.576,10.678,13.26,10.678,14.105z"
   id="path3574" />
<path
   fill="#E82630"
   d="M11.584,18.123c0-0.977-0.42-1.896-1.246-2.291c-0.27,0.256-0.785,0.336-1.188,0.336  c-0.404,0-0.924-0.08-1.195-0.336c-0.824,0.395-1.24,1.314-1.24,2.291c0,0.535,0.17,1.027,0.455,1.428v3.418  c0,0.137,0.111,0.25,0.254,0.25h1.162c0.139,0,0.254-0.113,0.254-0.25v-1.996H9.5v1.996c0,0.137,0.111,0.25,0.252,0.25h1.162  c0.143,0,0.256-0.113,0.256-0.25v-3.473C11.428,19.104,11.584,18.631,11.584,18.123z"
   id="path3576" />
<path
   fill="#FFFFFF"
   d="M26.873,14.105c0,0.84-0.684,1.523-1.525,1.523c-0.844,0-1.527-0.684-1.527-1.523  c0-0.846,0.684-1.529,1.527-1.529C26.189,12.576,26.873,13.26,26.873,14.105z"
   id="path3578" />
<path
   fill="#FFFFFF"
   d="M27.781,18.123c0-0.977-0.418-1.898-1.244-2.291c-0.273,0.256-0.789,0.336-1.189,0.336  c-0.406,0-0.922-0.08-1.193-0.336c-0.822,0.393-1.244,1.314-1.244,2.291c0,0.535,0.17,1.027,0.453,1.428v3.418  c0,0.137,0.113,0.25,0.256,0.25h1.164c0.137,0,0.25-0.113,0.25-0.25v-1.996h0.664v1.996c0,0.137,0.113,0.25,0.252,0.25h1.164  c0.141,0,0.252-0.113,0.252-0.25v-3.477C27.627,19.102,27.781,18.631,27.781,18.123z"
   id="path3580" />
</svg>