<?xml version="1.0" encoding="UTF-8" standalone="no"?>
<!-- Generator: Adobe Illustrator 15.0.2, SVG Export Plug-In  -->

<svg
   xmlns:dc="http://purl.org/dc/elements/1.1/"
   xmlns:cc="http://creativecommons.org/ns#"
   xmlns:rdf="http://www.w3.org/1999/02/22-rdf-syntax-ns#"
   xmlns:svg="http://www.w3.org/2000/svg"
   xmlns="http://www.w3.org/2000/svg"
   xmlns:sodipodi="http://sodipodi.sourceforge.net/DTD/sodipodi-0.dtd"
   xmlns:inkscape="http://www.inkscape.org/namespaces/inkscape"
   version="1.1"
   x="0px"
   y="0px"
   width="36px"
   height="36px"
   viewBox="0 0 36 36"
   enable-background="new 0 0 36 36"
   xml:space="preserve"
   id="svg3336"
   inkscape:version="0.91 r13725"
   sodipodi:docname="theatre.svg"><metadata
   id="metadata3368"><rdf:RDF><cc:Work
       rdf:about=""><dc:format>image/svg+xml</dc:format><dc:type
         rdf:resource="http://purl.org/dc/dcmitype/StillImage" /></cc:Work></rdf:RDF></metadata><sodipodi:namedview
   pagecolor="#ffffff"
   bordercolor="#666666"
   borderopacity="1"
   objecttolerance="10"
   gridtolerance="10"
   guidetolerance="10"
   inkscape:pageopacity="0"
   inkscape:pageshadow="2"
   inkscape:window-width="1920"
   inkscape:window-height="1058"
   id="namedview3366"
   showgrid="false"
   inkscape:zoom="8.671879"
   inkscape:cx="-19.745734"
   inkscape:cy="16.93398"
   inkscape:window-x="-8"
   inkscape:window-y="-8"
   inkscape:window-maximized="1"
   inkscape:current-layer="svg3336" />
<defs
   id="defs3338">
</defs>
<g
   id="g3340">
	
		
	<g
   id="g3344">
		<path
   fill="#D0DBE7"
   d="M32.588,17.895c0,8.113-6.576,14.689-14.689,14.689c-8.115,0-14.697-6.576-14.697-14.689    c0-8.115,6.582-14.693,14.697-14.693C26.012,3.201,32.588,9.779,32.588,17.895z"
   id="path3346" />
	</g>
</g>
<path
   fill="#123D5A"
   d="M16.426,18.658c0,0.842-1.398,1.525-3.131,1.525c-1.727,0-3.127-0.684-3.127-1.525  c0-0.844,1.4-1.527,3.127-1.527C15.027,17.131,16.426,17.814,16.426,18.658z"
   id="path3348" />
<path
   fill="#E82630"
   d="M8.998,9.66c0.594-2.127,5.828-0.012,7.561,0.025c1.141,0.023,3.178,0.004,3.061,1.541  c-0.318,2.123-1.063,4.359-1.777,6.387c-0.768,2.182-4.936,7.105-7.078,3.617C8.605,17.713,8.387,13.701,8.998,9.66  C9.09,9.328,8.963,9.893,8.998,9.66z M15.063,19.441c1.012,0.027,0.68-1.715-0.912-1.422c-1.014,0.186-1.611-0.406-2.561-0.549  c-0.791-0.119-1.098,0.924-0.643,1.465c0.682,0.205,1.393,0.049,2.088,0.055C13.652,18.99,14.488,19.648,15.063,19.441  C15.68,19.455,14.936,19.486,15.063,19.441z"
   id="path3350" />
<path
   fill="#123D5A"
   d="M17.162,13.895c0.012,0.605-0.467,1.066-1.07,1.125c-1.096,0.105-1.125-1.072-1.125-1.072  C16.299,14.244,17.162,13.895,17.162,13.895z"
   id="path3352" />
<path
   fill="#123D5A"
   d="M12.813,13.656c-0.201,0.572-0.813,0.834-1.4,0.678c-1.061-0.291-0.672-1.4-0.672-1.4  C11.881,13.682,12.813,13.656,12.813,13.656z"
   id="path3354" />
<path
   d="M15.461,17.758c0-0.021,0.006-0.035,0.008-0.061C15.465,17.637,15.459,17.602,15.461,17.758z"
   id="path3356" />
<path
   fill="#6590A4"
   d="M22.313,15.08c-1.65,0.473-7.172,0.006-7.225,2.141c0.008,0.072,0.012,0.186-0.008,0.061  c0.604,4.035,1.99,7.807,5.086,10.533c3.078,2.711,5.609-3.223,5.703-5.533c0.088-2.148,0.143-4.502-0.176-6.627  C25.354,14.152,23.412,14.77,22.313,15.08z"
   id="path3358" />
<path
   fill="#123D5A"
   d="M18.033,20.736c-0.186-0.58,0.145-1.156,0.709-1.387c1.02-0.408,1.379,0.711,1.379,0.711  C18.76,20.154,18.033,20.736,18.033,20.736z"
   id="path3360" />
<path
   fill="#123D5A"
   d="M22.053,19.699c0.029-0.604,0.547-1.025,1.152-1.041c1.102-0.025,1.041,1.152,1.041,1.152  C22.939,19.414,22.053,19.699,22.053,19.699z"
   id="path3362" />
<path
   fill="#123D5A"
   d="M19.492,24.238c0,0,2.275,4.15,4.318,0.207C25.227,21.711,19.492,24.238,19.492,24.238z"
   id="path3364" />
</svg>