<?xml version="1.0" encoding="UTF-8" standalone="no"?>
<!-- Created with Inkscape (http://www.inkscape.org/) -->

<svg
   xmlns:dc="http://purl.org/dc/elements/1.1/"
   xmlns:cc="http://creativecommons.org/ns#"
   xmlns:rdf="http://www.w3.org/1999/02/22-rdf-syntax-ns#"
   xmlns:svg="http://www.w3.org/2000/svg"
   xmlns="http://www.w3.org/2000/svg"
   xmlns:sodipodi="http://sodipodi.sourceforge.net/DTD/sodipodi-0.dtd"
   xmlns:inkscape="http://www.inkscape.org/namespaces/inkscape"
   width="6.0643911mm"
   height="7.5003376mm"
   viewBox="0 0 21.488 26.575999"
   id="svg8337"
   version="1.1"
   inkscape:version="0.91 r13725"
   sodipodi:docname="amsterdam.svg">
  <defs
     id="defs8339" />
  <sodipodi:namedview
     id="base"
     pagecolor="#ffffff"
     bordercolor="#666666"
     borderopacity="1.0"
     inkscape:pageopacity="0.0"
     inkscape:pageshadow="2"
     inkscape:zoom="0.35"
     inkscape:cx="357.17257"
     inkscape:cy="-703.85485"
     inkscape:document-units="px"
     inkscape:current-layer="layer1"
     showgrid="false"
     fit-margin-top="0"
     fit-margin-left="0"
     fit-margin-right="0"
     fit-margin-bottom="0"
     inkscape:window-width="1920"
     inkscape:window-height="974"
     inkscape:window-x="0"
     inkscape:window-y="27"
     inkscape:window-maximized="1" />
  <metadata
     id="metadata8342">
    <rdf:RDF>
      <cc:Work
         rdf:about="">
        <dc:format>image/svg+xml</dc:format>
        <dc:type
           rdf:resource="http://purl.org/dc/dcmitype/StillImage" />
        <dc:title></dc:title>
      </cc:Work>
    </rdf:RDF>
  </metadata>
  <g
     inkscape:label="Calque 1"
     inkscape:groupmode="layer"
     id="layer1"
     transform="translate(473.60114,198.06865)">
    <g
       id="amsterdam"
       transform="matrix(1,0,0,-1,-454.04314,-176.84365)">
      <path
         d="M 0,0 C 0.188,0.321 0.149,0.437 -0.175,0.613 -0.417,0.446 -0.396,-0.012 0,0 m -0.876,0.613 c 0.269,0.066 0.168,-0.241 0.438,-0.175 -0.064,0.239 0.174,0.176 0.175,0.35 -0.22,0.191 -0.6,0.246 -0.613,-0.175 M 0,0.876 C 0.007,0.619 0.2,0.55 0.352,0.438 0.54,0.759 0.5,0.875 0.175,1.052 0.158,0.953 0.079,0.914 0,0.876 m -18.33,0.088 c 0.097,-0.019 0.136,-0.098 0.174,-0.176 0.241,-0.063 0.178,0.176 0.352,0.176 0.016,0.43 -0.543,0.43 -0.526,0 m 17.892,0.35 c -0.023,-0.285 0.105,-0.421 0.351,-0.438 -0.065,0.24 0.175,0.177 0.176,0.35 -0.136,0.108 -0.342,0.281 -0.527,0.088 M -1.314,1.052 c 0.166,-0.037 0.158,-0.251 0.438,-0.176 0.02,0.067 0.002,0.174 0.087,0.176 0.016,0.429 -0.543,0.429 -0.525,0 M 0.702,0.876 C 0.753,1.059 0.886,1.161 0.965,1.314 0.798,1.352 0.745,1.504 0.527,1.49 0.287,1.219 0.413,1.021 0.702,0.876 m -19.47,0.438 c 0.2,-0.19 0.546,-0.033 0.526,0.263 -0.239,-0.062 -0.177,0.175 -0.351,0.176 0.066,-0.27 -0.241,-0.169 -0.175,-0.439 M -0.965,1.49 c 0.271,0.066 0.169,-0.241 0.439,-0.176 0.02,0.069 0.004,0.174 0.088,0.176 0.016,0.43 -0.542,0.43 -0.527,0 M -1.753,1.403 C -1.58,1.402 -1.642,1.165 -1.403,1.226 -1.214,1.549 -1.254,1.664 -1.579,1.841 -1.616,1.675 -1.768,1.621 -1.753,1.403 M -17.541,1.226 c -0.064,0.241 0.175,0.179 0.175,0.351 -0.177,0.027 -0.172,0.238 -0.35,0.264 -0.306,-0.231 -0.267,-0.528 0.175,-0.615 M 0.264,1.314 C 0.301,1.481 0.452,1.535 0.438,1.753 0.265,1.755 0.327,1.992 0.089,1.929 -0.101,1.708 -0.157,1.328 0.264,1.314 m -19.559,0.439 c 0.167,-0.036 0.22,-0.189 0.439,-0.176 0,0.175 0.239,0.113 0.174,0.352 -0.238,-0.065 -0.176,0.175 -0.35,0.175 -0.026,-0.179 -0.237,-0.171 -0.263,-0.351 m 17.014,0.088 c 0.272,0.066 0.17,-0.24 0.44,-0.176 0.046,0.131 0.131,0.222 0.175,0.352 -0.166,0.038 -0.22,0.188 -0.438,0.175 C -2.15,2.062 -2.234,1.973 -2.281,1.841 M -18.242,1.665 c 0.24,-0.062 0.176,0.175 0.351,0.176 0.014,0.221 -0.135,0.274 -0.265,0.351 -0.145,-0.23 -0.356,-0.296 -0.086,-0.527 m 17.19,0.088 C -0.779,1.966 -0.985,2.14 -1.228,2.278 -1.407,2.055 -1.446,1.782 -1.052,1.753 m -16.489,0.176 c 0.168,-0.242 0.626,-0.221 0.615,0.175 -0.222,0.19 -0.601,0.246 -0.615,-0.175 M -0.175,1.753 c 0.24,0.27 0.115,0.47 -0.176,0.614 -0.305,-0.23 -0.266,-0.529 0.176,-0.614 m -18.681,0.439 c 0.235,-0.141 0.333,-0.201 0.526,0 0.016,0.43 -0.542,0.43 -0.526,0 M -1.841,2.278 C -1.615,2.102 -1.345,2.062 -1.314,2.454 -1.482,2.493 -1.536,2.644 -1.753,2.631 -1.734,2.464 -1.852,2.437 -1.841,2.278 M -2.368,2.017 c 0.243,0.168 0.221,0.626 -0.175,0.614 -0.24,-0.272 -0.114,-0.471 0.175,-0.614 m -15.611,0.261 c 0.173,0 0.111,-0.238 0.351,-0.174 -0.066,0.27 0.24,0.169 0.175,0.438 -0.265,0.126 -0.505,0.074 -0.526,-0.264 m 16.927,0.089 c 0.099,-0.018 0.136,-0.096 0.176,-0.175 0.257,0.005 0.325,0.201 0.438,0.35 -0.168,0.037 -0.158,0.251 -0.438,0.177 0.063,-0.24 -0.174,-0.177 -0.176,-0.352 m -16.051,0 c 0.236,-0.143 0.334,-0.202 0.526,0 0.017,0.429 -0.542,0.429 -0.526,0 m 14.822,0.352 c 0.175,-0.002 0.112,-0.24 0.352,-0.177 0.273,0.213 0.066,0.388 -0.175,0.527 -0.002,-0.173 -0.24,-0.11 -0.177,-0.35 M -3.156,2.631 c 0.234,-0.143 0.333,-0.202 0.526,0 C -2.636,2.889 -2.832,2.957 -2.981,3.069 -3.019,2.902 -3.17,2.849 -3.156,2.631 m -14.385,0.088 c 0.842,-0.369 0.236,0.879 0,0 m -0.525,-0.265 c -0.066,0.271 0.24,0.17 0.175,0.44 -0.24,-0.064 -0.177,0.173 -0.351,0.175 -0.19,-0.222 -0.246,-0.602 0.176,-0.615 m 16.575,0.265 c 0.098,-0.019 0.137,-0.098 0.177,-0.177 0.446,-0.031 0.446,0.646 0,0.616 0.064,-0.27 -0.242,-0.17 -0.177,-0.439 m -2.28,-0.441 c 0.169,0.389 0.233,0.826 -0.263,0.88 0.104,-0.277 0.097,-0.662 0.263,-0.88 m -12.542,0.353 c -0.064,0.239 0.174,0.176 0.176,0.349 -0.18,0.028 -0.172,0.238 -0.352,0.264 -0.305,-0.229 -0.267,-0.528 0.176,-0.613 M -3.42,2.894 c 0.224,0.01 0.34,0.127 0.351,0.35 C -3.182,3.249 -3.191,3.356 -3.332,3.332 -3.259,3.085 -3.456,3.105 -3.42,2.894 m 0.965,0 c 0.018,0.099 0.097,0.136 0.174,0.175 -0.01,0.223 -0.127,0.34 -0.349,0.35 -0.274,-0.212 -0.067,-0.388 0.175,-0.525 m 0.526,0.264 c 0.098,-0.02 0.137,-0.099 0.176,-0.178 0.246,0.019 0.374,0.154 0.35,0.439 -0.265,0.126 -0.505,0.072 -0.526,-0.261 m -16.137,0 c 0.381,-0.453 0.867,0.192 0.262,0.349 -0.026,-0.179 -0.237,-0.171 -0.262,-0.349 m 1.051,-0.089 c 0.24,-0.064 0.177,0.174 0.351,0.175 0.015,0.221 -0.135,0.275 -0.262,0.351 -0.148,-0.23 -0.358,-0.295 -0.089,-0.526 m 0.702,0.438 c 0.006,-0.256 0.201,-0.325 0.351,-0.438 0.026,0.179 0.237,0.172 0.263,0.35 -0.209,0.173 -0.386,0.377 -0.614,0.088 m 13.068,0 C -3.019,3.328 -2.749,3.29 -2.719,3.684 -2.944,3.86 -3.214,3.899 -3.245,3.507 m -0.878,0 C -3.879,3.225 -3.675,3.237 -3.508,3.595 -3.687,3.621 -3.68,3.833 -3.859,3.858 -3.885,3.679 -4.096,3.686 -4.123,3.507 m 1.668,0.088 C -2.276,3.569 -2.283,3.358 -2.104,3.332 -2.077,3.538 -1.8,3.494 -1.841,3.771 -2.059,4.063 -2.336,3.86 -2.455,3.595 m -15.173,0 c 0.098,-0.019 0.137,-0.098 0.175,-0.176 0.24,-0.064 0.176,0.175 0.35,0.176 0.018,0.43 -0.542,0.43 -0.525,0 m 0.876,0.089 c 0.174,-0.003 0.113,-0.241 0.352,-0.177 -0.065,0.241 0.174,0.178 0.175,0.351 -0.171,0.232 -0.518,0.198 -0.527,-0.174 m 0.878,0.087 c 0.098,-0.018 0.136,-0.098 0.175,-0.176 0.239,-0.062 0.177,0.176 0.351,0.176 0.017,0.43 -0.543,0.43 -0.526,0 M -3.683,3.946 C -3.558,3.925 -3.535,3.802 -3.42,3.771 -3.299,3.884 -3.267,4.294 -3.508,4.296 -3.51,4.123 -3.747,4.186 -3.683,3.946 m 0.789,0 C -2.623,3.706 -2.423,3.831 -2.281,4.121 -2.459,4.147 -2.451,4.358 -2.63,4.384 -2.658,4.179 -2.936,4.221 -2.894,3.946 M -17.19,4.033 c 0.174,0 0.112,-0.24 0.351,-0.175 -0.063,0.24 0.174,0.177 0.175,0.351 -0.171,0.232 -0.518,0.196 -0.526,-0.176 m 0.877,0.088 c 0.212,-0.274 0.388,-0.065 0.527,0.175 -0.172,0.232 -0.518,0.196 -0.527,-0.175 m 12.19,0.175 c 0.205,-0.172 0.236,-0.172 0.44,0 -0.01,0.224 -0.128,0.34 -0.351,0.351 0.02,-0.165 -0.1,-0.193 -0.089,-0.351 M -15.085,4.033 c 0.019,0.099 0.098,0.136 0.176,0.176 -0.007,0.257 -0.201,0.325 -0.351,0.438 -0.305,-0.229 -0.268,-0.528 0.175,-0.614 m 12.104,0.176 c 0.123,0.115 0.315,0.464 0,0.526 0.023,-0.153 -0.248,-0.438 0,-0.526 m -13.858,0.352 c 0.242,-0.285 0.445,-0.271 0.614,0.086 -0.178,0.026 -0.171,0.237 -0.352,0.264 -0.025,-0.18 -0.236,-0.172 -0.262,-0.35 m 1.053,-0.087 c 0.238,-0.067 0.177,0.172 0.35,0.173 0.016,0.221 -0.134,0.275 -0.263,0.351 -0.147,-0.23 -0.357,-0.295 -0.087,-0.524 m 11.489,0.087 c 0.074,0.1 0.115,0.235 0.088,0.437 -0.122,-0.003 -0.193,0.042 -0.263,0.087 0.08,-0.151 0.029,-0.437 0.175,-0.524 m -10.788,0.35 c 0.006,-0.258 0.2,-0.326 0.351,-0.437 0.026,0.176 0.237,0.17 0.263,0.349 -0.209,0.17 -0.387,0.375 -0.614,0.088 M -3.859,4.823 c 0.179,-0.026 0.172,-0.237 0.351,-0.262 0.028,0.206 0.304,0.164 0.263,0.437 -0.218,0.294 -0.496,0.09 -0.614,-0.175 M -16.4,4.998 c 0.098,-0.018 0.136,-0.097 0.175,-0.175 0.24,-0.064 0.176,0.175 0.351,0.175 0.016,0.431 -0.543,0.431 -0.526,0 m 12.103,0.351 0,-0.175 C -4.081,5.037 -4.039,5.471 -4.209,5.438 -4.215,5.384 -4.222,5.331 -4.297,5.349 M -15.173,4.911 c -0.065,0.239 0.174,0.177 0.175,0.351 -0.173,0.001 -0.111,0.239 -0.35,0.176 -0.178,-0.227 -0.217,-0.498 0.175,-0.527 m 11.227,0.087 c 0.174,0.213 0.377,0.388 0,0.527 0.103,-0.233 -0.168,-0.517 0,-0.527 m -10.788,0.176 c 0.27,0.065 0.168,-0.24 0.439,-0.176 0.018,0.098 0.096,0.138 0.174,0.176 -0.026,0.507 -0.522,0.323 -0.613,0 m -1.228,0.264 c 0.174,-10e-4 0.111,-0.24 0.351,-0.176 0.046,0.129 0.13,0.22 0.175,0.35 -0.171,0.232 -0.518,0.196 -0.526,-0.174 m 0.877,0.087 c 0.212,-0.274 0.387,-0.067 0.526,0.174 -0.171,0.234 -0.518,0.197 -0.526,-0.174 m 10.437,0.352 c -0.035,-0.211 0.16,-0.192 0.087,-0.439 0.258,0.004 0.326,0.202 0.438,0.348 -0.135,0.108 -0.34,0.282 -0.525,0.091 m -7.455,-0.439 c 0.175,-10e-4 0.112,-0.24 0.351,-0.176 -0.114,0.297 0.195,0.612 0,0.702 -0.056,-0.238 -0.366,-0.219 -0.351,-0.526 m -2.192,0.174 c 0.27,0.067 0.168,-0.24 0.438,-0.174 0.019,0.098 0.098,0.135 0.175,0.174 0.033,0.447 -0.646,0.447 -0.613,0 m -1.316,0.352 c 0.242,-0.283 0.446,-0.271 0.613,0.087 -0.178,0.024 -0.171,0.237 -0.35,0.263 -0.026,-0.179 -0.238,-0.172 -0.263,-0.35 m 0.877,0 c 0.166,0.018 0.193,-0.099 0.35,-0.087 0.02,0.097 0.098,0.137 0.176,0.174 0.015,0.22 -0.135,0.275 -0.263,0.35 -0.028,-0.206 -0.304,-0.161 -0.263,-0.437 m 0.877,0.087 c 0.239,0.064 0.177,-0.173 0.35,-0.174 0.027,0.177 0.238,0.17 0.263,0.351 -0.155,0.077 -0.255,0.21 -0.438,0.26 -0.038,-0.166 -0.25,-0.158 -0.175,-0.437 m 0.613,0.35 c 0.078,0.18 -0.227,0.395 -0.263,0.175 0.126,-0.019 0.148,-0.144 0.263,-0.175 m -1.929,0 c 0.098,-0.018 0.136,-0.096 0.175,-0.173 0.239,-0.066 0.177,0.172 0.352,0.173 0.016,0.43 -0.544,0.43 -0.527,0 m 1.228,-0.087 c -0.064,0.24 0.174,0.177 0.176,0.35 -0.175,0.001 -0.112,0.241 -0.352,0.176 -0.178,-0.226 -0.217,-0.496 0.176,-0.526 m 1.052,0.262 c 0.052,0.236 -0.36,0.447 -0.438,0.264 0.161,-0.094 0.219,-0.484 0.438,-0.264 m -1.052,0.353 c 0.24,0.063 0.177,-0.175 0.351,-0.176 0.015,0.253 -0.297,0.483 -0.351,0.176 M -14.734,6.84 c 0.174,-10e-4 0.111,-0.238 0.35,-0.176 0.047,0.131 0.131,0.222 0.176,0.352 -0.171,0.232 -0.518,0.197 -0.526,-0.176 m 1.316,0.176 c 0.076,0.18 -0.228,0.393 -0.264,0.175 0.126,-0.022 0.148,-0.143 0.264,-0.175 m 0.351,0 c 0.166,-0.038 0.219,-0.189 0.438,-0.176 0,0.176 0.238,0.111 0.175,0.351 -0.22,0.19 -0.601,0.245 -0.613,-0.175 m -0.878,0.263 c -0.558,0.659 -0.378,-0.452 0,0 m 0.438,0.086 c 0.068,-0.017 0.174,-0.001 0.176,-0.086 0.224,0.011 0.341,0.128 0.351,0.353 -0.265,0.124 -0.507,0.071 -0.527,-0.267 m 9.123,0.441 c 0.03,-0.321 0.3,-0.403 0.525,-0.527 l 0,0.613 C -4.126,7.956 -4.178,7.804 -4.384,7.806 m -8.245,-0.353 c 0.272,-0.239 0.47,-0.113 0.613,0.179 -0.181,0.049 -0.283,0.181 -0.438,0.26 -0.037,-0.167 -0.25,-0.158 -0.175,-0.439 m 0.35,0.527 c 0.184,-0.072 0.343,-0.361 0.527,-0.174 0.038,0.295 -0.51,0.45 -0.527,0.174 m -1.49,-0.348 c 0.223,0.008 0.34,0.125 0.351,0.348 -0.13,0.045 -0.222,0.13 -0.351,0.175 -0.144,-0.233 -0.202,-0.332 0,-0.523 m 0.789,0.086 c 0.33,-0.068 0.295,0.229 0.438,0.35 -0.129,0.045 -0.221,0.129 -0.351,0.175 -0.063,-0.178 -0.274,-0.347 -0.087,-0.525 m -0.614,0.525 c 0.167,-0.037 0.22,-0.189 0.438,-0.175 0.001,0.174 0.239,0.113 0.176,0.351 -0.129,0.046 -0.221,0.129 -0.351,0.176 -0.025,-0.179 -0.237,-0.173 -0.263,-0.352 m 0.877,0.089 c 0.118,0.013 0.266,-0.357 0.35,-0.089 -0.219,-0.042 0.213,0.403 -0.087,0.439 -0.025,-0.179 -0.237,-0.171 -0.263,-0.35 m -0.35,0.263 c 0.444,-0.241 0.325,0.305 0,0 m -1.054,-0.703 c 0.188,0.282 0.413,0.524 0.614,0.79 -0.469,-0.058 -1.167,0.116 -1.491,-0.087 0.357,-0.17 0.449,-0.604 0.877,-0.703 m 9.56,0.966 C -4.417,8.591 -4.355,8.244 -3.946,8.243 -3.669,8.201 -3.914,8.678 -3.595,8.595 -3.768,8.128 -3.072,8.532 -3.245,8.068 -3.267,7.886 -3.629,8.044 -3.683,7.892 -3.7,7.617 -3.624,7.249 -3.771,7.103 -3.447,6.843 -3.142,6.563 -2.806,6.314 -2.591,7.183 -2.407,8.08 -2.192,8.946 -2.98,8.963 -3.988,8.769 -4.561,8.858 m -8.156,0.264 c 0.068,-0.019 0.173,-0.002 0.175,-0.09 0.224,0.013 0.34,0.128 0.352,0.351 -0.24,-0.063 -0.178,0.176 -0.352,0.177 -0.037,-0.168 -0.251,-0.161 -0.175,-0.438 m 0.35,0.525 c 0.168,-0.039 0.221,-0.189 0.439,-0.174 0.02,0.066 0.004,0.172 0.088,0.174 0.015,0.218 -0.135,0.275 -0.263,0.35 -0.026,-0.178 -0.237,-0.173 -0.264,-0.35 m 0.702,0.35 c -0.035,0.212 0.16,0.191 0.088,0.44 -0.316,0.046 -0.521,-0.469 -0.088,-0.44 m 5.438,0.703 c 0.24,0.062 0.177,-0.176 0.352,-0.176 0.025,0.179 0.236,0.171 0.262,0.352 -0.179,0.024 -0.172,0.236 -0.35,0.261 -0.028,-0.206 -0.306,-0.162 -0.264,-0.437 m -0.439,0.35 c 0.167,0.019 0.194,-0.098 0.352,-0.087 0.019,0.098 0.097,0.137 0.175,0.174 0.015,0.219 -0.134,0.275 -0.263,0.351 -0.028,-0.205 -0.305,-0.162 -0.264,-0.438 m 1.053,0 c 0.239,-0.063 0.177,0.174 0.35,0.174 -0.009,0.224 -0.126,0.341 -0.35,0.351 -0.142,-0.233 -0.201,-0.333 0,-0.525 m -0.438,0.352 c 0.239,-0.065 0.176,0.172 0.35,0.173 0.015,0.22 -0.133,0.277 -0.262,0.352 -0.147,-0.23 -0.358,-0.295 -0.088,-0.525 m -1.14,0.086 c 0.274,0.043 0.231,-0.236 0.439,-0.264 0.042,0.105 0.092,0.201 0.174,0.264 -0.005,0.259 -0.2,0.326 -0.35,0.439 -0.078,-0.155 -0.212,-0.255 -0.263,-0.439 m 1.841,0.177 c 0.099,-0.019 0.137,-0.098 0.177,-0.177 0.238,-0.063 0.175,0.175 0.349,0.177 0.017,0.43 -0.542,0.43 -0.526,0 m -0.438,0.351 c 0.213,-0.273 0.387,-0.068 0.525,0.175 -0.171,0.233 -0.517,0.196 -0.525,-0.175 m -0.526,-0.263 c 0.019,0.097 0.097,0.136 0.175,0.174 -0.007,0.259 -0.201,0.326 -0.351,0.44 -0.305,-0.231 -0.266,-0.53 0.176,-0.614 M -5,12.103 c 0.241,0.062 0.179,-0.174 0.352,-0.176 0.026,0.179 0.238,0.172 0.264,0.351 C -4.552,12.52 -5.01,12.499 -5,12.103 m -0.263,0.264 c 0.224,0.009 0.342,0.126 0.352,0.35 -0.241,0.272 -0.623,-0.11 -0.352,-0.35 m -1.051,0.262 c 0.005,-0.257 0.201,-0.326 0.351,-0.438 0.026,0.179 0.236,0.171 0.262,0.35 -0.208,0.171 -0.385,0.377 -0.613,0.088 m -3.508,-0.526 c 0.271,0.264 0.296,0.546 -0.089,0.701 -0.221,-0.313 -0.322,-0.521 0.089,-0.701 m 5.261,0.438 c 0.241,0.063 0.177,-0.174 0.352,-0.174 -0.066,0.269 0.24,0.166 0.175,0.437 -0.13,0.047 -0.22,0.132 -0.35,0.175 0.065,-0.267 -0.241,-0.167 -0.177,-0.438 m -4.822,0.088 c 0.017,0.098 0.097,0.138 0.175,0.175 -0.011,0.223 -0.129,0.342 -0.351,0.352 -0.274,-0.213 -0.067,-0.387 0.176,-0.527 m -1.229,0.088 c 0.099,-0.019 0.137,-0.099 0.175,-0.176 0.447,-0.031 0.447,0.647 0,0.615 0.066,-0.271 -0.24,-0.171 -0.175,-0.439 m 4.649,0.174 c 0.275,0.044 0.232,-0.235 0.438,-0.262 0.038,0.168 0.188,0.222 0.175,0.44 -0.168,0.035 -0.158,0.249 -0.438,0.174 0.064,-0.239 -0.174,-0.176 -0.175,-0.352 m 0.963,0 c 0.167,0.019 0.193,-0.099 0.352,-0.087 0.019,0.098 0.097,0.138 0.176,0.175 0.014,0.22 -0.135,0.276 -0.263,0.351 C -4.763,13.124 -5.041,13.167 -5,12.891 m 0.791,0.178 c 0.167,-0.04 0.22,-0.19 0.438,-0.178 10e-4,0.176 0.239,0.113 0.176,0.352 -0.13,0.046 -0.221,0.129 -0.351,0.174 -0.027,-0.178 -0.237,-0.171 -0.263,-0.348 m -5.174,0.174 c 0.238,0.064 0.176,-0.173 0.349,-0.174 0.038,0.165 0.251,0.158 0.177,0.438 -0.266,0.124 -0.507,0.074 -0.526,-0.264 m -0.79,0 c 0.174,-10e-4 0.111,-0.239 0.351,-0.174 0.273,0.211 0.066,0.386 -0.176,0.525 -0.001,-0.177 -0.239,-0.112 -0.175,-0.351 m -0.878,-0.087 c 0.098,-0.02 0.137,-0.098 0.176,-0.177 0.447,-0.032 0.447,0.647 0,0.615 0.065,-0.271 -0.241,-0.169 -0.176,-0.438 m 5.526,0.174 c 0.27,0.066 0.169,-0.241 0.439,-0.174 0.018,0.098 0.097,0.137 0.175,0.174 0.032,0.447 -0.647,0.447 -0.614,0 m 0.964,0.087 c 0.213,-0.271 0.388,-0.064 0.527,0.177 -0.172,0.233 -0.518,0.195 -0.527,-0.177 m 0.79,0.09 c 0.271,-0.24 0.471,-0.116 0.615,0.175 -0.221,0.188 -0.603,0.245 -0.615,-0.175 m -7.806,0.087 c 0.18,-0.027 0.172,-0.238 0.351,-0.264 0.027,0.207 0.305,0.163 0.263,0.44 -0.219,0.293 -0.495,0.088 -0.614,-0.176 m 1.755,0.088 c 0.098,-0.021 0.136,-0.098 0.175,-0.175 0.239,-0.066 0.176,0.173 0.351,0.175 0.015,0.429 -0.543,0.429 -0.526,0 m -0.878,0 c 0.179,-0.064 0.347,-0.275 0.527,-0.088 0.066,0.329 -0.23,0.296 -0.351,0.437 0.063,-0.24 -0.175,-0.176 -0.176,-0.349 m 6.491,0.175 c 0.239,0.063 0.176,-0.175 0.35,-0.175 -0.065,0.269 0.241,0.168 0.176,0.438 -0.119,0.027 -0.168,0.124 -0.351,0.088 -0.046,-0.131 -0.13,-0.221 -0.175,-0.351 m -0.877,0 c 0.178,-0.025 0.171,-0.238 0.351,-0.263 0.025,0.178 0.237,0.172 0.263,0.35 -0.216,0.198 -0.575,0.399 -0.614,-0.087 m 1.754,0.087 c 0.129,-0.046 0.221,-0.13 0.351,-0.174 -0.065,0.27 0.24,0.168 0.175,0.438 -0.264,0.125 -0.507,0.073 -0.526,-0.264 m -7.455,-0.087 c 0.018,0.099 0.097,0.137 0.175,0.174 -0.011,0.224 -0.128,0.341 -0.351,0.353 -0.273,-0.214 -0.066,-0.389 0.176,-0.527 m -1.229,0.087 c 0.272,-0.24 0.472,-0.115 0.615,0.176 -0.179,0.026 -0.171,0.236 -0.351,0.264 -0.028,-0.208 -0.305,-0.164 -0.264,-0.44 m 1.667,0.176 c 0.241,-0.284 0.447,-0.27 0.615,0.088 -0.18,0.025 -0.173,0.236 -0.351,0.263 -0.027,-0.179 -0.238,-0.173 -0.264,-0.351 m 6.578,0.175 c 0.068,-0.02 0.173,-0.002 0.176,-0.087 0.224,0.009 0.34,0.128 0.35,0.351 -0.2,0.19 -0.547,0.031 -0.526,-0.264 m -0.964,0 c 0.182,-0.051 0.283,-0.184 0.438,-0.264 0.038,0.168 0.189,0.223 0.174,0.44 -0.129,0.046 -0.219,0.129 -0.349,0.175 -0.026,-0.178 -0.238,-0.172 -0.263,-0.351 m 1.754,0.176 c 0.167,-0.243 0.625,-0.22 0.613,0.175 -0.238,-0.065 -0.175,0.174 -0.351,0.175 -0.026,-0.179 -0.236,-0.173 -0.262,-0.35 m -7.456,-0.176 c 0.039,0.168 0.25,0.158 0.175,0.438 -0.5,0.257 -0.641,-0.31 -0.175,-0.438 m -1.14,0.176 c 0.175,0 0.112,-0.241 0.351,-0.176 0.272,0.212 0.067,0.389 -0.175,0.526 -10e-4,-0.174 -0.24,-0.111 -0.176,-0.35 m -0.877,-0.087 c 0.1,-0.019 0.137,-0.1 0.175,-0.176 0.258,0.006 0.326,0.2 0.439,0.351 -0.179,0.024 -0.172,0.237 -0.35,0.262 -0.028,-0.207 -0.306,-0.162 -0.264,-0.437 m 8.157,0.349 c 0.167,-0.037 0.221,-0.188 0.438,-0.174 0.002,0.173 0.24,0.111 0.176,0.352 -0.221,0.187 -0.6,0.242 -0.614,-0.178 m 0.877,0.088 c 0.271,-0.24 0.47,-0.115 0.614,0.176 -0.13,0.045 -0.221,0.13 -0.35,0.175 C -3.183,14.994 -3.394,15 -3.42,14.821 m -9.56,0 c 0.179,-0.025 0.172,-0.238 0.351,-0.262 0.027,0.208 0.304,0.162 0.262,0.438 -0.217,0.294 -0.494,0.09 -0.613,-0.176 m 10.612,-0.088 c 0.258,0.006 0.326,0.202 0.439,0.351 -0.269,-0.064 -0.169,0.241 -0.439,0.176 -0.142,-0.235 -0.201,-0.333 0,-0.527 m -8.858,0.178 c 0.099,-0.02 0.137,-0.1 0.175,-0.178 0.239,-0.063 0.177,0.175 0.351,0.178 0.017,0.428 -0.542,0.428 -0.526,0 m -0.79,0 c 0.176,-0.003 0.113,-0.241 0.351,-0.178 0.274,0.214 0.067,0.389 -0.175,0.527 0,-0.176 -0.239,-0.111 -0.176,-0.349 m 9.21,0.173 c 0.276,-0.013 0.301,0.226 0.351,0.439 -0.166,-0.019 -0.193,0.097 -0.351,0.088 -0.143,-0.235 -0.201,-0.333 0,-0.527 m -1.053,0.088 c 0.271,-0.239 0.47,-0.115 0.614,0.177 -0.182,0.05 -0.283,0.182 -0.438,0.262 -0.037,-0.167 -0.251,-0.159 -0.176,-0.439 m -8.331,-0.088 c 0.017,0.099 0.096,0.138 0.174,0.176 -0.01,0.222 -0.128,0.341 -0.351,0.351 -0.272,-0.214 -0.066,-0.388 0.177,-0.527 m -1.228,0.088 c 0.27,-0.239 0.469,-0.115 0.613,0.177 -0.178,0.024 -0.172,0.236 -0.351,0.262 -0.027,-0.209 -0.304,-0.163 -0.262,-0.439 m 11.314,0.177 c 0.173,-10e-4 0.111,-0.24 0.351,-0.177 0.045,0.13 0.128,0.221 0.174,0.351 -0.171,0.232 -0.517,0.197 -0.525,-0.174 m -9.561,-0.089 c 0.468,-0.29 0.665,0.335 0.176,0.438 -0.037,-0.167 -0.251,-0.159 -0.176,-0.438 m -2.192,0.351 c 0.098,-0.017 0.136,-0.098 0.175,-0.175 0.257,0.005 0.326,0.201 0.438,0.35 -0.166,0.244 -0.625,0.221 -0.613,-0.175 m 11.314,0.087 c 0.2,-0.189 0.547,-0.032 0.526,0.264 -0.265,0.125 -0.505,0.073 -0.526,-0.264 m -0.965,0 c 0.155,-0.078 0.256,-0.211 0.439,-0.262 0.037,0.165 0.189,0.219 0.175,0.438 -0.239,-0.063 -0.176,0.175 -0.351,0.176 -0.026,-0.181 -0.237,-0.173 -0.263,-0.352 m -8.069,0.176 c -0.844,0.615 -0.441,-0.895 0,0 m -1.403,-0.176 c 0.174,-0.001 0.112,-0.239 0.351,-0.175 0.273,0.212 0.066,0.387 -0.176,0.527 -10e-4,-0.174 -0.238,-0.112 -0.175,-0.352 m 11.227,0.176 c 0.241,-0.284 0.445,-0.27 0.613,0.088 -0.178,0.025 -0.172,0.237 -0.351,0.265 -0.026,-0.18 -0.237,-0.175 -0.262,-0.353 m -12.192,-0.088 c 0.039,0.168 0.189,0.221 0.176,0.441 -0.175,0 -0.112,0.237 -0.352,0.174 -0.242,-0.169 -0.22,-0.627 0.176,-0.615 m 10.876,0.351 c 0.221,-0.189 0.6,-0.244 0.614,0.176 -0.272,0.138 -0.567,0.278 -0.614,-0.176 m -9.56,0 c 0.098,-0.018 0.137,-0.097 0.175,-0.175 0.239,-0.066 0.176,0.175 0.351,0.175 0.016,0.429 -0.542,0.429 -0.526,0 m -0.878,0 c 0.168,-0.037 0.221,-0.188 0.44,-0.175 0.272,0.213 0.065,0.388 -0.177,0.525 -0.025,-0.176 -0.236,-0.171 -0.263,-0.35 m 11.49,-0.087 c 0.239,-0.066 0.176,0.174 0.351,0.177 0.014,0.218 -0.134,0.272 -0.263,0.348 -0.146,-0.23 -0.357,-0.294 -0.088,-0.525 m 0.703,0.263 c 0.097,-0.019 0.135,-0.098 0.174,-0.176 0.241,-0.064 0.178,0.175 0.351,0.176 -0.01,0.222 -0.127,0.339 -0.351,0.35 0.064,-0.238 -0.174,-0.177 -0.174,-0.35 m -12.631,0.174 c 0.24,0.065 0.177,-0.173 0.351,-0.174 0.018,0.099 0.096,0.135 0.176,0.174 0.016,0.431 -0.543,0.431 -0.527,0 m -0.878,0 c 0.243,-0.284 0.447,-0.269 0.615,0.088 -0.178,0.027 -0.171,0.238 -0.351,0.264 -0.025,-0.18 -0.237,-0.172 -0.264,-0.352 m 1.756,0 c 0.238,0.065 0.176,-0.173 0.35,-0.174 0.19,0.323 0.148,0.437 -0.176,0.614 -0.037,-0.167 -0.25,-0.16 -0.174,-0.44 m 11.488,0 c 0.24,-0.062 0.177,0.176 0.351,0.176 -0.009,0.225 -0.128,0.34 -0.351,0.352 -0.142,-0.236 -0.2,-0.334 0,-0.528 m -1.051,0.088 c 0.098,-0.018 0.136,-0.096 0.175,-0.174 0.257,0.005 0.326,0.201 0.438,0.35 -0.183,0.051 -0.282,0.184 -0.438,0.264 0.065,-0.269 -0.241,-0.168 -0.175,-0.44 m 1.754,0.176 c 0.173,-0.001 0.111,-0.24 0.35,-0.176 0.046,0.13 0.13,0.222 0.175,0.352 -0.171,0.232 -0.517,0.196 -0.525,-0.176 m -14.209,-0.088 c 0.258,0.006 0.325,0.201 0.439,0.352 -0.167,0.036 -0.159,0.25 -0.439,0.174 -0.142,-0.235 -0.202,-0.333 0,-0.526 m 1.578,0.526 c -0.022,-0.286 0.105,-0.422 0.351,-0.438 -0.062,0.24 0.175,0.178 0.176,0.352 -0.136,0.105 -0.342,0.278 -0.527,0.086 m -0.438,-0.438 c 0.151,0.292 -0.053,0.38 -0.263,0.526 -0.261,-0.185 -0.169,-0.576 0.263,-0.526 m 12.631,0.352 c 0.211,-0.274 0.387,-0.067 0.525,0.174 -0.172,0.233 -0.518,0.197 -0.525,-0.174 m -0.527,-0.264 c 0.239,0.27 0.115,0.471 -0.176,0.613 -0.306,-0.229 -0.267,-0.528 0.176,-0.613 m 1.315,0.438 c 0.242,-0.285 0.446,-0.27 0.615,0.088 -0.179,0.026 -0.173,0.237 -0.352,0.263 -0.025,-0.179 -0.237,-0.171 -0.263,-0.351 m -14.297,0 c 0.241,0.066 0.178,-0.174 0.352,-0.174 -0.065,0.24 0.174,0.176 0.176,0.349 -0.167,0.037 -0.159,0.251 -0.439,0.176 0.021,-0.166 -0.099,-0.193 -0.089,-0.351 m -0.876,-0.088 c 0.13,-0.044 0.221,-0.129 0.351,-0.174 0.038,0.166 0.188,0.218 0.175,0.437 -0.173,0.002 -0.111,0.24 -0.35,0.176 -0.039,-0.167 -0.189,-0.22 -0.176,-0.439 m 2.105,0 c 0.019,0.069 0.002,0.173 0.087,0.176 -0.01,0.223 -0.127,0.34 -0.35,0.352 -0.208,-0.239 -0.195,-0.553 0.263,-0.528 m 11.753,0.349 c 0.89,-0.659 0.369,0.969 0,0 m 1.052,-0.086 c 0.239,-0.063 0.177,0.176 0.351,0.176 0.014,0.22 -0.135,0.274 -0.264,0.351 -0.146,-0.231 -0.356,-0.295 -0.087,-0.527 m 0.702,0.265 c 0.098,-0.019 0.136,-0.099 0.176,-0.179 0.238,-0.06 0.176,0.178 0.349,0.179 -0.01,0.221 -0.126,0.338 -0.349,0.35 0.062,-0.24 -0.175,-0.177 -0.176,-0.35 m -14.822,-0.179 c 0.019,0.07 0.001,0.176 0.086,0.179 -0.01,0.221 -0.126,0.338 -0.35,0.35 -0.19,-0.201 -0.032,-0.547 0.264,-0.529 m -0.877,-0.086 c -0.066,0.27 0.24,0.168 0.175,0.44 -0.24,-0.065 -0.177,0.174 -0.351,0.175 -0.19,-0.22 -0.245,-0.602 0.176,-0.615 m 1.315,0.265 c 0.239,0.063 0.177,-0.175 0.35,-0.179 0.189,0.324 0.149,0.439 -0.174,0.616 -0.039,-0.166 -0.189,-0.22 -0.176,-0.437 m 13.068,0.262 c 0.099,-0.02 0.137,-0.098 0.175,-0.175 0.24,-0.065 0.178,0.173 0.352,0.175 0.017,0.428 -0.542,0.428 -0.527,0 m 1.052,-0.087 c 0.24,-0.065 0.177,0.174 0.351,0.175 -0.01,0.224 -0.127,0.339 -0.351,0.35 -0.142,-0.235 -0.201,-0.334 0,-0.525 m -15.874,0 c -0.065,0.238 0.175,0.176 0.175,0.35 -0.167,0.038 -0.158,0.25 -0.439,0.175 -0.208,-0.238 -0.195,-0.551 0.264,-0.525 m 16.577,0.262 c 0.098,-0.018 0.136,-0.098 0.175,-0.175 0.239,-0.064 0.177,0.174 0.351,0.175 0.016,0.431 -0.543,0.431 -0.526,0 m -15.261,0 c 0.175,-0.001 0.112,-0.239 0.35,-0.175 0.046,0.13 0.13,0.221 0.175,0.35 -0.167,0.039 -0.158,0.251 -0.439,0.177 0.022,-0.167 -0.097,-0.194 -0.086,-0.352 m -0.439,-0.175 c -0.019,0.167 0.099,0.193 0.088,0.35 -0.24,-0.063 -0.177,0.175 -0.351,0.177 -0.209,-0.24 -0.196,-0.552 0.263,-0.527 m 14.734,0.263 c 0.046,0.131 0.13,0.22 0.176,0.352 -0.423,0.488 -0.883,-0.294 -0.176,-0.352 m 0.439,0.264 c 0.322,-0.19 0.437,-0.148 0.613,0.176 -0.216,0.292 -0.493,0.089 -0.613,-0.176 m -16.05,0 c 0.24,0.063 0.176,-0.174 0.351,-0.177 0.045,0.13 0.13,0.221 0.175,0.353 -0.172,0.23 -0.517,0.195 -0.526,-0.176 m -0.878,-0.089 c 0.24,0.064 0.177,-0.174 0.351,-0.175 0.038,0.165 0.189,0.22 0.175,0.44 -0.124,0.02 -0.148,0.144 -0.262,0.172 -0.027,-0.205 -0.304,-0.163 -0.264,-0.437 M 1.316,18.77 c -0.844,0.614 -0.44,-0.896 0,0 m -16.225,-0.264 c 0.022,0.286 -0.105,0.421 -0.351,0.436 -0.321,-0.254 -0.01,-0.696 0.351,-0.436 m 14.295,0.348 c 0.239,0.066 0.176,-0.171 0.351,-0.172 0.306,0.229 0.268,0.527 -0.175,0.613 -0.037,-0.167 -0.189,-0.222 -0.176,-0.441 M -16.313,18.77 c 0.188,0.186 0.033,0.475 -0.176,0.525 -0.232,-0.173 -0.195,-0.519 0.176,-0.525 m -1.228,0.084 c 0.098,-0.017 0.137,-0.095 0.175,-0.172 0.241,-0.067 0.177,0.172 0.351,0.172 -0.006,0.259 -0.2,0.33 -0.351,0.441 0.066,-0.27 -0.24,-0.169 -0.175,-0.441 m 18.243,0 c 0.02,0.07 0.003,0.174 0.088,0.177 0.014,0.22 -0.135,0.274 -0.263,0.351 -0.249,-0.205 -0.355,-0.53 0.175,-0.528 M -15.523,18.77 c 0.018,0.098 0.097,0.134 0.175,0.172 -0.006,0.259 -0.2,0.328 -0.351,0.44 -0.239,-0.272 -0.114,-0.471 0.176,-0.612 M 1.141,19.119 C 1.239,19.101 1.277,19.022 1.316,18.942 1.555,18.881 1.493,19.118 1.667,19.119 1.657,19.343 1.539,19.46 1.316,19.471 1.38,19.23 1.142,19.294 1.141,19.119 m -19.207,0.176 c 0.168,-0.21 0.443,-0.21 0.613,0 -0.027,0.506 -0.522,0.323 -0.613,0 m 17.891,0.087 C -0.076,19.364 -0.04,19.285 0,19.206 c 0.24,-0.062 0.177,0.176 0.352,0.176 0.016,0.431 -0.544,0.431 -0.527,0 m -16.138,0 c 0.098,-0.018 0.137,-0.097 0.176,-0.176 0.239,-0.062 0.176,0.176 0.351,0.176 0.016,0.431 -0.543,0.431 -0.527,0 m -0.526,-0.263 c 0.038,0.168 0.251,0.158 0.175,0.439 -0.238,-0.064 -0.176,0.173 -0.351,0.174 -0.188,-0.321 -0.148,-0.435 0.176,-0.613 m 17.717,0.176 c 0.239,-0.065 0.176,0.175 0.35,0.176 -0.01,0.223 -0.127,0.339 -0.35,0.35 -0.143,-0.236 -0.202,-0.334 0,-0.526 m -18.506,0.437 c 0.239,0.066 0.177,-0.173 0.35,-0.174 0.02,0.098 0.097,0.136 0.175,0.174 0.018,0.429 -0.542,0.429 -0.525,0 m -0.528,-0.261 c 0.244,0.168 0.222,0.625 -0.174,0.613 -0.189,-0.321 -0.148,-0.437 0.174,-0.613 m 1.317,0.35 c 0.424,-0.492 0.884,0.293 0.175,0.35 0.064,-0.239 -0.174,-0.175 -0.175,-0.35 M 0.614,19.645 C 0.855,19.916 0.729,20.116 0.438,20.259 0.133,20.028 0.172,19.73 0.614,19.645 m -18.68,0.526 c 0.174,0 0.11,-0.239 0.35,-0.174 0.273,0.213 0.066,0.388 -0.175,0.526 -0.001,-0.175 -0.24,-0.112 -0.175,-0.352 m 1.14,-0.174 c 0.036,0.166 0.251,0.158 0.174,0.439 -0.239,-0.065 -0.177,0.172 -0.351,0.172 -0.189,-0.321 -0.148,-0.434 0.177,-0.611 m -0.79,0.611 c 0.098,-0.017 0.136,-0.095 0.175,-0.172 0.24,-0.065 0.177,0.172 0.351,0.172 0.016,0.431 -0.542,0.431 -0.526,0 m 9.297,-7.278 c -0.184,-0.517 -0.708,-0.694 -0.964,-1.139 0.387,-0.17 0.896,-0.215 1.228,-0.438 0.29,0.185 -0.264,0.254 -0.176,0.525 2.619,2.964 5.339,5.828 7.893,8.859 0.878,-0.526 1.542,-1.266 2.368,-1.842 -2.484,-3.129 -5.24,-5.987 -7.805,-9.034 0.228,-0.502 0.677,-0.783 1.051,-1.139 0.849,0.086 1.744,0.127 2.632,0.174 0.249,0.072 0.009,0.636 0.351,0.614 C -1.868,9.431 -1.998,9.306 -1.579,9.209 -1.566,8.962 -1.793,8.956 -2.017,8.946 -2.21,8.027 -2.447,7.153 -2.63,6.228 -1.254,4.738 0.347,3.474 1.842,2.104 1.308,1.235 0.521,0.618 0,-0.265 c -1.186,0.95 -2.301,1.968 -3.42,2.984 -0.594,-1.543 0.466,-3.282 0.965,-4.562 -0.122,-0.201 -0.611,-0.032 -0.877,-0.088 -0.057,-1.114 0.113,-2.451 -0.088,-3.42 -3.668,0.003 -6.704,0.017 -10.262,0 l 0,3.246 c -0.121,0.199 -0.61,0.032 -0.877,0.086 0.861,1.669 1.611,3.436 2.28,5.614 0.165,0.537 0.685,1.669 0.089,1.754 -0.241,0.035 -1.25,-1.239 -1.317,-1.316 -1.266,-1.429 -2.436,-2.817 -3.683,-4.122 -0.879,0.526 -1.54,1.267 -2.368,1.842 1.711,1.973 3.424,3.942 5.174,5.879 -0.129,0.481 -0.651,0.574 -0.789,1.05 -0.325,0.055 -0.902,-0.142 -0.964,0.176 0.132,0.371 0.76,0.006 0.351,0.525 0.568,-0.382 1.731,-0.56 2.455,-0.351 0.695,0.202 1.058,1.311 1.666,1.756 0.163,0.117 0.632,-0.181 0.702,0.436 -2.686,2.724 -5.778,5.04 -8.42,7.807 0.636,0.709 1.22,1.469 1.842,2.194 3.123,-2.549 6.013,-5.331 9.122,-7.895"
         style="fill:#39577a;fill-opacity:1;fill-rule:nonzero;stroke:none"
         id="path3736"
         inkscape:connector-curvature="0" />
    </g>
  </g>
</svg>
