<?xml version="1.0" encoding="UTF-8" standalone="no"?>
<!-- Created with Inkscape (http://www.inkscape.org/) -->

<svg
   xmlns:dc="http://purl.org/dc/elements/1.1/"
   xmlns:cc="http://creativecommons.org/ns#"
   xmlns:rdf="http://www.w3.org/1999/02/22-rdf-syntax-ns#"
   xmlns:svg="http://www.w3.org/2000/svg"
   xmlns="http://www.w3.org/2000/svg"
   xmlns:sodipodi="http://sodipodi.sourceforge.net/DTD/sodipodi-0.dtd"
   xmlns:inkscape="http://www.inkscape.org/namespaces/inkscape"
   width="10.245513mm"
   height="8.0690155mm"
   viewBox="0 0 36.302999 28.591"
   id="svg8292"
   version="1.1"
   inkscape:version="0.91 r13725"
   sodipodi:docname="berlin.svg">
  <defs
     id="defs8294" />
  <sodipodi:namedview
     id="base"
     pagecolor="#ffffff"
     bordercolor="#666666"
     borderopacity="1.0"
     inkscape:pageopacity="0.0"
     inkscape:pageshadow="2"
     inkscape:zoom="0.35"
     inkscape:cx="-983.99136"
     inkscape:cy="40.009785"
     inkscape:document-units="px"
     inkscape:current-layer="layer1"
     showgrid="false"
     fit-margin-top="0"
     fit-margin-left="0"
     fit-margin-right="0"
     fit-margin-bottom="0"
     inkscape:window-width="1920"
     inkscape:window-height="974"
     inkscape:window-x="0"
     inkscape:window-y="27"
     inkscape:window-maximized="1" />
  <metadata
     id="metadata8297">
    <rdf:RDF>
      <cc:Work
         rdf:about="">
        <dc:format>image/svg+xml</dc:format>
        <dc:type
           rdf:resource="http://purl.org/dc/dcmitype/StillImage" />
        <dc:title></dc:title>
      </cc:Work>
    </rdf:RDF>
  </metadata>
  <g
     inkscape:label="Calque 1"
     inkscape:groupmode="layer"
     id="layer1"
     transform="translate(-867.56279,-543.78099)">
    <g
       id="berlin"
       transform="matrix(1,0,0,-1,899.20679,571.40899)">
      <path
         d="m 0,0 c -0.969,-0.003 -1.977,-0.05 -2.73,0.161 -0.087,4.143 0.187,8.648 -0.162,12.53 0.677,0.34 1.957,0.078 2.892,0.16 L 0,0 Z m -5.462,0 c -0.618,0.194 -2.39,-0.259 -3.212,0.161 l 0,12.69 3.212,0 C -5.441,8.338 -5.463,4.64 -5.462,0 m -5.46,0 c -2.111,0.015 -3.238,0.031 -5.301,0 -0.373,3.856 -0.056,8.404 -0.161,12.529 1.173,0.551 4.115,0.213 5.622,0.162 C -10.967,9.993 -10.483,3.9 -10.922,0 m -4.98,22.008 0.481,0 c 0.097,-0.285 -0.471,-0.668 0,-0.804 0.115,-0.436 -0.756,0.115 -0.642,-0.32 -0.468,0.272 0.364,0.583 0.161,1.124 m 2.088,-0.966 c -0.455,-0.024 -0.374,0.482 -0.803,0.482 0.214,0.41 1.05,0.101 0.803,-0.482 m 0.321,0.643 c 0.47,-0.01 0.906,-0.058 0.804,-0.643 l -0.804,0 0,0.643 z m 1.606,0.483 c 0.453,-0.137 0.722,-0.457 0.643,-1.126 -0.764,-0.174 -0.656,0.524 -0.643,1.126 M -18.633,0 c -1.038,0.087 -2.435,-0.185 -3.213,0.161 l 0,12.69 3.373,0 C -18.358,8.052 -18.653,4.535 -18.633,0 m -5.783,0.161 c -0.626,-0.338 -1.847,-0.08 -2.73,-0.161 -0.016,3.678 0.01,8.649 0,12.851 l 2.73,0 0,-12.69 z m 27.273,-0.428 0,12.942 0.094,0 c 0.066,0.928 0.152,1.833 0.101,2.747 0.258,0.652 0.855,0.964 1.124,1.605 -1.446,-0.019 -1.913,2.09 -0.964,3.053 -3.483,0.372 -7.654,0.055 -11.404,0.16 -0.287,0.73 -1.112,0.923 -2.249,0.802 -0.208,0.468 -0.154,1.088 0.482,1.126 0.044,-0.489 -0.515,-0.626 -0.16,-0.964 0.591,0.978 0.086,2.34 0.32,3.372 -0.815,0.068 -0.87,-0.628 -0.963,-1.284 -0.739,0.044 -0.585,-0.808 -1.125,-0.964 0.037,0.788 -0.282,1.216 -0.16,2.088 -0.363,0.463 -0.99,0.064 -0.804,1.285 -0.274,0.008 -0.416,-0.118 -0.481,-0.32 -0.444,0.107 0.447,0.843 -0.482,0.642 0.276,0.975 0.241,1.315 0.16,1.605 l -0.641,0 c 0.078,-0.204 -0.406,-0.749 0.321,-1.284 -0.273,-0.583 -0.915,-0.799 -0.643,-1.928 -0.144,0.125 -0.363,0.174 -0.643,0.16 0.038,-1 -0.112,-1.813 -0.642,-2.248 -0.133,1.046 -0.923,1.434 -1.286,2.248 -0.739,-0.171 -0.243,-0.963 -0.161,-1.604 -0.081,-0.368 -0.217,-1.167 0,-1.768 0.31,0.192 0.063,1.363 0.643,0.804 0.136,-0.992 -0.684,-1.029 -1.605,-0.966 -0.056,-0.426 -0.598,-0.366 -0.643,-0.802 -3.941,-0.057 -6.995,0.021 -11.405,0 0.7,-0.995 0.838,-3.381 -1.125,-3.052 0.337,-0.627 0.742,-1.186 1.286,-1.607 -0.066,-1.797 0.188,-3.24 0.105,-5.046 l 0,-10.802 -1.551,0 0,-0.696 36.303,0 0,0.696 -1.802,0 z"
         style="fill:#1e3856;fill-opacity:1;fill-rule:nonzero;stroke:none"
         id="path3733"
         inkscape:connector-curvature="0" />
    </g>
  </g>
</svg>
