<?xml version="1.0" encoding="UTF-8" standalone="no"?>
<!-- Created with Inkscape (http://www.inkscape.org/) -->

<svg
   xmlns:dc="http://purl.org/dc/elements/1.1/"
   xmlns:cc="http://creativecommons.org/ns#"
   xmlns:rdf="http://www.w3.org/1999/02/22-rdf-syntax-ns#"
   xmlns:svg="http://www.w3.org/2000/svg"
   xmlns="http://www.w3.org/2000/svg"
   xmlns:sodipodi="http://sodipodi.sourceforge.net/DTD/sodipodi-0.dtd"
   xmlns:inkscape="http://www.inkscape.org/namespaces/inkscape"
   width="14.566525mm"
   height="11.549595mm"
   viewBox="0 0 51.613673 40.923761"
   id="svg8202"
   version="1.1"
   inkscape:version="0.91 r13725"
   sodipodi:docname="istanbul.svg">
  <defs
     id="defs8204" />
  <sodipodi:namedview
     id="base"
     pagecolor="#ffffff"
     bordercolor="#666666"
     borderopacity="1.0"
     inkscape:pageopacity="0.0"
     inkscape:pageshadow="2"
     inkscape:zoom="0.35"
     inkscape:cx="1237.9497"
     inkscape:cy="-690.96669"
     inkscape:document-units="px"
     inkscape:current-layer="layer1"
     showgrid="false"
     fit-margin-top="0"
     fit-margin-left="0"
     fit-margin-right="0"
     fit-margin-bottom="0"
     inkscape:window-width="1920"
     inkscape:window-height="974"
     inkscape:window-x="0"
     inkscape:window-y="27"
     inkscape:window-maximized="1" />
  <metadata
     id="metadata8207">
    <rdf:RDF>
      <cc:Work
         rdf:about="">
        <dc:format>image/svg+xml</dc:format>
        <dc:type
           rdf:resource="http://purl.org/dc/dcmitype/StillImage" />
        <dc:title></dc:title>
      </cc:Work>
    </rdf:RDF>
  </metadata>
  <g
     inkscape:label="Calque 1"
     inkscape:groupmode="layer"
     id="layer1"
     transform="translate(1354.3783,199.52825)">
    <g
       id="istanbul"
       transform="matrix(1,0,0,-1,-1303.5163,-176.1574)">
      <path
         d="M 0,0 0,0.016 C 0,0.037 -0.006,0.061 -0.009,0.084 -0.006,0.082 -0.002,0.081 0,0.08 L 0,4.514 C 0.058,4.568 0.106,4.635 0.134,4.707 0.168,4.702 0.206,4.698 0.241,4.692 0.535,5.333 0.838,5.959 0.729,7 0.47,7.094 0.147,7.161 -0.202,7.205 l 0,0.003 c -0.002,0.053 -0.007,0.104 -0.015,0.156 l 0.095,0 0,5.949 -0.062,0 c 0.009,0.04 0.013,0.081 0.013,0.121 l 0.049,0 c -0.289,2.942 -0.628,6.229 -0.971,8.741 -0.028,0.095 -0.102,0.142 -0.242,0.121 0.062,-2.341 -0.542,-5.817 -0.827,-8.631 -0.065,-0.096 -0.092,-0.219 -0.05,-0.363 0.007,-0.03 0.016,-0.053 0.026,-0.077 l 0,-5.702 C -2.22,7.48 -2.25,7.428 -2.267,7.364 -2.282,7.307 -2.285,7.242 -2.277,7.183 -2.559,7.138 -2.82,7.078 -3.036,7 -3.074,5.988 -2.823,5.271 -2.429,4.692 -2.409,4.698 -2.39,4.7 -2.373,4.703 -2.352,4.656 -2.321,4.613 -2.284,4.575 -2.291,4.573 -2.298,4.573 -2.307,4.572 l 0,-4.298 C -2.324,0.224 -2.335,0.17 -2.335,0.12 l 0,-0.052 c 0,-0.028 0.004,-0.053 0.008,-0.08 -0.253,-0.039 -0.496,-0.089 -0.709,-0.15 -0.08,-0.932 0.215,-1.486 0.487,-2.066 0.021,-10e-4 0.046,-10e-4 0.07,-0.004 -0.008,-0.11 0.021,-0.223 0.094,-0.324 -0.013,-0.011 -0.03,-0.022 -0.044,-0.036 -0.042,-3.157 0.023,-6.085 0.073,-9.104 -0.186,0.035 -0.387,0.042 -0.602,0.008 -0.084,-0.011 -0.163,-0.031 -0.241,-0.052 -0.092,-0.019 -0.18,-0.036 -0.271,-0.058 -0.054,0.021 -0.107,0.044 -0.17,0.059 -0.049,0.012 -0.096,0.02 -0.143,0.029 -0.23,1.266 -2.006,0.984 -2.286,2.2 0.018,-0.221 -0.047,-0.392 -0.16,-0.536 -0.204,0.105 -0.423,0.169 -0.651,0.178 0.03,0.134 0.079,0.278 -0.16,0.358 0.027,-0.141 0.021,-0.257 0.001,-0.36 -0.223,-0.017 -0.444,-0.082 -0.654,-0.207 -0.016,-0.009 -0.03,-0.018 -0.045,-0.025 0.015,0.213 -0.054,0.469 -0.151,0.469 -0.122,-0.123 -0.134,-0.352 -0.127,-0.604 -0.177,-0.079 -0.348,-0.149 -0.514,-0.272 -0.235,-0.043 -0.404,-0.148 -0.441,-0.388 -0.021,-0.025 -0.046,-0.042 -0.066,-0.068 -0.108,0.215 -0.177,0.384 -0.188,0.362 -0.006,-10e-4 -0.017,-10e-4 -0.023,-0.005 -0.031,0.088 -0.07,0.171 -0.117,0.251 -0.219,1.35 -0.046,3.095 -0.104,4.61 l -0.111,0 c 0.042,0.033 0.079,0.074 0.106,0.12 l 0.249,0 c 0.066,0.462 0.294,0.761 0.242,1.336 -0.167,0.022 -0.324,0.039 -0.479,0.054 0.009,0.061 0.006,0.129 -0.017,0.189 l 0.01,0 0,2.672 c 0.054,0.068 0.085,0.154 0.096,0.242 l 0.148,0 c 0.055,0.431 0.27,0.701 0.242,1.214 -0.134,0.061 -0.296,0.093 -0.472,0.113 0.002,0.043 0,0.087 -0.014,0.13 l 0,2.666 c 0.057,0.073 0.086,0.157 0.096,0.246 l 0.027,0 c 0.149,0.458 0.407,0.808 0.363,1.457 -0.175,0.052 -0.355,0.094 -0.537,0.126 0.004,0.051 0.004,0.103 -0.006,0.156 -0.012,0.054 -0.036,0.109 -0.063,0.159 l 0,3.35 c 0.049,0.068 0.08,0.156 0.08,0.263 l 0,0.106 c 0,0.134 -0.051,0.239 -0.123,0.314 -0.238,1.978 -0.317,4.55 -0.686,5.968 -0.003,-2.179 -0.339,-4.022 -0.568,-5.975 -0.083,-0.161 -0.122,-0.353 -0.126,-0.515 -0.004,-0.101 0.03,-0.193 0.089,-0.272 l 0,-3.315 0.027,0 c 0.001,-0.025 -0.002,-0.046 0.004,-0.072 0.012,-0.051 0.032,-0.101 0.058,-0.144 -0.195,-0.032 -0.39,-0.079 -0.577,-0.149 -0.058,-0.665 0.086,-1.129 0.364,-1.457 l 0.098,0 c 0.007,-0.041 0.015,-0.082 0.03,-0.12 l -0.004,0 0,-2.56 c 0,0 -0.005,-0.001 -0.005,-0.003 -0.004,-0.004 -0.01,-0.01 -0.013,-0.015 -0.075,-0.073 -0.123,-0.177 -0.123,-0.313 l 0,-0.036 c -0.119,0 -0.235,0.003 -0.347,0.014 -0.049,-0.577 0.06,-0.993 0.243,-1.336 l 0.227,0 c 0.003,-0.042 0.012,-0.084 0.027,-0.121 l -0.009,0 c -0.062,-0.772 0.086,-1.751 -0.036,-2.458 -0.09,-0.058 -0.161,-0.137 -0.194,-0.253 -0.027,-0.097 -0.016,-0.199 0.02,-0.292 -0.091,-0.009 -0.182,-0.02 -0.278,-0.033 -0.087,-0.613 0.167,-0.886 0.243,-1.336 l 0.092,0 c 0.019,-0.044 0.047,-0.084 0.08,-0.12 l -0.051,0 c -0.024,-0.683 -0.013,-1.545 0.02,-2.274 -0.049,0.034 -0.099,0.056 -0.15,0.086 0.023,0.345 0.088,0.73 -0.113,0.852 -0.237,-0.271 -0.326,-0.472 -0.394,-0.674 -0.105,0.016 -0.212,0.019 -0.318,0.011 -0.102,0.074 -0.217,0.125 -0.334,0.136 -0.05,0.137 -0.116,0.27 -0.193,0.393 0.217,1.061 -0.273,2.062 -0.096,3.533 l -0.084,0 c 0.01,0.04 0.014,0.08 0.014,0.121 l 0.191,0 c 0.135,0.23 0.155,0.575 0.244,0.85 -0.151,0.004 -0.272,0.009 -0.383,0.013 0.016,0.031 0.026,0.062 0.035,0.096 l 0,0.002 c 0.009,0.034 0.014,0.067 0.014,0.101 l 0,10e-4 c 0.004,0.07 -0.006,0.139 -0.031,0.204 l 0,1.891 c -0.045,0.013 -0.083,0.018 -0.124,0.029 -0.002,0.03 -0.005,0.062 -0.011,0.092 l 0.256,0 c 0.021,0.345 0.224,0.506 0.244,0.849 -0.074,0.111 -0.235,0.181 -0.434,0.223 0.009,0.049 0.006,0.094 -0.003,0.143 l 0.072,0 c -0.27,0.693 -0.056,1.683 0,2.427 l -0.063,0 c 0.005,0.028 0.009,0.056 0.009,0.088 l 0,0.052 c 0,0.11 -0.032,0.202 -0.085,0.271 -0.09,1.382 -0.259,3.147 -0.468,3.959 0.037,-1.525 -0.257,-2.717 -0.361,-4.099 -0.01,-0.041 -0.019,-0.083 -0.019,-0.131 l 0,-0.052 c 0,-0.045 0.008,-0.084 0.016,-0.122 l 0,-2.303 c -0.041,-0.073 -0.065,-0.153 -0.063,-0.237 -0.12,-0.025 -0.222,-0.055 -0.3,-0.097 -0.093,-0.458 0.146,-0.58 0.122,-0.971 l 0.204,0 c -0.024,-0.105 -0.016,-0.214 0.025,-0.313 -0.194,-0.337 -0.126,-0.936 -0.111,-1.484 -0.158,-0.158 -0.177,-0.433 -0.057,-0.621 -0.057,-0.002 -0.116,-0.006 -0.183,-0.011 -0.07,-0.393 0.084,-0.565 0.122,-0.85 l 0.241,0 c -10e-4,-0.041 0.004,-0.081 0.014,-0.121 l -0.137,0 c -0.016,-0.939 0.107,-2.018 -0.198,-2.667 -0.055,0.008 -0.106,0.015 -0.163,0.021 -0.165,0.017 -0.447,-0.046 -0.68,-0.13 -0.016,0.002 -0.033,0.002 -0.048,0.005 l 0,0.708 c -0.385,0.064 -0.707,0.192 -1.118,0.231 -0.005,0.037 -0.009,0.078 -0.019,0.115 0.087,0.005 0.154,0.041 0.166,0.139 -0.14,0.039 -0.318,0.267 -0.472,0.377 -0.108,0.107 -0.238,0.197 -0.378,0.272 l 0,0.079 c -0.361,0.106 -0.666,0.267 -1.011,0.387 -0.112,0.15 -0.248,0.264 -0.4,0.345 0.034,0.346 -0.059,0.712 -0.24,1.026 0.068,0.018 0.135,0.038 0.193,0.063 -0.294,0.609 -1.269,1.092 -1.335,1.685 l 0,-0.59 c -0.226,-0.058 -0.404,-0.162 -0.556,-0.295 -0.016,0.025 -0.042,0.057 -0.071,0.094 0.097,0.147 0.132,0.265 0.02,0.32 -0.099,0.019 -0.203,0.036 -0.305,0.054 -0.025,0.031 -0.051,0.064 -0.073,0.092 -0.067,0.155 -0.16,0.299 -0.268,0.424 -0.559,1.268 -2.081,1.991 -3.711,2.143 -0.041,0.06 -0.067,0.123 -0.08,0.201 l 0.069,0 c -0.033,0.029 -0.059,0.064 -0.087,0.098 -0.017,0.094 -0.067,0.163 -0.135,0.204 -0.394,0.772 -0.068,2.067 -0.507,2.613 0.03,-1.433 0.023,-2.083 -0.486,-2.915 l 0.047,0 c -0.04,-0.028 -0.077,-0.06 -0.114,-0.089 -0.049,-0.036 -0.076,-0.077 -0.093,-0.119 -1.526,-0.163 -2.927,-0.839 -3.488,-2.051 -0.176,-0.171 -0.301,-0.387 -0.375,-0.625 -0.092,-0.019 -0.18,-0.044 -0.269,-0.067 -0.178,0.025 -0.35,0.02 -0.512,-0.011 -0.177,0.223 -0.3,0.443 -0.294,0.656 l 0,-0.749 c -0.076,-0.031 -0.147,-0.069 -0.216,-0.112 -0.387,-0.048 -0.58,-0.286 -0.73,-0.568 -0.195,-0.148 -0.351,-0.349 -0.434,-0.615 -0.234,-0.271 -0.378,-0.621 -0.378,-1 l 0,-0.082 c -0.303,-0.084 -0.584,-0.252 -0.816,-0.547 -0.239,-0.147 -0.452,-0.32 -0.649,-0.509 -0.306,-0.109 -0.588,-0.304 -0.801,-0.552 -0.225,-0.053 -0.427,-0.128 -0.589,-0.244 0.239,-0.091 0.181,-0.897 -0.122,-0.851 -1.219,0.116 -0.942,1.729 -0.969,3.036 l -0.025,0 c 0.007,0.037 0.015,0.073 0.015,0.115 l 0,0.006 0.253,0 c -0.06,0.385 0.216,0.429 0.12,0.85 l -0.422,0 c 0.028,0.079 0.036,0.165 0.027,0.25 0.068,0.021 0.124,0.054 0.152,0.114 -0.28,0.408 -0.04,1.333 -0.12,1.944 l -0.031,0 c 0.003,0.039 0.003,0.08 0,0.119 l 0,0.002 0.151,0 c 0.14,0.266 0.313,0.496 0.243,0.971 -0.121,0.059 -0.256,0.099 -0.392,0.126 0.006,0.039 0.011,0.078 0.01,0.118 l 0.019,0 0,2.427 c -0.004,-0.002 -0.009,-0.002 -0.017,-0.004 10e-4,0.015 0.007,0.028 0.007,0.041 l 0,0.051 c 0,0.055 -0.013,0.104 -0.026,0.15 0.011,10e-4 0.027,10e-4 0.036,0.006 -0.233,1.223 -0.282,3.275 -0.486,4.126 0.071,-1.139 -0.457,-2.617 -0.294,-3.934 -0.098,-0.074 -0.163,-0.189 -0.163,-0.348 l 0,-0.051 c 0,-0.037 0.003,-0.071 0.008,-0.103 -0.014,-0.018 -0.029,-0.033 -0.037,-0.057 0.031,-0.496 0.032,-1.651 0.001,-2.261 -0.019,-0.077 -0.019,-0.155 -0.003,-0.233 -0.378,-0.164 -0.545,-0.512 -0.118,-1.025 l 0.169,0 0,-0.002 c -0.005,-0.039 -0.005,-0.08 0,-0.119 l -0.049,0 0,-2.065 c 0.015,0.002 0.034,0.002 0.049,0.005 -0.01,-0.084 0,-0.17 0.028,-0.248 l -0.441,0 c -0.012,-0.375 0.149,-0.58 0.244,-0.85 l 0.149,0 0,-0.006 c 0,-0.042 0.005,-0.078 0.012,-0.115 l -0.041,0 c -0.037,-0.974 0.187,-2.209 -0.364,-2.67 0.1,-0.148 0.161,-0.334 0.222,-0.518 -0.415,-0.252 -0.701,-0.689 -0.746,-1.191 -0.025,0 -0.053,0.002 -0.081,0.009 0.243,0.333 -0.275,0.715 -0.487,0.971 l 0,-0.996 c -0.053,-0.01 -0.103,-0.025 -0.155,-0.04 0.032,0.715 -0.114,1.656 0.034,2.372 l -0.118,0 c 0.015,0.038 0.028,0.08 0.036,0.12 l 0.203,0 c 0.148,0.378 0.283,0.77 0.242,1.336 -0.191,0.029 -0.367,0.048 -0.534,0.059 0.003,0.062 0.005,0.124 0.005,0.184 l 0.045,0 0,2.607 c 0.05,0.098 0.088,0.201 0.125,0.307 l 0.117,0 c 0.184,0.343 0.293,0.759 0.242,1.336 -0.159,0.014 -0.326,0.027 -0.495,0.036 10e-4,0.029 0,0.056 -10e-4,0.085 l 0.012,0 0,2.792 -0.037,0 c 0.01,0.035 0.017,0.072 0.027,0.106 0,0.003 0.004,0.008 0.005,0.014 l 0.126,0 c 0.2,0.407 0.429,0.787 0.363,1.457 -0.155,0.047 -0.315,0.081 -0.474,0.107 0.005,0.186 0.036,0.368 -0.01,0.551 l 0,3.035 c 0.097,0.175 0.103,0.393 -0.077,0.537 -0.016,0.012 -0.033,0.023 -0.048,0.035 0.006,1.76 -0.574,3.868 -0.484,6.055 0,0.124 -0.212,0.154 -0.242,0 0.121,-1.75 -0.298,-3.871 -0.454,-5.793 -0.03,-0.039 -0.055,-0.084 -0.069,-0.141 -0.04,-0.138 -0.004,-0.268 0.069,-0.379 l -0.032,0 0,-3.642 0.049,0 0,-0.237 c -0.22,-0.027 -0.439,-0.069 -0.656,-0.128 -0.018,-0.625 0.156,-1.058 0.365,-1.457 l 0.084,0 c 0.008,-0.014 0.016,-0.032 0.024,-0.047 0.009,-0.026 0.02,-0.05 0.032,-0.073 l -0.019,0 0,-2.792 0.058,0 c -0.003,-0.056 -0.002,-0.114 0,-0.17 -0.555,-0.151 -0.815,-0.51 -0.3,-1.287 l 0.099,0 c -0.013,-0.122 0.01,-0.249 0.058,-0.364 0.007,-0.029 0.008,-0.072 0.007,-0.123 -0.096,-0.176 -0.062,-0.353 0.033,-0.487 0.006,-0.025 0.014,-0.05 0.02,-0.075 -0.032,-0.495 0.032,-1.086 0.029,-1.609 -0.004,-0.01 -0.013,-0.019 -0.017,-0.03 -0.009,-0.031 -0.02,-0.061 -0.028,-0.09 -0.013,-0.049 -0.032,-0.085 -0.03,-0.085 -0.002,-0.005 -0.005,-0.01 -0.007,-0.013 -0.042,-0.082 -0.057,-0.168 -0.056,-0.252 -0.112,-0.009 -0.229,-0.019 -0.352,-0.029 -0.087,-0.613 0.165,-0.886 0.244,-1.336 l 0.224,0 c 0.011,-0.042 0.03,-0.082 0.046,-0.12 l -0.028,0 c 0.03,-1.344 -0.028,-3.094 -0.014,-4.274 -0.043,-0.087 -0.082,-0.177 -0.111,-0.27 -0.009,-0.031 -0.014,-0.062 -0.021,-0.095 -0.22,-0.025 -0.434,-0.093 -0.625,-0.195 -0.155,0.096 -0.312,0.18 -0.41,0.038 -0.308,0.176 -0.671,0.282 -1.038,0.315 -0.208,0.141 -0.376,0.323 -0.452,0.595 0.078,-0.342 0.083,-0.256 0.018,-0.527 -0.195,0.05 -0.383,0.072 -0.566,0.067 -0.144,0.152 -0.255,0.336 -0.301,0.583 -0.04,-0.386 -0.231,-0.622 -0.48,-0.799 -0.039,-0.023 -0.074,-0.048 -0.113,-0.074 -0.595,-0.356 -1.433,-0.47 -1.57,-1.283 -0.069,-0.068 -0.131,-0.141 -0.187,-0.217 -0.118,-0.004 -0.236,-0.007 -0.355,-0.01 -0.218,-0.003 -0.413,-0.045 -0.583,-0.115 -0.118,-0.001 -0.236,-0.016 -0.355,-0.045 l 0,9.583 c -0.037,0.01 -0.077,0.02 -0.122,0.032 0.008,0.07 0.018,0.138 0.026,0.206 0.138,0.003 0.256,0.003 0.338,0.004 0.254,0.599 0.531,1.172 0.487,2.066 -0.212,0.067 -0.447,0.114 -0.69,0.153 -0.004,0.135 -0.017,0.265 -0.039,0.392 l 0,4.189 c -0.035,0.004 -0.068,0.007 -0.102,0.012 0.038,0.041 0.069,0.086 0.091,0.134 0.045,-0.009 0.088,-0.015 0.133,-0.026 0.334,0.596 0.646,1.216 0.607,2.185 -0.212,0.142 -0.506,0.243 -0.845,0.307 -0.024,0.065 -0.06,0.127 -0.109,0.18 l 0.103,0 0,5.949 -0.034,0 c -0.003,0.04 -0.012,0.082 -0.022,0.121 l 0.056,0 c -0.401,3.377 -0.961,7.083 -0.97,9.833 0.185,0.048 0.018,0.146 -0.121,0 -0.002,0.122 -0.213,0.154 -0.244,0 0.383,-2.498 -0.557,-6.356 -0.725,-9.751 -0.057,-0.025 -0.101,-0.077 -0.101,-0.144 l 0,-0.052 c 0,-0.056 0.033,-0.105 0.08,-0.132 -0.231,-1.596 -0.049,-4.038 -0.092,-5.536 -0.098,-0.133 -0.097,-0.329 -0.025,-0.494 -0.332,-0.064 -0.623,-0.16 -0.836,-0.281 -0.022,-0.95 0.341,-1.519 0.606,-2.185 0.042,0.007 0.084,0.011 0.125,0.017 0.025,-0.063 0.063,-0.124 0.119,-0.182 l 0,-4.253 c -0.051,-0.09 -0.067,-0.182 -0.075,-0.29 -0.274,-0.039 -0.538,-0.087 -0.775,-0.146 -0.02,-0.869 0.285,-1.416 0.486,-2.066 0.047,0 0.112,-10e-4 0.18,-10e-4 l 0,-0.145 c 0,-0.094 0.026,-0.171 0.063,-0.236 l 0,-14.547 c 0.784,-0.069 1.84,0.139 2.427,-0.123 l 0,0.107 c 0.118,-0.028 0.237,-0.053 0.361,-0.075 10e-4,-0.01 0.002,-0.022 0.005,-0.032 0.005,0.011 0.02,0.018 0.028,0.027 1.477,-0.243 3.313,-0.031 4.443,-0.031 2.297,0 4.67,0.107 6.964,-0.155 2.546,-0.292 5.286,0.055 7.841,0.179 0.218,0.01 0.439,0.026 0.659,0.043 0.032,-0.018 0.066,-0.036 0.093,-0.063 l 0,0.071 c 0.164,0.013 0.329,0.027 0.494,0.041 0.758,-0.008 2.186,-0.009 3.147,-0.002 0.788,-0.145 1.637,-0.06 2.483,-0.068 0.222,-0.002 0.442,0 0.664,0.004 0.004,-0.016 0.005,-0.032 0.009,-0.046 0.612,-0.006 1.109,0.004 1.383,0.094 0.308,0.015 0.612,0.032 0.922,0.045 0,-0.005 0,-0.011 0.001,-0.016 0.168,-0.164 0.794,-0.082 1.199,-0.095 1.592,-0.373 3.736,0.061 5.11,-0.032 1.186,-0.08 2.347,-0.052 3.535,-0.052 0.737,0 1.505,0.086 2.266,0.126 0.327,-0.153 0.927,-0.03 1.364,-0.07 0.001,0.015 0.003,0.03 0.005,0.048 0.3,-0.029 0.597,-0.073 0.887,-0.153 0.435,-0.119 0.813,-0.06 1.117,0.109 0.068,0.011 0.136,0.022 0.205,0.036 0.008,10e-4 0.019,0.002 0.029,0.002 0.014,0.003 0.031,0.007 0.048,0.009 0.049,0.01 0.09,0.027 0.136,0.041 l 0,-0.092 c 1.034,0.071 1.668,-0.071 2.429,0.123 l 0,14.506 c 0.105,0.111 0.141,0.277 0.113,0.428 0.042,-0.002 0.087,-0.002 0.13,-0.005 0.246,0.563 0.425,1.194 0.364,2.066 C 0.51,-0.092 0.262,-0.041 0,0"
         style="fill:#1e3856;fill-opacity:1;fill-rule:nonzero;stroke:none"
         id="path3727"
         inkscape:connector-curvature="0" />
    </g>
  </g>
</svg>
