<?xml version="1.0" encoding="UTF-8" standalone="no"?>
<!-- Created with Inkscape (http://www.inkscape.org/) -->

<svg
   xmlns:dc="http://purl.org/dc/elements/1.1/"
   xmlns:cc="http://creativecommons.org/ns#"
   xmlns:rdf="http://www.w3.org/1999/02/22-rdf-syntax-ns#"
   xmlns:svg="http://www.w3.org/2000/svg"
   xmlns="http://www.w3.org/2000/svg"
   xmlns:sodipodi="http://sodipodi.sourceforge.net/DTD/sodipodi-0.dtd"
   xmlns:inkscape="http://www.inkscape.org/namespaces/inkscape"
   width="22.295414mm"
   height="7.8058982mm"
   viewBox="0 0 78.999498 27.658694"
   id="svg8157"
   version="1.1"
   inkscape:version="0.91 r13725"
   sodipodi:docname="london.svg">
  <defs
     id="defs8159" />
  <sodipodi:namedview
     id="base"
     pagecolor="#ffffff"
     bordercolor="#666666"
     borderopacity="1.0"
     inkscape:pageopacity="0.0"
     inkscape:pageshadow="2"
     inkscape:zoom="0.35"
     inkscape:cx="-776.92882"
     inkscape:cy="-280.45637"
     inkscape:document-units="px"
     inkscape:current-layer="layer1"
     showgrid="false"
     fit-margin-top="0"
     fit-margin-left="0"
     fit-margin-right="0"
     fit-margin-bottom="0"
     inkscape:window-width="1920"
     inkscape:window-height="974"
     inkscape:window-x="0"
     inkscape:window-y="27"
     inkscape:window-maximized="1" />
  <metadata
     id="metadata8162">
    <rdf:RDF>
      <cc:Work
         rdf:about="">
        <dc:format>image/svg+xml</dc:format>
        <dc:type
           rdf:resource="http://purl.org/dc/dcmitype/StillImage" />
        <dc:title></dc:title>
      </cc:Work>
    </rdf:RDF>
  </metadata>
  <g
     inkscape:label="Calque 1"
     inkscape:groupmode="layer"
     id="layer1"
     transform="translate(-660.50025,-224.24714)">
    <g
       id="london"
       transform="matrix(1,0,0,-1,718.52575,246.85714)">
      <path
         d="M 0,0 0,3.436 C 0.012,3.479 0.027,3.519 0.033,3.566 0.122,4.381 0.122,5.285 0.112,6.104 0.108,6.413 0.063,6.699 -0.03,6.964 -0.056,8.198 -0.056,9.352 0.162,10.649 3.082,9.359 1.625,3.699 1.968,-0.164 1.359,-0.059 0.332,-0.375 0,0 M 1.968,9.338 C 1.444,9.584 1.314,10.218 0.819,10.484 1.029,10.577 1.924,9.955 1.968,9.338 M 2.294,8.355 C 2.874,7.79 3.604,7.373 4.097,6.716 l 0,-6.88 -1.803,0 0,8.519 z M 4.262,6.553 C 4.902,6.102 5.576,5.684 6.063,5.08 l 0,-5.244 -1.801,0 0,6.717 z M 6.39,4.916 C 7.013,4.498 7.616,4.064 8.194,3.604 l 0,-3.768 -1.804,0 0,5.08 z M 7.702,4.588 C 7.458,4.249 6.964,5.044 6.554,5.08 7.009,5.628 7.319,4.654 7.702,4.588 M 8.356,3.604 C 8.965,3.174 9.602,2.775 10.32,2.457 l 0,-2.621 -1.964,0 0,3.768 z M 9.829,3.276 C 9.501,2.804 9.224,3.75 8.684,3.604 9.079,4.145 9.555,3.396 9.829,3.276 M 8.356,4.916 C 8.778,4.899 8.591,4.274 9.012,4.258 8.961,4.037 8.603,4.123 8.356,4.094 l 0,0.822 z m 2.13,-2.622 C 11.051,1.984 11.75,1.81 12.288,1.474 12.25,1.057 12.128,0.159 12.288,0 12.009,-0.374 11.039,-0.061 10.486,-0.164 l 0,2.458 z m 1.966,0.328 C 12.785,2.575 12.773,2.177 13.109,2.13 13.07,1.894 12.618,2.072 12.616,1.801 12.259,1.775 12.541,2.384 12.452,2.622 m 1.802,-2.786 -1.802,0 0,1.638 C 13.024,1.225 13.47,0.852 14.254,0.819 l 0,-0.983 z m 0.328,0.82 c 0.515,-0.195 1.235,-0.185 1.639,-0.492 0.024,-0.678 -1.138,-0.171 -1.639,-0.328 l 0,0.82 z M 16.876,0.164 C 17.221,0.245 17.308,0.036 17.531,0 19.495,-0.31 17.197,-0.359 16.55,0.164 l 0.326,0 z m 2.947,0.163 c -0.469,0.02 -1.072,-0.088 -1.307,0.163 0.079,0.227 1.476,0.399 1.307,-0.163 m -25.557,3.767 0,-4.258 C -14.185,0.309 -23.106,-0.056 -31.293,0 l 0,3.81 c 0.083,0.892 0.166,1.794 -0.031,2.636 0,2.025 0.174,4.125 0.357,5.349 l 25.068,0 C -5.748,9.026 -5.602,7.759 -5.734,5.08 l 0.037,0 C -5.703,4.922 -5.701,4.762 -5.691,4.603 -5.707,4.597 -5.721,4.593 -5.734,4.588 l 0,-0.33 c 0.019,0.003 0.037,0.003 0.059,0.005 0.002,-0.043 0.004,-0.088 0.004,-0.127 0,-0.016 0.008,-0.025 0.01,-0.042 l -0.073,0 z m -1.311,-6.389 c -0.463,-0.134 -0.426,0.232 -0.821,0.164 0.11,0.381 0.546,0.44 0.657,0.82 0.362,-0.019 0.069,-0.696 0.164,-0.984 m -0.985,0.656 c -0.244,0.142 0.047,0.244 -0.165,0.655 0.192,0.139 0.439,0.216 0.821,0.165 -0.11,-0.381 -0.544,-0.44 -0.656,-0.82 m -1.145,-0.164 c -0.052,0.378 0.473,0.182 0.491,0.492 0.222,-0.051 0.136,-0.41 0.163,-0.655 -0.292,-0.021 -0.347,0.2 -0.654,0.163 m -0.164,0.328 c -0.356,-0.028 -0.073,0.581 -0.165,0.821 0.397,0.065 0.355,-0.3 0.82,-0.165 -0.148,-0.289 -0.604,-0.272 -0.655,-0.656 m -17.694,-0.164 0,0.655 c 0.19,-0.245 0.679,-0.195 0.655,-0.655 l -0.655,0 z m -0.327,0.164 c -0.342,0.096 -0.531,0.345 -0.822,0.491 0.139,0.245 0.412,0.353 0.822,0.33 l 0,-0.821 z m -1.148,-0.491 0,0.655 c 0.646,0.03 0.904,-0.802 0,-0.655 m -0.329,0.327 c -0.38,0.111 -0.437,0.544 -0.819,0.655 -0.028,0.356 0.58,0.074 0.819,0.165 l 0,-0.82 z m -1.145,-0.656 c 0.368,0.355 -0.137,0.56 0,1.148 0.429,-0.169 0.549,-0.651 0.981,-0.819 -0.2,-0.235 -0.562,-0.31 -0.981,-0.329 m -7.046,2.131 c -0.606,0.105 -1.632,-0.211 -1.968,0.164 0.21,3.691 -0.853,9.486 1.642,10.417 -0.059,-0.654 0.013,-1.275 0.257,-1.703 0.021,-0.031 0.041,-0.057 0.064,-0.082 0.002,-0.082 0.003,-0.164 0.009,-0.246 -0.032,-0.3 -0.033,-0.598 0.01,-0.892 0,-0.009 0.002,-0.022 0,-0.029 0,-0.025 0.012,-0.043 0.013,-0.067 l 0,-0.002 c -0.042,-0.382 -0.001,-0.891 0.047,-1.378 -0.032,-0.376 -0.06,-0.753 -0.083,-1.127 -0.052,-0.122 -0.054,-0.229 -0.019,-0.32 -0.015,-0.226 -0.025,-0.452 -0.041,-0.677 -0.005,-0.107 0.021,-0.193 0.054,-0.268 -0.033,-1.642 0.212,-3.203 0.015,-3.79 m -2.131,0 -1.802,0 c 0.148,3.292 -0.745,7.626 1.639,8.685 0.38,-2.568 0.054,-5.844 0.163,-8.685 m -2.129,0 -1.804,0 c -0.01,2.796 -0.455,6.027 1.638,6.717 0.382,-1.911 0.055,-4.532 0.166,-6.717 m -1.967,0 -1.802,0 c -0.157,2.393 -0.158,4.636 1.638,5.08 0.38,-1.367 0.055,-3.442 0.164,-5.08 m -2.132,0 -1.8,0 0,2.621 c 0.395,0.424 1.178,0.459 1.474,0.983 0.742,-0.57 0.127,-2.494 0.326,-3.604 m -1.8,4.096 0.493,0 c 0.12,-0.504 -0.451,-0.315 -0.329,-0.821 -0.354,-0.025 -0.075,0.582 -0.164,0.821 m -1.966,-4.096 0,1.802 c 0.673,0.037 1.074,0.347 1.475,0.656 0.615,0.061 -0.245,-1.875 0.326,-2.294 -0.278,-0.374 -1.25,-0.061 -1.801,-0.164 M -49.317,0 c -0.333,-0.375 -1.362,-0.059 -1.966,-0.164 l 0,0.983 c 0.857,-0.038 1.066,0.572 1.966,0.491 -0.172,-0.17 -0.338,-1.169 0,-1.31 m -2.131,-0.164 c -0.549,0.103 -1.521,-0.21 -1.799,0.164 0.223,0.597 1.19,0.445 1.799,0.656 l 0,-0.82 z m -3.766,0 c -0.241,0.041 1.772,0.753 1.803,0 l -1.803,0 z m 5.569,2.786 c 0.356,0.026 0.075,-0.583 0.165,-0.821 -0.133,0.088 -0.266,0.171 -0.492,0.165 -0.118,0.447 0.325,0.329 0.327,0.656 m 3.932,1.147 c -0.13,-0.415 -0.674,-0.419 -0.981,-0.658 -0.402,-0.344 0.243,0.173 0.162,0.493 0.19,0.137 0.439,0.217 0.819,0.165 m 0.165,0.982 c 0.221,-0.05 0.135,-0.41 0.161,-0.657 l -0.654,0 c 0.047,0.336 0.445,0.323 0.493,0.657 m 0.491,0.491 c 0.145,-0.098 0.292,-0.197 0.329,0 0.443,-0.148 -0.168,-0.573 -0.166,-0.818 -0.356,-0.027 -0.074,0.582 -0.163,0.818 m 1.474,0 c -0.074,-0.471 -0.706,-0.387 -0.819,-0.818 -0.252,0.156 0.214,0.979 0.819,0.818 m 5.735,5.242 c -0.227,-0.483 -0.756,-0.664 -0.983,-1.146 -0.32,0.385 0.5,1.023 0.983,1.146 M -56.852,0.327 c 0.036,0.51 0.815,0.276 1.31,0.329 0.101,-0.647 -0.899,-0.194 -1.31,-0.329 m 77.826,-1.311 0,1.966 C 11.314,1.921 5.69,6.894 0.162,11.959 l 0,1.729 c 0.006,0.013 0.012,0.024 0.016,0.037 0.036,0.283 0.036,0.54 -0.004,0.79 0.004,0.043 0.004,0.085 0.004,0.129 0.036,0.119 0.071,0.233 0.077,0.297 0.024,0.159 -0.01,0.29 -0.073,0.402 -0.062,1.665 -0.584,3.043 -0.837,3.99 -0.183,-0.524 -0.157,-1.383 -0.493,-2.129 0.227,0.807 -0.492,0.769 -0.654,0.327 -0.389,1.75 -0.944,3.612 -1.147,5.079 0.126,-1.681 -0.594,-3.571 -1.149,-5.079 -0.046,0.8 -0.597,0.034 -0.653,-0.164 -0.014,0.698 -0.275,1.147 -0.164,1.966 -0.578,-1.247 -0.998,-2.648 -0.996,-4.476 -0.11,-0.229 -0.182,-0.467 -0.228,-0.743 -0.039,-0.262 0.077,-0.481 0.252,-0.61 -0.016,-0.066 -0.065,-0.099 -0.176,-0.07 -1.352,0.077 -2.926,0.043 -4.511,0.004 l -0.002,0 c -1.754,-0.042 -3.514,-0.089 -5,0 l -4.238,0 c -0.004,-0.001 -0.008,-0.001 -0.012,-0.004 -2.995,-0.391 -7.797,0.279 -11.168,0.01 0,0.035 0,0.069 -0.01,0.102 -0.042,0.19 -0.093,0.38 -0.152,0.567 -0.004,0.042 -0.01,0.088 -0.018,0.14 l 0.041,0 c 0.2,2.159 -0.43,4.011 -0.817,5.08 -0.166,-0.325 0.129,-1.228 -0.326,-1.638 0.025,0.356 -0.584,0.073 -0.821,0.164 -0.492,1.472 -0.64,3.29 -1.147,4.751 0.129,-2.04 -0.459,-3.362 -0.982,-4.751 -0.38,0.051 -0.629,-0.027 -0.82,-0.164 -0.177,0.534 0.087,1.508 -0.492,1.638 0.094,-1.858 -0.839,-2.692 -0.675,-4.621 -0.05,-0.151 -0.042,-0.322 0.035,-0.475 0.022,-0.05 0.045,-0.098 0.065,-0.147 l -0.08,0 0,-2.295 C -42.797,6.913 -48.24,1.872 -57.835,0.982 c -0.254,-0.375 -0.254,-1.59 0,-1.966 6.498,-0.109 13.433,0.218 19.659,-0.163 l 0,-2.382 c -0.076,-0.236 -0.015,-0.527 0.115,-0.718 0.004,-0.003 0.007,-0.006 0.011,-0.01 -0.094,-0.17 -0.141,-0.381 -0.126,-0.658 l 8.194,0 c -0.016,0.159 -0.048,0.298 -0.093,0.428 0.083,0.094 0.137,0.213 0.148,0.34 0.02,0.272 0.008,0.388 -0.061,0.597 -0.004,0.317 0.008,0.614 0.17,0.765 6.9,2.328 16.197,2.331 22.935,-0.164 l 0,-0.972 c -0.002,-0.006 -0.008,-0.011 -0.008,-0.015 -0.129,-0.232 -0.09,-0.457 0.034,-0.619 -0.01,-0.065 -0.026,-0.123 -0.026,-0.197 2.074,-0.331 4.674,-0.133 7.069,-0.141 0.178,-0.196 0.46,-0.194 0.681,-0.066 0.089,-0.005 0.174,0.015 0.259,0.047 0.06,-0.001 0.125,-0.001 0.185,-0.003 -0.004,0.034 -0.021,0.061 -0.025,0.093 0.173,0.132 0.277,0.343 0.189,0.586 -0.056,0.148 -0.112,0.291 -0.164,0.435 l 0,2.817 19.663,0 z"
         style="fill:#ed1c24;fill-opacity:1;fill-rule:nonzero;stroke:none"
         id="path3730"
         inkscape:connector-curvature="0" />
    </g>
  </g>
</svg>
