<?xml version="1.0" encoding="UTF-8" standalone="no"?>
<!-- Created with Inkscape (http://www.inkscape.org/) -->

<svg
   xmlns:dc="http://purl.org/dc/elements/1.1/"
   xmlns:cc="http://creativecommons.org/ns#"
   xmlns:rdf="http://www.w3.org/1999/02/22-rdf-syntax-ns#"
   xmlns:svg="http://www.w3.org/2000/svg"
   xmlns="http://www.w3.org/2000/svg"
   xmlns:sodipodi="http://sodipodi.sourceforge.net/DTD/sodipodi-0.dtd"
   xmlns:inkscape="http://www.inkscape.org/namespaces/inkscape"
   width="12.970369mm"
   height="8.342207mm"
   viewBox="0 0 45.958002 29.559001"
   id="svg7977"
   version="1.1"
   inkscape:version="0.91 r13725"
   sodipodi:docname="marid.svg">
  <defs
     id="defs7979" />
  <sodipodi:namedview
     id="base"
     pagecolor="#ffffff"
     bordercolor="#666666"
     borderopacity="1.0"
     inkscape:pageopacity="0.0"
     inkscape:pageshadow="2"
     inkscape:zoom="0.35"
     inkscape:cx="-287.73528"
     inkscape:cy="-145.2205"
     inkscape:document-units="px"
     inkscape:current-layer="layer1"
     showgrid="false"
     fit-margin-top="0"
     fit-margin-left="0"
     fit-margin-right="0"
     fit-margin-bottom="0"
     inkscape:window-width="1920"
     inkscape:window-height="974"
     inkscape:window-x="0"
     inkscape:window-y="27"
     inkscape:window-maximized="1" />
  <metadata
     id="metadata7982">
    <rdf:RDF>
      <cc:Work
         rdf:about="">
        <dc:format>image/svg+xml</dc:format>
        <dc:type
           rdf:resource="http://purl.org/dc/dcmitype/StillImage" />
        <dc:title></dc:title>
      </cc:Work>
    </rdf:RDF>
  </metadata>
  <g
     inkscape:label="Calque 1"
     inkscape:groupmode="layer"
     id="layer1"
     transform="translate(-171.30671,-357.5827)">
    <g
       id="madrid"
       transform="matrix(1,0,0,-1,195.75671,360.8767)">
      <path
         d="M 0,0 C -0.001,0.015 -0.005,0.029 -0.009,0.044 0.015,0.04 0.039,0.037 0.061,0.032 0.042,0.021 0.019,0.013 0,0 M -2.898,1.227 C -3.044,1.312 -3.109,1.476 -3.095,1.721 -2.88,1.705 -2.884,1.471 -2.898,1.227 M -16.872,-9.894 c -0.042,0.286 -0.024,0.595 -0.039,0.879 0.036,-0.145 0.072,-0.285 0.08,-0.407 0.017,-0.224 0.014,-0.439 0.003,-0.654 -0.015,0.06 -0.036,0.121 -0.044,0.182 M 21.214,-21.9 c -0.008,0.465 0.153,1.26 -0.099,1.557 l 0,0.211 c 0.066,0.002 0.125,-0.004 0.196,0.002 -0.014,0.131 -0.091,0.21 -0.196,0.265 l 0,0.131 c 0.308,1.372 -0.089,3.371 0.099,4.626 -0.077,0.02 -0.195,0.002 -0.198,0.097 -0.003,0 -0.005,-0.001 -0.009,-0.001 l 0,0.065 c 0.088,0.005 0.162,0.04 0.207,0.134 0.006,0.16 -0.08,0.252 -0.207,0.315 l 0,0.1 c 0.037,-0.007 0.071,-0.018 0.108,-0.024 0.06,1.309 -0.199,2.539 0.393,3.151 -0.172,0.029 -0.332,0.072 -0.501,0.106 l 0,0.108 c 0.035,-0.007 0.071,-0.013 0.108,-0.017 0.068,0.403 -0.075,0.721 -0.099,1.083 -0.044,0.682 0.139,1.374 -0.294,1.771 -0.221,-0.397 -0.082,-1.704 -0.394,-2.068 -0.286,0.414 -1.183,0.188 -1.477,0.592 l 0,0.688 c -0.194,0.234 -0.169,0.685 -0.393,0.887 0.028,0.2 0.218,0.648 -0.1,0.688 -0.28,-0.218 -0.205,-0.477 -0.196,-0.984 -0.284,-0.303 -0.479,-0.519 -0.294,-0.886 -0.134,0.031 -0.19,0.141 -0.394,0.099 -0.131,-0.187 0.034,-0.567 -0.099,-0.69 -0.29,0.352 -0.771,-0.442 -1.18,0.098 -0.234,-0.325 -0.796,-0.473 -0.985,-0.098 -0.106,-0.284 -0.298,-0.326 -0.591,-0.198 0.028,0.809 -0.373,1.165 -0.393,1.872 -0.046,-0.035 -0.081,-0.076 -0.118,-0.118 -0.003,0.014 -0.001,0.026 -0.005,0.039 -0.015,0.04 -0.029,0.089 -0.043,0.13 0.023,0.049 0.042,0.102 0.067,0.145 -0.046,0.034 -0.096,0.064 -0.145,0.095 -0.04,0.12 -0.084,0.241 -0.136,0.36 0.059,0.709 -0.049,1.844 -0.21,2.104 -0.003,-0.261 0.054,-0.58 -0.198,-0.591 -0.105,0.386 0.229,1.213 -0.197,1.279 -0.061,-0.33 0.127,-0.913 -0.098,-1.08 -0.17,0.057 0.007,0.465 -0.196,0.491 -0.146,-0.676 0.113,-0.77 -0.099,-1.377 0.029,0.192 -0.134,0.194 -0.196,0.294 -0.024,0.185 0.11,0.219 0.097,0.393 -0.399,-0.136 -0.31,0.215 -0.59,0.199 -0.056,-0.176 0.12,-0.581 -0.098,-0.592 -0.08,0.501 0.048,0.682 -0.198,1.083 -0.057,-0.173 0.12,-0.579 -0.097,-0.591 -0.091,0.615 0.144,1.03 -0.198,1.278 -0.15,-0.185 0.129,-0.81 -0.099,-0.983 0.056,0.043 -0.091,0.225 -0.096,0.197 -0.117,-0.587 0.046,-0.737 -0.198,-1.278 -0.114,0.144 -0.114,0.246 0,0.391 -0.747,-0.234 -0.373,1.08 -0.689,0.197 -0.099,0.287 -0.047,1.456 -0.295,0.493 -0.022,-0.185 0.111,-0.218 0.098,-0.394 -0.285,-0.601 -0.025,-1.347 -0.196,-1.869 0.011,0.004 0.026,0.005 0.038,0.008 -0.025,-0.045 -0.043,-0.094 -0.051,-0.146 -0.003,-0.017 0,-0.031 -0.003,-0.046 -0.098,-0.032 -0.197,-0.065 -0.28,-0.111 0.43,-0.782 0.237,-2.248 0.296,-3.249 0.118,0.02 0.229,0.045 0.344,0.068 l 0,-0.11 c -0.219,-0.045 -0.44,-0.087 -0.64,-0.152 0.43,-0.96 0.142,-1.535 0.105,-2.786 -0.091,-0.01 -0.171,-0.033 -0.24,-0.071 -0.681,-0.015 -1.499,-0.003 -2.363,0.007 -0.026,0.007 -0.053,0.012 -0.079,0.018 l 0,0.07 c 0.159,0.012 0.304,0.041 0.411,0.104 -0.174,0.943 -0.102,1.404 0.197,2.066 l -0.367,0 c 0.006,0.033 0.01,0.065 0.009,0.099 l 0.064,0 c 0.046,0.468 0.046,0.415 0,0.885 -0.275,0.001 -0.576,0.034 -0.581,-0.23 -0.053,0.01 -0.102,0.024 -0.161,0.024 -0.209,0 -0.362,-0.076 -0.473,-0.192 -0.409,-0.022 -0.886,0.006 -1.343,0.006 -0.551,0 -1.258,0.146 -1.591,-0.101 l -0.137,0 c -0.002,0.005 -0.005,0.009 -0.005,0.017 0.02,0.09 0.023,0.184 0.011,0.275 0.016,10e-4 0.034,0.002 0.048,0.003 0.078,0.34 -0.109,0.417 -0.197,0.592 -0.172,0.05 -0.266,0.023 -0.338,-0.028 -0.038,0.011 -0.066,0.032 -0.109,0.036 -0.018,0.093 -0.045,0.184 -0.067,0.272 0.074,0.791 -0.042,1.773 0.119,2.476 -0.062,0.017 -0.123,0.038 -0.188,0.058 -0.012,0.03 -0.027,0.06 -0.045,0.089 0.044,-0.015 0.09,-0.033 0.136,-0.05 0.228,0.301 0.032,0.834 -0.098,1.082 -0.601,-0.098 -0.644,-0.405 -1.181,0 l 0,-0.002 c -0.079,0.136 -0.207,0.237 -0.382,0.287 -0.004,0.004 -0.008,0.01 -0.013,0.012 0,-0.001 -0.001,-0.003 -0.001,-0.005 -0.026,0.005 -0.048,0.018 -0.077,0.022 l 0,0.08 0.374,0 c -0.065,0.495 0.125,0.795 0,1.083 -0.17,0.043 -0.285,0.03 -0.374,-0.008 l 0,0.267 c 0.055,-0.004 0.113,-0.049 0.178,-0.16 0.001,0.79 0.053,1.456 0.096,2.065 0.027,0.341 0.321,0.865 -0.051,1.056 -0.012,0.048 -0.025,0.098 -0.04,0.144 0.034,-0.003 0.058,-0.015 0.091,-0.019 0.2,0.295 0.057,0.93 0.1,1.378 -0.061,0.016 -0.116,0.039 -0.173,0.056 0.003,0.029 0.016,0.058 0.016,0.088 C 1.096,-0.614 1.115,-0.629 1.135,-0.643 1.057,-0.028 1.386,0.389 0.939,0.637 0.851,0.459 0.84,0.202 0.751,0.028 0.691,0.064 0.623,0.091 0.549,0.109 0.569,0.993 0.309,1.811 0.546,2.604 0.32,2.574 0.438,2.889 0.251,2.9 0.135,2.387 0.306,1.696 -0.141,1.325 c 0,0.548 0.078,1.584 -0.297,1.871 C -0.484,2.292 -0.724,1.504 -0.732,0.834 -1.103,1.056 -1.197,1.55 -1.62,1.721 -1.729,1.304 -2.063,1.112 -2.307,0.834 -2.255,1.995 -2.544,2.439 -2.702,3.294 -3.095,3.016 -2.528,2.223 -2.995,1.916 -3.571,2.163 -2.865,2.65 -3.39,2.998 -3.555,2.109 -3.452,1.215 -3.58,0.411 -3.696,0.301 -3.757,0.17 -3.779,0.034 -3.951,0.267 -3.673,0.597 -4.08,0.637 -4.173,0.433 -4.183,-0.002 -4.178,-0.545 c 0.043,0.019 0.078,0.044 0.118,0.064 l 0,-0.005 c -0.047,-0.077 -0.075,-0.16 -0.092,-0.244 -0.009,-0.003 -0.015,-0.01 -0.026,-0.012 l 0,-1.215 c -0.086,-0.147 -0.115,-0.316 -0.091,-0.486 0.022,-1.017 0.236,-1.84 0.189,-2.923 0.009,0.004 0.013,0.012 0.02,0.015 l 0,-0.114 -0.215,0 0,-1.083 c 0.051,-0.019 0.131,-0.009 0.215,0 l 0,-0.123 c -0.119,-0.054 -0.176,-0.168 -0.199,-0.32 -0.047,-0.006 -0.094,-0.014 -0.142,-0.021 -0.019,0.038 -0.042,0.069 -0.072,0.07 -0.027,-0.04 -0.051,-0.065 -0.076,-0.095 -0.14,-0.027 -0.278,-0.061 -0.414,-0.106 -0.155,0.074 -0.33,0.204 -0.592,0.201 -0.075,-0.104 -0.127,-0.41 -0.116,-0.673 -0.072,-0.107 -0.125,-0.223 -0.134,-0.364 -0.027,-0.446 0.031,-0.957 0.104,-1.399 0.091,-0.541 0.084,-1.086 0.111,-1.627 -0.019,0.005 -0.036,0.006 -0.054,0.009 -0.008,0.004 -0.017,0.002 -0.025,0.004 -0.024,0.107 -0.056,0.208 -0.28,0.115 -0.166,-0.037 -0.268,-0.138 -0.328,-0.284 -0.14,-0.13 -0.226,-0.316 -0.244,-0.502 l -3.364,0 c -0.153,0.173 -0.132,0.521 -0.591,0.392 -0.223,-0.106 -0.038,-0.618 -0.098,-0.885 l 0.097,0 c -0.021,-0.032 -0.038,-0.067 -0.054,-0.101 -0.112,0.002 -0.229,-0.002 -0.339,0.002 0.42,-0.578 0.23,-1.198 0.296,-2.167 l 0.394,0 0,-0.107 c -0.936,-0.015 -1.854,-0.007 -2.657,0.107 -0.025,-0.098 -0.017,-0.167 0.004,-0.222 -0.035,0.006 -0.073,0.01 -0.107,0.019 0.008,0.027 0.014,0.06 0.003,0.106 -0.06,0.85 0.09,1.446 -0.196,2.165 0.238,0.124 0.319,0.405 0.393,0.691 -0.105,0.054 -0.26,0.057 -0.393,0.087 l 0,0.146 c 0.073,0.048 0.109,0.129 0.099,0.256 -0.054,0.109 -0.082,0.242 -0.099,0.386 l 0,0.205 -0.016,0 c -0.016,0.562 0.122,1.231 0.019,1.559 0.002,0.011 0.003,0.018 0.005,0.026 0.193,0.159 0.243,0.467 0.385,0.679 -0.087,0.057 -0.18,0.107 -0.277,0.154 -0.005,0.159 -0.038,0.297 -0.116,0.398 0,0.001 -0.002,0.001 -0.002,0.003 -0.02,0.553 -0.026,1.64 -0.194,2.299 0.082,0.233 -0.14,0.452 -0.099,0.099 -0.016,-0.116 0.016,-0.28 -0.098,-0.296 -0.059,-0.175 0.289,-0.408 0,-0.493 -0.014,0.185 -0.065,0.328 -0.196,0.395 0.205,-0.584 -0.257,-0.448 -0.395,-0.592 -0.105,-0.109 0.27,-0.533 -0.197,-0.391 0.007,0.448 0.059,1.602 -0.295,1.081 0.072,0.365 0.098,0.677 -0.099,0.983 -0.053,-0.537 0.019,-1.474 -0.295,-0.687 -0.118,-0.655 0.074,-0.692 -0.098,-1.182 -0.136,0.128 -0.097,0.428 -0.099,0.691 -0.211,-0.121 -0.47,-0.188 -0.591,-0.395 0.242,-0.064 0.016,-0.461 -0.097,-0.491 0.002,0.525 0.039,1.088 -0.197,1.377 -0.054,-0.144 0.115,-0.509 -0.099,-0.491 -0.19,0.314 0.1,0.744 -0.195,1.08 -0.113,-0.397 0.004,-0.805 -0.199,-1.279 -0.037,0.256 -0.05,0.539 -0.196,0.69 -0.004,-0.751 -0.134,-1.34 -0.098,-2.325 -0.033,-0.057 -0.059,-0.121 -0.082,-0.186 -0.037,-0.018 -0.074,-0.033 -0.114,-0.048 0.023,-0.06 0.039,-0.13 0.056,-0.195 -0.009,-0.079 -0.014,-0.163 -0.013,-0.25 0,-0.045 0.008,-0.092 0.013,-0.138 -0.052,0.117 -0.132,0.218 -0.254,0.288 -0.054,-0.568 -0.277,-1.209 -0.492,-1.872 -0.244,-0.251 -0.35,0.068 -0.492,0.198 -0.185,-0.408 -0.719,-0.221 -0.984,0.098 -0.413,-0.537 -0.853,0.262 -1.181,-0.098 -0.093,0.372 -0.005,0.463 -0.099,0.69 -0.169,0.039 -0.252,-0.148 -0.295,0 -0.012,0.446 -0.251,0.668 -0.395,0.984 0.085,0.133 0.15,0.876 -0.296,0.787 -0.012,-0.723 -0.339,-1.544 -0.489,-2.461 -0.439,-0.053 -1.107,-0.118 -1.478,-0.394 -0.133,0.905 -0.005,1.736 -0.393,2.068 -0.245,-0.782 -0.189,-1.864 -0.29,-2.789 -0.047,-0.093 -0.068,-0.193 -0.065,-0.294 -0.083,-0.051 -0.169,-0.098 -0.235,-0.166 0.543,-0.472 0.192,-1.829 0.295,-2.953 0.044,0.007 0.083,0.017 0.128,0.025 -0.018,-0.026 -0.031,-0.053 -0.046,-0.082 -0.139,-0.03 -0.259,-0.093 -0.278,-0.237 0.047,-0.083 0.112,-0.139 0.187,-0.176 0.007,-0.073 0.016,-0.144 0.039,-0.214 -0.07,-0.04 -0.165,-0.053 -0.129,-0.201 0.043,-1.085 -0.055,-2.527 0,-3.541 0.013,-0.207 -0.12,-0.66 0.069,-0.822 -0.012,-0.06 -0.023,-0.12 -0.021,-0.183 -0.08,-0.027 -0.135,-0.08 -0.145,-0.175 0.044,-0.053 0.117,-0.081 0.205,-0.096 0.02,-0.047 0.047,-0.094 0.076,-0.136 -0.063,-0.01 -0.127,-0.028 -0.184,-0.065 0.059,-2.269 -0.118,-3.691 -0.097,-5.905 0.139,0.012 0.288,0.014 0.438,0.016 l 0,-0.051 17.379,0 1.569,0 6.566,0 c 0.09,0.013 0.184,0.02 0.274,0.035 l 1.625,0 0.097,0 6.2,0 0.098,0 1.378,0 1.227,0 c 0.239,-0.011 0.487,-0.016 0.741,0 l 0.099,0 1.279,0 0.099,0 2.854,0 0.098,0 0.983,0 0.1,0 1.969,0 0.393,0 c 0.415,0.16 0.208,0.706 0.196,1.084 -0.032,1.034 -0.082,2.114 -0.097,3.246"
         style="fill:#39577a;fill-opacity:1;fill-rule:nonzero;stroke:none"
         id="path3742"
         inkscape:connector-curvature="0" />
    </g>
  </g>
</svg>
