<?xml version="1.0" encoding="UTF-8" standalone="no"?>
<!-- Created with Inkscape (http://www.inkscape.org/) -->

<svg
   xmlns:dc="http://purl.org/dc/elements/1.1/"
   xmlns:cc="http://creativecommons.org/ns#"
   xmlns:rdf="http://www.w3.org/1999/02/22-rdf-syntax-ns#"
   xmlns:svg="http://www.w3.org/2000/svg"
   xmlns="http://www.w3.org/2000/svg"
   xmlns:sodipodi="http://sodipodi.sourceforge.net/DTD/sodipodi-0.dtd"
   xmlns:inkscape="http://www.inkscape.org/namespaces/inkscape"
   width="11.414506mm"
   height="10.675742mm"
   viewBox="0 0 40.4451 37.827433"
   id="svg8382"
   version="1.1"
   inkscape:version="0.91 r13725"
   sodipodi:docname="moscu.svg">
  <defs
     id="defs8384" />
  <sodipodi:namedview
     id="base"
     pagecolor="#ffffff"
     bordercolor="#666666"
     borderopacity="1.0"
     inkscape:pageopacity="0.0"
     inkscape:pageshadow="2"
     inkscape:zoom="0.35"
     inkscape:cx="1320.9369"
     inkscape:cy="-1038.2291"
     inkscape:document-units="px"
     inkscape:current-layer="layer1"
     showgrid="false"
     fit-margin-top="0"
     fit-margin-left="0"
     fit-margin-right="0"
     fit-margin-bottom="0"
     inkscape:window-width="1920"
     inkscape:window-height="974"
     inkscape:window-x="0"
     inkscape:window-y="27"
     inkscape:window-maximized="1" />
  <metadata
     id="metadata8387">
    <rdf:RDF>
      <cc:Work
         rdf:about="">
        <dc:format>image/svg+xml</dc:format>
        <dc:type
           rdf:resource="http://purl.org/dc/dcmitype/StillImage" />
        <dc:title></dc:title>
      </cc:Work>
    </rdf:RDF>
  </metadata>
  <g
     inkscape:label="Calque 1"
     inkscape:groupmode="layer"
     id="layer1"
     transform="translate(1437.3654,543.69437)">
    <g
       id="moscu"
       transform="matrix(1,0,0,-1,-1408.9296,-525.29237)">
      <path
         d="M 0,0 C 0.006,0.052 0.006,0.096 0.012,0.146 0.021,0.169 0.026,0.191 0.034,0.215 0.026,0.173 0.016,0.107 0,0 m 11.993,-13.667 c -0.338,0.044 -0.68,0.083 -1.029,0.12 -0.002,0.014 -0.004,0.026 -0.006,0.038 -0.006,0.049 -0.006,0.101 -0.012,0.149 0.081,-0.012 0.164,-0.023 0.242,-0.038 0.154,0.4 0.014,0.607 -0.246,0.729 0,0.064 0.004,0.128 0.004,0.193 0.07,-0.007 0.147,-0.006 0.242,0.017 -0.038,0.947 0.163,2.133 -0.342,2.616 -0.012,0.258 -0.074,0.515 -0.234,0.779 -0.716,2.388 -1.453,4.758 -2.108,7.208 l -0.097,0 c 0.016,0.088 0.024,0.179 0.03,0.271 0.021,-0.001 0.042,-0.001 0.067,-0.003 0.016,0.331 0.021,0.648 -0.135,0.807 -0.017,-0.003 -0.036,-0.007 -0.054,-0.008 0,0.017 -0.002,0.034 -0.002,0.053 0.018,0.018 0.031,0.041 0.039,0.07 0.144,-0.001 0.26,0.029 0.287,0.15 C 8.276,-0.293 8.433,0.445 7.966,0.56 8.292,0.008 7.648,-0.012 7.698,-0.649 7.76,-0.63 7.841,-0.63 7.924,-0.635 7.932,-0.747 7.939,-0.794 7.972,-0.902 7.914,-0.94 7.864,-0.987 7.833,-1.052 c 0.081,0.014 0.116,-0.018 0.133,-0.066 0.006,-0.014 0.002,-0.028 0.008,-0.043 0.004,-0.014 0.004,-0.03 0.007,-0.044 0,-0.182 -0.089,-0.453 0.038,-0.507 0,-0.047 0,-0.097 -0.004,-0.144 l -0.049,0 C 7.417,-4.549 6.887,-7.172 6.538,-9.585 6.522,-9.615 6.503,-9.641 6.486,-9.671 c -0.368,-0.736 -0.59,-1.981 -0.34,-2.797 0.045,-0.15 0.107,-0.293 0.176,-0.428 -0.013,-0.04 -0.017,-0.079 -0.027,-0.119 -0.021,-0.037 -0.026,-0.08 -0.03,-0.12 -0.032,-0.19 -0.032,-0.389 0.007,-0.59 -0.365,-0.081 -0.734,-0.158 -1.124,-0.211 l 0,-0.942 c -0.106,-0.116 -0.196,-0.248 -0.258,-0.388 -0.246,0.046 -0.448,0.085 -0.565,0.101 -0.127,0.017 -0.256,0.019 -0.386,0.016 0,10e-4 0,0.003 0.002,0.004 -0.032,-0.001 -0.061,-0.001 -0.095,-0.002 0.008,0.181 -0.016,0.36 -0.059,0.533 -0.058,0.774 -0.092,1.167 -0.115,1.886 -0.237,-10e-4 -0.475,-0.005 -0.711,-0.005 -0.008,0.045 -0.018,0.088 -0.025,0.134 -0.064,0.27 -0.222,0.522 -0.432,0.726 -0.049,0.091 -0.108,0.18 -0.18,0.263 0.105,0.094 0.19,0.205 0.141,0.357 -0.491,0.088 -0.948,0.594 -1.491,0.541 0.002,0.141 -0.008,0.279 -0.036,0.413 0.155,0.736 -0.125,1.561 -0.491,2.09 -0.096,0.308 -0.281,0.583 -0.548,0.769 0.002,0.423 0.026,0.832 0.074,1.209 0.146,0.237 0.231,0.509 0.231,0.808 0,0.355 -0.125,0.691 -0.335,0.96 -0.142,0.355 -0.364,0.626 -0.783,0.705 0.069,0.247 0.126,0.498 0.152,0.757 0.056,0.577 0.03,1.145 0.004,1.712 l 0,0.01 c 0.212,0.147 0.388,0.341 0.525,0.551 0.069,0.11 0.158,0.343 0.2,0.506 0.035,0.122 0.073,0.404 0.081,0.473 0.75,2.377 -1.891,3.69 -2.895,5.662 -0.002,0.211 -0.017,0.411 -0.079,0.618 -0.021,0.075 0.015,0.165 -0.012,0.24 -0.021,0.057 -0.044,0.109 -0.071,0.159 0,0.035 -0.01,0.063 -0.023,0.088 0.193,0.401 -0.388,2.217 0.393,2.4 -0.419,-0.154 -0.322,0.21 -0.534,0.269 0.172,-0.531 -0.391,-0.327 -0.402,-0.671 0.867,0.42 0.157,-1.462 0.373,-1.918 -0.082,-0.005 -0.159,-0.06 -0.159,-0.168 0,-0.064 0.01,-0.113 0.049,-0.165 C -3.264,6.709 -3.28,6.599 -3.277,6.527 -3.273,6.462 -3.252,6.4 -3.232,6.341 -3.78,3.804 -7.761,2.319 -5.588,-0.516 l 0,0.001 c 0.006,-0.007 0.012,-0.019 0.02,-0.027 0.105,-0.115 0.25,-0.178 0.404,-0.213 -0.004,-0.01 -0.016,-0.018 -0.02,-0.026 0.047,0 0.099,0.001 0.149,0.001 l 0.021,0 c 0,-0.005 0.004,-0.009 0.004,-0.014 -0.044,-0.502 -0.052,-1.006 -0.006,-1.509 0.014,-0.146 0.032,-0.274 0.058,-0.396 -0.028,-0.079 -0.044,-0.157 -0.067,-0.236 -0.008,10e-4 -0.016,0.006 -0.027,0.005 0.006,-0.027 0.002,-0.053 0.002,-0.082 -0.015,-0.059 -0.035,-0.121 -0.051,-0.182 -0.005,-0.015 -0.011,-0.032 -0.02,-0.047 0.142,0.401 -0.378,-0.565 -0.415,-0.694 -0.102,-0.367 -0.102,-0.737 -0.046,-1.104 -0.01,-0.029 -0.025,-0.055 -0.033,-0.086 -0.023,-0.077 -0.036,-0.159 -0.044,-0.243 -0.006,0.002 -0.008,0.002 -0.012,0.003 -0.139,0.361 -0.19,0.805 -0.2,1.186 0.004,0.015 0.008,0.028 0.014,0.041 -0.004,0.004 -0.01,0.007 -0.014,0.011 -0.002,0.107 -0.002,0.213 0.004,0.306 0.01,0.329 -0.055,0.599 -0.176,0.819 -0.121,1.138 -0.249,2.268 -0.351,3.428 -0.086,0.005 -0.166,0.015 -0.247,0.027 0.008,0.151 0,0.302 -0.022,0.446 -0.004,1.869 -1.055,4.132 -0.271,5.431 -0.243,0.021 -0.516,0.091 -0.786,0.171 -0.008,0.088 -0.031,0.172 -0.061,0.253 0.013,-0.007 0.03,-0.015 0.046,-0.022 -0.04,0.455 -0.216,0.772 -0.135,1.344 -0.43,-0.117 -0.42,0.205 -0.536,0.403 -0.382,1.294 -0.775,2.579 -1.195,3.835 0.009,0.022 0.019,0.04 0.027,0.064 0.037,0.178 0.027,0.358 0.006,0.539 0.031,-0.004 0.059,-0.004 0.087,-0.01 0.227,0.456 -0.168,0.754 -0.159,1.367 0.046,0.054 0.072,0.124 0.076,0.208 10e-4,0.063 0.007,0.131 0.007,0.202 0.024,-0.012 0.052,-0.019 0.076,-0.032 -0.111,0.38 0.19,0.346 0.134,0.67 0,0.002 -0.002,0.002 -0.002,0.003 0.097,0.055 0.161,0.156 0.182,0.265 0.032,-10e-4 0.062,0 0.09,10e-4 -0.056,1.334 -0.944,1.902 -1.162,2.811 0.067,-1.067 -1.295,-1.628 -1.026,-2.795 -0.057,-0.182 0.006,-0.4 0.232,-0.44 0.015,-0.003 0.036,0 0.054,-10e-4 0.005,-0.219 0.201,-0.245 0.156,-0.514 0.075,0.013 0.15,0.028 0.223,0.041 0,-0.043 0.002,-0.087 0.002,-0.129 0.002,-0.039 0.014,-0.078 0.028,-0.111 -0.126,-0.517 -0.442,-0.849 -0.388,-1.546 0.071,-0.049 0.176,-0.057 0.303,-0.053 l 0,-0.071 c -0.014,-0.054 -0.03,-0.105 -0.039,-0.16 -0.642,-1.893 -1.22,-3.846 -1.927,-5.671 -0.105,-0.157 -0.186,-0.329 -0.265,-0.499 -0.154,-0.004 -0.316,0 -0.485,0.012 0.804,-1.452 -0.421,-3.649 -0.291,-5.428 -0.033,-0.083 -0.062,-0.172 -0.083,-0.255 -0.026,-0.083 -0.039,-0.171 -0.056,-0.26 -0.12,-0.036 -0.243,-0.071 -0.378,-0.096 0.347,-0.611 0.079,-1.92 0.121,-3 -0.142,0.065 -0.283,0.138 -0.421,0.217 -0.238,0.453 -0.584,0.801 -0.371,1.708 -0.029,0.006 -0.057,0.014 -0.087,0.021 0.03,0.08 0.052,0.165 0.066,0.251 0.006,0 0.014,-0.002 0.021,-0.004 -0.007,0.048 -0.007,0.087 -0.007,0.128 l 0,0.003 c 0,0 -0.002,0.003 0,0.005 0.002,0.312 0.208,0.423 0.275,0.671 -0.019,0.005 -0.044,0.01 -0.065,0.016 0.055,0.207 0.057,0.438 0.027,0.663 0.012,-0.002 0.028,-0.005 0.038,-0.01 1.201,2.715 -2.012,3.121 -2.014,5.505 l -0.006,0 c -0.005,0.044 -0.015,0.087 -0.029,0.13 0.012,10e-4 0.024,0 0.035,0.002 -0.045,0.389 -0.27,2.172 0.038,2.599 -0.225,-0.165 -0.057,0.29 -0.304,0.356 0.142,-0.501 -0.284,-0.434 -0.405,-0.671 0.828,-0.056 0.335,-1.824 0.135,-2.148 0.024,-0.006 0.042,-0.017 0.062,-0.026 l 0,-0.052 c -0.004,-0.006 -0.012,-0.009 -0.016,-0.018 l 0,-0.001 c -0.008,-0.006 -0.017,-0.012 -0.022,-0.019 -0.045,-0.05 -0.063,-0.124 -0.02,-0.196 l 0.008,-0.013 c 0.023,-0.044 0.069,-0.069 0.119,-0.08 -0.091,-2.229 -3.33,-2.939 -1.928,-5.402 -0.016,-0.072 -0.014,-0.146 0.022,-0.226 0.019,-0.042 0.039,-0.08 0.065,-0.12 -0.012,-0.008 -0.026,-0.014 -0.034,-0.021 0.01,0.005 0.022,0.01 0.036,0.013 0.033,-0.054 0.068,-0.101 0.105,-0.145 -0.002,0 -0.004,-0.001 -0.008,-0.002 0.042,-0.302 0.196,-0.492 0.14,-0.888 -0.134,-0.15 -0.152,-0.388 -0.003,-0.515 l 0,-1.013 c 0.003,0.002 0.005,0.002 0.013,0.004 -0.083,-0.042 -0.166,-0.087 -0.249,-0.139 l -0.437,0 c 0.025,-0.197 -0.079,-0.27 -0.117,-0.406 -0.232,-0.207 -0.428,-0.439 -0.55,-0.672 -0.023,-0.041 -0.04,-0.086 -0.058,-0.129 -0.142,-0.204 -0.233,-0.505 -0.229,-0.897 -0.177,-0.371 -0.214,-0.836 -0.214,-1.204 0,-0.345 0.093,-0.659 0.249,-0.937 -0.004,-0.118 0.048,-0.214 0.129,-0.273 0.021,-0.877 -0.077,-1.872 -0.016,-2.71 -0.295,-0.353 -0.39,-0.786 -0.331,-1.192 -0.023,-0.015 -0.051,-0.023 -0.071,-0.034 0.032,-0.011 0.057,-0.024 0.082,-0.037 0.023,-0.134 0.064,-0.262 0.12,-0.385 -0.02,-0.266 -0.112,-0.579 0.052,-0.72 -0.083,-0.041 -0.166,-0.087 -0.25,-0.142 -0.134,-0.091 -0.244,-0.135 -0.334,-0.157 0.045,-0.012 0.096,-0.028 0.16,-0.052 -0.06,0.023 -0.117,0.032 -0.178,0.044 -0.158,-0.036 -0.222,0.01 -0.171,0.028 -0.158,0.008 -0.32,-0.012 -0.474,-0.056 l -0.214,0 c -0.197,1.011 -0.525,1.891 -0.671,2.951 -0.322,-1.69 -0.737,-3.292 -1.477,-4.561 -0.089,-0.013 -0.196,-0.008 -0.279,-0.026 -0.129,0.01 -0.264,0.02 -0.398,0.022 0.002,10e-4 0.004,0.003 0.006,0.004 -0.481,0.815 -0.884,2.422 -1.071,3.087 -0.441,-1.622 -1.467,-2.656 -2.189,-3.991 -0.172,-0.094 -0.336,-0.204 -0.501,-0.327 -0.213,-0.16 -0.196,-0.401 -0.063,-0.54 0.22,-1.179 -0.048,-3.17 0.066,-4.002 4.542,0.005 9.144,0.007 13.782,0.005 0.538,-0.176 1.071,-0.143 1.673,-0.046 0.112,0.02 0.227,0.033 0.341,0.046 5.339,0 10.733,-0.005 16.155,-0.005 0.077,-0.007 0.15,-0.018 0.233,-0.016 0.073,0.008 0.149,0.011 0.222,0.016 2.569,-0.001 5.142,-0.001 7.723,0 0.284,1.643 0.068,3.782 0.135,5.638"
         style="fill:#ed1c24;fill-opacity:1;fill-rule:nonzero;stroke:none"
         id="path3724"
         inkscape:connector-curvature="0" />
    </g>
  </g>
</svg>
