<?xml version="1.0" encoding="UTF-8" standalone="no"?>
<!-- Created with Inkscape (http://www.inkscape.org/) -->

<svg
   xmlns:dc="http://purl.org/dc/elements/1.1/"
   xmlns:cc="http://creativecommons.org/ns#"
   xmlns:rdf="http://www.w3.org/1999/02/22-rdf-syntax-ns#"
   xmlns:svg="http://www.w3.org/2000/svg"
   xmlns="http://www.w3.org/2000/svg"
   xmlns:sodipodi="http://sodipodi.sourceforge.net/DTD/sodipodi-0.dtd"
   xmlns:inkscape="http://www.inkscape.org/namespaces/inkscape"
   width="4.0730309mm"
   height="14.627013mm"
   viewBox="0 0 14.431999 51.827999"
   id="svg8022"
   version="1.1"
   inkscape:version="0.91 r13725"
   sodipodi:docname="new-york.svg">
  <defs
     id="defs8024" />
  <sodipodi:namedview
     id="base"
     pagecolor="#ffffff"
     bordercolor="#666666"
     borderopacity="1.0"
     inkscape:pageopacity="0.0"
     inkscape:pageshadow="2"
     inkscape:zoom="0.35"
     inkscape:cx="-232.06971"
     inkscape:cy="-374.086"
     inkscape:document-units="px"
     inkscape:current-layer="layer1"
     showgrid="false"
     fit-margin-top="0"
     fit-margin-left="0"
     fit-margin-right="0"
     fit-margin-bottom="0"
     inkscape:window-width="1920"
     inkscape:window-height="974"
     inkscape:window-x="0"
     inkscape:window-y="27"
     inkscape:window-maximized="1" />
  <metadata
     id="metadata8027">
    <rdf:RDF>
      <cc:Work
         rdf:about="">
        <dc:format>image/svg+xml</dc:format>
        <dc:type
           rdf:resource="http://purl.org/dc/dcmitype/StillImage" />
        <dc:title></dc:title>
      </cc:Work>
    </rdf:RDF>
  </metadata>
  <g
     inkscape:label="Calque 1"
     inkscape:groupmode="layer"
     id="layer1"
     transform="translate(-115.64114,-106.4482)">
    <g
       id="new-york"
       transform="matrix(1,0,0,-1,121.30314,119.3712)">
      <path
         d="m 0,0 c 0.052,-0.279 0.006,-0.657 0.166,-0.832 -0.141,-0.28 -0.285,-0.56 -0.366,-0.898 -0.097,0.042 -0.237,0.042 -0.333,0 -0.071,0.262 -0.143,0.522 -0.367,0.632 0.056,0.556 -0.43,0.568 -0.433,1.066 C -0.86,-0.05 -0.481,0.027 0,0 m 8.623,-36.768 c -0.223,0.022 -0.573,-0.084 -0.589,0.146 -0.193,2.779 -0.494,5.449 -0.663,8.251 -0.197,0.1 -0.566,0.024 -0.663,0.222 l 0,0.736 -0.081,0 c 0,0.199 0,0.393 -10e-4,0.571 -1.149,0.794 -0.823,3.064 -1.131,4.696 0.147,0.043 0.29,0.088 0.399,0.166 0.169,0.687 -0.137,1.39 -0.1,2.1 0.052,0.998 -0.052,1.985 -0.099,3.029 0.082,0.05 0.15,0.118 0.199,0.202 -0.052,1.312 -0.331,2.577 -0.399,3.762 0.133,-0.032 0.2,-0.032 0.333,0 0.623,0.441 0.681,1.554 0.732,2.465 0.752,-0.065 1.804,1.036 1.366,1.73 0.112,0.088 0.204,0.196 0.265,0.334 -0.11,0.118 -0.051,0.241 0.068,0.433 -0.268,0.159 -0.546,0.416 -0.9,0.7 C 7.238,-7.129 6.587,-6.52 6.46,-6.526 6.344,-6.532 6.246,-6.97 6.061,-6.659 5.94,-6.817 5.827,-6.981 5.695,-7.126 5.526,-6.972 5.297,-6.88 5.162,-6.694 5.176,-5.692 5.151,-4.95 4.661,-4.396 4.519,-4.231 4.29,-4.161 4.229,-3.994 c -0.039,0.107 0.011,0.268 0,0.366 -0.063,0.553 -0.354,1.002 -0.5,1.565 0.375,0.22 0.077,0.724 -0.033,1.031 0.104,0.031 0.232,0.036 0.233,0.168 C 3.8,-0.505 3.658,-0.37 3.763,0.101 4.315,0.336 4.91,0.53 5.461,0.767 4.847,0.75 4.154,0.632 3.596,0.668 3.579,0.717 3.547,0.751 3.529,0.801 3.991,1.261 4.746,1.604 5.128,2.032 4.831,1.871 4.44,1.744 4.062,1.599 3.725,1.47 3.296,1.146 2.996,1.399 3.249,2.047 3.695,2.678 3.896,3.265 3.491,2.862 3.086,2.388 2.697,2.001 2.573,1.875 2.427,1.66 2.231,1.699 2.03,2.364 1.939,3.139 1.73,3.796 1.657,3.455 1.619,3.046 1.565,2.666 1.511,2.284 1.511,1.872 1.298,1.633 0.693,2.037 0.192,2.547 -0.367,2.998 -0.063,2.393 0.321,1.866 0.632,1.267 0.413,1.054 0.025,1.278 -0.299,1.364 -0.667,1.465 -1.043,1.576 -1.333,1.599 -0.829,1.281 -0.274,1.016 0.166,0.634 -0.177,0.31 -0.917,0.385 -1.433,0.235 c -0.1,0.093 -0.29,0.1 -0.399,0.099 -0.37,0.833 -0.452,1.848 -0.766,2.864 -0.141,0.454 -0.26,0.96 -0.365,1.466 -0.115,0.534 -0.298,1.1 -0.268,1.565 0.036,0.549 0.232,0.904 0.2,1.364 -0.015,0.22 -0.08,0.516 -0.2,0.7 -0.101,0.156 -0.413,0.277 -0.367,0.566 0.175,0.129 0.194,0.466 0.267,0.599 0.245,0.013 0.381,-0.084 0.633,-0.065 0.081,0.207 0.084,0.493 0.1,0.766 -0.226,0.217 -0.683,0.205 -1,0.331 l 0,0.335 c 0.591,0.398 0.765,1.21 0.867,2.098 -0.348,-0.41 -1.447,-0.622 -1.899,-1.099 -0.376,-0.4 -0.127,-0.746 -0.132,-1.398 -0.328,-0.062 -0.64,-0.139 -0.9,-0.267 0.041,-0.303 0.071,-0.619 0.201,-0.834 0.165,0.015 0.43,0.103 0.532,0.068 C -4.865,9.116 -5.043,9.084 -5.03,8.859 -4.958,8.643 -4.714,8.598 -4.596,8.426 -4.813,7.91 -4.565,7.576 -4.63,6.995 -4.309,6.73 -4.518,6.091 -4.463,5.529 c 0.325,-0.433 0.288,-1.21 0.367,-1.898 0.177,-1.545 0.479,-3.032 0.798,-4.329 -0.437,-0.822 -1.3,-2.866 -0.099,-3.464 -0.075,-0.108 -0.019,-0.314 0,-0.434 0.284,-0.115 0.292,-0.508 0.599,-0.598 -0.184,-0.394 -0.575,-0.876 -0.533,-1.399 0.023,-0.289 0.287,-0.426 0.267,-0.732 0.06,-0.108 0.257,-0.076 0.366,-0.132 l 0,-0.335 c 0.263,-0.175 0.17,-0.5 0.334,-0.767 -0.421,-0.463 -1.489,-2.584 -0.067,-2.495 -0.067,-0.722 -0.607,-1.48 -0.467,-2.232 0.028,-0.151 0.177,-0.255 0.2,-0.401 0.052,-0.339 -0.104,-0.639 0.166,-0.798 -0.129,-0.348 -0.209,-0.666 -0.233,-0.999 -0.041,-0.577 0.178,-1.061 0.233,-1.633 0.06,-0.611 0.053,-1.386 -0.066,-1.998 -0.027,-0.145 -0.122,-0.283 -0.133,-0.435 -0.01,-0.126 0.031,-0.273 0.033,-0.396 0.007,-0.73 -0.196,-1.451 -0.133,-2.164 0.044,-0.504 0.231,-0.977 0.266,-1.467 0.055,-0.763 -0.195,-1.461 -0.1,-2.232 -0.01,-0.088 0.187,0.032 0.133,-0.099 0.028,-0.626 -0.36,-0.84 -0.899,-0.899 l 0,-0.637 c -0.058,-0.187 -0.009,-0.482 -0.029,-0.705 -0.191,-0.104 -0.487,-0.103 -0.662,-0.222 -0.17,-2.851 -0.537,-5.506 -0.737,-8.324 l -0.59,0 c -0.039,-0.723 -0.145,-1.377 -0.148,-2.137 2.506,-0.049 5.207,0.099 7.59,-0.073 l 6.777,0 c -0.02,0.74 -0.1,1.424 -0.147,2.137"
         style="fill:#638fa6;fill-opacity:1;fill-rule:nonzero;stroke:none"
         id="path3721"
         inkscape:connector-curvature="0" />
    </g>
  </g>
</svg>
