<?xml version="1.0" encoding="UTF-8" standalone="no"?>
<svg>
    <g id="paris" transform="translate(-98.21743,-288.18771) matrix(1,0,0,-1,108.63743,325.64371)">
      <path
         d="m 0,0 -2.116,0.035 c 0,0 0.421,1.044 0.709,2.293 0.272,1.264 0.406,2.355 0.406,2.355 l 1.195,-0.02 0.004,0 L 1.4,4.642 c 0,0 0.088,-1.096 0.328,-2.37 C 1.946,1.153 2.265,0.197 2.332,0 L 0,0 Z m 2.286,-0.904 -4.411,0 0,0.563 4.411,0 0,-0.563 z M 5.97,-2.723 5.912,-2.566 5.912,0 4.975,0 C 4.225,1.992 3.548,4.49 3.013,6.99 l 0.522,0 0,1.595 -0.919,0.5 C 2.064,12.332 1.757,15.729 1.538,19.147 1.291,22.916 1.332,30.073 1.332,30.073 l 0.418,0 0.033,1.984 -0.49,0.007 -0.412,1.278 0.015,0 0.069,3.964 -0.201,0.15 -0.006,0 -0.209,-0.143 -0.07,-3.964 0.018,0 L 0.045,32.086 -0.45,32.095 -0.484,30.114 -0.06,30.1 c 0,0 -0.212,-7.157 -0.59,-10.917 -0.326,-3.436 -0.758,-6.846 -1.433,-10.098 l -0.88,-0.5 0,-1.595 0.395,0 C -3.193,4.476 -3.975,1.969 -4.805,0 l -1.17,0 0,-2.723 0.061,0 c -1.381,-3.082 -3.028,-6.002 -4.506,-7.813 l 3.64,-0.063 c 1.091,2.359 2.96,5.548 6.812,5.484 3.845,-0.066 5.611,-3.317 6.617,-5.715 l 3.639,-0.063 C 8.839,-8.99 7.252,-5.925 5.97,-2.723"
         style="fill:#ed1c24;fill-opacity:1;fill-rule:nonzero;stroke:none" />
    </g>
</svg>
