<?xml version="1.0" encoding="UTF-8" standalone="no"?>
<!-- Created with Inkscape (http://www.inkscape.org/) -->

<svg
   xmlns:dc="http://purl.org/dc/elements/1.1/"
   xmlns:cc="http://creativecommons.org/ns#"
   xmlns:rdf="http://www.w3.org/1999/02/22-rdf-syntax-ns#"
   xmlns:svg="http://www.w3.org/2000/svg"
   xmlns="http://www.w3.org/2000/svg"
   xmlns:sodipodi="http://sodipodi.sourceforge.net/DTD/sodipodi-0.dtd"
   xmlns:inkscape="http://www.inkscape.org/namespaces/inkscape"
   width="6.7984757mm"
   height="9.9847727mm"
   viewBox="0 0 24.089087 35.379116"
   id="svg8112"
   version="1.1"
   inkscape:version="0.91 r13725"
   sodipodi:docname="rio-de-janeiro.svg">
  <defs
     id="defs8114" />
  <sodipodi:namedview
     id="base"
     pagecolor="#ffffff"
     bordercolor="#666666"
     borderopacity="1.0"
     inkscape:pageopacity="0.0"
     inkscape:pageshadow="2"
     inkscape:zoom="0.35"
     inkscape:cx="-1092.9555"
     inkscape:cy="-213.73901"
     inkscape:document-units="px"
     inkscape:current-layer="layer1"
     showgrid="false"
     fit-margin-top="0"
     fit-margin-left="0"
     fit-margin-right="0"
     fit-margin-bottom="0"
     inkscape:window-width="1920"
     inkscape:window-height="974"
     inkscape:window-x="0"
     inkscape:window-y="27"
     inkscape:window-maximized="1" />
  <metadata
     id="metadata8117">
    <rdf:RDF>
      <cc:Work
         rdf:about="">
        <dc:format>image/svg+xml</dc:format>
        <dc:type
           rdf:resource="http://purl.org/dc/dcmitype/StillImage" />
        <dc:title></dc:title>
      </cc:Work>
    </rdf:RDF>
  </metadata>
  <g
     inkscape:label="Calque 1"
     inkscape:groupmode="layer"
     id="layer1"
     transform="translate(-976.52693,-283.24407)">
    <g
       id="rio-de-janeiro"
       transform="matrix(1,0,0,-1,1000.3999,287.55119)">
      <path
         d="M 0,0 C 0.056,0.096 -0.049,0.11 -0.097,0.167 -0.37,0.148 -0.649,0.132 -0.936,0.119 -0.914,0.205 -0.802,0.194 -0.837,0.336 -1.413,0.409 -1.991,0.324 -2.468,0.097 -2.553,0.02 -2.612,-0.082 -2.755,-0.094 -2.911,-0.108 -2.961,-0.034 -3.092,0 -3.953,-0.318 -5.021,-0.079 -6.064,-0.144 -6.166,-0.129 -6.11,-0.273 -6.23,-0.238 c -0.407,0.013 -0.781,0.212 -1.104,0.286 -0.136,0.031 -0.297,0.003 -0.431,0.049 -0.091,0.03 -0.171,0.129 -0.263,0.168 -0.178,0.074 -0.414,0.139 -0.623,0.215 -0.584,0.209 -1.253,0.203 -1.871,0.312 -0.093,0.171 0.007,0.342 0,0.551 -0.004,0.093 -0.05,0.194 -0.048,0.311 0.007,0.639 0.163,1.618 -0.024,2.085 -0.17,0.431 -0.989,0.765 -1.534,0.434 -0.268,-0.167 -0.53,-0.695 -0.574,-1.2 -0.071,-0.764 -0.19,-1.455 -0.265,-2.062 -0.428,-0.079 -0.917,-0.122 -1.293,-0.095 -0.565,0.038 -1.145,-0.294 -1.752,-0.336 -0.219,-0.015 -0.48,0.045 -0.692,0 -0.212,-0.044 -0.394,-0.252 -0.624,-0.289 -0.322,-0.047 -0.728,-0.056 -1.104,-0.072 -0.365,-0.013 -0.762,-0.085 -1.101,-0.071 -0.107,0.005 -0.209,0.062 -0.313,0.071 -0.293,0.029 -0.592,0.008 -0.865,0.122 -0.095,0.002 -0.039,-0.151 -0.166,-0.122 -0.295,0.059 -0.619,0.384 -0.885,0.433 -0.133,0.025 -0.26,-0.03 -0.385,-0.025 -0.232,0.01 -0.454,0.093 -0.695,0.025 -0.09,-0.114 0.087,-0.21 0.072,-0.239 -0.31,0.007 -0.595,-0.012 -0.862,-0.048 -0.054,-0.121 -0.103,-0.103 -0.239,-0.146 -0.026,-0.186 0.215,-0.145 0.12,-0.334 0.158,-0.023 0.327,-0.041 0.356,-0.192 0.509,-0.082 1.024,-0.263 1.586,-0.263 0.372,0 0.722,0.124 1.053,0 0.364,-0.578 0.693,-1.338 1.151,-1.846 0.079,-0.087 0.205,-0.211 0.312,-0.264 0.673,-0.33 1.5,0.124 2.346,0 0.615,-0.089 1.247,-0.601 1.872,-0.719 0.103,-1.32 -0.23,-2.74 -0.192,-4.074 0.047,-0.063 0.24,0.016 0.287,-0.049 -0.018,-0.166 -0.024,-0.341 -0.074,-0.479 0.056,-0.14 0.256,-0.189 0.289,-0.384 0.033,-0.181 -0.067,-0.47 -0.098,-0.742 -0.026,-0.271 -0.044,-0.566 -0.02,-0.815 0.026,-0.282 0.154,-0.439 0.214,-0.623 0.029,-0.097 -0.036,-0.195 0.071,-0.264 0,-0.368 -0.107,-0.754 -0.119,-1.15 -0.004,-0.172 0.068,-0.354 0.073,-0.528 0.03,-0.812 -0.156,-1.737 -0.192,-2.636 -0.053,-1.224 0.275,-3.139 0.194,-4.171 -0.421,-0.058 -0.401,-0.097 -0.503,-0.164 l -0.362,-0.002 c -0.401,-0.071 -0.712,-0.237 -1.141,-0.285 -0.131,-0.155 -0.046,-0.524 -0.072,-0.784 -0.184,-0.102 -0.471,-0.1 -0.641,-0.215 -0.164,-2.765 -0.519,-5.336 -0.715,-8.068 l -0.57,0 c -0.04,-0.698 -0.14,-1.334 -0.142,-2.07 2.425,-0.046 5.043,0.097 7.351,-0.07 l 6.568,0 c -0.018,0.718 -0.097,1.379 -0.145,2.07 -0.215,0.022 -0.554,-0.078 -0.57,0.143 -0.186,2.692 -0.477,5.28 -0.641,7.995 -0.19,0.094 -0.548,0.022 -0.643,0.215 l 0,0.711 c -0.486,0.111 -0.968,0.221 -1.355,0.43 l -1.1,-0.011 c -0.033,0.013 -0.07,0.021 -0.101,0.04 -0.041,1.29 0.196,3.823 0.149,5.194 0.127,0 0.271,-0.015 0.335,0.049 0.075,0.415 0.003,0.8 0.025,1.269 0.019,0.418 -0.069,0.883 0,1.199 0.025,0.12 0.166,0.258 0.19,0.385 0.032,0.163 -0.016,0.35 -0.024,0.526 -0.031,0.798 -0.002,1.775 0,2.613 0.004,1.56 -0.037,2.998 -0.095,4.553 0.525,0.035 0.901,0.355 1.461,0.503 0.776,0.205 1.737,0.157 2.587,0.193 0.178,0.007 0.36,-0.026 0.53,0 0.252,0.036 0.563,0.477 0.719,0.72 0.281,0.434 0.467,0.841 0.574,1.342 0.226,0.126 0.434,0.018 0.65,0 0.714,-0.067 1.401,0.199 2.012,0.31 0.068,0.108 0.155,0.199 0.337,0.193 -0.04,0.215 0.196,0.154 0.19,0.336 C 0.198,-0.01 0.125,0.021 0,0"
         style="fill:#39577a;fill-opacity:1;fill-rule:nonzero;stroke:none"
         id="path3718"
         inkscape:connector-curvature="0" />
    </g>
  </g>
</svg>
