<?xml version="1.0" encoding="UTF-8" standalone="no"?>
<!-- Created with Inkscape (http://www.inkscape.org/) -->

<svg
   xmlns:dc="http://purl.org/dc/elements/1.1/"
   xmlns:cc="http://creativecommons.org/ns#"
   xmlns:rdf="http://www.w3.org/1999/02/22-rdf-syntax-ns#"
   xmlns:svg="http://www.w3.org/2000/svg"
   xmlns="http://www.w3.org/2000/svg"
   xmlns:sodipodi="http://sodipodi.sourceforge.net/DTD/sodipodi-0.dtd"
   xmlns:inkscape="http://www.inkscape.org/namespaces/inkscape"
   width="15.561993mm"
   height="6.0319667mm"
   viewBox="0 0 55.140919 21.37311"
   id="svg8427"
   version="1.1"
   inkscape:version="0.91 r13725"
   sodipodi:docname="sydney.svg">
  <defs
     id="defs8429" />
  <sodipodi:namedview
     id="base"
     pagecolor="#ffffff"
     bordercolor="#666666"
     borderopacity="1.0"
     inkscape:pageopacity="0.0"
     inkscape:pageshadow="2"
     inkscape:zoom="0.35"
     inkscape:cx="-463.85811"
     inkscape:cy="10.686556"
     inkscape:document-units="px"
     inkscape:current-layer="layer1"
     showgrid="false"
     fit-margin-top="0"
     fit-margin-left="0"
     fit-margin-right="0"
     fit-margin-bottom="0"
     inkscape:window-width="1920"
     inkscape:window-height="974"
     inkscape:window-x="0"
     inkscape:window-y="27"
     inkscape:window-maximized="1" />
  <metadata
     id="metadata8432">
    <rdf:RDF>
      <cc:Work
         rdf:about="">
        <dc:format>image/svg+xml</dc:format>
        <dc:type
           rdf:resource="http://purl.org/dc/dcmitype/StillImage" />
        <dc:title></dc:title>
      </cc:Work>
    </rdf:RDF>
  </metadata>
  <g
     inkscape:label="Calque 1"
     inkscape:groupmode="layer"
     id="layer1"
     transform="translate(-347.42954,-521.67565)">
    <g
       id="sydney"
       transform="matrix(1,0,0,-1,402.53854,542.29765)">
      <path
         d="m 0,0 c 0.069,0.847 -1.526,0.029 -1.841,0.492 -0.192,0.927 0.222,1.252 0.368,1.842 -0.443,0.046 -0.881,0.07 -1.322,0.081 0.002,0.005 0.004,0.009 0.004,0.012 0.029,0.007 0.057,0.011 0.091,0.029 0.196,0.062 0.253,0.843 -0.133,0.773 -0.031,0.1 -0.073,0.193 -0.125,0.28 0.133,0.013 0.258,0.032 0.38,0.054 -0.18,0.002 -0.358,0.061 -0.53,0.15 -0.13,0.145 -0.299,0.264 -0.509,0.341 C -4.205,4.512 -4.778,5.096 -5.402,4.91 -5.45,4.896 -5.503,4.881 -5.557,4.864 c 0.166,0.19 0.278,0.395 0.339,0.609 0.201,0.175 0.392,0.358 0.572,0.55 0.003,0.007 0.009,0.013 0.018,0.02 0.101,0.114 0.199,0.23 0.295,0.349 0.023,0.025 0.041,0.048 0.059,0.075 0.079,0.1 0.157,0.202 0.23,0.306 0.025,0.035 0.047,0.067 0.071,0.102 0.067,0.095 0.134,0.191 0.194,0.288 0.026,0.038 0.05,0.079 0.073,0.115 0.06,0.097 0.115,0.19 0.168,0.285 0.024,0.041 0.046,0.079 0.069,0.12 0.054,0.096 0.106,0.194 0.159,0.292 0.018,0.035 0.036,0.071 0.053,0.104 0.066,0.133 0.127,0.264 0.189,0.391 -0.434,-0.254 -0.848,-0.529 -1.251,-0.815 -0.01,0.067 -0.022,0.131 -0.038,0.196 0.535,0.381 1.088,0.75 1.657,1.11 -3.231,0.343 -6.576,-0.025 -8.69,-1.23 -0.225,-0.019 -0.425,-0.085 -0.598,-0.184 -0.323,0.181 -0.651,0.35 -0.995,0.509 -0.707,0.327 -1.338,0.671 -2.028,0.91 0.83,1.187 1.705,2.327 2.368,3.678 -3.804,0.854 -7.987,0.016 -10.753,-1.46 -0.059,0.225 -0.183,0.427 -0.374,0.579 -0.846,1.165 -2.012,2.28 -3.045,3.059 -0.26,0.265 -0.571,0.457 -0.933,0.553 -2.448,2.692 -5.663,4.62 -10.18,5.247 0.267,-2.188 1.152,-4.41 1.227,-6.383 -1.677,1.106 -3.873,1.691 -6.504,1.841 0.166,-1.301 0.393,-2.539 0.488,-3.91 -0.008,-0.003 -0.015,-0.005 -0.023,-0.007 -1.974,0.834 -5.156,1.275 -7.585,0.605 0.902,-2.05 1.69,-4.213 2.484,-6.372 -0.036,-0.043 -0.067,-0.085 -0.101,-0.125 -0.558,1.561 -2.973,-0.413 -4.47,-0.255 0.175,-0.65 0.976,-0.979 1.863,-1.037 -0.032,-0.058 -0.055,-0.121 -0.079,-0.181 -0.309,0.02 -0.622,0.057 -0.925,0.112 -0.152,-0.816 0.418,-1.167 0.983,-1.428 0.058,-0.074 0.137,-0.168 0.215,-0.255 -0.666,0.295 -1.406,0.515 -2.302,0.58 -0.501,-0.498 -0.816,-1.18 -0.883,-2.113 -0.164,-0.436 -0.131,-0.93 0.107,-1.324 l -1.676,0 0,-0.982 17.828,0 c 1.048,-0.225 2.345,-0.033 3.411,-0.033 0.395,0 0.796,0.012 1.189,0.033 l 19.424,0 c 3.997,0 8.269,-0.313 12.028,0 C -0.933,-0.589 0.239,-0.929 0,0"
         style="fill:#638fa6;fill-opacity:1;fill-rule:nonzero;stroke:none"
         id="path3712"
         inkscape:connector-curvature="0" />
    </g>
  </g>
</svg>
