<?xml version="1.0" encoding="utf-8"?>
<!-- Generator: Adobe Illustrator 15.0.2, SVG Export Plug-In  -->
<!DOCTYPE svg PUBLIC "-//W3C//DTD SVG 1.1//EN" "http://www.w3.org/Graphics/SVG/1.1/DTD/svg11.dtd" [
	<!ENTITY ns_flows "http://ns.adobe.com/Flows/1.0/">
]>
<svg version="1.1"
	 xmlns="http://www.w3.org/2000/svg" xmlns:xlink="http://www.w3.org/1999/xlink" xmlns:a="http://ns.adobe.com/AdobeSVGViewerExtensions/3.0/"
	 x="0px" y="0px" width="35px" height="81px" viewBox="0 0 35 81" enable-background="new 0 0 35 81" xml:space="preserve">
<defs>
</defs>
<path fill="#ED1C24" d="M27.448,67.294l-0.097-0.263v-4.297h-1.568c-1.256-3.339-2.391-7.522-3.287-11.71h0.877v-2.671l-1.541-0.835
	c-0.924-5.438-1.438-11.129-1.805-16.852c-0.414-6.315-0.346-18.301-0.346-18.301h0.7l0.056-3.323l-0.82-0.012l-0.691-2.138h0.027
	l0.113-6.639L18.73,0.002V0h-0.01v0.002l-0.349,0.24l-0.118,6.638h0.029l-0.756,2.113l-0.83-0.014l-0.057,3.318l0.71,0.023
	c0,0-0.355,11.982-0.989,18.284c-0.545,5.75-1.27,11.466-2.398,16.913l-1.475,0.835v2.671h0.66c-1.045,4.213-2.354,8.41-3.746,11.71
	H7.443v4.56h0.104C5.231,72.456,2.475,77.342,0,80.38l6.096,0.104c1.827-3.95,4.957-9.294,11.409-9.183
	c6.44,0.11,9.397,5.554,11.082,9.57l6.095,0.104C32.256,77.79,29.598,72.655,27.448,67.294z M21.279,64.249h-7.388v-0.942h7.388
	V64.249z M17.451,62.734l-3.543-0.062c0,0,0.704-1.746,1.186-3.839c0.455-2.116,0.68-3.944,0.68-3.944l2.002,0.033h0.008
	l2.014,0.034c0,0,0.146,1.835,0.548,3.97c0.364,1.875,0.898,3.477,1.013,3.808H17.451z"/>
</svg>
