<?xml version="1.0" encoding="utf-8"?>
<!-- Generator: Adobe Illustrator 15.0.2, SVG Export Plug-In  -->
<!DOCTYPE svg PUBLIC "-//W3C//DTD SVG 1.1//EN" "http://www.w3.org/Graphics/SVG/1.1/DTD/svg11.dtd" [
	<!ENTITY ns_flows "http://ns.adobe.com/Flows/1.0/">
]>
<svg version="1.1"
	 xmlns="http://www.w3.org/2000/svg" xmlns:xlink="http://www.w3.org/1999/xlink" xmlns:a="http://ns.adobe.com/AdobeSVGViewerExtensions/3.0/"
	 x="0px" y="0px" width="76px" height="31px" viewBox="0 0 76 31" enable-background="new 0 0 76 31" xml:space="preserve">
<defs>
</defs>
<path fill="#ED1C24" d="M75.545,27.862c-0.727-0.146-0.351,0.807-0.791,0.943V28.16c0.252-0.913,0.248-2.036,0.101-2.831
	c-1.182-0.492-0.209,1.173-1.151,0.922c-5.373,0-10.743,0-16.118,0c0-1.205,0-2.41,0-3.616c0-0.406,0-0.813,0-1.22
	c2.313-2.369,5.443-3.922,7.829-6.219c-0.472-0.371-1.068-0.621-1.151-1.381c-2.283,0.558-6.204,0.704-8.75,0.23
	c3.398-1.59,5.454-4.523,7.368-7.6c-0.073-0.541-1.09-0.136-0.921-0.92c-2.5,0.163-6.357,0.65-9.671,0.229
	c-0.694-1.226-1.041-2.796-1.611-4.144c-2.519,2.164-7.96,1.405-12.436,1.611C38.215,2.099,38.367,0.797,38.012,0
	c-0.529,0.62-0.083,2.221-0.23,3.224c-4.313-0.292-9.906,0.695-12.202-1.611c-0.983,1.014-1.054,2.938-1.844,4.144
	c-3.335,0.192-6.792,0.331-9.674-0.46c0.16,0.771-0.384,0.842-0.921,0.92c1.631,3.361,3.686,6.298,7.371,7.6
	c-1.944,0.847-6.843,0.721-8.522-0.23c-0.378,0.541-0.529,1.31-1.38,1.382c1.506,2.333,5.681,3.991,7.83,6.448
	c0,1.611,0,3.223,0,4.836c-5.299,0-10.595,0-15.89,0c-0.989,0.3-0.729-0.654-1.152-0.922c-0.418,0.166-0.732,1.996-0.6,2.845
	c0.045,0.034,0.094,0.062,0.141,0.093v0.287c-0.068-0.068-0.113-0.205-0.141-0.38c-0.118-0.094-0.231-0.194-0.32-0.312
	c-0.757,0.394-0.363,1.938-0.46,2.993c25.253,0,50.505,0,75.758,0C75.684,29.874,76,28.483,75.545,27.862z M55.285,25.79
	c-1.383,0-2.765,0-4.149,0c0-0.921,0-1.843,0-2.764c1.385,0,2.767,0,4.149,0C55.261,23.888,54.979,24.8,55.285,25.79z
	 M35.596,26.464c0.329-0.854-0.021-2.39,0.113-3.438c1.051-0.193,2.529,0.113,4.145,0c0,1.146,0,2.291,0,3.438H35.596z
	 M20.512,23.026c1.382,0,2.764,0,4.144,0c0,0.921,0,1.843,0,2.764c-1.38,0-2.762,0-4.144,0
	C20.512,24.869,20.512,23.947,20.512,23.026z"/>
</svg>
