<?xml version="1.0" encoding="utf-8"?>
<!-- Generator: Adobe Illustrator 15.0.2, SVG Export Plug-In  -->
<!DOCTYPE svg PUBLIC "-//W3C//DTD SVG 1.1//EN" "http://www.w3.org/Graphics/SVG/1.1/DTD/svg11.dtd" [
	<!ENTITY ns_flows "http://ns.adobe.com/Flows/1.0/">
]>
<svg version="1.1"
	 xmlns="http://www.w3.org/2000/svg" xmlns:xlink="http://www.w3.org/1999/xlink" xmlns:a="http://ns.adobe.com/AdobeSVGViewerExtensions/3.0/"
	 x="0px" y="0px" width="61px" height="48px" viewBox="0 0 61 48" enable-background="new 0 0 61 48" xml:space="preserve">
<defs>
</defs>
<path fill="#123D5A" d="M57.784,46.719V25.047h0.157c0.11-1.555,0.255-3.072,0.169-4.601c0.432-1.093,1.434-1.615,1.883-2.69
	c-2.422,0.03-3.205-3.503-1.613-5.112c-5.834-0.623-12.82-0.092-19.102-0.269c-0.48-1.224-1.862-1.544-3.766-1.345
	c-0.348-0.78-0.26-1.819,0.807-1.883c0.076,0.818-0.861,1.045-0.27,1.613c0.992-1.638,0.145-3.92,0.538-5.649
	c-1.366-0.11-1.458,1.054-1.614,2.152c-1.236-0.071-0.979,1.353-1.883,1.614c0.063-1.318-0.475-2.037-0.269-3.497
	c-0.606-0.774-1.658-0.108-1.345-2.152c-0.461-0.012-0.698,0.2-0.808,0.538c-0.744-0.182,0.75-1.411-0.807-1.076
	c0.463-1.633,0.404-2.202,0.269-2.69c-0.359,0-0.717,0-1.076,0c0.132,0.345-0.679,1.256,0.538,2.152
	c-0.456,0.979-1.532,1.338-1.076,3.229c-0.24-0.21-0.608-0.29-1.076-0.27c0.063,1.679-0.188,3.04-1.076,3.767
	c-0.222-1.752-1.544-2.401-2.152-3.767c-1.238,0.286-0.408,1.614-0.269,2.69c-0.137,0.616-0.366,1.954,0,2.959
	c0.519-0.321,0.104-2.285,1.076-1.346c0.226,1.662-1.146,1.725-2.69,1.615c-0.091,0.716-0.999,0.615-1.076,1.345
	c-6.6,0.099-11.715-0.034-19.101,0c1.172,1.667,1.404,5.664-1.883,5.112c0.564,1.049,1.241,1.986,2.152,2.689
	c-0.11,3.011,0.316,5.429,0.178,8.449v18.094H0c0,0.389,0,0.779,0,1.168c20.266,0,40.534,0,60.799,0c0-0.389,0-0.779,0-1.168H57.784
	z M12.106,46.002c-1.049,0.566-3.094,0.137-4.574,0.27c-0.024-6.158,0.018-14.482,0-21.521c1.525,0,3.049,0,4.574,0
	C12.106,31.834,12.106,38.918,12.106,46.002z M21.792,46.272c-1.738-0.145-4.079,0.313-5.381-0.27c0-7.084,0-14.168,0-21.251
	c1.883,0,3.767,0,5.649,0C22.251,32.79,21.758,38.678,21.792,46.272z M33.09,9.147c0.758,0.229,1.208,0.765,1.076,1.883
	C32.886,11.323,33.069,10.155,33.09,9.147z M30.4,9.954c0.788,0.019,1.516,0.098,1.344,1.076c-0.448,0-0.896,0-1.344,0
	C30.4,10.671,30.4,10.313,30.4,9.954z M29.862,11.03c-0.761,0.043-0.627-0.809-1.345-0.807C28.875,9.54,30.275,10.054,29.862,11.03z
	 M26.365,9.415c0.269,0,0.538,0,0.807,0c0.161,0.479-0.789,1.118,0,1.346c0.192,0.73-1.269-0.191-1.076,0.539
	C25.311,10.839,26.705,10.319,26.365,9.415z M34.705,46.272c-3.533-0.023-5.422-0.053-8.877,0
	c-0.625-6.461-0.093-14.076-0.27-20.982c1.966-0.921,6.894-0.359,9.416-0.271C34.629,29.534,35.442,39.741,34.705,46.272z
	 M43.852,46.272c-1.037-0.326-4.004,0.436-5.381-0.27c0-7.084,0-14.168,0-21.251c1.793,0,3.587,0,5.381,0
	C43.885,32.309,43.85,38.502,43.852,46.272z M52.999,46.272c-1.622,0.008-3.313,0.084-4.574-0.27
	c-0.146-6.938,0.314-14.48-0.268-20.984c1.132-0.57,3.275-0.13,4.842-0.268C52.999,31.924,52.999,39.098,52.999,46.272z"/>
</svg>
