<?xml version="1.0" encoding="utf-8"?>
<!-- Generator: Adobe Illustrator 15.0.2, SVG Export Plug-In  -->
<!DOCTYPE svg PUBLIC "-//W3C//DTD SVG 1.1//EN" "http://www.w3.org/Graphics/SVG/1.1/DTD/svg11.dtd" [
	<!ENTITY ns_flows "http://ns.adobe.com/Flows/1.0/">
]>
<svg version="1.1"
	 xmlns="http://www.w3.org/2000/svg" xmlns:xlink="http://www.w3.org/1999/xlink" xmlns:a="http://ns.adobe.com/AdobeSVGViewerExtensions/3.0/"
	 x="0px" y="0px" width="68px" height="44px" viewBox="0 0 68 44" enable-background="new 0 0 68 44" xml:space="preserve">
<defs>
</defs>
<path fill="#325E82" d="M68.018,37.526c-0.014-0.694,0.229-1.877-0.148-2.317v-0.316c0.099-0.004,0.188,0.006,0.293-0.005
	c-0.021-0.194-0.137-0.313-0.293-0.392v-0.195c0.46-2.043-0.132-5.021,0.148-6.889c-0.115-0.033-0.291-0.004-0.295-0.146
	c-0.005,0-0.009,0.002-0.014,0.002v-0.097c0.133-0.009,0.242-0.06,0.309-0.198c0.008-0.24-0.12-0.381-0.309-0.473v-0.146
	c0.057,0.01,0.105,0.025,0.16,0.032c0.09-1.948-0.297-3.777,0.586-4.69c-0.256-0.045-0.494-0.107-0.746-0.158v-0.16
	c0.054,0.007,0.105,0.02,0.16,0.025c0.102-0.602-0.11-1.074-0.146-1.613c-0.066-1.018,0.207-2.048-0.438-2.639
	c-0.329,0.592-0.122,2.539-0.587,3.079c-0.426-0.613-1.763-0.278-2.199-0.88c0-0.342,0-0.684,0-1.026
	c-0.288-0.347-0.252-1.021-0.587-1.319c0.042-0.301,0.325-0.968-0.147-1.026c-0.416,0.325-0.306,0.711-0.293,1.467
	c-0.423,0.45-0.713,0.772-0.438,1.319c-0.199-0.047-0.282-0.209-0.588-0.146c-0.194,0.276,0.052,0.844-0.145,1.025
	c-0.434-0.523-1.15,0.66-1.761-0.146c-0.349,0.486-1.184,0.707-1.466,0.146c-0.158,0.423-0.443,0.486-0.88,0.293
	c0.04-1.201-0.556-1.731-0.585-2.785c-0.068,0.051-0.122,0.112-0.176,0.176c-0.004-0.02-0.002-0.039-0.008-0.061
	c-0.021-0.06-0.043-0.129-0.064-0.193c0.034-0.071,0.063-0.147,0.1-0.215c-0.07-0.048-0.143-0.096-0.215-0.143
	c-0.061-0.178-0.127-0.357-0.203-0.533c0.088-1.057-0.072-2.75-0.314-3.136c-0.002,0.39,0.082,0.864-0.293,0.88
	c-0.157-0.574,0.34-1.805-0.294-1.906c-0.093,0.494,0.19,1.362-0.146,1.613c-0.254-0.089,0.011-0.695-0.293-0.732
	c-0.218,1.006,0.167,1.145-0.146,2.052c0.042-0.288-0.199-0.291-0.293-0.44c-0.035-0.277,0.164-0.322,0.145-0.586
	c-0.594,0.203-0.461-0.318-0.877-0.293c-0.086,0.258,0.177,0.861-0.148,0.879c-0.117-0.746,0.073-1.016-0.293-1.611
	c-0.085,0.258,0.178,0.86-0.146,0.879c-0.135-0.915,0.215-1.535-0.293-1.905c-0.225,0.279,0.19,1.209-0.147,1.466
	c0.083-0.063-0.137-0.338-0.146-0.294c-0.173,0.874,0.07,1.1-0.295,1.906c-0.168-0.217-0.168-0.37,0-0.587
	c-1.11,0.351-0.553-1.604-1.025-0.293c-0.146-0.424-0.068-2.168-0.439-0.732c-0.032,0.277,0.166,0.323,0.147,0.586
	c-0.425,0.895-0.038,2.01-0.293,2.785c0.017-0.004,0.038-0.009,0.058-0.013c-0.036,0.068-0.064,0.141-0.076,0.22
	c-0.005,0.023,0,0.044-0.005,0.067c-0.146,0.046-0.292,0.095-0.417,0.165c0.639,1.164,0.354,3.348,0.44,4.838
	c0.177-0.026,0.342-0.066,0.513-0.102v0.162c-0.326,0.07-0.656,0.135-0.953,0.232c0.639,1.428,0.212,2.283,0.156,4.147
	c-0.135,0.015-0.254,0.05-0.356,0.106c-1.015,0.022-2.235,0.005-3.521-0.012c-0.039-0.01-0.08-0.018-0.117-0.029v-0.102
	c0.236-0.02,0.452-0.061,0.612-0.153c-0.261-1.407-0.153-2.092,0.293-3.078c-0.18,0-0.363,0-0.545,0
	c0.007-0.05,0.013-0.099,0.011-0.147c0.032,0.001,0.064-0.001,0.096,0c0.066-0.699,0.066-0.617,0-1.318
	c-0.41-0.006-0.858-0.051-0.867,0.344c-0.076-0.016-0.151-0.038-0.238-0.038c-0.311,0-0.539,0.116-0.703,0.286
	c-0.611,0.032-1.32-0.006-2.002-0.006c-0.82,0-1.873-0.221-2.369,0.146h-0.205c-0.002-0.008-0.007-0.016-0.007-0.023
	c0.03-0.135,0.034-0.273,0.017-0.41c0.024-0.002,0.05-0.004,0.071-0.006c0.117-0.507-0.163-0.619-0.293-0.879
	c-0.257-0.074-0.397-0.035-0.504,0.039c-0.058-0.014-0.099-0.048-0.163-0.055c-0.027-0.136-0.065-0.27-0.1-0.405
	c0.111-1.177-0.063-2.64,0.18-3.685c-0.094-0.027-0.184-0.059-0.28-0.086c-0.019-0.047-0.042-0.094-0.068-0.137
	c0.066,0.025,0.135,0.053,0.203,0.076c0.339-0.447,0.047-1.242-0.147-1.611c-0.895,0.146-0.959,0.604-1.758,0
	c0,0.002,0,0.003,0,0.005c-0.117-0.204-0.309-0.356-0.568-0.43c-0.007-0.005-0.012-0.012-0.02-0.017c0,0.003-0.002,0.006-0.002,0.01
	c-0.039-0.01-0.072-0.029-0.115-0.035v-0.121c0.186,0,0.373,0,0.557,0c-0.096-0.736,0.187-1.183,0-1.612
	c-0.252-0.062-0.424-0.048-0.557,0.011v-0.396c0.081,0.003,0.168,0.071,0.265,0.239c0.002-1.178,0.079-2.171,0.146-3.079
	c0.038-0.503,0.477-1.29-0.077-1.572c-0.02-0.071-0.038-0.144-0.06-0.216c0.049,0.008,0.085,0.025,0.137,0.029
	c0.297-0.438,0.083-1.383,0.146-2.053C38.168,5.986,38.086,5.955,38,5.926c0.006-0.043,0.023-0.084,0.023-0.127
	c0.027,0.021,0.056,0.045,0.088,0.064c-0.117-0.915,0.371-1.535-0.293-1.905c-0.133,0.264-0.147,0.647-0.282,0.907
	c-0.087-0.055-0.188-0.095-0.299-0.122c0.03-1.316-0.358-2.532-0.005-3.717c-0.337,0.045-0.162-0.424-0.439-0.439
	c-0.173,0.767,0.081,1.79-0.586,2.345c0-0.814,0.118-2.357-0.439-2.785c-0.07,1.348-0.428,2.52-0.44,3.518
	c-0.551-0.328-0.692-1.066-1.32-1.318c-0.165,0.617-0.66,0.902-1.025,1.318C33.059,1.936,32.63,1.273,32.395,0
	c-0.585,0.413,0.259,1.596-0.438,2.053c-0.857-0.371,0.196-1.096-0.588-1.613c-0.246,1.324-0.092,2.656-0.284,3.855
	c-0.171,0.162-0.263,0.357-0.295,0.56c-0.256-0.347,0.158-0.837-0.447-0.896c-0.141,0.304-0.156,0.952-0.147,1.759
	c0.064-0.025,0.116-0.064,0.175-0.095v0.009c-0.07,0.111-0.111,0.236-0.137,0.365C30.222,6,30.211,6.006,30.196,6.01
	c0,0.604,0,1.207,0,1.812c-0.128,0.22-0.173,0.472-0.137,0.725c0.034,1.514,0.353,2.739,0.284,4.354
	c0.011-0.007,0.017-0.018,0.028-0.025v0.171c-0.107,0-0.213,0-0.32,0c0,0.538,0,1.075,0,1.612c0.077,0.029,0.196,0.015,0.32,0v0.186
	c-0.177,0.08-0.263,0.252-0.295,0.477c-0.07,0.008-0.141,0.019-0.213,0.029c-0.028-0.057-0.062-0.102-0.107-0.104
	c-0.041,0.062-0.077,0.098-0.113,0.142c-0.209,0.038-0.414,0.093-0.617,0.158c-0.231-0.108-0.491-0.305-0.88-0.3
	c-0.113,0.154-0.19,0.609-0.175,1.004c-0.105,0.157-0.184,0.332-0.197,0.543c-0.041,0.664,0.045,1.423,0.154,2.081
	c0.135,0.807,0.124,1.619,0.165,2.423c-0.028-0.004-0.053-0.007-0.079-0.013c-0.013-0.003-0.025-0.001-0.039-0.004
	c-0.034-0.162-0.083-0.31-0.417-0.171c-0.248,0.055-0.399,0.205-0.489,0.419c-0.209,0.195-0.335,0.472-0.363,0.753
	c-1.67,0-3.341,0-5.009,0c-0.229-0.26-0.197-0.781-0.88-0.586c-0.333,0.155-0.058,0.922-0.147,1.318c0.049,0,0.096,0,0.146,0
	c-0.032,0.048-0.058,0.099-0.081,0.15c-0.167-0.002-0.342,0.004-0.504-0.003c0.626,0.862,0.342,1.782,0.44,3.225
	c0.197,0,0.391,0,0.587,0v0.161c-1.395,0.021-2.76,0.012-3.958-0.161c-0.036,0.149-0.025,0.252,0.006,0.334
	c-0.051-0.013-0.109-0.019-0.16-0.03c0.015-0.039,0.021-0.088,0.006-0.156c-0.089-1.267,0.133-2.154-0.292-3.227
	c0.354-0.182,0.474-0.6,0.585-1.025c-0.156-0.082-0.389-0.088-0.585-0.132v-0.221c0.109-0.067,0.163-0.188,0.147-0.38
	c-0.081-0.162-0.122-0.361-0.147-0.572v-0.308h-0.025c-0.021-0.837,0.184-1.834,0.03-2.323c0.002-0.012,0.004-0.023,0.008-0.036
	c0.289-0.24,0.361-0.696,0.573-1.012c-0.128-0.085-0.269-0.159-0.413-0.23c-0.008-0.234-0.058-0.441-0.173-0.592
	c0-0.001-0.002-0.003-0.002-0.003c-0.03-0.826-0.041-2.445-0.291-3.427c0.122-0.347-0.208-0.675-0.147-0.146
	c-0.023,0.172,0.025,0.416-0.146,0.439c-0.089,0.261,0.43,0.608,0,0.732c-0.021-0.272-0.096-0.489-0.292-0.586
	c0.306,0.867-0.382,0.667-0.587,0.879c-0.156,0.162,0.401,0.795-0.295,0.587c0.013-0.671,0.09-2.39-0.438-1.612
	c0.107-0.545,0.146-1.008-0.147-1.466c-0.079,0.8,0.028,2.197-0.44,1.026c-0.175,0.973,0.111,1.027-0.146,1.758
	c-0.203-0.189-0.145-0.636-0.147-1.025c-0.314,0.175-0.701,0.277-0.88,0.586c0.359,0.094,0.023,0.686-0.146,0.733
	c0.002-0.784,0.058-1.622-0.294-2.052c-0.079,0.213,0.173,0.757-0.146,0.732c-0.284-0.469,0.147-1.11-0.292-1.613
	c-0.167,0.594,0.006,1.199-0.295,1.906c-0.056-0.383-0.075-0.805-0.292-1.025c-0.007,1.117-0.199,1.994-0.146,3.463
	c-0.049,0.086-0.087,0.178-0.122,0.275c-0.056,0.025-0.111,0.051-0.171,0.072c0.034,0.091,0.058,0.193,0.085,0.289
	c-0.015,0.119-0.023,0.244-0.021,0.373c0,0.068,0.013,0.137,0.021,0.205c-0.079-0.175-0.199-0.322-0.38-0.428
	c-0.081,0.848-0.413,1.803-0.733,2.785c-0.363,0.378-0.521-0.099-0.732-0.293c-0.276,0.606-1.07,0.331-1.466-0.146
	c-0.615,0.802-1.271-0.389-1.758,0.146c-0.139-0.553-0.008-0.688-0.147-1.025c-0.252-0.059-0.376,0.217-0.44,0
	c-0.019-0.666-0.374-0.995-0.587-1.467c0.126-0.198,0.222-1.305-0.44-1.173c-0.02,1.077-0.506,2.3-0.73,3.665
	c-0.654,0.079-1.649,0.178-2.201,0.587c-0.199-1.346-0.008-2.585-0.585-3.079c-0.365,1.164-0.282,2.776-0.434,4.154
	c-0.068,0.14-0.1,0.285-0.096,0.437C0.227,21.817,0.098,21.887,0,21.988c0.81,0.706,0.286,2.725,0.44,4.397
	c0.066-0.009,0.124-0.023,0.19-0.034c-0.027,0.038-0.047,0.08-0.068,0.12c-0.207,0.048-0.384,0.14-0.414,0.354
	c0.07,0.125,0.167,0.21,0.28,0.263c0.008,0.107,0.021,0.217,0.058,0.318c-0.104,0.059-0.246,0.081-0.192,0.299
	c0.064,1.615-0.083,3.768,0,5.277c0.02,0.307-0.179,0.979,0.103,1.225c-0.017,0.09-0.034,0.178-0.032,0.27
	c-0.12,0.041-0.201,0.12-0.216,0.265c0.066,0.076,0.175,0.116,0.305,0.14c0.03,0.072,0.071,0.139,0.113,0.202
	c-0.094,0.017-0.188,0.042-0.273,0.098c0.088,3.378-0.175,5.498-0.145,8.796c0.207-0.018,0.429-0.021,0.653-0.023v0.075h25.886
	h2.337h9.78c0.135-0.021,0.273-0.03,0.408-0.052c0.808,0,1.613,0,2.421,0h0.146c3.078,0,6.156,0,9.234,0h0.146
	c0.687,0,1.37,0,2.054,0h1.826c0.356,0.014,0.727,0.024,1.104,0h0.147c0.635,0,1.271,0,1.905,0h0.147c1.416,0,2.832,0,4.252,0h0.145
	c0.489,0,0.979,0,1.465,0h0.148c0.977,0,1.955,0,2.933,0h0.585c0.62-0.238,0.311-1.055,0.293-1.613
	C68.116,40.82,68.042,39.211,68.018,37.526z M11.288,19.643c-0.062-0.423-0.036-0.885-0.058-1.307
	c0.053,0.217,0.107,0.424,0.12,0.604c0.023,0.333,0.019,0.654,0.004,0.975C11.331,19.824,11.301,19.734,11.288,19.643z
	 M32.102,3.078c-0.218-0.125-0.314-0.369-0.292-0.732C32.13,2.367,32.124,2.715,32.102,3.078z M36.419,4.908
	c-0.002-0.023-0.009-0.046-0.013-0.068c0.034,0.007,0.07,0.012,0.104,0.019C36.481,4.877,36.448,4.889,36.419,4.908z"/>
</svg>
