<?xml version="1.0" encoding="utf-8"?>
<!-- Generator: Adobe Illustrator 15.0.2, SVG Export Plug-In  -->
<!DOCTYPE svg PUBLIC "-//W3C//DTD SVG 1.1//EN" "http://www.w3.org/Graphics/SVG/1.1/DTD/svg11.dtd" [
	<!ENTITY ns_flows "http://ns.adobe.com/Flows/1.0/">
]>
<svg version="1.1"
	 xmlns="http://www.w3.org/2000/svg" xmlns:xlink="http://www.w3.org/1999/xlink" xmlns:a="http://ns.adobe.com/AdobeSVGViewerExtensions/3.0/"
	 x="0px" y="0px" width="36px" height="45px" viewBox="0 0 36 45" enable-background="new 0 0 36 45" xml:space="preserve">
<defs>
</defs>
<path fill="#325E82" d="M18.655,13.221c-0.308,0.867-1.187,1.164-1.615,1.91c0.647,0.282,1.501,0.358,2.056,0.734
	c0.488-0.313-0.44-0.428-0.294-0.881c4.388-4.965,8.943-9.762,13.22-14.837c1.472,0.878,2.581,2.12,3.966,3.085
	c-4.16,5.24-8.774,10.025-13.072,15.13c0.382,0.842,1.135,1.312,1.762,1.909c1.422-0.146,2.92-0.214,4.407-0.294
	c0.418-0.12,0.016-1.063,0.588-1.027c-0.046,0.8-0.262,1.01,0.44,1.175c0.021,0.413-0.36,0.423-0.734,0.44
	c-0.324,1.536-0.72,3.002-1.028,4.554c2.306,2.492,4.986,4.609,7.491,6.904c-0.896,1.455-2.213,2.487-3.085,3.965
	c-1.985-1.588-3.854-3.293-5.728-4.994c-0.996,2.583,0.779,5.496,1.615,7.639c-0.203,0.336-1.023,0.055-1.469,0.146
	c-0.094,1.866,0.189,4.106-0.146,5.729c-6.145-0.005-11.229-0.028-17.188,0c0-1.812,0-3.623,0-5.435
	c-0.203-0.335-1.021-0.055-1.469-0.146c1.441-2.795,2.699-5.756,3.818-9.402c0.277-0.898,1.146-2.795,0.148-2.938
	c-0.403-0.058-2.092,2.076-2.205,2.203c-2.12,2.396-4.08,4.719-6.168,6.904C2.493,34.817,1.385,33.576,0,32.611
	c2.866-3.303,5.735-6.604,8.665-9.843c-0.217-0.811-1.09-0.964-1.321-1.762c-0.544-0.091-1.511,0.237-1.614-0.295
	c0.22-0.624,1.271-0.011,0.586-0.881c0.952,0.642,2.9,0.939,4.113,0.588c1.164-0.339,1.771-2.193,2.791-2.938
	c0.271-0.197,1.058,0.302,1.175-0.734C9.896,12.187,4.717,8.309,0.293,3.674C1.358,2.486,2.337,1.213,3.378,0
	C8.608,4.27,13.448,8.928,18.655,13.221z M3.084,1.029c0.165,0.03,0.229,0.162,0.294,0.293c0.4,0.107,0.297-0.291,0.588-0.293
	C3.993,0.309,3.058,0.309,3.084,1.029z M4.407,2.057c0.062-0.279,0.42-0.266,0.292-0.734C4.3,1.43,4.403,1.031,4.112,1.029
	C3.796,1.569,3.864,1.76,4.407,2.057z M2.497,1.764c0.291,0.002,0.186,0.4,0.587,0.293c0.458-0.355,0.111-0.65-0.294-0.881
	C2.788,1.467,2.39,1.362,2.497,1.764z M33.784,2.645c0.402-0.454,0.193-0.789-0.294-1.028C32.979,2.003,33.042,2.501,33.784,2.645z
	 M4.553,2.35c0.71,0.824,1.48-0.491,0.295-0.586C4.954,2.164,4.556,2.059,4.553,2.35z M2.349,2.938
	C2.757,2.658,2.72,1.892,2.057,1.91C1.74,2.45,1.808,2.642,2.349,2.938z M3.23,2.498C3.632,2.391,3.527,2.79,3.818,2.791
	C3.85,2.626,3.981,2.563,4.112,2.498C4.14,1.777,3.203,1.777,3.23,2.498z M34.226,3.232c0.4,0.106,0.296-0.293,0.587-0.295
	c-0.018-0.373-0.214-0.568-0.587-0.588C33.987,2.744,33.888,2.91,34.226,3.232z M4.553,3.525c0.063-0.28,0.421-0.265,0.295-0.734
	C4.446,2.898,4.552,2.499,4.259,2.498C3.943,3.038,4.011,3.229,4.553,3.525z M5.435,3.086C5.599,3.115,5.663,3.25,5.729,3.379
	c0.399,0.106,0.295-0.292,0.586-0.293C6.344,2.365,5.407,2.365,5.435,3.086z M32.462,3.086c0.166,0.029,0.229,0.164,0.294,0.293
	c0.401,0.106,0.297-0.292,0.588-0.293C33.372,2.365,32.434,2.365,32.462,3.086z M2.497,3.232c0.283,0.349,0.744,0.349,1.028,0
	C3.479,2.384,2.651,2.691,2.497,3.232z M34.665,3.525c0.166,0.031,0.229,0.164,0.295,0.295c0.4,0.106,0.296-0.292,0.587-0.295
	c-0.018-0.373-0.214-0.568-0.587-0.588C35.067,3.339,34.667,3.234,34.665,3.525z M6.757,4.113C6.788,3.947,6.92,3.885,7.05,3.82
	C7.04,3.389,6.715,3.275,6.463,3.086C6.061,3.54,6.271,3.873,6.757,4.113z M33.931,3.967c0.033-0.113,0.005-0.29,0.147-0.293
	c0.024-0.368-0.226-0.461-0.44-0.588C33.221,3.431,33.042,3.975,33.931,3.967z M3.378,3.967C3.542,3.997,3.606,4.13,3.671,4.26
	c0.402,0.107,0.296-0.291,0.588-0.293C4.25,3.537,3.924,3.422,3.671,3.232C3.781,3.685,3.269,3.515,3.378,3.967z M5.435,4.113
	c0.314-0.313,0.055-0.8-0.295-0.881C4.752,3.52,4.813,4.1,5.435,4.113z M31.728,3.967c0.401-0.107,0.296,0.291,0.588,0.293
	c0.512-0.387,0.447-0.885-0.294-1.027C31.959,3.512,31.705,3.602,31.728,3.967z M7.785,4.555C7.823,4.076,7.61,3.848,7.197,3.82
	C6.66,4.247,7.182,4.988,7.785,4.555z M34.96,4.113C33.546,3.084,34.223,5.613,34.96,4.113L34.96,4.113z M4.112,4.701
	c0.4-0.106,0.296,0.292,0.587,0.293C4.763,4.715,5.017,4.626,4.993,4.26c-0.209-0.034-0.247-0.24-0.44-0.293
	C4.508,4.313,4.044,4.24,4.112,4.701z M5.581,4.555c0.402-0.107,0.296,0.291,0.588,0.294c0.076-0.218,0.218-0.37,0.294-0.589
	C6.175,3.871,5.596,3.933,5.581,4.555z M32.462,4.555c0.541,0.316,0.732,0.248,1.028-0.295C33.126,3.77,32.662,4.109,32.462,4.555z
	 M31.728,4.994c0.076-0.217,0.218-0.369,0.294-0.587C31.313,3.585,30.542,4.898,31.728,4.994z M7.05,5.436
	C7.018,5.158,7.216,5.111,7.197,4.849C6.796,4.955,6.901,4.557,6.608,4.555C6.261,4.954,6.283,5.477,7.05,5.436z M7.785,5.141
	c0.292,0.002,0.187,0.402,0.587,0.295c0.076-0.218,0.217-0.37,0.293-0.587c-0.279-0.063-0.264-0.42-0.734-0.294
	C7.966,4.832,7.767,4.879,7.785,5.141z M33.344,5.141c0.165,0.031,0.229,0.164,0.294,0.295c0.401,0.107,0.297-0.293,0.588-0.295
	C34.253,4.422,33.315,4.422,33.344,5.141z M5.581,5.582c-0.107-0.4,0.293-0.296,0.293-0.588C5.595,4.933,5.61,4.575,5.14,4.701
	C4.792,5.102,4.814,5.623,5.581,5.582z M32.169,5.582c0.4,0.107,0.295-0.292,0.587-0.293c-0.018-0.373-0.213-0.57-0.587-0.588
	C31.931,5.096,31.831,5.26,32.169,5.582z M30.405,5.436c0.166,0.031,0.229,0.163,0.294,0.295c0.401,0.105,0.297-0.293,0.588-0.295
	C31.315,4.717,30.379,4.717,30.405,5.436z M8.52,5.877C8.92,5.77,8.815,6.168,9.106,6.17c0.316-0.539,0.249-0.73-0.293-1.029
	C8.749,5.421,8.497,5.51,8.52,5.877z M6.315,6.316C6.207,5.865,6.72,6.035,6.608,5.582c-0.4,0.107-0.295-0.292-0.586-0.293
	C5.704,5.658,5.612,6.295,6.315,6.316z M7.785,6.17c0.032-0.115,0.003-0.289,0.146-0.293c-0.018-0.375-0.213-0.57-0.587-0.588
	C7.024,5.625,7.29,6.205,7.785,6.17z M32.609,5.877c0.165,0.029,0.229,0.163,0.294,0.293c0.4,0.106,0.296-0.293,0.587-0.293
	c-0.018-0.375-0.214-0.57-0.587-0.588C33.01,5.689,32.611,5.584,32.609,5.877z M31.435,6.316c0.4,0.107,0.296-0.291,0.587-0.293
	c0.024-0.368-0.226-0.46-0.44-0.588C31.335,5.822,30.983,5.93,31.435,6.316z M29.672,6.17C31.162,7.276,30.291,4.552,29.672,6.17
	L29.672,6.17z M9.988,6.758c0.032-0.113,0.004-0.291,0.146-0.293c-0.017-0.374-0.213-0.57-0.586-0.588
	C9.199,6.276,9.222,6.799,9.988,6.758z M6.463,6.758c0.218,0.076,0.37,0.217,0.587,0.293c0.064-0.279,0.316-0.368,0.294-0.734
	c-0.291-0.002-0.187-0.4-0.587-0.293C6.693,6.303,6.44,6.393,6.463,6.758z M7.931,6.611C8.333,6.504,8.228,6.902,8.52,6.904
	c-0.108-0.4,0.292-0.295,0.294-0.588c-0.28-0.063-0.266-0.419-0.735-0.293C8.112,6.301,7.913,6.348,7.931,6.611z M31.874,6.611
	c0.406,0.476,0.748,0.451,1.029-0.146c-0.299-0.044-0.289-0.397-0.588-0.441C32.272,6.322,31.918,6.311,31.874,6.611z M29.672,7.346
	c0.401-0.455,0.192-0.789-0.294-1.029C28.866,6.703,28.93,7.203,29.672,7.346z M30.554,6.904c0.355,0.457,0.648,0.111,0.881-0.293
	C31.146,6.221,30.566,6.282,30.554,6.904z M9.399,7.492C9.653,7.005,9.312,6.854,8.96,6.611C8.522,6.922,8.675,7.574,9.399,7.492z
	 M10.134,6.758c-0.037,0.479,0.176,0.707,0.589,0.734c-0.106-0.4,0.292-0.295,0.294-0.588C10.788,6.727,10.444,6.436,10.134,6.758z
	 M7.49,7.639c0.432-0.01,0.546-0.336,0.735-0.588C7.945,6.988,7.96,6.632,7.49,6.758C7.253,7.15,7.153,7.316,7.49,7.639z
	 M31.287,7.492c0.292,0.002,0.187,0.4,0.587,0.293c0.078-0.217,0.218-0.369,0.295-0.588C31.881,6.809,31.302,6.869,31.287,7.492z
	 M28.35,7.785c0.165,0.032,0.228,0.164,0.294,0.295c0.431-0.01,0.545-0.336,0.734-0.588c-0.307-0.086-0.475-0.309-0.734-0.441
	C28.753,7.503,28.24,7.334,28.35,7.785z M30.112,7.934c0.4,0.105,0.295-0.293,0.587-0.295c-0.017-0.373-0.214-0.569-0.587-0.588
	C29.874,7.445,29.774,7.609,30.112,7.934z M10.87,7.934c0.399-0.108,0.295,0.29,0.586,0.293c0.318-0.539,0.249-0.731-0.293-1.029
	C11.101,7.479,10.744,7.465,10.87,7.934z M7.931,7.934C8.337,8.409,8.679,8.385,8.96,7.785C8.661,7.743,8.673,7.389,8.372,7.346
	C8.329,7.645,7.975,7.633,7.931,7.934z M9.399,7.934c0.402-0.108,0.298,0.29,0.589,0.293c0.031-0.165,0.162-0.229,0.294-0.293
	C10.31,7.213,9.373,7.213,9.399,7.934z M30.554,8.227c0.164,0.031,0.229,0.163,0.293,0.294c0.402,0.106,0.297-0.292,0.588-0.294
	c-0.018-0.374-0.214-0.568-0.588-0.588C30.953,8.039,30.555,7.934,30.554,8.227z M29.378,8.668c0.4,0.106,0.295-0.293,0.588-0.295
	c0.023-0.367-0.226-0.459-0.441-0.588C29.279,8.172,28.927,8.281,29.378,8.668z M10.134,8.521c0.281,0.062,0.37,0.316,0.736,0.294
	c0.457-0.356,0.109-0.65-0.295-0.881C10.532,8.232,10.179,8.221,10.134,8.521z M11.604,8.521c0.164,0.03,0.229,0.163,0.293,0.294
	c0.4,0.106,0.296-0.293,0.588-0.294C12.513,7.801,11.577,7.801,11.604,8.521z M27.614,8.521c0.371,0.317,1.007,0.41,1.029-0.294
	C28.188,7.995,27.694,7.76,27.614,8.521z M9.399,9.107c0.065-0.279,0.317-0.368,0.295-0.734c-0.292-0.001-0.188-0.4-0.588-0.293
	C8.7,8.36,8.737,9.127,9.399,9.107z M29.818,8.961c0.405,0.476,0.747,0.453,1.028-0.146c-0.299-0.044-0.289-0.398-0.588-0.441
	C30.216,8.673,29.862,8.662,29.818,8.961z M11.017,9.255c0.291,0.002,0.188,0.4,0.588,0.294c0.457-0.356,0.111-0.649-0.294-0.881
	C11.308,8.959,10.909,8.855,11.017,9.255z M13.366,8.961C11.953,7.932,12.629,10.461,13.366,8.961L13.366,8.961z M26.881,9.255
	c0.26,0.132,0.428,0.354,0.733,0.44c0.064-0.279,0.317-0.369,0.295-0.734c-0.4,0.107-0.296-0.293-0.588-0.293
	C27.278,8.967,26.925,8.955,26.881,9.255z M28.496,9.255c0.336,0.317,0.917,0.054,0.882-0.44C28.935,8.604,28.53,8.692,28.496,9.255
	z M9.548,9.402c0.164,0.029,0.229,0.162,0.293,0.293c0.431-0.01,0.546-0.336,0.734-0.588C10.296,8.701,9.528,8.738,9.548,9.402z
	 M13.22,9.99c0.783,0.485,1.113-0.561,0.293-0.735C13.451,9.535,13.094,9.521,13.22,9.99z M29.231,9.842
	c0.291,0.002,0.187,0.401,0.587,0.295c0.075-0.218,0.217-0.371,0.294-0.588C29.825,9.16,29.245,9.221,29.231,9.842z M10.282,10.137
	c0.453,0.401,0.787,0.191,1.028-0.295c-0.3-0.042-0.288-0.396-0.588-0.439C10.678,9.748,10.213,9.675,10.282,10.137z M12.339,10.283
	c0.03-0.165,0.162-0.229,0.293-0.293c-0.018-0.374-0.214-0.571-0.588-0.588C11.587,9.758,11.934,10.051,12.339,10.283z
	 M26.293,10.137c0.454,0.401,0.788,0.191,1.028-0.295c-0.306-0.086-0.475-0.309-0.733-0.439
	C26.524,9.683,26.167,9.667,26.293,10.137z M28.056,10.283c0.463,0.021,0.505-0.377,0.588-0.734
	c-0.277,0.032-0.324-0.165-0.588-0.146C27.817,9.795,27.718,9.96,28.056,10.283z M12.632,10.576
	c0.293,0.003,0.188,0.401,0.588,0.295c0.457-0.356,0.111-0.65-0.295-0.881C12.925,10.281,12.525,10.176,12.632,10.576z
	 M13.954,10.576c0.165,0.031,0.229,0.164,0.293,0.295c0.401,0.106,0.297-0.292,0.588-0.295C14.863,9.857,13.927,9.857,13.954,10.576
	z M28.79,10.871c0.431-0.011,0.546-0.336,0.734-0.588c-0.451,0.109-0.281-0.403-0.734-0.293
	C28.552,10.383,28.453,10.548,28.79,10.871z M11.017,10.724c0.3,0.043,0.288,0.397,0.588,0.44c0.045-0.347,0.51-0.273,0.439-0.734
	C11.68,9.938,11.216,10.279,11.017,10.724z M27.028,10.724c0.453,0.402,0.787,0.192,1.027-0.294
	c-0.217-0.076-0.37-0.217-0.587-0.293C27.425,10.436,27.071,10.424,27.028,10.724z M25.559,10.871
	c0.279,0.063,0.369,0.315,0.734,0.293c0.003-0.291,0.401-0.187,0.295-0.588C26.218,10.26,25.581,10.166,25.559,10.871z
	 M11.897,11.458c0.166,0.03,0.229,0.163,0.293,0.294c0.432-0.01,0.547-0.336,0.734-0.588c-0.298-0.043-0.287-0.397-0.586-0.44
	C12.293,11.07,11.828,10.996,11.897,11.458z M13.366,11.312c0.293,0.001,0.188,0.399,0.588,0.294
	c0.457-0.357,0.111-0.65-0.293-0.882C13.659,11.016,13.259,10.91,13.366,11.312z M15.276,11.605
	c0.063-0.281,0.419-0.268,0.293-0.734C14.73,10.441,14.495,11.392,15.276,11.605z M27.763,11.312
	c0.279,0.406,1.047,0.368,1.027-0.294c-0.4,0.107-0.295-0.293-0.587-0.294C28.159,11.023,27.806,11.012,27.763,11.312z
	 M24.824,11.605c0.306,0.086,0.475,0.309,0.734,0.44c0.063-0.28,0.317-0.369,0.293-0.734c-0.218-0.077-0.368-0.218-0.587-0.294
	C25.222,11.316,24.868,11.305,24.824,11.605z M26.44,11.605c0.113,0.032,0.289,0.004,0.293,0.146
	c0.375-0.018,0.57-0.215,0.588-0.588C26.986,10.846,26.404,11.111,26.44,11.605z M15.423,11.898
	c0.404,0.477,0.748,0.453,1.029-0.146c-0.301-0.043-0.288-0.398-0.588-0.44C15.82,11.611,15.466,11.6,15.423,11.898z M12.632,12.193
	c0.454,0.401,0.789,0.191,1.029-0.295c-0.3-0.043-0.287-0.396-0.588-0.44C13.027,11.805,12.563,11.73,12.632,12.193z M14.688,12.34
	c0.031-0.166,0.162-0.23,0.293-0.294c-0.017-0.373-0.213-0.57-0.587-0.588C13.937,11.814,14.284,12.107,14.688,12.34z
	 M27.175,12.193c0.217,0.075,0.37,0.217,0.588,0.293c-0.109-0.453,0.402-0.283,0.293-0.734
	C27.612,11.542,27.208,11.63,27.175,12.193z M24.236,12.34c0.3,0.043,0.288,0.396,0.588,0.44c0.044-0.3,0.397-0.288,0.44-0.587
	C24.903,11.861,24.303,11.525,24.236,12.34z M25.706,12.34c0.4-0.107,0.295,0.291,0.587,0.293c-0.109-0.451,0.403-0.281,0.295-0.734
	c-0.2-0.046-0.282-0.209-0.589-0.146C25.923,11.969,25.782,12.122,25.706,12.34z M14.835,12.633
	c0.301,0.107,0.582,0.461,0.883,0.147c0.11-0.552-0.385-0.497-0.588-0.734C15.235,12.447,14.837,12.342,14.835,12.633z
	 M16.306,12.633c0.164,0.031,0.228,0.164,0.293,0.295c0.4,0.107,0.295-0.293,0.588-0.295C17.212,11.914,16.276,11.914,16.306,12.633
	z M13.366,12.78c0.301,0.044,0.289,0.397,0.588,0.44c0.045-0.347,0.511-0.272,0.44-0.734C14.028,11.995,13.566,12.336,13.366,12.78z
	 M26.44,12.928c0.453,0.401,0.788,0.191,1.028-0.295C27.099,12.315,26.461,12.224,26.44,12.928z M25.117,13.074
	c0.356,0.457,0.65,0.109,0.882-0.294C25.712,12.391,25.132,12.451,25.117,13.074z M23.502,13.221
	c0.452-0.108,0.282,0.403,0.734,0.293c0.03-0.164,0.163-0.229,0.294-0.293C24.584,12.473,23.448,12.473,23.502,13.221z
	 M14.247,13.514c0.166,0.031,0.229,0.164,0.295,0.295c0.748,0.054,0.748-1.082,0-1.028C14.651,13.232,14.14,13.063,14.247,13.514z
	 M15.718,13.369c0.291,0,0.186,0.398,0.588,0.293c0.457-0.355,0.109-0.65-0.295-0.882C16.009,13.072,15.61,12.967,15.718,13.369z
	 M17.04,13.369c0.399-0.109,0.295,0.291,0.586,0.293c0.063-0.28,0.421-0.268,0.295-0.734C17.477,12.717,17.073,12.804,17.04,13.369z
	 M25.706,13.662c0.279,0.063,0.368,0.316,0.734,0.293c0.001-0.292,0.4-0.188,0.293-0.586c-0.217-0.078-0.369-0.218-0.587-0.295
	C26.104,13.374,25.749,13.362,25.706,13.662z M24.383,13.955c0.278-0.033,0.323,0.166,0.589,0.148
	c0.031-0.166,0.162-0.23,0.293-0.295c0.025-0.367-0.225-0.46-0.44-0.588C24.778,13.567,24.313,13.494,24.383,13.955z M22.769,13.955
	c0.46-0.069,0.388,0.395,0.733,0.44c0.063-0.278,0.315-0.368,0.293-0.733c-0.28-0.063-0.265-0.42-0.733-0.293
	C23.169,13.768,22.771,13.663,22.769,13.955z M14.981,14.25c0.166,0.029,0.23,0.162,0.295,0.293c0.748,0.053,0.748-1.082,0-1.029
	C15.386,13.967,14.874,13.797,14.981,14.25z M17.04,14.396c0.029-0.165,0.162-0.228,0.293-0.292
	c-0.018-0.375-0.215-0.571-0.588-0.59C16.288,13.87,16.634,14.164,17.04,14.396z M25.117,14.543
	c0.401-0.106,0.296,0.292,0.589,0.294c-0.111-0.452,0.402-0.282,0.293-0.733c-0.217-0.078-0.369-0.219-0.587-0.295
	C25.521,14.26,25.009,14.091,25.117,14.543z M16.306,15.277c0.453-0.44,0.496-0.917-0.148-1.174
	C15.786,14.624,15.616,14.977,16.306,15.277z M22.181,14.396c0.009,0.431,0.336,0.546,0.588,0.735
	c0.043-0.301,0.396-0.288,0.439-0.588C22.858,14.258,22.562,13.913,22.181,14.396z M23.942,14.837
	c0.375-0.019,0.57-0.214,0.588-0.587C24.126,13.792,23.486,14.432,23.942,14.837z M24.383,15.277
	c0.401-0.107,0.298,0.291,0.589,0.294c0.043-0.3,0.397-0.288,0.44-0.587C25.131,14.577,24.364,14.614,24.383,15.277z M22.181,15.865
	c0.031-0.166,0.162-0.229,0.293-0.294c-0.01-0.431-0.336-0.546-0.587-0.734C21.374,15.223,21.439,15.723,22.181,15.865z
	 M23.062,15.424c0.356,0.458,0.648,0.11,0.881-0.293C23.655,14.742,23.075,14.802,23.062,15.424z M23.795,16.012
	c0.165,0.031,0.229,0.162,0.296,0.293c0.399,0.107,0.295-0.291,0.586-0.293C24.705,15.291,23.769,15.291,23.795,16.012z
	 M20.712,16.305c0.46-0.068,0.387,0.396,0.734,0.441c0.07-0.174,0.156-0.333,0.293-0.441c-0.01-0.43-0.336-0.544-0.587-0.733
	C21.021,15.831,20.798,16,20.712,16.305z M22.621,16.453c0.401,0.105,0.296-0.293,0.587-0.294c0.024-0.368-0.225-0.46-0.439-0.588
	C22.522,15.957,22.169,16.066,22.621,16.453z M23.355,17.04c0.4,0.106,0.296-0.292,0.587-0.294
	c-0.018-0.373-0.213-0.569-0.587-0.587C23.116,16.553,23.018,16.718,23.355,17.04z M21.592,17.04
	c0.278-0.032,0.324,0.165,0.589,0.146c0.031-0.163,0.162-0.228,0.293-0.292c0.025-0.369-0.225-0.461-0.44-0.59
	C21.987,16.652,21.522,16.579,21.592,17.04z M22.327,17.628c0.4-0.107,0.295,0.292,0.588,0.293c0.043-0.3,0.396-0.287,0.44-0.587
	c-0.3-0.043-0.289-0.397-0.587-0.439C22.723,17.239,22.257,17.166,22.327,17.628z M13.22,18.803
	c-0.06-0.354,0.268-0.318,0.146-0.734C12.837,17.989,12.494,18.852,13.22,18.803z M12.044,19.391
	c0.281,0.063,0.369,0.316,0.734,0.294c0.034-0.114,0.006-0.29,0.146-0.294c0.025-0.367-0.225-0.461-0.439-0.588
	C12.442,19.102,12.088,19.092,12.044,19.391z M11.456,20.271c0.115,0.033,0.291,0.004,0.295,0.147
	c0.374-0.019,0.569-0.214,0.588-0.588c-0.4,0.106-0.297-0.292-0.588-0.294C11.688,19.816,11.33,19.803,11.456,20.271z
	 M25.117,20.712c0.239,0.447,0.344,1.028,1.029,1.028c0.464,0.072,0.054-0.729,0.587-0.587c-0.288,0.779,0.877,0.103,0.588,0.88
	c-0.037,0.307-0.645,0.041-0.733,0.295c-0.03,0.46,0.099,1.078-0.147,1.322c0.543,0.435,1.053,0.905,1.615,1.322
	c0.36-1.453,0.669-2.955,1.028-4.407C27.764,20.537,26.077,20.862,25.117,20.712z M9.106,22.328c0.314-0.47,0.691-0.875,1.027-1.321
	c-0.785,0.096-1.955-0.194-2.496,0.146C8.235,21.437,8.388,22.165,9.106,22.328z M10.87,21.153
	C11.614,21.553,11.417,20.641,10.87,21.153L10.87,21.153z M11.456,21.594c0.197-0.021,0.445,0.597,0.588,0.146
	c-0.368,0.071,0.354-0.673-0.146-0.733C11.854,21.307,11.5,21.294,11.456,21.594z M9.988,21.74c0.28,0.064,0.368,0.316,0.734,0.293
	c0.001-0.29,0.4-0.187,0.294-0.587c-0.217-0.075-0.37-0.217-0.588-0.293C10.386,21.453,10.031,21.441,9.988,21.74z M11.017,22.622
	c0.552,0.11,0.496-0.384,0.734-0.589c-0.217-0.075-0.371-0.217-0.588-0.293C11.058,22.04,10.702,22.322,11.017,22.622z
	 M9.694,22.769c0.374-0.019,0.569-0.214,0.588-0.588c-0.217-0.076-0.371-0.217-0.588-0.293C9.455,22.281,9.356,22.446,9.694,22.769z
	 M12.19,22.181c0.31,0.121,0.574,0.604,0.883,0.295C13.137,21.98,12.218,21.719,12.19,22.181z M11.604,23.063
	c0.454,0.402,0.787,0.191,1.027-0.294c-0.305-0.087-0.475-0.31-0.734-0.44C11.835,22.608,11.478,22.594,11.604,23.063z
	 M25.412,22.476c0.05,0.536,0.503,0.672,0.881,0.881c0-0.342,0-0.687,0-1.028C25.845,22.222,25.758,22.479,25.412,22.476z
	 M10.134,23.21c0.114,0.032,0.291,0.004,0.295,0.146c0.374-0.019,0.57-0.214,0.588-0.588C10.572,22.559,10.168,22.646,10.134,23.21z
	 M9.399,23.356C8.465,22.256,8.767,24.113,9.399,23.356L9.399,23.356z M10.87,23.797c0.279,0.063,0.368,0.316,0.734,0.295
	c0.001-0.293,0.399-0.188,0.293-0.59C11.528,23.186,10.892,23.093,10.87,23.797z M10.282,23.797
	c0.129-0.303-0.381-0.659-0.441-0.295C10.051,23.539,10.089,23.745,10.282,23.797z M8.078,24.092
	c0.292,0.001,0.187,0.399,0.587,0.293c0.078-0.218,0.219-0.369,0.295-0.588C8.673,23.407,8.093,23.469,8.078,24.092z M9.399,23.943
	c0.402-0.107,0.298,0.293,0.589,0.293C10.014,23.813,9.491,23.428,9.399,23.943z M11.163,24.531
	c0.086-0.393-0.604-0.748-0.734-0.439C10.698,24.25,10.795,24.902,11.163,24.531z M9.399,24.973c-0.105-0.4,0.293-0.297,0.295-0.588
	c-0.292-0.002-0.188-0.4-0.588-0.293C8.808,24.469,8.742,24.922,9.399,24.973z M7.344,24.824c0.165,0.032,0.229,0.164,0.294,0.295
	c0.4,0.107,0.296-0.292,0.588-0.295C8.253,24.105,7.315,24.105,7.344,24.824z M10.575,24.824c0.13-0.301-0.381-0.658-0.441-0.293
	C10.344,24.566,10.382,24.774,10.575,24.824z M9.548,25.413c0.4-0.107,0.295,0.292,0.586,0.293c0.045-0.298,0.398-0.288,0.441-0.587
	c-0.26-0.132-0.428-0.355-0.734-0.441C9.778,24.959,9.422,24.944,9.548,25.413z M8.078,25.559c0.278-0.031,0.324,0.167,0.587,0.147
	c0.032-0.165,0.163-0.229,0.295-0.293c0.025-0.368-0.227-0.46-0.44-0.589C8.474,25.172,8.01,25.099,8.078,25.559z M6.608,25.559
	c0.406,0.477,0.748,0.454,1.029-0.146c-0.299-0.044-0.287-0.397-0.588-0.44C7.007,25.271,6.652,25.261,6.608,25.559z M8.813,26.147
	c0.452-0.11,0.281,0.403,0.734,0.294c0.031-0.165,0.163-0.229,0.293-0.294C9.896,25.398,8.759,25.398,8.813,26.147z M12.485,26.441
	c0.293,0,0.188,0.399,0.588,0.293c-0.192-0.499,0.326-1.025,0-1.176C12.981,25.958,12.46,25.926,12.485,26.441z M24.972,25.706
	c-0.061,0.354,0.268,0.319,0.146,0.735c0.432-0.01,0.546-0.337,0.734-0.588C25.624,25.676,25.28,25.385,24.972,25.706z M7.49,26.293
	C7.847,26.752,8.14,26.404,8.372,26C8.085,25.609,7.504,25.671,7.49,26.293z M6.022,26.441c0.291,0,0.186,0.399,0.586,0.293
	c0.078-0.217,0.22-0.369,0.295-0.587C6.615,25.758,6.036,25.818,6.022,26.441z M8.078,26.882c0.453-0.11,0.282,0.403,0.735,0.294
	c0.031-0.165,0.162-0.229,0.293-0.294C9.062,26.033,8.232,26.341,8.078,26.882z M26.146,27.176c0.291-0.355,0.631-0.649,0-0.883
	C26.319,26.684,25.864,27.159,26.146,27.176z M7.344,27.322c-0.107-0.4,0.292-0.295,0.294-0.588c-0.291-0.002-0.187-0.4-0.588-0.293
	C6.751,26.82,6.687,27.272,7.344,27.322z M25.559,26.588c0,0.098,0,0.195,0,0.294c0.362,0.228,0.433-0.499,0.147-0.44
	C25.696,26.53,25.684,26.615,25.559,26.588z M5.288,27.176c0.164,0.031,0.229,0.162,0.293,0.293
	c0.402,0.108,0.296-0.292,0.588-0.293C6.196,26.455,5.26,26.455,5.288,27.176z M26.293,27.469c0.3,0.043,0.288,0.397,0.588,0.441
	c0.046-0.347,0.51-0.273,0.44-0.734C26.956,26.685,26.491,27.025,26.293,27.469z M7.49,27.322c0.011,0.431,0.337,0.546,0.588,0.734
	c0.044-0.3,0.397-0.287,0.441-0.588C8.169,27.184,7.871,26.84,7.49,27.322z M25.559,27.91c0.124-0.17,0.193-0.395,0.147-0.734
	c-0.203,0.006-0.323-0.069-0.441-0.146C25.399,27.285,25.315,27.762,25.559,27.91z M6.315,28.057
	c0.401,0.107,0.297-0.292,0.588-0.294c0.025-0.367-0.226-0.459-0.44-0.587C6.217,27.563,5.864,27.67,6.315,28.057z M4.553,27.91
	c0.405,0.477,0.747,0.452,1.028-0.147c-0.299-0.042-0.287-0.396-0.588-0.44C4.95,27.623,4.597,27.611,4.553,27.91z M27.763,28.498
	c0.205-0.191,0.527-0.777,0-0.883C27.802,27.873,27.349,28.35,27.763,28.498z M7.49,28.791c0.032-0.164,0.164-0.229,0.295-0.293
	c-0.011-0.432-0.336-0.547-0.588-0.735C6.687,28.149,6.749,28.648,7.49,28.791z M25.852,28.351c0.341,0.291,0.394,0.291,0.736,0
	c-0.019-0.374-0.215-0.569-0.589-0.588C26.032,28.04,25.833,28.088,25.852,28.351z M5.435,28.645
	c0.355,0.457,0.65,0.111,0.881-0.294C6.028,27.961,5.449,28.021,5.435,28.645z M3.966,28.791c0.291,0.002,0.188,0.4,0.587,0.295
	c-0.106-0.402,0.292-0.297,0.295-0.588C4.56,28.107,3.979,28.169,3.966,28.791z M27.909,28.938c0.453,0.402,0.788,0.193,1.027-0.293
	c-0.299-0.043-0.287-0.397-0.587-0.441C28.304,28.55,27.839,28.478,27.909,28.938z M26.588,28.938
	c0.209,0.037,0.247,0.242,0.44,0.295c0.201-0.189,0.255-0.879-0.147-0.882C26.879,28.643,26.479,28.537,26.588,28.938z
	 M6.169,29.232c0.164,0.031,0.229,0.163,0.294,0.293c0.4,0.106,0.295-0.292,0.587-0.293C7.079,28.512,6.142,28.512,6.169,29.232z
	 M4.699,29.379c0.292,0.002,0.188,0.401,0.589,0.294c-0.107-0.401,0.292-0.296,0.293-0.587C5.294,28.695,4.714,28.757,4.699,29.379z
	 M3.23,29.525c0.165,0.031,0.229,0.163,0.295,0.295c0.4,0.106,0.296-0.293,0.587-0.295C4.14,28.807,3.203,28.807,3.23,29.525z
	 M28.644,29.525c0.299,0.044,0.289,0.398,0.588,0.441c0.045-0.347,0.51-0.274,0.44-0.734C29.307,28.741,28.843,29.082,28.644,29.525
	z M25.852,29.673c0.406,0.476,0.749,0.452,1.029-0.147c-0.3-0.043-0.288-0.397-0.588-0.439
	C26.249,29.385,25.896,29.373,25.852,29.673z M27.321,29.673c0.379,0.298,0.83,0.364,0.882-0.294
	C27.825,29.08,27.372,29.014,27.321,29.673z M5.435,29.673c0.01,0.431,0.336,0.545,0.588,0.733c0.043-0.299,0.396-0.287,0.44-0.586
	C6.112,29.533,5.815,29.189,5.435,29.673z M4.259,30.406c0.402,0.107,0.297-0.291,0.589-0.293c0.024-0.368-0.227-0.459-0.44-0.588
	C4.16,29.912,3.808,30.02,4.259,30.406z M2.497,30.26c0.641,0.758,1.453-0.322,0.439-0.587C2.894,29.973,2.54,29.96,2.497,30.26z
	 M29.524,30.26c0.164,0.031,0.229,0.163,0.294,0.294c0.413-0.027,0.626-0.256,0.587-0.733C29.962,29.609,29.56,29.697,29.524,30.26z
	 M28.644,30.701c0.031-0.166,0.162-0.229,0.293-0.295c-0.018-0.373-0.213-0.568-0.587-0.586
	C27.892,30.176,28.239,30.469,28.644,30.701z M27.028,30.701c0.373-0.018,0.568-0.214,0.586-0.588
	c-0.188-0.008-0.203-0.188-0.439-0.146C27.296,30.382,26.968,30.347,27.028,30.701z M5.435,31.141
	c-0.107-0.399,0.291-0.295,0.295-0.587c-0.301-0.042-0.289-0.397-0.59-0.44C4.629,30.5,4.692,30.999,5.435,31.141z M26.44,31.729
	c0.283-0.648,0.391-1.379-0.441-1.469C26.174,30.723,26.163,31.368,26.44,31.729z M30.259,30.994
	c0.164,0.031,0.229,0.163,0.295,0.295c0.748,0.053,0.748-1.084,0-1.029C30.662,30.712,30.149,30.543,30.259,30.994z M2.497,31.436
	C2.388,30.984,2.9,31.153,2.79,30.701c-0.4,0.107-0.295-0.293-0.587-0.295C1.885,30.777,1.792,31.414,2.497,31.436z M3.378,30.994
	C4.788,31.611,3.773,29.52,3.378,30.994L3.378,30.994z M27.469,31.141c0.393,0.239,0.558,0.338,0.881,0
	c-0.01-0.43-0.336-0.545-0.587-0.734C27.699,30.688,27.446,30.775,27.469,31.141z M28.937,30.994c0.292,0.002,0.188,0.4,0.588,0.295
	c0.458-0.356,0.111-0.649-0.293-0.883C29.229,30.699,28.829,30.594,28.937,30.994z M4.112,31.582c0.394,0.239,0.559,0.338,0.881,0
	C5.021,30.863,4.085,30.863,4.112,31.582z M30.994,31.582c0.165,0.031,0.228,0.163,0.293,0.295c0.432-0.012,0.547-0.337,0.734-0.588
	c-0.28-0.063-0.265-0.42-0.734-0.295C31.395,31.395,30.996,31.29,30.994,31.582z M2.644,31.729c0.291,0.002,0.187,0.4,0.587,0.295
	c-0.108-0.452,0.403-0.283,0.295-0.734C3.081,31.079,2.678,31.166,2.644,31.729z M28.79,32.17c0.407-0.28,0.369-1.047-0.294-1.029
	C28.095,31.595,28.306,31.93,28.79,32.17z M29.672,31.729c0.378,0.299,0.831,0.365,0.882-0.293c-0.28-0.063-0.371-0.316-0.735-0.295
	C29.852,31.419,29.653,31.467,29.672,31.729z M1.175,31.877c0.393,0.237,0.559,0.337,0.882,0
	C2.083,31.156,1.147,31.156,1.175,31.877z M32.462,32.611c0.402-0.455,0.193-0.789-0.293-1.029
	C31.656,31.969,31.722,32.469,32.462,32.611z M3.378,32.316c0.281,0.406,1.047,0.369,1.029-0.293
	C4.036,31.705,3.4,31.612,3.378,32.316z M30.994,32.611c0.457-0.357,0.11-0.65-0.295-0.883C30.4,32.107,30.335,32.561,30.994,32.611
	z M2.203,32.757c0.4,0.106,0.295-0.292,0.587-0.294c0.025-0.367-0.225-0.459-0.441-0.586C2.104,32.263,1.751,32.371,2.203,32.757z
	 M28.937,32.463c0.453-0.107,0.283,0.404,0.735,0.294c0.076-0.217,0.218-0.369,0.294-0.587c-0.279-0.063-0.369-0.316-0.734-0.293
	C29.154,32.094,29.014,32.246,28.937,32.463z M0.44,32.611c0.279,0.063,0.369,0.316,0.734,0.293c0.001-0.292,0.4-0.188,0.294-0.588
	c-0.401,0.107-0.296-0.292-0.588-0.293C0.837,32.322,0.483,32.312,0.44,32.611z M33.196,33.346c0.063-0.28,0.316-0.369,0.294-0.734
	c-0.291-0.003-0.187-0.401-0.587-0.295C32.586,32.686,32.493,33.323,33.196,33.346z M3.378,33.492
	c-0.107-0.4,0.291-0.296,0.293-0.588c-0.299-0.044-0.287-0.398-0.587-0.441C2.572,32.85,2.637,33.349,3.378,33.492z M29.818,33.197
	c0.292,0.002,0.187,0.401,0.587,0.295c0.316-0.539,0.25-0.73-0.293-1.029C30.049,32.744,29.796,32.833,29.818,33.197z M31.14,33.051
	c0.453-0.108,0.283,0.403,0.734,0.295c0.033-0.114,0.006-0.291,0.147-0.295C32.05,32.332,31.113,32.332,31.14,33.051z M1.322,33.346
	c0.335,0.318,0.915,0.053,0.881-0.441c-0.401,0.107-0.296-0.292-0.588-0.293C1.726,33.063,1.212,32.893,1.322,33.346z
	 M33.931,34.079c0.086-0.306,0.309-0.474,0.441-0.733c-0.28-0.063-0.369-0.317-0.734-0.295
	C33.235,33.505,33.446,33.839,33.931,34.079z M30.554,33.785c0.279,0.063,0.266,0.42,0.733,0.294
	c0.034-0.113,0.005-0.289,0.147-0.294C31.462,33.066,30.525,33.066,30.554,33.785z M32.021,33.346
	c-0.038,0.479,0.175,0.706,0.588,0.733c-0.107-0.399,0.292-0.294,0.294-0.587C32.676,33.314,32.331,33.023,32.021,33.346z
	 M2.057,33.934c0.163,0.029,0.228,0.163,0.292,0.293c0.402,0.106,0.297-0.293,0.588-0.293C2.964,33.213,2.028,33.213,2.057,33.934z
	 M32.756,34.079c0.011,0.431,0.335,0.546,0.588,0.735c0.316-0.541,0.249-0.732-0.294-1.029
	C33.019,33.95,32.888,34.015,32.756,34.079z M31.287,34.52c0.452-0.109,0.282,0.403,0.734,0.295
	c-0.106-0.401,0.292-0.295,0.294-0.588C31.946,33.907,31.31,33.816,31.287,34.52z M32.756,35.548
	c0.315-0.539,0.249-0.731-0.294-1.028C32.057,34.801,32.093,35.566,32.756,35.548z"/>
</svg>
