<?xml version="1.0" encoding="utf-8"?>
<!-- Generator: Adobe Illustrator 15.0.2, SVG Export Plug-In  -->
<!DOCTYPE svg PUBLIC "-//W3C//DTD SVG 1.1//EN" "http://www.w3.org/Graphics/SVG/1.1/DTD/svg11.dtd" [
	<!ENTITY ns_flows "http://ns.adobe.com/Flows/1.0/">
]>
<svg version="1.1"
	 xmlns="http://www.w3.org/2000/svg" xmlns:xlink="http://www.w3.org/1999/xlink" xmlns:a="http://ns.adobe.com/AdobeSVGViewerExtensions/3.0/"
	 x="0px" y="0px" width="68px" height="63px" viewBox="0 0 68 63" enable-background="new 0 0 68 63" xml:space="preserve">
<defs>
</defs>
<path fill="#ED1C24" d="M67.711,53.709c-0.568-0.072-1.142-0.141-1.722-0.203c-0.003-0.021-0.009-0.041-0.011-0.064
	c-0.011-0.078-0.011-0.164-0.018-0.248c0.135,0.023,0.271,0.039,0.403,0.066c0.257-0.672,0.02-1.018-0.412-1.221
	c0.002-0.107,0.007-0.217,0.009-0.322c0.113,0.01,0.241,0.006,0.403-0.031c-0.065-1.586,0.27-3.572-0.572-4.381
	c-0.021-0.432-0.126-0.863-0.395-1.305c-1.199-4-2.432-7.969-3.529-12.072h-0.16c0.021-0.148,0.038-0.301,0.047-0.453
	c0.036,0.002,0.072,0.002,0.113,0.004c0.029-0.553,0.034-1.083-0.225-1.347c-0.032,0.002-0.06,0.009-0.092,0.012
	c0-0.029-0.002-0.059-0.002-0.088c0.029-0.032,0.047-0.072,0.062-0.119c0.243,0,0.44-0.049,0.48-0.255
	c-0.603-0.372-0.342-1.606-1.123-1.799c0.547,0.925-0.534,0.956-0.449,2.024c0.104-0.031,0.237-0.031,0.378-0.023
	c0.012,0.184,0.024,0.27,0.075,0.448c-0.094,0.065-0.177,0.142-0.229,0.249c0.135-0.022,0.194,0.031,0.225,0.112
	c0.004,0.023,0.002,0.048,0.009,0.069c0.008,0.023,0.01,0.052,0.017,0.076c0,0.302-0.153,0.759,0.062,0.847
	c-0.002,0.082-0.004,0.164-0.008,0.242h-0.079c-0.919,4.512-1.81,8.9-2.393,12.945c-0.028,0.049-0.061,0.092-0.088,0.143
	c-0.615,1.234-0.987,3.32-0.568,4.686c0.075,0.252,0.178,0.49,0.293,0.719c-0.021,0.063-0.03,0.131-0.047,0.197
	c-0.03,0.064-0.045,0.131-0.048,0.203c-0.055,0.316-0.053,0.648,0.011,0.986c-0.61,0.133-1.226,0.264-1.882,0.354
	c0,0.525,0,1.051,0,1.576c-0.18,0.195-0.326,0.414-0.434,0.652c-0.412-0.08-0.75-0.145-0.944-0.17
	c-0.214-0.027-0.429-0.031-0.647-0.025c0-0.004,0-0.008,0.005-0.012c-0.054,0.004-0.104,0.004-0.158,0.008
	c0.011-0.305-0.028-0.605-0.101-0.895c-0.096-1.293-0.154-1.955-0.192-3.158c-0.397,0.004-0.795,0.008-1.188,0.01
	c-0.015-0.074-0.032-0.15-0.047-0.227c-0.104-0.447-0.37-0.875-0.723-1.213c-0.083-0.156-0.184-0.303-0.301-0.443
	c0.177-0.156,0.318-0.344,0.235-0.6c-0.825-0.146-1.588-0.994-2.496-0.904c0.005-0.236-0.013-0.467-0.063-0.691
	c0.263-1.234-0.205-2.613-0.82-3.498c-0.16-0.516-0.468-0.979-0.915-1.289c0.003-0.713,0.039-1.395,0.122-2.025
	c0.244-0.395,0.389-0.855,0.389-1.355c0-0.594-0.211-1.154-0.562-1.605c-0.237-0.594-0.613-1.051-1.313-1.182
	c0.115-0.416,0.213-0.832,0.256-1.268c0.094-0.969,0.05-1.916,0.007-2.867v-0.014c0.353-0.25,0.649-0.576,0.878-0.929
	c0.119-0.182,0.263-0.574,0.335-0.842c0.058-0.209,0.124-0.679,0.133-0.794c1.261-3.983-3.164-6.181-4.843-9.481
	c-0.005-0.354-0.03-0.691-0.133-1.037c-0.036-0.126,0.023-0.275-0.023-0.404c-0.034-0.093-0.072-0.18-0.117-0.264v-0.001
	c0-0.059-0.018-0.104-0.041-0.146c0.325-0.672-0.647-3.713,0.664-4.02c-0.707,0.257-0.544-0.354-0.899-0.45
	c0.291,0.888-0.653,0.544-0.673,1.124c1.453-0.702,0.266,2.448,0.628,3.209c-0.137,0.011-0.269,0.102-0.269,0.282
	c0,0.108,0.015,0.188,0.085,0.276c0.077,0.095,0.052,0.279,0.056,0.398c0.007,0.111,0.043,0.211,0.073,0.313
	c-0.917,4.25-7.58,6.736-3.944,11.481l0.003-0.002c0.01,0.017,0.019,0.033,0.031,0.048c0.178,0.192,0.419,0.299,0.678,0.357
	c-0.011,0.016-0.028,0.029-0.036,0.047c0.079,0,0.166-0.003,0.25-0.005c0.011,0.001,0.025,0,0.036,0.001
	c0.002,0.008,0.006,0.016,0.008,0.023c-0.072,0.839-0.089,1.683-0.01,2.527c0.021,0.246,0.053,0.457,0.096,0.662
	c-0.045,0.133-0.074,0.262-0.115,0.393c-0.013,0-0.025-0.006-0.041-0.006c0.009,0.047,0.002,0.09,0.005,0.137
	c-0.028,0.1-0.063,0.205-0.088,0.303c-0.009,0.027-0.021,0.055-0.03,0.082c0.235-0.672-0.637,0.943-0.696,1.16
	c-0.169,0.617-0.171,1.236-0.079,1.85c-0.015,0.051-0.042,0.092-0.058,0.145c-0.034,0.127-0.058,0.266-0.07,0.406
	c-0.009-0.002-0.015-0.004-0.02-0.006c-0.234-0.604-0.32-1.348-0.337-1.986c0.008-0.021,0.015-0.045,0.023-0.066
	c-0.007-0.006-0.016-0.01-0.023-0.016c-0.002-0.182-0.002-0.357,0.004-0.514c0.021-0.553-0.09-1.006-0.288-1.375
	c-0.205-1.904-0.421-3.798-0.59-5.738c-0.146-0.01-0.28-0.028-0.414-0.047c0.013-0.254,0-0.503-0.036-0.75
	c-0.007-3.126-1.768-6.918-0.451-9.094c-0.412-0.031-0.867-0.148-1.318-0.285c-0.015-0.146-0.053-0.287-0.103-0.424
	c0.023,0.012,0.05,0.022,0.073,0.035c-0.063-0.762-0.359-1.292-0.225-2.248c-0.72,0.195-0.703-0.346-0.899-0.674
	c-0.639-2.17-1.297-4.321-2-6.428c0.016-0.034,0.032-0.064,0.043-0.104c0.064-0.299,0.047-0.6,0.015-0.902
	c0.05,0.006,0.097,0.006,0.144,0.015c0.38-0.762-0.282-1.263-0.263-2.289c0.072-0.092,0.119-0.209,0.124-0.349
	c0.004-0.105,0.011-0.221,0.013-0.336c0.04,0.018,0.085,0.03,0.126,0.052c-0.184-0.635,0.318-0.582,0.225-1.124
	c0-0.002-0.003-0.002-0.003-0.003c0.163-0.093,0.27-0.262,0.304-0.444c0.056,0.002,0.104,0.001,0.149-0.002
	C32.33,2.473,30.84,1.521,30.475,0c0.116,1.787-2.17,2.726-1.715,4.682c-0.095,0.305,0.009,0.669,0.384,0.734
	c0.032,0.006,0.063,0,0.092,0.003c0.012,0.368,0.34,0.411,0.264,0.862c0.126-0.021,0.25-0.044,0.373-0.067
	c0,0.072,0.005,0.144,0.007,0.214c0.002,0.066,0.02,0.128,0.043,0.188c-0.212,0.868-0.737,1.421-0.647,2.588
	c0.115,0.081,0.293,0.097,0.508,0.088c0,0.039,0,0.079,0,0.118c-0.025,0.088-0.049,0.178-0.068,0.27
	c-1.072,3.169-2.042,6.441-3.226,9.5c-0.177,0.261-0.313,0.547-0.446,0.832c-0.256,0.008-0.529,0.001-0.813-0.018
	c1.35,2.432-0.705,6.111-0.481,9.088c-0.058,0.139-0.104,0.29-0.143,0.429c-0.043,0.142-0.066,0.288-0.092,0.434
	c-0.203,0.063-0.41,0.121-0.633,0.165c0.579,1.019,0.133,3.216,0.201,5.023c-0.237-0.111-0.475-0.232-0.705-0.363
	c-0.401-0.76-0.979-1.346-0.621-2.861c-0.05-0.012-0.097-0.023-0.146-0.034c0.051-0.136,0.087-0.277,0.108-0.423
	c0.011,0.002,0.025,0.004,0.037,0.007c-0.012-0.077-0.014-0.146-0.014-0.212c0-0.002,0-0.003,0-0.004c0-0.004-0.002-0.007,0-0.01
	c0.005-0.525,0.349-0.709,0.464-1.123c-0.034-0.011-0.077-0.019-0.111-0.029c0.092-0.346,0.097-0.732,0.043-1.111
	c0.021,0.006,0.047,0.011,0.068,0.017c2.008-4.545-3.371-5.224-3.373-9.216H19.82c-0.009-0.075-0.025-0.148-0.05-0.22
	c0.021-0.004,0.041,0,0.063-0.005c-0.077-0.649-0.457-3.638,0.063-4.354c-0.38,0.276-0.098-0.484-0.512-0.593
	c0.238,0.837-0.473,0.726-0.676,1.124c1.385,0.094,0.56,3.052,0.225,3.597c0.041,0.009,0.07,0.027,0.104,0.041v0.089
	c-0.007,0.011-0.021,0.017-0.027,0.027v0.002c-0.013,0.012-0.028,0.021-0.036,0.035c-0.077,0.083-0.107,0.203-0.032,0.33
	l0.011,0.018c0.042,0.072,0.117,0.119,0.2,0.136c-0.153,3.734-5.577,4.92-3.229,9.05c-0.026,0.117-0.023,0.244,0.038,0.377
	c0.03,0.069,0.066,0.136,0.104,0.201c-0.017,0.012-0.038,0.021-0.053,0.035c0.017-0.01,0.038-0.016,0.06-0.025
	c0.053,0.092,0.113,0.172,0.175,0.246c-0.002,0.002-0.006,0.002-0.011,0.003c0.068,0.505,0.327,0.821,0.235,1.487
	c-0.227,0.249-0.257,0.646-0.009,0.863v1.695c0.007-0.002,0.013-0.004,0.023-0.008c-0.141,0.07-0.28,0.148-0.421,0.234h-0.729
	c0.041,0.332-0.133,0.453-0.198,0.682c-0.387,0.348-0.718,0.732-0.921,1.125c-0.034,0.066-0.064,0.141-0.096,0.215
	c-0.24,0.344-0.39,0.848-0.383,1.502c-0.295,0.619-0.359,1.396-0.359,2.018c0,0.578,0.156,1.1,0.419,1.568
	c-0.006,0.201,0.079,0.359,0.214,0.455c0.034,1.471-0.128,3.137-0.027,4.541c-0.492,0.594-0.65,1.314-0.554,1.998
	c-0.038,0.02-0.081,0.037-0.118,0.057c0.054,0.018,0.095,0.039,0.135,0.063c0.041,0.223,0.111,0.438,0.203,0.643
	c-0.032,0.447-0.189,0.971,0.086,1.207c-0.142,0.07-0.28,0.143-0.419,0.236c-0.225,0.152-0.408,0.227-0.558,0.266
	c0.077,0.02,0.16,0.043,0.267,0.086c-0.098-0.039-0.196-0.055-0.297-0.076c-0.265,0.061-0.371-0.016-0.284-0.043
	c-0.265-0.018-0.536,0.02-0.797,0.092c-0.119,0-0.239,0-0.358,0c-0.329-1.695-0.878-3.166-1.124-4.945
	c-0.538,2.834-1.232,5.512-2.474,7.643c-0.147,0.02-0.327,0.012-0.466,0.043c-0.218-0.02-0.442-0.033-0.664-0.039
	c0.002,0,0.004-0.002,0.009-0.004c-0.808-1.367-1.485-4.057-1.799-5.17c-0.735,2.713-2.453,4.445-3.662,6.684
	c-0.29,0.158-0.565,0.342-0.84,0.547c-0.358,0.268-0.329,0.67-0.106,0.9c0.367,1.979-0.079,5.313,0.113,6.705
	c7.605-0.008,15.311-0.008,23.08-0.008c0.902,0.293,1.795,0.242,2.799,0.076c0.19-0.031,0.385-0.053,0.575-0.076
	c8.944,0.004,17.977,0.008,27.056,0.008c0.129,0.014,0.252,0.031,0.394,0.025c0.122-0.01,0.247-0.016,0.369-0.025
	c4.303,0.002,8.614,0.002,12.936,0C67.961,60.403,67.598,56.819,67.711,53.709z M47.625,30.819c0.013-0.085,0.013-0.16,0.021-0.242
	c0.013-0.039,0.023-0.078,0.036-0.117C47.67,30.53,47.651,30.643,47.625,30.819z"/>
</svg>
