<?xml version="1.0" encoding="utf-8"?>
<!-- Generator: Adobe Illustrator 15.0.2, SVG Export Plug-In  -->
<!DOCTYPE svg PUBLIC "-//W3C//DTD SVG 1.1//EN" "http://www.w3.org/Graphics/SVG/1.1/DTD/svg11.dtd" [
	<!ENTITY ns_flows "http://ns.adobe.com/Flows/1.0/">
]>
<svg version="1.1"
	 xmlns="http://www.w3.org/2000/svg" xmlns:xlink="http://www.w3.org/1999/xlink" xmlns:a="http://ns.adobe.com/AdobeSVGViewerExtensions/3.0/"
	 x="0px" y="0px" width="43px" height="68px" viewBox="0 0 43 68" enable-background="new 0 0 43 68" xml:space="preserve">
<defs>
</defs>
<path fill="#325E82" d="M21.878,0.424c-0.289,0.375-0.526,1.093,0,1.403c-0.646,0.863-0.09,2.431-0.248,3.798
	c0.227,0.161,0.72,0.052,0.909,0.248c-0.012,0.4-0.5,0.324-0.909,0.331c0.077,0.364,0.834,0.046,0.909,0.413
	c-0.012,0.374-0.558,0.21-0.909,0.247c-0.03,0.462,0.696,0.041,0.909,0.413c0.002,0.44-0.71,0.169-0.909,0.413
	c0.237,0.206,0.948-0.066,0.909,0.413C22.35,8.298,21.856,8.19,21.63,8.35c0.227,0.16,0.72,0.051,0.909,0.248
	c-0.012,0.399-0.5,0.324-0.909,0.33c0.092,0.352,0.78,0.103,0.909,0.414c0.008,0.448-0.804,0.076-0.909,0.413
	c0.169,0.217,0.836-0.064,0.909,0.248c0.004,0.441-0.689,0.192-0.909,0.413c0.237,0.205,0.948-0.066,0.909,0.413
	c-0.193,0.164-0.524,0.19-0.909,0.165c0.077,0.365,0.834,0.047,0.909,0.413c-0.004,0.354-0.495,0.22-0.826,0.248
	c-0.269,0.728,0.045,1.877,0.081,2.312c0.464-0.027-0.008-0.542,0.415-0.66c0.141,0.507-0.665,1.287,0.412,1.403
	c0.066,0.285-0.092,0.348-0.164,0.495c0.01,0.182,0.35,0.035,0.494,0.082c1.996,2.381,5.148,3.605,9.166,3.964
	c0.117,0.312-0.227,0.158-0.166,0.412c0.594,0.206,1.529,0.044,2.063-0.082c0.088,0.309-0.203,0.235-0.164,0.495
	c0.18,0.253,0.467-0.079,0.744,0c-0.051,0.389-0.4,0.48-0.66,0.661c-0.035,0.197,0.375-0.046,0.248,0.247
	c-0.23,0.209-0.557,0.325-0.91,0.412c-0.021,0.41,0.158,0.615,0.248,0.909c-0.234,0.085-0.342,0.085-0.578,0
	c0.031-0.302,0.168-0.493,0.248-0.743c-1.902,0.326-4.945,0.227-7.182,0.495c-0.02,0.933-0.357,1.899,0,2.725
	c0.846-0.005,1.742,0.036,2.477-0.083c0.131,0.325-0.357,0.029-0.332,0.248c0.055,0.247,0.178-0.079,0.332,0
	c0.131,0.325-0.357,0.029-0.332,0.248c0.07,0.261,0.406,0.255,0.578,0.412c-0.027,0.248-0.451,0.098-0.494,0.331
	c0.844,0.56,2.521,0.726,3.795,0.577c0.285,0.156-0.139,0.289-0.08,0.496c0.752,0.009,1.516,0.029,2.063-0.165
	c0.088,0.308-0.203,0.235-0.164,0.495c0.18,0.253,0.467-0.08,0.744,0c-0.051,0.389-0.4,0.48-0.66,0.66
	c-0.035,0.198,0.375-0.045,0.248,0.248c-0.199,0.243-0.564,0.316-0.91,0.412c-0.021,0.41,0.158,0.615,0.248,0.909
	c-0.234,0.085-0.342,0.085-0.578,0c0.027-0.304,0.205-0.457,0.248-0.743c-1.893,0.336-4.947,0.225-7.182,0.495
	c-0.033,0.942-0.342,1.884,0,2.725c0.832-0.019,1.762,0.058,2.477-0.083c0.131,0.325-0.357,0.029-0.332,0.248
	c0.02,0.105,0.246,0.109,0.248,0c0.338,0.189-0.264,0.109-0.248,0.248c0.07,0.262,0.406,0.254,0.578,0.413
	c-0.027,0.247-0.451,0.097-0.494,0.33c0.852,0.606,2.311,0.606,3.715,0.66c0.387,0.01-0.09,0.12,0,0.331
	c0.582,0.195,1.551,0.066,2.063-0.084c0.107,0.328-0.271,0.169-0.164,0.496c0.162,0.237,0.516-0.029,0.744,0
	c-0.051,0.389-0.4,0.48-0.66,0.66c-0.035,0.198,0.375-0.046,0.248,0.248c-0.199,0.242-0.564,0.316-0.91,0.412
	c-0.021,0.409,0.158,0.614,0.248,0.909c-0.234,0.086-0.342,0.086-0.578,0c0.027-0.304,0.205-0.458,0.248-0.743
	c-1.875,0.354-4.953,0.219-7.182,0.495c-0.02,0.933-0.357,1.9,0,2.726c0.832-0.02,1.762,0.057,2.477-0.084
	c0.131,0.325-0.357,0.029-0.332,0.248c0.02,0.105,0.246,0.108,0.248,0c0.318,0.191-0.311,0.121-0.248,0.33
	c0.186,0.119,0.383,0.225,0.578,0.33c-0.027,0.248-0.451,0.097-0.494,0.331c0.879,0.634,2.404,0.622,3.881,0.66
	c0.063,0.254-0.227,0.158-0.166,0.413c0.711-0.004,1.477,0.045,1.982-0.166c0.279,0.156-0.143,0.29-0.084,0.496
	c0.162,0.236,0.516-0.029,0.744,0c-0.051,0.389-0.4,0.48-0.66,0.66c-0.035,0.197,0.375-0.045,0.248,0.248
	c-0.158,0.283-0.584,0.299-0.91,0.412c-0.021,0.409,0.158,0.614,0.248,0.909c-0.234,0.086-0.342,0.086-0.578,0
	c0.082-0.25,0.219-0.442,0.248-0.743c-1.748,0.33-4.879,0.229-7.182,0.495c-0.01,0.942-0.357,1.9,0,2.724
	c0.832-0.018,1.762,0.059,2.477-0.082c0.131,0.325-0.357,0.029-0.332,0.248c0.02,0.105,0.246,0.107,0.248,0
	c0.318,0.191-0.311,0.121-0.248,0.33c0.186,0.119,0.383,0.225,0.578,0.33c-0.057,0.217-0.389,0.163-0.494,0.331
	c0.883,0.629,2.393,0.633,3.881,0.659c0.063,0.255-0.227,0.159-0.166,0.414c0.52,0.115,1.453-0.021,1.982-0.166
	c0.279,0.156-0.143,0.289-0.084,0.496c0.162,0.237,0.516-0.029,0.744,0c-0.051,0.389-0.363,0.518-0.66,0.66
	c-0.035,0.198,0.375-0.046,0.248,0.248c-0.113,0.163-0.229,0.32-0.58,0.247c-0.012,0.18,0.293,0.038,0.412,0.083
	c-0.023,0.191-0.207,0.387,0.168,0.33c-0.029,0.193-0.131,0.311-0.084,0.578c0.109,0.137,0.367,0.128,0.496,0.248
	c0.525,1.378,1.654,2.576,3.057,2.807c0.033,0.173-0.059,0.219-0.084,0.33c0.037,0.186,0.406,0.033,0.578,0.083
	c-0.104,0.226-0.332,0.329-0.494,0.495c1.029,0.73,2.99,0.53,4.539,0.742c0.412,0.037-0.18,0.175-0.08,0.414
	c0.367,0.064,0.492-0.111,0.826-0.084c-0.279,0.163-0.506,0.377-0.826,0.496c0.035,0.13,0.258,0.071,0.164,0.33
	c-0.346,0.096-0.609,0.272-0.992,0.331c-0.059,0.501,0.123,0.759,0.332,0.99c0.049,0.215-0.035,0.297-0.248,0.248
	c0.066,2.733-0.045,5.864,0,8.834c-13.266,0-26.533,0-39.797,0c0-2.917,0-5.835,0-8.752c0.032-0.198-0.376,0.046-0.247-0.247
	c0.087-0.381,0.455-0.48,0.414-0.99c-0.306-0.193-0.718-0.275-1.074-0.414c-0.028-0.165,0.017-0.258,0.164-0.247
	C0.598,56.682,0.374,56.469,0,56.402c0.173-0.247,0.432,0.109,0.743,0c0.271-0.124-0.173-0.203-0.083-0.414
	c1.576-0.184,3.463-0.059,4.623-0.66c-0.024-0.306-0.437-0.223-0.413-0.577c0.167,0,0.331,0,0.496,0
	c0.032-0.199-0.151-0.18-0.083-0.413c1.474-0.211,2.524-1.545,3.138-2.89c0.199,0.034,0.18-0.151,0.412-0.083
	c0.036-0.283-0.032-0.463-0.083-0.66c0.374,0.057,0.19-0.139,0.167-0.33c0.137,0,0.273,0,0.412,0
	c-0.173-0.129-0.532-0.074-0.579-0.33c-0.038-0.177,0.117-0.158,0.248-0.166c-0.199-0.268-0.604-0.328-0.66-0.742
	c0.273,0.003,0.41,0.139,0.743,0.082c0.081-0.328-0.248-0.248-0.164-0.578c0.61,0.132,1.542,0.29,2.146,0.166
	c0.063-0.283-0.338-0.105-0.248-0.414c1.5,0.013,2.867-0.104,3.88-0.577c0.002-0.277-0.327-0.224-0.493-0.331
	c0.132-0.166,0.275-0.328,0.576-0.33c0.107-0.355-0.393-0.102-0.329-0.412c0.073,0.064,0.185,0.088,0.329,0.082
	c0.126-0.348-0.459,0.019-0.329-0.33c0.687,0.138,1.583,0.066,2.394,0.082c0.495-0.73,0.128-1.858,0.081-2.641
	c-2.079-0.535-5.173-0.056-7.183-0.661c0.021,0.336,0.235,0.48,0.248,0.826c-0.235,0.086-0.344,0.086-0.577,0
	c0.131-0.227,0.216-0.499,0.248-0.826c-0.225-0.243-0.733-0.203-0.91-0.495c-0.038-0.177,0.117-0.157,0.248-0.165
	c-0.16-0.308-0.633-0.304-0.66-0.743c0.273,0.004,0.41,0.139,0.743,0.082c0.081-0.329-0.248-0.248-0.164-0.578
	c0.587,0.182,1.36,0.18,2.146,0.166c0.063-0.283-0.338-0.105-0.248-0.413c1.487,0.001,2.871-0.101,3.88-0.578
	c0.002-0.277-0.327-0.224-0.493-0.33c0.132-0.167,0.275-0.33,0.576-0.33c0.107-0.356-0.393-0.103-0.329-0.413
	c0.073,0.064,0.185,0.089,0.329,0.082c0.126-0.348-0.459,0.02-0.329-0.33c0.687,0.139,1.583,0.066,2.394,0.084
	c0.495-0.732,0.128-1.859,0.081-2.643c-2.092-0.522-5.177-0.053-7.183-0.66c0.021,0.336,0.235,0.479,0.248,0.825
	c-0.235,0.086-0.344,0.086-0.577,0c0.081-0.274,0.248-0.468,0.248-0.825c-0.225-0.245-0.733-0.203-0.91-0.496
	c-0.038-0.176,0.117-0.157,0.248-0.165c-0.16-0.308-0.633-0.305-0.66-0.743c0.273,0.004,0.41,0.139,0.743,0.082
	c0.081-0.328-0.248-0.248-0.164-0.578c0.565,0.204,1.371,0.171,2.146,0.166c0.063-0.282-0.338-0.105-0.248-0.413
	c1.549,0,2.72-0.081,3.88-0.578c0.002-0.277-0.327-0.224-0.493-0.331c0.096-0.231,0.405-0.253,0.576-0.412
	c0.126-0.348-0.459,0.019-0.329-0.33c0.147-0.01,0.171,0.102,0.329,0.082c0.126-0.348-0.459,0.019-0.329-0.33
	c0.687,0.138,1.583,0.066,2.394,0.083c0.504-0.626,0.106-1.803,0.081-2.642c-2.092-0.522-5.173-0.057-7.183-0.66
	c0.021,0.336,0.235,0.479,0.248,0.825c-0.235,0.085-0.344,0.085-0.577,0c0.081-0.274,0.248-0.468,0.248-0.825
	C9.436,28.5,8.927,28.54,8.75,28.248c-0.038-0.176,0.117-0.157,0.248-0.165c-0.16-0.308-0.633-0.304-0.66-0.743
	c0.318-0.044,0.403,0.147,0.743,0.082c0.081-0.329-0.248-0.248-0.164-0.577c0.587,0.181,1.36,0.179,2.146,0.165
	c0.07-0.32-0.361-0.135-0.248-0.496c1.325,0.192,2.885-0.085,3.88-0.495c0.002-0.276-0.327-0.224-0.493-0.33
	c0.096-0.232,0.405-0.254,0.576-0.413c0.126-0.348-0.459,0.018-0.329-0.33c0.147-0.01,0.171,0.102,0.329,0.082
	c0.073-0.266-0.271-0.115-0.329-0.247c0.563-0.095,1.586,0.063,2.394,0c0.504-0.626,0.106-1.803,0.081-2.642
	c-2.094-0.52-5.162-0.066-7.183-0.66c0.021,0.336,0.235,0.479,0.248,0.825c-0.235,0.085-0.344,0.085-0.577,0
	c0.081-0.274,0.248-0.468,0.248-0.825c-0.237-0.233-0.701-0.238-0.91-0.496c-0.038-0.176,0.117-0.158,0.248-0.165
	c-0.16-0.308-0.633-0.305-0.66-0.743c0.318-0.045,0.403,0.146,0.743,0.082c0.081-0.328-0.248-0.248-0.164-0.577
	c0.587,0.181,1.36,0.179,2.146,0.165c0.07-0.32-0.361-0.135-0.248-0.495c4.068-0.335,7.163-1.642,9.248-3.964
	c0.137,0,0.273,0,0.41,0c-0.025-0.25-0.254-0.294-0.164-0.66c0.164,0,0.331,0,0.495,0c0.261-0.465-0.147-0.708-0.164-1.321
	c0.351,0.007,0.261,0.453,0.412,0.66c0.331-0.495,0.241-1.409,0.248-2.229c-0.257-0.184-0.93,0.051-0.908-0.413
	c0.233-0.152,0.699-0.073,0.908-0.248c-0.235-0.206-0.946,0.066-0.908-0.413c0.192-0.165,0.523-0.19,0.908-0.165
	c-0.062-0.378-0.82-0.06-0.908-0.413c0.023-0.386,0.69-0.134,0.908-0.33c-0.106-0.307-0.801-0.024-0.908-0.331
	c0.043-0.396,0.688-0.193,0.908-0.412c-0.235-0.207-0.946,0.065-0.908-0.413c0.19-0.196,0.682-0.087,0.908-0.248
	c-0.227-0.16-0.718-0.052-0.908-0.248c0.013-0.4,0.5-0.325,0.908-0.331c-0.09-0.352-0.78-0.102-0.908-0.413
	c0.016-0.424,0.761-0.119,0.908-0.413c-0.235-0.206-0.946,0.066-0.908-0.413c0.218-0.167,0.682-0.088,0.908-0.248
	c-0.235-0.205-0.946,0.066-0.908-0.413c0.233-0.125,0.515-0.199,0.908-0.165c-0.196-1.279,0.48-2.944-0.248-3.716
	c0.336-0.399,0.48-1.126,0-1.486C21.139-0.106,21.738-0.197,21.878,0.424z M15.024,25.027c0.361,0,0.716,0,1.072,0
	c0-0.055,0-0.109,0-0.164c-0.356,0-0.711,0-1.072,0C15.024,24.917,15.024,24.972,15.024,25.027z M16.264,25.027
	c0.207-0.067,0.711,0.162,0.66-0.164C16.719,24.93,16.214,24.702,16.264,25.027z M26.007,25.027c0.207-0.067,0.709,0.162,0.66-0.164
	C26.417,24.888,26.025,24.771,26.007,25.027z M26.832,25.027c0.359,0,0.715,0,1.074,0c0-0.055,0-0.109,0-0.164
	c-0.359,0-0.715,0-1.074,0C26.832,24.917,26.832,24.972,26.832,25.027z M15.024,32.292c0.361,0,0.716,0,1.072,0
	c0-0.055,0-0.109,0-0.165c-0.356,0-0.711,0-1.072,0C15.024,32.183,15.024,32.238,15.024,32.292z M16.924,32.21
	c-0.12-0.128-0.421-0.072-0.66-0.083C16.18,32.412,16.883,32.324,16.924,32.21z M26.007,32.292c0.207-0.067,0.709,0.161,0.66-0.165
	C26.417,32.154,26.025,32.037,26.007,32.292z M26.832,32.292c0.361-0.053,0.936,0.107,1.156-0.082
	C27.763,32.111,26.929,32.002,26.832,32.292z M16.097,32.458c-0.137,0-0.273,0-0.41,0C15.561,32.712,16.227,32.712,16.097,32.458z
	 M15.024,39.558c0.361,0,0.716,0,1.072,0c0-0.055,0-0.109,0-0.164c-0.356,0-0.711,0-1.072,0
	C15.024,39.449,15.024,39.503,15.024,39.558z M16.924,39.476c-0.12-0.128-0.421-0.072-0.66-0.082
	C16.18,39.677,16.883,39.59,16.924,39.476z M26.007,39.558c0.207-0.067,0.709,0.16,0.66-0.164
	C26.417,39.419,26.025,39.302,26.007,39.558z M26.832,39.558c0.361-0.053,0.936,0.107,1.156-0.082
	C27.763,39.376,26.929,39.268,26.832,39.558z M16.097,39.724c-0.137,0-0.273,0-0.41,0C15.561,39.978,16.227,39.978,16.097,39.724z
	 M15.024,46.824c0.361,0,0.716,0,1.072,0c0-0.055,0-0.109,0-0.164c-0.356,0-0.711,0-1.072,0
	C15.024,46.714,15.024,46.769,15.024,46.824z M16.264,46.824c0.333-0.101,0.604,0.219,0.66-0.082
	C16.843,46.669,16.21,46.511,16.264,46.824z M26.007,46.824c0.057,0.033,0.658,0.109,0.66-0.164
	C26.417,46.685,26.025,46.568,26.007,46.824z M26.832,46.824c0.531-0.049,0.809,0.152,1.156-0.082
	C27.763,46.642,26.929,46.534,26.832,46.824z M16.097,46.99c-0.137,0-0.273,0-0.41,0C15.561,47.244,16.227,47.244,16.097,46.99z"/>
</svg>
