<?xml version="1.0" encoding="utf-8"?>
<!-- Generator: Adobe Illustrator 15.0.2, SVG Export Plug-In  -->
<!DOCTYPE svg PUBLIC "-//W3C//DTD SVG 1.1//EN" "http://www.w3.org/Graphics/SVG/1.1/DTD/svg11.dtd" [
	<!ENTITY ns_flows "http://ns.adobe.com/Flows/1.0/">
]>
<svg version="1.1"
	 xmlns="http://www.w3.org/2000/svg" xmlns:xlink="http://www.w3.org/1999/xlink" xmlns:a="http://ns.adobe.com/AdobeSVGViewerExtensions/3.0/"
	 x="0px" y="0px" width="132px" height="46px" viewBox="0 0 132 46" enable-background="new 0 0 132 46" xml:space="preserve">
<defs>
</defs>
<path fill="#ED1C24" d="M132.31,39.515v-3.293c-16.176-1.568-25.593-9.898-34.854-18.385v-2.893c0.007-0.023,0.02-0.039,0.023-0.064
	c0.064-0.473,0.062-0.902-0.004-1.32c0.006-0.072,0.006-0.145,0.008-0.218c0.058-0.199,0.118-0.391,0.131-0.501
	c0.036-0.262-0.021-0.482-0.124-0.67c-0.106-2.789-0.98-5.096-1.403-6.684c-0.304,0.881-0.263,2.316-0.825,3.568
	c0.383-1.354-0.824-1.287-1.096-0.55C93.515,5.573,92.585,2.457,92.243,0c0.212,2.813-0.995,5.981-1.92,8.506
	c-0.079-1.341-1.005-0.056-1.097,0.275c-0.023-1.17-0.459-1.92-0.275-3.294c-0.966,2.09-1.67,4.436-1.668,7.496
	c-0.184,0.389-0.304,0.783-0.379,1.246c-0.07,0.439,0.129,0.805,0.419,1.02c-0.027,0.11-0.108,0.168-0.292,0.117
	c-2.265-0.125-4.901-0.068-7.559-0.004l0,0h-0.002c-2.934,0.07-5.884,0.149-8.375,0h-7.099c-0.006,0.001-0.011,0.002-0.017,0.004
	c-5.019,0.656-13.06-0.463-18.706-0.016c-0.002-0.057-0.002-0.111-0.017-0.169c-0.07-0.319-0.156-0.638-0.252-0.951
	c-0.011-0.071-0.021-0.148-0.034-0.235h0.074c0.331-3.613-0.724-6.716-1.373-8.508c-0.276,0.544,0.216,2.059-0.547,2.744
	c0.045-0.596-0.975-0.123-1.372-0.273C40.928,5.492,40.68,2.444,39.831,0c0.216,3.416-0.771,5.63-1.645,7.958
	c-0.639-0.087-1.054,0.045-1.374,0.273c-0.295-0.893,0.149-2.525-0.822-2.744c0.156,3.113-1.405,4.511-1.13,7.742
	c-0.083,0.25-0.07,0.535,0.06,0.795c0.034,0.082,0.072,0.162,0.107,0.244h-0.135v3.842C25.508,26.288,16.39,34.733,0.32,36.222
	c-0.427,0.629-0.427,2.664,0,3.293c10.883,0.184,22.498-0.365,32.927,0.275v3.988c-0.13,0.394-0.027,0.881,0.192,1.201
	c0.007,0.007,0.011,0.011,0.018,0.018c-0.156,0.283-0.239,0.638-0.21,1.104h13.722c-0.025-0.266-0.083-0.5-0.156-0.717
	c0.14-0.161,0.233-0.357,0.248-0.57c0.032-0.457,0.013-0.649-0.101-1.004c-0.008-0.527,0.013-1.025,0.282-1.276
	c11.56-3.899,27.131-3.903,38.415,0.274v1.627c-0.004,0.008-0.011,0.016-0.013,0.024c-0.216,0.39-0.152,0.767,0.056,1.038
	c-0.016,0.107-0.043,0.205-0.043,0.329c3.474,0.552,7.827,0.222,11.837,0.235c0.3,0.328,0.773,0.325,1.144,0.111
	c0.147,0.006,0.292-0.026,0.432-0.079c0.1,0.003,0.209,0.003,0.31,0.007c-0.009-0.059-0.032-0.102-0.041-0.156
	c0.291-0.223,0.466-0.575,0.316-0.98c-0.092-0.248-0.186-0.488-0.275-0.732v-4.717H132.31z M1.966,37.319
	c0.062-0.854,1.367-0.463,2.196-0.549C4.328,37.854,2.655,37.093,1.966,37.319z M33.797,20.307c-0.381,0.81-1.27,1.111-1.647,1.921
	C31.613,21.586,32.986,20.515,33.797,20.307z M24.191,29.089c-0.124,0.79-1.182,0.646-1.373,1.369
	C22.397,30.196,23.175,28.819,24.191,29.089z M21.722,29.089c0.244,0.168,0.491,0.329,0.55,0c0.745,0.248-0.28,0.959-0.276,1.369
	C21.401,30.505,21.871,29.485,21.722,29.089z M20.897,29.91c0.374,0.085,0.229,0.687,0.273,1.099h-1.096
	C20.154,30.449,20.818,30.471,20.897,29.91z M20.624,31.556c-0.22,0.695-1.13,0.701-1.646,1.1c-0.673,0.58,0.41-0.289,0.273-0.824
	C19.57,31.601,19.987,31.47,20.624,31.556z M14.038,33.478c0.596-0.047,0.124,0.975,0.275,1.371
	c-0.223-0.143-0.444-0.284-0.825-0.273C13.29,33.827,14.033,34.022,14.038,33.478z M4.709,38.143c-0.402-0.069,2.969-1.263,3.021,0
	H4.709z M11.02,38.143c-0.923-0.174-2.549,0.354-3.017-0.274c0.374-0.998,1.995-0.746,3.017-1.098V38.143z M14.587,37.868
	c-0.558,0.63-2.279,0.1-3.294,0.274v-1.646c1.436,0.063,1.788-0.958,3.294-0.823C14.299,35.958,14.021,37.632,14.587,37.868z
	 M14.862,38.143v-3.02c1.126-0.061,1.797-0.58,2.47-1.096c1.029-0.104-0.41,3.137,0.547,3.841
	C17.411,38.497,15.785,37.969,14.862,38.143z M18.154,31.282h0.824c0.203,0.846-0.754,0.527-0.551,1.373
	C17.834,32.7,18.304,31.681,18.154,31.282z M21.171,38.143h-3.017v-4.39c0.662-0.711,1.974-0.77,2.47-1.647
	C21.865,33.062,20.836,36.283,21.171,38.143z M24.74,38.143h-3.019c-0.261-4.01-0.265-7.766,2.743-8.507
	C25.104,31.925,24.559,35.396,24.74,38.143z M28.035,38.143h-3.021c-0.019-4.685-0.765-10.095,2.743-11.25
	C28.398,30.095,27.849,34.483,28.035,38.143z M31.601,38.143h-3.019c0.247-5.515-1.248-12.772,2.745-14.543
	C31.964,27.898,31.419,33.386,31.601,38.143z M35.168,38.143c-1.015-0.175-2.734,0.355-3.294-0.274
	c0.35-6.184-1.43-15.889,2.749-17.448c-0.101,1.097,0.023,2.135,0.432,2.853c0.03,0.053,0.068,0.094,0.106,0.139
	c0.003,0.139,0.005,0.275,0.011,0.411c-0.049,0.502-0.051,1.003,0.021,1.493c0,0.017,0.002,0.035,0,0.051
	c0,0.041,0.02,0.072,0.021,0.109c0,0.002,0,0.004,0,0.004c-0.07,0.643-0.002,1.493,0.077,2.309
	c-0.054,0.631-0.099,1.261-0.137,1.889c-0.09,0.204-0.092,0.381-0.032,0.535c-0.025,0.38-0.045,0.76-0.066,1.139
	c-0.009,0.175,0.028,0.318,0.088,0.443C35.087,34.544,35.499,37.159,35.168,38.143z M46.969,41.71c0.617-0.594-0.229-0.937,0-1.92
	c0.72,0.283,0.921,1.086,1.643,1.37C48.276,41.556,47.672,41.681,46.969,41.71z M48.89,40.612c-0.639-0.186-0.735-0.912-1.374-1.098
	c-0.045-0.595,0.972-0.124,1.374-0.275V40.612z M49.438,41.16v-1.097C50.52,40.011,50.951,41.409,49.438,41.16z M51.359,40.338
	c-0.573-0.16-0.887-0.577-1.374-0.823c0.232-0.408,0.69-0.591,1.374-0.55V40.338z M51.908,40.612v-1.098
	c0.318,0.409,1.139,0.324,1.096,1.098H51.908z M81.541,40.338c-0.595,0.046-0.122-0.974-0.273-1.373
	c0.662-0.112,0.596,0.502,1.373,0.274C82.391,39.724,81.628,39.694,81.541,40.338z M81.818,40.888
	c-0.086-0.635,0.793-0.306,0.822-0.824c0.372,0.084,0.227,0.687,0.273,1.097C82.423,41.195,82.335,40.825,81.818,40.888z
	 M83.736,40.612c-0.412-0.239,0.075-0.41-0.275-1.098c0.32-0.23,0.737-0.361,1.374-0.275C84.648,39.878,83.923,39.976,83.736,40.612
	z M85.384,41.71c-0.775,0.227-0.712-0.386-1.374-0.274c0.188-0.638,0.915-0.733,1.101-1.372
	C85.715,40.098,85.226,41.228,85.384,41.71z M87.58,31.009v7.134c-14.151-0.791-29.093-0.182-42.808-0.274v-6.383
	c0.142-1.492,0.28-3.004-0.049-4.418c-0.002-3.387,0.29-6.906,0.598-8.957h41.983c0.25,4.641,0.497,6.761,0.275,11.25h0.063
	c-0.011,0.266-0.006,0.531,0.007,0.797c-0.023,0.01-0.049,0.018-0.07,0.028v0.549c0.032-0.003,0.063-0.003,0.096-0.006
	c0.005,0.071,0.009,0.144,0.011,0.213c0,0.026,0.011,0.042,0.015,0.067H87.58z M130.387,37.319
	c-0.788-0.033-1.796,0.148-2.193-0.274C128.325,36.666,130.667,36.378,130.387,37.319z M125.448,37.595
	c0.576-0.139,0.722,0.214,1.098,0.273c3.288,0.518-0.56,0.603-1.645-0.273H125.448z M121.606,36.771
	c0.863,0.324,2.068,0.309,2.745,0.824c0.039,1.135-1.909,0.284-2.745,0.548V36.771z M121.058,38.143h-3.017v-2.745
	c0.955,0.418,1.701,1.043,3.017,1.099V38.143z M118.041,33.478c0.556,0.08,0.536,0.742,1.097,0.824
	c-0.063,0.395-0.82,0.094-0.823,0.547C117.717,34.896,118.188,33.875,118.041,33.478z M114.745,34.027
	c0.948,0.517,2.117,0.81,3.019,1.37c-0.062,0.7-0.27,2.203,0,2.471c-0.468,0.629-2.092,0.101-3.019,0.274V34.027z M111.18,29.636
	c0.707,0.025,0.391,1.072,1.096,1.099c-0.083,0.372-0.686,0.228-1.096,0.274V29.636z M113.647,32.38
	c-0.55,0.795-1.016-0.791-1.919-0.549C112.389,30.925,113.186,32.181,113.647,32.38z M111.18,31.831
	c1.019,0.721,2.087,1.387,3.292,1.922v4.39h-3.292V31.831z M110.082,30.186c-0.408,0.567-1.233-0.764-1.923-0.825
	C108.922,28.442,109.447,30.071,110.082,30.186z M107.886,29.636c1.042,0.697,2.055,1.423,3.021,2.195v6.312h-3.021V29.636z
	 M104.32,26.893c1.072,0.756,2.202,1.455,3.019,2.468v8.782h-3.019V26.893z M101.025,23.874c0.973,0.948,2.194,1.646,3.021,2.743
	v11.525h-3.021V23.874z M100.477,22.228c-0.874-0.41-1.09-1.473-1.923-1.921C98.906,20.151,100.404,21.192,100.477,22.228z
	 M97.183,37.868v-5.756c0.021-0.07,0.049-0.137,0.06-0.219c0.147-1.363,0.147-2.876,0.131-4.25c-0.007-0.518-0.082-0.995-0.239-1.44
	c-0.039-2.066-0.041-3.997,0.322-6.171c4.888,2.159,2.448,11.641,3.021,18.11C99.462,37.968,97.742,38.498,97.183,37.868z"/>
</svg>
