<?xml version="1.0" encoding="utf-8"?>
<!-- Generator: Adobe Illustrator 15.0.2, SVG Export Plug-In  -->
<!DOCTYPE svg PUBLIC "-//W3C//DTD SVG 1.1//EN" "http://www.w3.org/Graphics/SVG/1.1/DTD/svg11.dtd" [
	<!ENTITY ns_flows "http://ns.adobe.com/Flows/1.0/">
]>
<svg version="1.1"
	 xmlns="http://www.w3.org/2000/svg" xmlns:xlink="http://www.w3.org/1999/xlink" xmlns:a="http://ns.adobe.com/AdobeSVGViewerExtensions/3.0/"
	 x="0px" y="0px" width="24px" height="94px" viewBox="0 0 24 94" enable-background="new 0 0 24 94" xml:space="preserve">
<defs>
</defs>
<path fill="#123D5A" d="M24.291,91.178c0,0.871,0,1.742,0,2.615c-3.27,0.652-2.746-2.488-4.482-3.363
	c-2.51,0.106-3.623,1.609-4.484,3.363c-1.746,0-3.489,0-5.232,0C8.716,92.55,8.331,90.32,5.607,90.43
	c-2.1,0.89-1.617,4.361-5.607,3.363c0-0.375,0-0.748,0-1.121c1.824-1.645,2.589-3.533,2.243-5.605
	c2.871-0.617,3.531-3.442,5.231-5.231c-3.271-2.795-1.815-9.696,1.867-10.837c0-11.086,0-22.172,0-33.257
	c-0.16-1.617-1.884-1.615-2.241-3.363c-0.61-2.991,1.19-5.48,3.739-6.353c-0.282-2.86,1.396-7.582-0.748-10.836
	c0.144-1.475,1.205-2.031,1.867-2.989c-0.626-3.707-0.124-6.497,0-10.837C11.984,2.51,11.275,0.569,12.707,0
	c-0.294,5.835,0.686,8.384,0.371,13.826c0.326,1.297,1.166,2.073,1.873,2.989c-1.787,2.317-1.039,8.076-0.75,10.462
	c1.049,1.962,3.928,2.413,4.109,5.231c0.125,1.914-1.123,3.381-2.615,4.858c0.145,9.605-0.08,21.697,0,33.257
	c4.008,1.41,6.119,8.074,2.242,11.21c1.375,1.989,2.369,4.356,4.857,5.231C23.287,88.51,22.48,90.418,24.291,91.178z M11.585,42.225
	c0.624,0,1.243,0,1.868,0c0-1.246,0-2.491,0-3.736c-0.625,0-1.244,0-1.868,0C11.479,40.455,11.98,40.704,11.585,42.225z
	 M11.585,47.83c0.624,0,1.243,0,1.868,0c-0.119-1.373,0.318-3.308-0.375-4.11c-0.371,0-0.745,0-1.119,0
	C11.267,44.522,11.707,46.457,11.585,47.83z M11.585,53.436c0.624,0,1.243,0,1.868,0c0-1.371,0-2.74,0-4.111
	c-0.496,0-0.996,0-1.494,0C11.267,50.127,11.707,52.063,11.585,53.436z M11.585,58.667c0.624,0,1.243,0,1.868,0
	c0-1.245,0-2.491,0-3.736c-0.625,0-1.244,0-1.868,0C11.585,56.176,11.585,57.422,11.585,58.667z M11.585,64.271
	c0.624,0,1.243,0,1.868,0c0-1.245,0-2.49,0-3.736c-0.625,0-1.244,0-1.868,0C11.585,61.781,11.585,63.026,11.585,64.271z
	 M11.585,69.877c0.624,0,1.243,0,1.868,0c0-1.37,0-2.74,0-4.11c-0.496,0-0.996,0-1.494,0C11.267,66.568,11.707,68.504,11.585,69.877
	z M9.342,90.43c-0.241-1.999,0.491-4.975-0.374-6.354C7.601,85.971,5.87,89.527,9.342,90.43z M15.695,90.43
	c4.002-0.712,2.012-4.929,0-6.354C15.695,86.194,15.695,88.312,15.695,90.43z"/>
</svg>
