<?xml version="1.0" encoding="utf-8"?>
<!-- Generator: Adobe Illustrator 15.0.2, SVG Export Plug-In  -->
<!DOCTYPE svg PUBLIC "-//W3C//DTD SVG 1.1//EN" "http://www.w3.org/Graphics/SVG/1.1/DTD/svg11.dtd" [
	<!ENTITY ns_flows "http://ns.adobe.com/Flows/1.0/">
]>
<svg version="1.1"
	 xmlns="http://www.w3.org/2000/svg" xmlns:xlink="http://www.w3.org/1999/xlink" xmlns:a="http://ns.adobe.com/AdobeSVGViewerExtensions/3.0/"
	 x="0px" y="0px" width="24px" height="87px" viewBox="0 0 24 87" enable-background="new 0 0 24 87" xml:space="preserve">
<defs>
</defs>
<path fill="#6590A4" d="M23.924,83.223c-0.373-0.037-0.959,0.139-0.986-0.246c-0.322-4.653-0.827-9.127-1.11-13.819
	c-0.329-0.165-0.948-0.039-1.11-0.37c0-0.412,0-0.823,0-1.234l-0.135-0.001c0-0.33,0-0.656-0.002-0.955
	c-1.924-1.329-1.378-5.129-1.895-7.865c0.244-0.071,0.484-0.146,0.668-0.278c0.284-1.148-0.229-2.33-0.166-3.514
	c0.086-1.674-0.088-3.326-0.168-5.076c0.139-0.083,0.252-0.195,0.334-0.334c-0.087-2.201-0.555-4.316-0.668-6.303
	c0.223,0.055,0.334,0.055,0.557,0c1.043-0.739,1.143-2.602,1.228-4.128c1.259,0.106,3.021-1.736,2.286-2.9
	c0.189-0.146,0.344-0.326,0.446-0.557c-0.187-0.198-0.086-0.406,0.112-0.725c-0.449-0.267-0.914-0.696-1.507-1.171
	c-0.204-0.164-1.292-1.184-1.505-1.172c-0.195,0.011-0.359,0.74-0.67,0.223c-0.2,0.265-0.391,0.539-0.613,0.781
	c-0.283-0.256-0.666-0.412-0.893-0.724c0.025-1.677-0.018-2.919-0.838-3.849c-0.24-0.273-0.623-0.392-0.724-0.669
	c-0.065-0.182,0.019-0.451,0-0.613c-0.105-0.926-0.593-1.678-0.837-2.622c0.627-0.37,0.127-1.213-0.056-1.729
	c0.173-0.05,0.389-0.058,0.39-0.279c-0.217-0.606-0.453-0.83-0.279-1.618c0.926-0.395,1.922-0.719,2.846-1.116
	c-1.029,0.03-2.188,0.229-3.123,0.167c-0.029-0.082-0.083-0.14-0.112-0.223c0.772-0.771,2.038-1.346,2.677-2.063
	c-0.498,0.271-1.151,0.482-1.784,0.725c-0.565,0.217-1.284,0.758-1.785,0.334c0.423-1.083,1.171-2.139,1.507-3.123
	C15.33,16.848,14.65,17.643,14,18.294c-0.208,0.208-0.453,0.567-0.781,0.502c-0.336-1.114-0.49-2.41-0.837-3.513
	c-0.126,0.572-0.188,1.258-0.279,1.896c-0.091,0.636-0.09,1.328-0.446,1.729c-1.014-0.678-1.852-1.532-2.79-2.287
	c0.51,1.015,1.153,1.897,1.674,2.9c-0.366,0.356-1.017-0.019-1.561-0.167c-0.615-0.167-1.245-0.353-1.73-0.391
	c0.843,0.533,1.774,0.978,2.51,1.617C9.187,21.124,7.948,21,7.083,21.25c-0.169-0.156-0.487-0.17-0.669-0.167
	c-0.619-1.394-0.758-3.096-1.283-4.797c-0.236-0.763-0.435-1.608-0.614-2.455c-0.19-0.896-0.497-1.842-0.446-2.621
	c0.06-0.922,0.388-1.514,0.334-2.286C4.38,8.558,4.271,8.062,4.071,7.753C3.902,7.492,3.38,7.288,3.458,6.805
	c0.29-0.215,0.324-0.781,0.446-1.004c0.41-0.019,0.639,0.143,1.06,0.112c0.137-0.348,0.139-0.827,0.167-1.283
	C4.753,4.264,3.988,4.286,3.458,4.072c0-0.187,0-0.372,0-0.558C4.447,2.848,4.738,1.485,4.908,0C4.327,0.687,2.482,1.04,1.729,1.84
	c-0.63,0.67-0.214,1.248-0.223,2.343C0.957,4.286,0.435,4.413,0,4.629c0.07,0.506,0.118,1.034,0.334,1.395
	c0.277-0.022,0.723-0.169,0.892-0.111c0.108,0.461-0.19,0.516-0.167,0.892C1.18,7.167,1.587,7.244,1.785,7.531
	C1.42,8.395,1.836,8.953,1.729,9.929c0.537,0.441,0.187,1.512,0.279,2.454c0.544,0.727,0.481,2.027,0.613,3.179
	c0.297,2.588,0.804,5.082,1.339,7.251c-0.733,1.376-2.179,4.801-0.167,5.801c-0.125,0.179-0.031,0.524,0,0.725
	c0.477,0.192,0.488,0.85,1.004,1.004C4.489,31,3.835,31.81,3.904,32.685c0.038,0.484,0.479,0.712,0.447,1.227
	c0.101,0.178,0.431,0.127,0.613,0.223c0,0.187,0,0.372,0,0.558c0.44,0.293,0.284,0.839,0.558,1.283
	c-0.704,0.78-2.492,4.33-0.112,4.183c-0.111,1.207-1.016,2.477-0.781,3.736c0.047,0.252,0.297,0.428,0.335,0.67
	c0.088,0.572-0.174,1.071,0.279,1.34c-0.216,0.582-0.351,1.113-0.391,1.672c-0.069,0.965,0.296,1.774,0.391,2.733
	c0.101,1.024,0.085,2.323-0.111,3.347c-0.046,0.24-0.204,0.475-0.223,0.725c-0.017,0.214,0.053,0.461,0.056,0.669
	c0.011,1.221-0.328,2.429-0.223,3.626c0.074,0.842,0.388,1.632,0.446,2.455c0.091,1.276-0.328,2.445-0.167,3.736
	c-0.018,0.147,0.312-0.053,0.223,0.168c0.045,1.049-0.603,1.404-1.506,1.505c0,0.356,0,0.711,0,1.066
	c-0.097,0.312-0.015,0.805-0.048,1.181c-0.32,0.174-0.816,0.171-1.11,0.37C2.295,73.934,1.68,78.377,1.344,83.1
	c-0.329,0-0.658,0-0.988,0c-0.065,1.209-0.243,2.307-0.247,3.579c4.196,0.082,8.72-0.165,12.71,0.123c3.784,0,7.568,0,11.351,0
	C24.138,85.561,24.004,84.42,23.924,83.223z M9.482,21.642c0.086,0.471,0.011,1.103,0.278,1.393
	c-0.236,0.471-0.477,0.938-0.614,1.506c-0.161-0.072-0.396-0.072-0.558,0c-0.118-0.439-0.24-0.875-0.614-1.059
	c0.094-0.931-0.72-0.954-0.725-1.785C8.042,21.726,8.676,21.598,9.482,21.642z"/>
</svg>
