<?xml version="1.0" encoding="utf-8"?>
<!-- Generator: Adobe Illustrator 15.0.2, SVG Export Plug-In  -->
<!DOCTYPE svg PUBLIC "-//W3C//DTD SVG 1.1//EN" "http://www.w3.org/Graphics/SVG/1.1/DTD/svg11.dtd" [
	<!ENTITY ns_flows "http://ns.adobe.com/Flows/1.0/">
]>
<svg version="1.1"
	 xmlns="http://www.w3.org/2000/svg" xmlns:xlink="http://www.w3.org/1999/xlink" xmlns:a="http://ns.adobe.com/AdobeSVGViewerExtensions/3.0/"
	 x="0px" y="0px" width="87px" height="47px" viewBox="0 0 87 47" enable-background="new 0 0 87 47" xml:space="preserve">
<defs>
</defs>
<path fill="#6590A4" d="M70.282,9.341c0.258-1.195-0.744-1.131-0.93-1.884V7.41H69.34c-0.028-0.15-0.036-0.32,0.013-0.545
	c6.654-0.777,13.569-1.293,17.648-4.645c-2.722-0.654-6.627,0.182-9.599,0.31c-1.759-1.774-7.174-0.567-10.525-0.31
	c-0.005-0.822,0.117-1.768-0.311-2.167c-2.1-0.241-3.292,0.423-5.264,0.31c-1.155-0.123-0.13,1.934-0.929,2.167
	c-0.946-0.224-1.128,0.316-1.856,0.31c-0.048-1.16,2.102-1.148,0.927-2.477c-1.329-1.239-2.068,1.146-1.856,2.477
	c-0.876-0.256-0.804,0.437-1.549,0.311c-1.371,0.09,1.004-1.459-0.929-1.549c-1.836-0.188,0.102,1.604-0.618,1.857
	c-1.256,0.602-2.893,0.823-4.644,0.93c-0.415-1.859,1.65-1.238,1.236-3.098c-0.378-0.439-1.182-0.702-1.547-0.309
	c-1.401,0.912,0.511,1.605,0,3.406c-0.716,0.245-1.025,0.259-2.478,0.309c-1.757-0.291,1.668-1.818-0.31-2.477
	c-1.854,0.063,0.085,1.994-0.928,2.787c-1.468,0.149,0.72-2.123-1.239-1.857c-0.921,0.026-0.829,1.846,0.31,1.547
	c-1.07,0.737-1.356,0.443-3.098,0.62c-0.391-1.63,0.644-1.836,0.62-3.097c-0.891-0.566-0.968-0.502-2.166-0.31
	c-0.915,1.622,1.693,1.327,1.236,3.406c-8.795,0.7-18.47,0.519-27.554,0.929c0-1.032,0-2.064,0-3.096c-1.549,0-3.098,0-4.645,0
	c-0.474,0.448,0.52,2.601-0.31,3.404c-3.027-0.24-5.138,0.438-8.05,0.311C0.189,7.478,0.196,9.02,0.619,9.961
	c0.066,0.344,0.444,0.376,0.885,0.345v15.278c-0.045,6.549-0.07,13.223-0.575,19.363c-0.31,0-0.619,0-0.929,0
	c0,0.516,0,1.031,0,1.549c0.484,0.072,0.993,0.121,1.504,0.17v0.139h2.104c2.125,0.084,4.377,0.043,6.629,0h6.171
	c-0.002-3.201,0.708-5.691,0.62-8.979c0.563,1.359,0.558,6.773,0.929,8.979c0.311,0,0.62,0,0.93,0
	c-0.667-8.029-1.117-16.605-0.619-25.079c0.177-3.021,0.876-6.08,0.619-8.67c-0.178-1.789-0.927-1.889-0.93-3.095
	c3.73,0.221,6.687-0.331,10.216-0.31c-1.125,2.482-0.617,5.521-0.617,8.359c0,9.409,0,20.026,0,28.793c0.417,0,0.831,0,1.248,0
	c0.308,0,0.613,0,0.918,0h0.93c0.31,0,0.619,0,0.93,0h1.236c0.207,0,0.415,0,0.62,0h1.238c0.208,0,0.413,0,0.62,0h1.239
	c0.205,0,0.412,0,0.617,0h1.239c0.207,0,0.412,0,0.619,0h1.239c0.205,0,0.412,0,0.619,0h1.237c1.446,0,2.891,0,4.334,0
	c-1.395-11.816-4.097-23.79-1.547-36.225c0.095-0.816-0.646-0.798-1.238-0.928c2.269-1.033,6.161-0.445,8.979-0.93
	c0.007,6.131,0.137,12.14,0.275,18.139v19.943h0.344c5.367,0,10.733,0,16.1,0c1.756,0,3.51,0,5.264,0
	C72.943,34.328,68.917,23.094,70.282,9.341z M42.106,33.396c0.027,0.115,0.032,0.248,0,0.404V33.396z M42.106,29.848v-0.381
	C42.155,29.621,42.146,29.746,42.106,29.848z M42.106,27.99v-0.381C42.155,27.764,42.146,27.889,42.106,27.99z M42.106,26.133
	v-0.381C42.155,25.906,42.146,26.031,42.106,26.133z M42.106,24.273v-0.381C42.155,24.049,42.146,24.172,42.106,24.273z
	 M42.106,22.416v-0.38C42.155,22.191,42.146,22.314,42.106,22.416z M42.106,12.818v-0.381
	C42.155,12.592,42.146,12.716,42.106,12.818z M42.106,10.96V10.58C42.155,10.734,42.146,10.859,42.106,10.96z M41.679,10.27h-0.81
	C41.126,10.284,41.431,10.248,41.679,10.27z M39.82,10.27h-0.81C39.267,10.284,39.574,10.248,39.82,10.27z M37.962,10.27h-0.81
	C37.408,10.284,37.716,10.248,37.962,10.27z M35.861,10.27h-0.565C35.507,10.248,35.695,10.248,35.861,10.27z M32.391,10.27h-0.81
	C31.837,10.284,32.143,10.248,32.391,10.27z M42.106,45.018v-0.379C42.155,44.793,42.146,44.916,42.106,45.018z M42.106,43.16
	v-0.379C42.155,42.934,42.146,43.059,42.106,43.16z M42.106,41.303v-0.381C42.155,41.076,42.146,41.201,42.106,41.303z
	 M42.106,39.684v-0.691C42.189,39.141,42.207,39.355,42.106,39.684z M43.965,34.422c0.391,3.338,0.953,8.594,1.549,12.074
	c-0.827,0-1.651,0-2.479,0c-0.029-4.779,0.462-9.035,0.62-13.623C44.224,32.246,43.945,34.254,43.965,34.422z M72.45,46.496
	c-1.034,0-2.065,0-3.098,0v-7.947c0.064-3.885,0.203-7.549,0.31-11.25c0.165-0.477,0.323-0.02,0.31,0.311
	C70.632,34.07,71.896,39.928,72.45,46.496z"/>
</svg>
