<?xml version="1.0" encoding="utf-8"?>
<!-- Generator: Adobe Illustrator 15.0.2, SVG Export Plug-In  -->
<!DOCTYPE svg PUBLIC "-//W3C//DTD SVG 1.1//EN" "http://www.w3.org/Graphics/SVG/1.1/DTD/svg11.dtd" [
	<!ENTITY ns_flows "http://ns.adobe.com/Flows/1.0/">
]>
<svg version="1.1"
	 xmlns="http://www.w3.org/2000/svg" xmlns:xlink="http://www.w3.org/1999/xlink" xmlns:a="http://ns.adobe.com/AdobeSVGViewerExtensions/3.0/"
	 x="0px" y="0px" width="11px" height="99px" viewBox="0 0 11 99" enable-background="new 0 0 11 99" xml:space="preserve">
<defs>
</defs>
<path fill="#ED1C24" d="M4.486,0c0.131,0,0.262,0,0.391,0c0.194,5.918,0.65,11.576,0.586,17.753
	c-0.095,0.875,0.688,0.872,0.779,1.561C5.406,22.51,6.059,27.195,5.853,31.02c-0.208,0.671,0.402,0.162,0.585,0.585
	c0.205,0.474-0.147,1.436,0,2.146c0.122,0.463,1.201-0.029,1.365,0.391c0.053,1.314,0.703,2.029,1.366,2.73
	c-0.358,0.617,0.21,2.162-0.782,2.146c-0.015,0.732,0.842,0.59,0.587,1.561c-0.486,0.556-1.403,0.677-2.536,0.586
	c0.766,19.916,0.691,40.67,4.293,57.749c-3.578,0-7.155,0-10.731,0C2.978,81.669,2.795,61.26,3.121,41.361
	c-0.396-0.515-1.973,0.152-2.146-0.586c-0.681-0.799,0.223-1.272,0.196-1.561c-0.026-0.259-0.355-0.172-0.392-0.391
	c-0.115-0.71-0.207-1.468-0.584-2.34c1.173-0.063,1.507-0.963,1.365-2.341c0.36-0.42,1.765,0.203,1.756-0.585
	c-0.059-3.817,0.734-10.19-0.196-14.242c1.169-1.807,0.347-4.753,0.586-7.414c0.051-0.587,0.315-1.163,0.389-1.756
	C4.504,6.878,4.308,2.88,4.486,0z"/>
</svg>
