<?xml version="1.0" encoding="utf-8"?>
<!-- Generator: Adobe Illustrator 15.0.2, SVG Export Plug-In  -->
<!DOCTYPE svg PUBLIC "-//W3C//DTD SVG 1.1//EN" "http://www.w3.org/Graphics/SVG/1.1/DTD/svg11.dtd" [
	<!ENTITY ns_flows "http://ns.adobe.com/Flows/1.0/">
]>
<svg version="1.1"
	 xmlns="http://www.w3.org/2000/svg" xmlns:xlink="http://www.w3.org/1999/xlink" xmlns:a="http://ns.adobe.com/AdobeSVGViewerExtensions/3.0/"
	 x="0px" y="0px" width="66px" height="33px" viewBox="0 0 66 33" enable-background="new 0 0 66 33" xml:space="preserve">
<defs>
</defs>
<path fill="#325E82" d="M11.625,14.117c0,0-0.824-3.012-0.707-4.134c0.115-1.124-0.117-3.072,0.707-4.727
	C12.452,3.603,14.992,0,14.992,0s15.531,8.742,17.009,8.093l-0.534,3.779h1.964c0,0,0.532-5.707,1.048-4.814
	c0.535,0.916,8.092,4.874,9.689,4.697l-1.834,9.864h0.77c0,0,4.893-6.161,11.221-3.308c0.795,0.358,3.662,7.502,3.662,7.502
	s8.445-0.059,8.326,0c-0.117,0.059,0,4.961-0.588,5.493c-0.594,0.531-0.355,2.186-0.355,2.186L2.884,33.078L0,17.308v-4.903
	c0,0,5.896,1.122,7.194,0l3.308,2.186L11.625,14.117z"/>
</svg>
