<?xml version="1.0" encoding="utf-8"?>
<!-- Generator: Adobe Illustrator 15.0.2, SVG Export Plug-In  -->
<!DOCTYPE svg PUBLIC "-//W3C//DTD SVG 1.1//EN" "http://www.w3.org/Graphics/SVG/1.1/DTD/svg11.dtd" [
	<!ENTITY ns_flows "http://ns.adobe.com/Flows/1.0/">
]>
<svg version="1.1"
	 xmlns="http://www.w3.org/2000/svg" xmlns:xlink="http://www.w3.org/1999/xlink" xmlns:a="http://ns.adobe.com/AdobeSVGViewerExtensions/3.0/"
	 x="0px" y="0px" width="68px" height="48px" viewBox="0 0 68 48" enable-background="new 0 0 68 48" xml:space="preserve">
<defs>
</defs>
<path fill="#325E82" d="M67.371,24.406l-0.275-0.757v-7.356h-3.027v1.17h-1.307v-1.17h-1.805v1.17h-1.309v-1.17h-1.803v1.17h-1.307
	v-1.17h-1.803v1.17H53.43v-1.17h-1.805v1.17h-1.307v-1.17h-1.51V3.506L47.09,1.237V0h-0.617h-0.551l0.07,1.168l-1.453,1.994v4.95
	H42.58v1.642h-1.305V8.112h-1.252v1.642h-1.309V8.112h-1.252v1.642h-1.305V8.112h-1.254v1.642H33.6V8.112h-1.252v1.642H31.04V8.112
	h-1.252v1.642H28.48V8.112h-1.252v1.642h-1.305V8.112h-1.588V2.474L22.48,0.618V0h-0.618v0.618l-1.856,2.957v12.579h-1.995v1.309
	h-1.306v-1.309H14.9v1.309h-1.306v-1.309H11.79v1.309h-1.306v-1.309H8.68v1.309H7.374v-1.309H5.569v1.309H4.262v-1.309h-2.2v7.976
	L0,24.336v1.307l1.375,1.236L1.512,47.71h9.349v-5.638h0.62c0,0-0.457-3.379,1.371-3.383c1.808-0.006,1.448,3.383,1.448,3.383h0.757
	v5.638h12.36V36.023h0.858l-0.021-4.508c0,0,2.254-5.088,5.982-5.076c3.734,0.014,5.705,5.076,5.705,5.076v4.508h1.029V47.71h12.721
	v-5.845h0.482c0,0-0.145-3.401,1.529-3.383c1.752,0.018,1.289,3.383,1.289,3.383h0.617v5.845h9.211V26.879l1.652-1.168v-1.305
	H67.371z"/>
</svg>
