<?xml version="1.0" encoding="utf-8"?>
<!-- Generator: Adobe Illustrator 15.0.2, SVG Export Plug-In  -->
<!DOCTYPE svg PUBLIC "-//W3C//DTD SVG 1.1//EN" "http://www.w3.org/Graphics/SVG/1.1/DTD/svg11.dtd" [
	<!ENTITY ns_flows "http://ns.adobe.com/Flows/1.0/">
]>
<svg version="1.1"
	 xmlns="http://www.w3.org/2000/svg" xmlns:xlink="http://www.w3.org/1999/xlink" xmlns:a="http://ns.adobe.com/AdobeSVGViewerExtensions/3.0/"
	 x="0px" y="0px" width="86px" height="69px" viewBox="0 0 86 69" enable-background="new 0 0 86 69" xml:space="preserve">
<defs>
</defs>
<path fill="#123D5A" d="M85.184,39.145v-0.029c0-0.036-0.009-0.073-0.015-0.112c0.006,0.003,0.011,0.004,0.015,0.005v-7.425
	c0.099-0.091,0.178-0.202,0.225-0.325c0.06,0.008,0.121,0.016,0.182,0.025c0.491-1.07,0.999-2.121,0.815-3.863
	c-0.434-0.158-0.974-0.271-1.56-0.345V27.07c-0.002-0.088-0.011-0.176-0.023-0.262h0.158v-9.963h-0.104
	c0.015-0.066,0.021-0.135,0.021-0.203h0.083c-0.484-4.926-1.051-10.432-1.626-14.639C83.31,1.845,83.184,1.767,82.948,1.8
	c0.104,3.919-0.906,9.743-1.383,14.457c-0.108,0.159-0.153,0.367-0.087,0.609c0.013,0.046,0.029,0.085,0.047,0.126v9.548
	c-0.058,0.074-0.107,0.163-0.135,0.268c-0.028,0.098-0.032,0.202-0.018,0.307c-0.474,0.072-0.91,0.174-1.271,0.305
	c-0.066,1.691,0.356,2.896,1.017,3.863c0.03-0.008,0.063-0.012,0.092-0.018c0.036,0.079,0.088,0.152,0.149,0.215l0,0
	c-0.013,0.002-0.025,0.002-0.038,0.006v7.197c-0.03,0.086-0.047,0.172-0.047,0.258v0.086c0,0.048,0.006,0.09,0.013,0.133
	c-0.425,0.066-0.829,0.148-1.186,0.256c-0.135,1.557,0.358,2.487,0.813,3.455c0.036,0.004,0.077,0.006,0.118,0.01
	c-0.016,0.184,0.036,0.374,0.157,0.543c-0.023,0.018-0.051,0.037-0.072,0.059c-0.072,5.29,0.036,10.191,0.12,15.25
	c-0.311-0.059-0.646-0.072-1.007-0.016c-0.141,0.021-0.273,0.053-0.403,0.089c-0.154,0.028-0.304,0.06-0.455,0.097
	c-0.092-0.035-0.18-0.073-0.284-0.1c-0.083-0.021-0.162-0.034-0.241-0.049c-0.387-2.119-3.358-1.648-3.828-3.684
	c0.029,0.37-0.077,0.657-0.268,0.897c-0.342-0.175-0.709-0.285-1.092-0.3c0.052-0.224,0.133-0.465-0.267-0.598
	c0.045,0.236,0.036,0.43,0.002,0.604c-0.372,0.025-0.743,0.135-1.096,0.346c-0.025,0.016-0.049,0.027-0.075,0.041
	c0.026-0.355-0.09-0.784-0.254-0.787c-0.203,0.209-0.225,0.594-0.212,1.016c-0.295,0.129-0.583,0.249-0.86,0.455
	c-0.394,0.069-0.678,0.246-0.739,0.647c-0.034,0.04-0.075,0.075-0.109,0.116c-0.182-0.361-0.297-0.645-0.316-0.607
	c-0.01,0.006-0.027,0.004-0.038,0.008c-0.051-0.146-0.117-0.288-0.194-0.42c-0.369-2.262-0.079-5.184-0.175-7.721H69.14
	c0.071-0.057,0.131-0.124,0.178-0.203h0.416c0.111-0.77,0.492-1.27,0.406-2.236c-0.279-0.037-0.543-0.064-0.801-0.088
	c0.015-0.107,0.009-0.215-0.03-0.318h0.018v-4.474l0,0c0.09-0.116,0.143-0.259,0.16-0.407h0.247
	c0.093-0.721,0.453-1.174,0.406-2.033c-0.225-0.1-0.495-0.156-0.79-0.189c0.004-0.072,0-0.145-0.023-0.217l0,0v-4.465
	c0.094-0.119,0.145-0.264,0.16-0.415h0.045c0.25-0.767,0.681-1.352,0.608-2.438c-0.293-0.089-0.596-0.157-0.899-0.211
	c0.007-0.085,0.007-0.172-0.011-0.26c-0.019-0.094-0.058-0.184-0.104-0.268v-5.61c0.081-0.115,0.133-0.263,0.133-0.442v-0.174
	c0-0.229-0.084-0.4-0.205-0.525c-0.397-3.316-0.53-7.625-1.149-9.997c-0.005,3.649-0.568,6.736-0.949,10.007
	c-0.141,0.268-0.205,0.593-0.213,0.863c-0.007,0.168,0.051,0.324,0.147,0.453v5.553h0.047c0.002,0.04-0.002,0.079,0.006,0.121
	c0.021,0.086,0.054,0.168,0.097,0.244c-0.327,0.053-0.651,0.132-0.964,0.246c-0.098,1.114,0.142,1.891,0.609,2.438h0.162
	c0.013,0.07,0.027,0.139,0.051,0.203h-0.008v4.287c0,0-0.005,0.003-0.005,0.004c-0.008,0.009-0.017,0.018-0.023,0.026
	c-0.126,0.124-0.207,0.298-0.207,0.525v0.059c-0.198,0-0.393-0.005-0.579-0.021c-0.083,0.966,0.099,1.664,0.406,2.236h0.38
	c0.007,0.071,0.021,0.14,0.047,0.205c-0.008,0-0.013,0-0.019-0.002c-0.101,1.293,0.145,2.93-0.061,4.115
	c-0.149,0.098-0.267,0.229-0.322,0.425c-0.045,0.163-0.027,0.334,0.032,0.489c-0.151,0.017-0.304,0.034-0.464,0.055
	c-0.146,1.025,0.278,1.484,0.406,2.236h0.153c0.032,0.075,0.079,0.143,0.135,0.203h-0.085c-0.041,1.143-0.023,2.59,0.031,3.809
	c-0.081-0.057-0.166-0.096-0.249-0.143c0.038-0.578,0.146-1.225-0.188-1.43c-0.399,0.457-0.549,0.79-0.66,1.129
	c-0.177-0.025-0.354-0.031-0.534-0.019c-0.169-0.126-0.363-0.206-0.56-0.228c-0.085-0.229-0.192-0.45-0.322-0.658
	c0.363-1.776-0.457-3.451-0.16-5.916H63.9c0.016-0.068,0.023-0.137,0.023-0.205h0.32c0.227-0.384,0.259-0.961,0.408-1.422
	c-0.254-0.007-0.455-0.014-0.641-0.021c0.025-0.051,0.043-0.106,0.058-0.162c0-0.001,0-0.003,0-0.004
	c0.015-0.054,0.023-0.112,0.023-0.169v-0.001c0.007-0.116-0.011-0.233-0.051-0.341v-3.166c-0.077-0.023-0.14-0.033-0.208-0.049
	c-0.004-0.053-0.01-0.104-0.021-0.154h0.431c0.034-0.577,0.374-0.848,0.408-1.424c-0.124-0.183-0.395-0.303-0.727-0.373
	c0.014-0.082,0.009-0.157-0.006-0.236h0.122c-0.453-1.163-0.095-2.822,0-4.066h-0.107c0.009-0.048,0.016-0.097,0.016-0.148v-0.088
	c0-0.186-0.054-0.336-0.142-0.453c-0.149-2.316-0.434-5.271-0.784-6.631c0.063,2.553-0.429,4.552-0.604,6.867
	c-0.017,0.067-0.032,0.138-0.032,0.217v0.088c0,0.074,0.014,0.141,0.028,0.204v3.856c-0.07,0.124-0.111,0.258-0.107,0.396
	c-0.2,0.041-0.371,0.096-0.502,0.165c-0.155,0.766,0.246,0.972,0.203,1.626h0.342c-0.038,0.172-0.025,0.357,0.041,0.521
	c-0.322,0.564-0.21,1.569-0.182,2.488c-0.268,0.263-0.299,0.725-0.097,1.037c-0.096,0.006-0.194,0.012-0.308,0.02
	c-0.117,0.66,0.14,0.945,0.203,1.422h0.406c-0.002,0.068,0.006,0.137,0.021,0.205H62.21c-0.03,1.57,0.177,3.379-0.336,4.466
	c-0.089-0.011-0.177-0.023-0.271-0.034c-0.276-0.028-0.748,0.076-1.139,0.219c-0.028-0.004-0.056-0.005-0.081-0.01v-1.186
	c-0.644-0.109-1.184-0.321-1.872-0.387c-0.009-0.064-0.015-0.131-0.032-0.192c0.146-0.009,0.259-0.069,0.278-0.233
	c-0.235-0.065-0.532-0.446-0.791-0.633c-0.182-0.18-0.397-0.33-0.632-0.452v-0.136c-0.606-0.176-1.117-0.444-1.692-0.647
	c-0.189-0.251-0.418-0.44-0.671-0.577c0.056-0.579-0.098-1.191-0.401-1.718c0.113-0.031,0.225-0.062,0.322-0.106
	c-0.493-1.02-2.125-1.828-2.236-2.82c0,0.33,0,0.66,0,0.99c-0.378,0.094-0.677,0.27-0.93,0.49c-0.029-0.041-0.072-0.095-0.119-0.156
	c0.162-0.248,0.22-0.444,0.032-0.537c-0.165-0.03-0.34-0.059-0.511-0.09c-0.043-0.055-0.086-0.109-0.122-0.156
	c-0.113-0.258-0.269-0.497-0.448-0.707c-0.938-2.123-3.486-3.336-6.215-3.592c-0.07-0.099-0.115-0.205-0.135-0.336h0.113
	c-0.053-0.05-0.098-0.107-0.145-0.163c-0.028-0.157-0.111-0.271-0.227-0.341c-0.658-1.294-0.111-3.463-0.849-4.376
	c0.05,2.397,0.039,3.489-0.813,4.88h0.077c-0.064,0.049-0.127,0.099-0.19,0.148c-0.079,0.061-0.126,0.131-0.154,0.201
	c-2.557,0.272-4.902,1.404-5.843,3.435c-0.295,0.285-0.504,0.648-0.626,1.045c-0.155,0.036-0.303,0.075-0.452,0.113
	c-0.297-0.042-0.586-0.034-0.857,0.021c-0.297-0.374-0.502-0.744-0.491-1.1c0,0.418,0,0.836,0,1.254
	c-0.128,0.053-0.247,0.115-0.363,0.188c-0.646,0.078-0.97,0.48-1.222,0.949c-0.327,0.248-0.588,0.586-0.729,1.029
	c-0.391,0.456-0.632,1.042-0.632,1.676v0.139c-0.509,0.139-0.977,0.424-1.367,0.918c-0.4,0.248-0.757,0.535-1.086,0.852
	c-0.513,0.182-0.984,0.51-1.342,0.924c-0.376,0.088-0.715,0.215-0.986,0.408c0.399,0.153,0.303,1.504-0.205,1.424
	c-2.04-0.193-1.577-2.893-1.622-5.082h-0.042c0.013-0.061,0.023-0.123,0.023-0.191v-0.014h0.425
	c-0.101-0.642,0.363-0.717,0.201-1.422h-0.707c0.047-0.133,0.062-0.277,0.045-0.419c0.115-0.034,0.209-0.09,0.256-0.192
	c-0.47-0.682-0.068-2.232-0.201-3.252h-0.053c0.006-0.068,0.006-0.135,0-0.203l0,0H24.4c0.232-0.446,0.523-0.832,0.406-1.626
	c-0.203-0.101-0.428-0.167-0.656-0.214c0.011-0.064,0.02-0.129,0.018-0.193h0.031V33.52c-0.008,0.002-0.017,0-0.027,0.003
	c0.002-0.022,0.009-0.042,0.009-0.065v-0.086c0-0.092-0.02-0.174-0.043-0.25c0.02-0.004,0.045-0.004,0.062-0.01
	c-0.391-2.049-0.474-5.489-0.815-6.912c0.119,1.91-0.765,4.381-0.491,6.586c-0.163,0.125-0.273,0.318-0.273,0.586v0.086
	c0,0.063,0.006,0.118,0.015,0.172c-0.023,0.028-0.049,0.055-0.062,0.093c0.051,0.831,0.053,2.765,0.002,3.792
	c-0.034,0.126-0.034,0.257-0.005,0.387c-0.634,0.277-0.914,0.859-0.2,1.719h0.284l0,0c-0.009,0.068-0.009,0.135,0,0.203h-0.081
	v3.457c0.025-0.006,0.055-0.006,0.081-0.01c-0.016,0.141,0,0.285,0.047,0.416H21.96c-0.02,0.63,0.25,0.971,0.408,1.422h0.25v0.014
	c0,0.068,0.008,0.131,0.021,0.191h-0.068c-0.064,1.629,0.312,3.699-0.611,4.473c0.169,0.246,0.27,0.557,0.371,0.866
	c-0.693,0.423-1.175,1.153-1.249,1.995c-0.043-0.001-0.088-0.005-0.137-0.016c0.408-0.557-0.46-1.197-0.814-1.627v1.67
	c-0.087,0.016-0.173,0.041-0.258,0.066c0.053-1.197-0.192-2.773,0.055-3.973h-0.196c0.025-0.064,0.047-0.133,0.06-0.203h0.34
	c0.248-0.633,0.473-1.287,0.406-2.236c-0.32-0.047-0.615-0.078-0.896-0.1c0.005-0.103,0.009-0.205,0.009-0.307h0.075v-4.367
	c0.083-0.162,0.149-0.336,0.209-0.514h0.196c0.308-0.572,0.491-1.271,0.406-2.236c-0.268-0.023-0.547-0.045-0.829-0.06
	c0.002-0.048,0-0.096-0.002-0.144h0.02v-4.677h-0.061c0.016-0.058,0.028-0.118,0.045-0.178c0-0.003,0.007-0.013,0.009-0.025h0.209
	c0.336-0.681,0.721-1.313,0.609-2.438c-0.261-0.078-0.527-0.134-0.795-0.179c0.009-0.312,0.06-0.615-0.017-0.922v-5.085
	c0.164-0.29,0.173-0.657-0.129-0.896c-0.025-0.02-0.055-0.039-0.081-0.061c0.013-2.945-0.96-6.479-0.81-10.142
	c0-0.205-0.355-0.255-0.405,0c0.203,2.932-0.499,6.482-0.76,9.702c-0.051,0.068-0.092,0.143-0.117,0.236
	c-0.065,0.231-0.008,0.452,0.116,0.635h-0.053v6.1h0.082v0.395c-0.368,0.049-0.734,0.119-1.099,0.217
	c-0.031,1.047,0.261,1.771,0.611,2.438h0.14c0.013,0.027,0.026,0.056,0.043,0.081c0.014,0.043,0.031,0.085,0.052,0.122h-0.032v4.677
	h0.097c-0.005,0.096-0.002,0.189,0,0.283c-0.928,0.254-1.363,0.855-0.503,2.156h0.166c-0.021,0.206,0.018,0.418,0.1,0.605
	c0.011,0.054,0.013,0.126,0.011,0.209c-0.161,0.296-0.104,0.594,0.055,0.818c0.01,0.041,0.022,0.083,0.032,0.124
	c-0.053,0.829,0.055,1.819,0.05,2.694c-0.008,0.018-0.021,0.033-0.026,0.051c-0.019,0.051-0.036,0.102-0.049,0.154
	c-0.021,0.078-0.054,0.139-0.05,0.139c-0.004,0.008-0.009,0.016-0.012,0.023c-0.07,0.134-0.098,0.279-0.094,0.422
	c-0.188,0.015-0.383,0.031-0.59,0.047c-0.146,1.025,0.276,1.484,0.407,2.236h0.378c0.018,0.074,0.048,0.139,0.075,0.203h-0.047
	c0.05,2.249-0.048,5.182-0.021,7.158c-0.073,0.146-0.139,0.296-0.188,0.452c-0.016,0.051-0.023,0.105-0.036,0.159
	c-0.367,0.042-0.726,0.154-1.049,0.326c-0.256-0.159-0.521-0.301-0.684-0.064c-0.518-0.295-1.123-0.473-1.738-0.524
	c-0.35-0.238-0.63-0.542-0.757-1.001c0.13,0.576,0.139,0.433,0.03,0.888c-0.327-0.086-0.643-0.122-0.948-0.116
	c-0.241-0.252-0.426-0.561-0.505-0.975c-0.067,0.648-0.385,1.042-0.803,1.337c-0.065,0.038-0.126,0.081-0.188,0.125
	c-0.997,0.597-2.401,0.786-2.632,2.149c-0.114,0.114-0.22,0.233-0.313,0.363c-0.198,0.005-0.396,0.01-0.594,0.014
	c-0.366,0.008-0.69,0.078-0.977,0.193c-0.198,0.001-0.396,0.031-0.595,0.077v-16.05c-0.062-0.018-0.13-0.037-0.204-0.055
	c0.013-0.114,0.028-0.229,0.043-0.344c0.231-0.002,0.43-0.006,0.567-0.01c0.423-1,0.888-1.959,0.813-3.455
	c-0.354-0.114-0.747-0.195-1.153-0.258c-0.009-0.227-0.029-0.445-0.066-0.657v-7.015c-0.06-0.008-0.114-0.015-0.172-0.021
	c0.064-0.068,0.116-0.143,0.152-0.225c0.075,0.015,0.149,0.025,0.223,0.043c0.562-0.998,1.083-2.036,1.017-3.661
	c-0.354-0.235-0.848-0.403-1.414-0.511C5.053,27,4.993,26.899,4.912,26.809h0.173v-9.963H5.027
	c-0.004-0.067-0.019-0.136-0.038-0.203h0.096C4.414,10.988,3.475,4.781,3.458,0.174c0.312-0.08,0.03-0.245-0.202,0
	c-0.004-0.206-0.357-0.257-0.408,0c0.641,4.185-0.934,10.647-1.213,16.333c-0.096,0.039-0.172,0.129-0.172,0.239v0.086
	c0,0.096,0.058,0.178,0.135,0.223c-0.385,2.673-0.082,6.759-0.153,9.273c-0.165,0.222-0.162,0.551-0.043,0.824
	c-0.556,0.111-1.044,0.271-1.4,0.47c-0.035,1.595,0.571,2.547,1.017,3.661c0.068-0.011,0.139-0.02,0.209-0.028
	c0.04,0.104,0.105,0.208,0.198,0.306v7.123c-0.084,0.15-0.111,0.305-0.125,0.485c-0.458,0.065-0.9,0.146-1.299,0.247
	c-0.032,1.455,0.478,2.369,0.813,3.455c0.08,0.003,0.188,0.004,0.303,0.006v0.242c0,0.156,0.041,0.285,0.104,0.393v24.369
	c1.313,0.11,3.083-0.236,4.066,0.203v-0.18c0.197,0.046,0.396,0.088,0.604,0.123c0.002,0.02,0.004,0.039,0.008,0.057
	c0.01-0.02,0.033-0.03,0.049-0.048c2.472,0.409,5.549,0.054,7.44,0.054c3.846,0,7.821-0.18,11.662,0.262
	c4.265,0.489,8.855-0.095,13.132-0.305c0.368-0.018,0.737-0.041,1.104-0.07c0.056,0.031,0.111,0.06,0.156,0.107v-0.12
	c0.275-0.022,0.551-0.044,0.827-0.071c1.269,0.017,3.661,0.018,5.271,0.006c1.32,0.245,2.741,0.101,4.157,0.115
	c0.372,0.004,0.742-0.002,1.113-0.01c0.007,0.025,0.009,0.056,0.015,0.08c1.023,0.011,1.857-0.007,2.316-0.158
	c0.515-0.025,1.027-0.051,1.544-0.078c0,0.012,0,0.023,0.003,0.033c0.281,0.271,1.328,0.134,2.008,0.152
	c2.666,0.627,6.257-0.1,8.558,0.057c1.987,0.135,3.931,0.088,5.92,0.088c1.235,0,2.521-0.146,3.796-0.21
	c0.547,0.253,1.552,0.049,2.284,0.116c0.002-0.026,0.004-0.055,0.009-0.082c0.502,0.049,1,0.121,1.486,0.256
	c0.729,0.201,1.361,0.102,1.869-0.182c0.113-0.018,0.229-0.037,0.345-0.058c0.013-0.004,0.031-0.005,0.047-0.009
	c0.025-0.004,0.053-0.008,0.081-0.014c0.081-0.015,0.151-0.043,0.229-0.064c0,0.053,0,0.101,0,0.152
	c1.73-0.12,2.794,0.117,4.065-0.203V43.585c0.177-0.188,0.239-0.466,0.192-0.72c0.07,0.003,0.145,0.004,0.216,0.006
	c0.414-0.941,0.713-1.997,0.61-3.455C86.039,39.297,85.625,39.21,85.184,39.145z"/>
</svg>
