<?xml version="1.0" encoding="utf-8"?>
<!-- Generator: Adobe Illustrator 15.0.2, SVG Export Plug-In  -->
<!DOCTYPE svg PUBLIC "-//W3C//DTD SVG 1.1//EN" "http://www.w3.org/Graphics/SVG/1.1/DTD/svg11.dtd" [
	<!ENTITY ns_flows "http://ns.adobe.com/Flows/1.0/">
]>
<svg version="1.1"
	 xmlns="http://www.w3.org/2000/svg" xmlns:xlink="http://www.w3.org/1999/xlink" xmlns:a="http://ns.adobe.com/AdobeSVGViewerExtensions/3.0/"
	 x="0px" y="0px" width="92px" height="36px" viewBox="0 0 92 36" enable-background="new 0 0 92 36" xml:space="preserve">
<defs>
</defs>
<path fill="#6590A4" d="M92.301,34.536c0.117-1.416-2.558-0.045-3.083-0.822c-0.318-1.553,0.372-2.096,0.617-3.084
	c-0.741-0.076-1.479-0.117-2.213-0.137c0.004-0.008,0.007-0.014,0.007-0.021c0.049-0.01,0.094-0.018,0.151-0.047
	c0.329-0.104,0.427-1.41-0.223-1.295c-0.053-0.166-0.121-0.32-0.207-0.467c0.221-0.025,0.43-0.055,0.635-0.088
	c-0.304-0.008-0.599-0.105-0.889-0.256c-0.22-0.242-0.5-0.439-0.853-0.57c-0.984-0.766-1.946-1.744-2.988-1.436
	c-0.081,0.025-0.169,0.053-0.257,0.078c0.275-0.316,0.462-0.658,0.564-1.018c0.337-0.293,0.657-0.6,0.957-0.924
	c0.008-0.01,0.019-0.021,0.029-0.033c0.171-0.189,0.338-0.385,0.496-0.584c0.036-0.039,0.068-0.082,0.101-0.127
	c0.132-0.168,0.261-0.336,0.384-0.51c0.041-0.057,0.079-0.115,0.12-0.17c0.111-0.162,0.22-0.322,0.322-0.484
	c0.041-0.066,0.083-0.129,0.124-0.193c0.096-0.16,0.192-0.316,0.282-0.477c0.036-0.066,0.077-0.131,0.115-0.199
	c0.092-0.164,0.178-0.328,0.263-0.49c0.03-0.059,0.063-0.119,0.092-0.178c0.109-0.219,0.214-0.438,0.314-0.652
	c-0.725,0.428-1.419,0.887-2.094,1.363c-0.018-0.109-0.039-0.219-0.064-0.324c0.896-0.641,1.82-1.26,2.775-1.861
	c-5.411-0.572-11.015,0.045-14.555,2.061c-0.376,0.033-0.714,0.143-1.002,0.309c-0.541-0.303-1.09-0.588-1.664-0.852
	c-1.186-0.547-2.243-1.125-3.395-1.523c1.387-1.99,2.852-3.898,3.963-6.162c-6.373-1.43-13.376-0.029-18.007,2.446
	c-0.103-0.38-0.31-0.716-0.628-0.97c-1.419-1.951-3.371-3.818-5.104-5.125c-0.435-0.444-0.953-0.768-1.56-0.926
	C41.728,4.278,36.345,1.049,28.777,0c0.451,3.666,1.932,7.388,2.058,10.69c-2.81-1.851-6.488-2.831-10.893-3.084
	c0.277,2.179,0.66,4.253,0.817,6.551c-0.013,0.004-0.025,0.006-0.038,0.01c-3.309-1.397-8.639-2.133-12.705-1.011
	c1.513,3.431,2.829,7.055,4.16,10.67c-0.058,0.07-0.111,0.141-0.167,0.209c-0.938-2.613-4.981,0.693-7.487,0.428
	c0.292,1.088,1.636,1.637,3.121,1.734c-0.052,0.1-0.097,0.203-0.135,0.307c-0.515-0.033-1.038-0.1-1.547-0.191
	c-0.254,1.367,0.701,1.955,1.643,2.393c0.101,0.125,0.233,0.281,0.363,0.428c-1.113-0.496-2.356-0.863-3.855-0.969
	c-0.84,0.834-1.367,1.977-1.479,3.535c-0.273,0.732-0.218,1.563,0.18,2.219H0v1.645h29.863c1.754,0.377,3.931,0.055,5.714,0.055
	c0.662,0,1.329-0.021,1.991-0.055h32.532c6.694,0,13.847,0.525,20.143,0C90.741,35.524,92.7,36.094,92.301,34.536z"/>
</svg>
