<?xml version="1.0" encoding="utf-8"?>
<!-- Generator: Adobe Illustrator 15.0.2, SVG Export Plug-In . SVG Version: 6.00 Build 0)  -->
<!DOCTYPE svg PUBLIC "-//W3C//DTD SVG 1.1//EN" "http://www.w3.org/Graphics/SVG/1.1/DTD/svg11.dtd">
<svg version="1.1" id="Calque_1" xmlns="http://www.w3.org/2000/svg" xmlns:xlink="http://www.w3.org/1999/xlink" x="0px" y="0px"
	 width="19.937px" height="71.599px" viewBox="0 0 19.937 71.599" enable-background="new 0 0 19.937 71.599" xml:space="preserve">
<path fill="#D0DBE7" d="M19.733,68.646c-0.308-0.03-0.791,0.113-0.813-0.202c-0.266-3.838-0.683-7.529-0.916-11.399
	c-0.271-0.137-0.781-0.032-0.916-0.305c0-0.34,0-0.681,0-1.018l-0.111-0.002c0.001-0.273,0.001-0.54-0.001-0.787
	c-1.588-1.097-1.138-4.231-1.563-6.487c0.202-0.06,0.399-0.121,0.551-0.231c0.234-0.946-0.187-1.92-0.137-2.898
	c0.071-1.38-0.071-2.742-0.138-4.186c0.115-0.07,0.207-0.163,0.274-0.276c-0.07-1.815-0.456-3.562-0.551-5.2
	c0.184,0.048,0.276,0.048,0.46,0c0.86-0.608,0.941-2.144,1.012-3.403c1.038,0.087,2.493-1.433,1.886-2.393
	c0.156-0.12,0.285-0.271,0.367-0.458c-0.152-0.165-0.07-0.336,0.094-0.599c-0.37-0.221-0.754-0.575-1.242-0.968
	c-0.168-0.134-1.066-0.976-1.242-0.965c-0.158,0.008-0.296,0.608-0.553,0.184c-0.165,0.218-0.322,0.444-0.505,0.644
	c-0.233-0.211-0.549-0.342-0.735-0.598c0.02-1.384-0.015-2.408-0.691-3.175c-0.198-0.227-0.515-0.325-0.598-0.553
	c-0.055-0.149,0.015-0.37,0-0.506c-0.089-0.765-0.488-1.384-0.69-2.162c0.518-0.305,0.104-1.001-0.046-1.426
	c0.144-0.041,0.319-0.047,0.321-0.23c-0.178-0.501-0.373-0.685-0.229-1.335c0.763-0.325,1.586-0.593,2.347-0.92
	c-0.849,0.024-1.807,0.189-2.576,0.138c-0.024-0.067-0.068-0.115-0.095-0.183c0.639-0.637,1.684-1.11,2.211-1.702
	c-0.412,0.222-0.952,0.396-1.474,0.599c-0.465,0.178-1.059,0.623-1.473,0.274c0.351-0.892,0.967-1.764,1.244-2.575
	c-0.559,0.554-1.12,1.21-1.657,1.748c-0.172,0.171-0.372,0.466-0.643,0.414c-0.278-0.92-0.405-1.989-0.691-2.898
	c-0.104,0.471-0.154,1.037-0.229,1.563c-0.075,0.524-0.074,1.097-0.369,1.427c-0.835-0.559-1.526-1.263-2.3-1.887
	c0.422,0.837,0.95,1.565,1.381,2.394c-0.304,0.294-0.839-0.016-1.287-0.139c-0.508-0.138-1.027-0.29-1.428-0.321
	c0.695,0.438,1.463,0.806,2.069,1.332c-0.473,0.447-1.495,0.348-2.208,0.553c-0.139-0.129-0.4-0.14-0.551-0.138
	c-0.512-1.149-0.625-2.554-1.06-3.957c-0.194-0.629-0.359-1.326-0.504-2.025C3.57,10.669,3.316,9.889,3.358,9.248
	c0.049-0.763,0.319-1.249,0.275-1.887C3.613,7.057,3.521,6.647,3.358,6.394c-0.14-0.217-0.57-0.385-0.508-0.783
	C3.092,5.435,3.119,4.967,3.22,4.784C3.559,4.769,3.747,4.9,4.095,4.876C4.206,4.59,4.209,4.194,4.231,3.818
	c-0.311-0.304-0.942-0.283-1.381-0.46c0-0.154,0-0.309,0-0.461C3.668,2.35,3.908,1.225,4.049,0c-0.48,0.565-2.001,0.856-2.624,1.517
	C0.905,2.07,1.25,2.547,1.242,3.448C0.789,3.535,0.357,3.641,0,3.818c0.058,0.416,0.097,0.853,0.276,1.148
	C0.504,4.95,0.871,4.829,1.013,4.876c0.088,0.381-0.159,0.425-0.14,0.734c0.1,0.302,0.435,0.364,0.599,0.601
	c-0.3,0.712,0.043,1.172-0.047,1.979C1.87,8.554,1.58,9.436,1.656,10.213c0.449,0.6,0.397,1.672,0.506,2.622
	c0.245,2.136,0.662,4.19,1.104,5.982c-0.605,1.133-1.798,3.959-0.139,4.783c-0.104,0.148-0.024,0.435,0,0.598
	c0.393,0.16,0.403,0.701,0.828,0.828c-0.254,0.543-0.794,1.212-0.736,1.934c0.032,0.397,0.396,0.587,0.368,1.012
	c0.084,0.146,0.355,0.104,0.507,0.184c0,0.154,0,0.306,0,0.46c0.363,0.242,0.233,0.692,0.459,1.058
	c-0.579,0.645-2.055,3.572-0.091,3.452c-0.093,0.995-0.838,2.043-0.644,3.081c0.037,0.207,0.244,0.352,0.275,0.554
	c0.071,0.47-0.144,0.882,0.229,1.104c-0.179,0.48-0.288,0.919-0.321,1.38c-0.058,0.796,0.243,1.463,0.321,2.254
	c0.084,0.846,0.07,1.915-0.093,2.762c-0.036,0.198-0.167,0.391-0.183,0.598c-0.015,0.176,0.044,0.381,0.046,0.549
	c0.01,1.009-0.271,2.006-0.184,2.992c0.061,0.694,0.318,1.348,0.367,2.025c0.074,1.054-0.27,2.018-0.138,3.082
	c-0.015,0.123,0.257-0.043,0.184,0.139c0.037,0.866-0.498,1.158-1.241,1.242c0,0.294,0,0.586,0,0.88
	c-0.081,0.257-0.014,0.662-0.041,0.974c-0.265,0.142-0.673,0.14-0.916,0.305c-0.232,3.939-0.74,7.605-1.017,11.5
	c-0.271,0-0.544,0-0.815,0c-0.055,0.998-0.199,1.902-0.203,2.952c3.46,0.068,7.192-0.136,10.483,0.103c3.122,0,6.241,0,9.362,0
	C19.91,70.574,19.8,69.634,19.733,68.646z M7.822,17.851c0.07,0.389,0.009,0.91,0.228,1.148c-0.193,0.389-0.393,0.773-0.506,1.243
	c-0.132-0.06-0.326-0.06-0.458,0c-0.1-0.362-0.199-0.723-0.509-0.875c0.079-0.768-0.594-0.784-0.597-1.472
	C6.633,17.92,7.156,17.814,7.822,17.851z"/>
</svg>
